<svg width="32" height="32" viewBox="0 0 32 32" fill="none" xmlns="http://www.w3.org/2000/svg">
<path fill-rule="evenodd" clip-rule="evenodd" d="M13.3903 26.7794C13.8366 26.6943 14.247 26.477 14.5683 26.1557L26.8973 13.8267C28.8239 11.9001 28.8239 8.77648 26.8973 6.8499L25.0594 5.01196C23.1328 3.08537 20.0092 3.08537 18.0826 5.01196L5.7536 17.341C5.43231 17.6623 5.21499 18.0727 5.12986 18.519L3.80776 25.4503C3.6671 26.1877 3.90067 26.947 4.4315 27.4778C4.96234 28.0086 5.72156 28.2422 6.45898 28.1015L13.3903 26.7794ZM7.35638 18.9437L6.03428 25.875L12.9656 24.5529L23.2909 14.2276L17.6817 8.61839L7.35638 18.9437ZM19.2845 7.01562L24.8937 12.6248L25.2946 12.2239C26.336 11.1825 26.336 9.49407 25.2946 8.45267L23.4566 6.61473C22.4152 5.57333 20.7268 5.57333 19.6854 6.61473L19.2845 7.01562Z" fill="white"/>
</svg>
