<svg width="80" height="80" viewBox="0 0 80 80" fill="none" xmlns="http://www.w3.org/2000/svg">
	<path fill-rule="evenodd" clip-rule="evenodd"
		d="M27.7967 49.7955C27.1329 50.4594 27.1329 51.5358 27.7967 52.1997C28.4606 52.8636 29.537 52.8636 30.2009 52.1997L39.9988 42.4018L49.7967 52.1997C50.4606 52.8636 51.537 52.8636 52.2009 52.1997C52.8648 51.5358 52.8648 50.4594 52.2009 49.7955L42.403 39.9976L52.2009 30.1997C52.8648 29.5358 52.8648 28.4594 52.2009 27.7955C51.537 27.1316 50.4606 27.1316 49.7967 27.7955L39.9988 37.5934L30.2009 27.7955C29.537 27.1316 28.4606 27.1316 27.7967 27.7955C27.1329 28.4594 27.1329 29.5358 27.7967 30.1997L37.5947 39.9976L27.7967 49.7955Z"
		fill="white" />
</svg>
