<svg width="80" height="80" viewBox="0 0 80 80" fill="none" xmlns="http://www.w3.org/2000/svg">
<g clip-path="url(#clip0_7792_11446)">
<path d="M59 57.5H74C74.5523 57.5 75 57.0523 75 56.5V16C75 15.4477 74.5523 15 74 15H21C20.4477 15 20 15.4477 20 16V29" stroke="white" stroke-width="2"/>
<path d="M56.7956 17.1097L56.7956 20.0754C64.1653 20.0754 70.1412 26.0513 70.1412 33.4211L73.1069 33.4211C73.1069 24.4202 65.8039 17.1171 56.7956 17.1097ZM56.7956 28.9725V33.4211H61.2441C61.2515 30.9669 59.2571 28.9725 56.7956 28.9725ZM56.7956 23.0411V26.0068C60.8882 26.0068 64.2098 29.3284 64.2098 33.421L67.1755 33.4211C67.1755 27.6973 62.5268 23.0485 56.7956 23.0411Z" fill="white"/>
<path d="M13.5 36.125H51.75V32H13.5C11.1625 32 9.25 33.8562 9.25 36.125V58.8125H5V65H34.75V58.8125H13.5V36.125ZM53.875 40.25H41.125C39.9562 40.25 39 41.1781 39 42.3125V62.9375C39 64.0719 39.9562 65 41.125 65H53.875C55.0438 65 56 64.0719 56 62.9375V42.3125C56 41.1781 55.0438 40.25 53.875 40.25ZM51.75 58.8125H43.25V44.375H51.75V58.8125Z" fill="white"/>
</g>
<defs>
<clipPath id="clip0_7792_11446">
<rect width="80" height="80" fill="white"/>
</clipPath>
</defs>
</svg>
