<svg width="64" height="64" viewBox="0 0 64 64" fill="none" xmlns="http://www.w3.org/2000/svg">
    <path d="M34 48C34 45.7909 35.7909 44 38 44C40.2091 44 42 45.7909 42 48C42 50.2091 40.2091 52 38 52C35.7909 52 34 50.2091 34 48Z"
          fill="white" fill-opacity="0.48"/>
    <path d="M34 32C34 29.7909 35.7909 28 38 28C40.2091 28 42 29.7909 42 32C42 34.2091 40.2091 36 38 36C35.7909 36 34 34.2091 34 32Z"
          fill="white" fill-opacity="0.48"/>
    <path d="M34 16C34 13.7909 35.7909 12 38 12C40.2091 12 42 13.7909 42 16C42 18.2091 40.2091 20 38 20C35.7909 20 34 18.2091 34 16Z"
          fill="white" fill-opacity="0.48"/>
    <path d="M22 48C22 45.7909 23.7909 44 26 44C28.2091 44 30 45.7909 30 48C30 50.2091 28.2091 52 26 52C23.7909 52 22 50.2091 22 48Z"
          fill="white" fill-opacity="0.48"/>
    <path d="M22 32C22 29.7909 23.7909 28 26 28C28.2091 28 30 29.7909 30 32C30 34.2091 28.2091 36 26 36C23.7909 36 22 34.2091 22 32Z"
          fill="white" fill-opacity="0.48"/>
    <path d="M22 16C22 13.7909 23.7909 12 26 12C28.2091 12 30 13.7909 30 16C30 18.2091 28.2091 20 26 20C23.7909 20 22 18.2091 22 16Z"
          fill="white" fill-opacity="0.48"/>
</svg>
