<svg width="16" height="16" viewBox="0 0 16 16" fill="none" xmlns="http://www.w3.org/2000/svg">
    <path fill-rule="evenodd" clip-rule="evenodd"
        d="M8.00026 2.56693C4.99951 2.56693 2.56693 4.99951 2.56693 8.00026C2.56693 11.001 4.99951 13.4336 8.00026 13.4336C11.001 13.4336 13.4336 11.001 13.4336 8.00026C13.4336 4.99951 11.001 2.56693 8.00026 2.56693ZM1.43359 8.00026C1.43359 4.37359 4.37359 1.43359 8.00026 1.43359C11.6269 1.43359 14.5669 4.37359 14.5669 8.00026C14.5669 11.6269 11.6269 14.5669 8.00026 14.5669C4.37359 14.5669 1.43359 11.6269 1.43359 8.00026Z"
        fill="#E34521" />
    <path
        d="M8.00059 4.76693C8.31355 4.76693 8.56725 5.02063 8.56725 5.33359V8.66693C8.56725 8.97989 8.31355 9.23359 8.00059 9.23359C7.68762 9.23359 7.43392 8.97989 7.43392 8.66693V5.33359C7.43392 5.02063 7.68763 4.76693 8.00059 4.76693Z"
        fill="#E34521" />
    <path
        d="M7.33392 10.6669C7.33392 11.0336 7.63392 11.3336 8.00059 11.3336C8.36725 11.3336 8.66725 11.0336 8.66725 10.6669C8.66725 10.3003 8.36725 10.0003 8.00059 10.0003C7.63392 10.0003 7.33392 10.3003 7.33392 10.6669Z"
        fill="#E34521" />
</svg>
