<svg width="24" height="24" viewBox="0 0 24 24" fill="none" xmlns="http://www.w3.org/2000/svg">
    <path d="M17.0895 8.17133C17.1046 7.94571 16.9686 7.73734 16.756 7.6603C16.5434 7.58325 16.3055 7.65611 16.1725 7.83898L11.0961 14.819C10.9838 14.9734 10.9677 15.1778 11.0543 15.3479C11.1409 15.5181 11.3157 15.6252 11.5067 15.6252H15.7206L15.4421 19.5232C15.4261 19.7471 15.5591 19.9549 15.7691 20.0343C15.9791 20.1136 16.2162 20.0456 16.3523 19.867L21.4286 13.2043C21.5456 13.0508 21.5654 12.8443 21.4798 12.6714C21.3941 12.4984 21.2178 12.389 21.0249 12.389H16.8084L17.0895 8.17133Z" fill="white"/>
    <path d="M2.19922 7.0002C2.19922 5.4538 3.45282 4.2002 4.99922 4.2002H17.9992C19.5456 4.2002 20.7992 5.4538 20.7992 7.0002V10.8891H19.1992V7.0002C19.1992 6.33745 18.662 5.8002 17.9992 5.8002H4.99922C4.33648 5.8002 3.79922 6.33745 3.79922 7.0002V14.7002H9.5429C9.44901 15.1422 9.50516 15.6115 9.71763 16.0287C9.76637 16.1244 9.82216 16.2151 9.88418 16.3002H3.79922V17.0002C3.79922 17.6629 4.33648 18.2002 4.99922 18.2002H14.0328L13.946 19.4165C13.9367 19.5462 13.9401 19.6746 13.9552 19.8002H4.99922C3.45282 19.8002 2.19922 18.5466 2.19922 17.0002V7.0002Z" fill="white"/>
</svg>
