<svg width="181" height="50" viewBox="0 0 181 50" fill="none" xmlns="http://www.w3.org/2000/svg">
    <path
        d="M37.9145 30.5032C36.8399 30.5032 35.8465 30.1556 35.0349 29.5698V32.1124C35.0349 33.7269 33.7256 35.0361 32.1111 35.0361H17.8895C16.275 35.0361 14.9658 33.7269 14.9658 32.1124V17.889C14.9658 16.2745 16.275 14.9653 17.8895 14.9653H20.4233C19.8216 14.1466 19.4617 13.1409 19.4617 12.0486C19.4617 10.9564 19.8234 9.93834 20.4321 9.11963H14.9676C11.7368 9.11963 9.12012 11.7363 9.12012 14.9653V35.0344C9.12012 38.2634 11.7368 40.8801 14.9658 40.8801H35.0349C38.2638 40.8801 40.8806 38.2634 40.8806 35.0344V29.5063C40.0548 30.1309 39.0279 30.5032 37.9145 30.5032Z"
        fill="#DB0025" />
    <path
        d="M40.2538 24.9473C40.2538 16.5272 33.4041 9.67578 24.9823 9.67578H24.3983C23.1067 9.67578 22.0586 10.7239 22.0586 12.0155C22.0586 13.3071 23.1067 14.3552 24.3983 14.3552H24.9823C30.8227 14.3552 35.5744 19.1069 35.5744 24.9473V25.5313C35.5744 26.8229 36.6225 27.871 37.9141 27.871C39.2057 27.871 40.2538 26.8229 40.2538 25.5313V24.9543C40.2538 24.9543 40.2538 24.9508 40.2538 24.9473Z"
        fill="#3C5AAA" />
    <path
        d="M24.9823 27.8709C26.597 27.8709 27.906 26.5619 27.906 24.9472C27.906 23.3324 26.597 22.0234 24.9823 22.0234C23.3676 22.0234 22.0586 23.3324 22.0586 24.9472C22.0586 26.5619 23.3676 27.8709 24.9823 27.8709Z"
        fill="#FED141" />
    <path
        d="M24.9823 16.0293H24.3983C23.1067 16.0293 22.0586 17.0774 22.0586 18.369C22.0586 19.6606 23.1067 20.7087 24.3983 20.7087H24.9823C27.3202 20.7087 29.2223 22.6108 29.2223 24.9487V25.5327C29.2223 26.8243 30.2704 27.8724 31.562 27.8724C32.8536 27.8724 33.9017 26.8243 33.9017 25.5327V24.9487C33.9017 20.0311 29.8999 16.0293 24.9823 16.0293Z"
        fill="#3AC9CC" />
    <path fill-rule="evenodd" clip-rule="evenodd"
        d="M79.478 16.1047C79.478 17.4559 78.3819 18.5517 77.03 18.5517V18.5512C75.6785 18.5512 74.5829 17.4554 74.5829 16.1042C74.5829 14.753 75.678 13.6572 77.03 13.6572C78.3819 13.6572 79.478 14.7535 79.478 16.1047ZM98.0826 35.6081C99.6492 36.0631 101.281 36.2905 102.98 36.2905L102.98 36.2909C104.981 36.2909 106.649 35.9878 107.983 35.3812C109.317 34.7745 110.312 33.9764 110.97 32.9855C111.626 31.9954 111.955 30.9037 111.955 29.7104C111.955 28.6187 111.727 27.704 111.273 26.9657C110.818 26.2284 110.227 25.6422 109.499 25.2071C108.771 24.7724 107.972 24.4139 107.103 24.1304C106.234 23.8472 105.355 23.6099 104.465 23.4175C103.576 23.2256 102.767 23.0337 102.04 22.8413C101.312 22.6494 100.726 22.3817 100.281 22.0377C99.8365 21.6938 99.6142 21.2391 99.6142 20.6729C99.6142 20.2287 99.7508 19.8239 100.023 19.4601C100.297 19.0962 100.726 18.808 101.312 18.5957C101.898 18.3833 102.717 18.2772 103.647 18.2772C104.577 18.2772 105.546 18.4133 106.558 18.6864C107.568 18.9596 108.548 19.3688 109.499 19.9147L111.045 16.2149C110.075 15.6087 108.938 15.1437 107.634 14.8201C106.33 14.4971 105.012 14.3351 103.677 14.3351C101.676 14.3351 100.013 14.6337 98.6897 15.2299C97.3658 15.8265 96.38 16.6247 95.7335 17.6256C95.0861 18.6261 94.7631 19.7332 94.7631 20.946C94.7631 22.0581 94.98 22.9829 95.415 23.7206C95.8492 24.4589 96.4354 25.0546 97.1735 25.5097C97.9112 25.9644 98.7201 26.3282 99.5993 26.6014C100.478 26.8741 101.353 27.1069 102.222 27.2988C103.091 27.4912 103.894 27.6931 104.632 27.9054C105.37 28.1178 105.961 28.3909 106.406 28.7244C106.85 29.0579 107.073 29.508 107.073 30.0738C107.073 30.5185 106.931 30.9078 106.648 31.2413C106.365 31.5748 105.926 31.843 105.33 32.0449C104.733 32.2468 103.95 32.348 102.98 32.348C101.706 32.348 100.443 32.1411 99.1896 31.7263C97.9356 31.3121 96.8645 30.7812 95.9753 30.1342L94.3076 33.8339C95.2576 34.5617 96.5161 35.1534 98.0826 35.6081ZM47.6855 35.9266L57.1156 14.699H61.9671L71.4879 35.927H66.3333L64.4418 31.3779H54.6103L52.719 35.9266H47.6855ZM59.526 19.5553L62.8908 27.6477H56.1613L59.526 19.5553ZM82.5729 35.9266V35.9261H87.3025V28.2235C87.3025 26.6672 87.6963 25.5147 88.4847 24.7665C89.2732 24.0187 90.3344 23.6444 91.6686 23.6444C91.8301 23.6444 91.9971 23.6548 92.169 23.6748C92.3405 23.6952 92.5179 23.7256 92.6998 23.766V19.3688C91.1632 19.3688 89.8594 19.6674 88.7883 20.2636C88.102 20.6457 87.5362 21.1415 87.0906 21.7513V19.6116H82.5729V35.9261H82.5725L82.5729 35.9266ZM144.997 19.3688C146.29 19.3688 147.448 19.6266 148.469 20.142C149.489 20.6575 150.293 21.446 150.879 22.5073C151.465 23.5686 151.758 24.9285 151.758 26.586V35.9261H147.028V27.3138C147.028 25.9997 146.74 25.0292 146.164 24.4026C145.588 23.776 144.774 23.4625 143.723 23.4625C142.975 23.4625 142.303 23.6244 141.707 23.9475C141.11 24.271 140.646 24.7465 140.312 25.3727C139.979 25.9997 139.812 26.8283 139.812 27.8591V35.9257H135.082V19.6116H139.6V21.5494C140.068 21.0279 140.623 20.5942 141.267 20.2482C142.359 19.662 143.602 19.3688 144.997 19.3688ZM159.317 35.0926C160.682 35.8104 162.244 36.1693 164.002 36.1693V36.1702C165.72 36.1702 167.221 35.8063 168.505 35.0785C169.788 34.3503 170.713 33.3398 171.279 32.0458L167.641 30.0443C167.196 30.8329 166.66 31.4042 166.034 31.7576C165.407 32.112 164.719 32.2885 163.972 32.2885C163.184 32.2885 162.466 32.1116 161.819 31.7576C161.172 31.4042 160.656 30.8883 160.272 30.2109C159.888 29.5339 159.696 28.7199 159.696 27.7698C159.696 26.8196 159.888 26.0106 160.272 25.3436C160.656 24.6766 161.172 24.1662 161.819 23.8123C162.466 23.4588 163.183 23.2814 163.972 23.2814C164.719 23.2814 165.407 23.4588 166.034 23.8123C166.66 24.1662 167.196 24.727 167.641 25.4952L171.279 23.4938C170.713 22.1797 169.788 21.1638 168.505 20.446C167.221 19.7287 165.761 19.3693 164.002 19.3693C162.244 19.3693 160.682 19.7332 159.317 20.461C157.953 21.1888 156.882 22.1797 156.104 23.433C155.325 24.6866 154.936 26.1517 154.936 27.7693C154.936 29.3869 155.325 30.832 156.104 32.1057C156.881 33.3793 157.953 34.3753 159.317 35.0926ZM79.3954 19.6116H74.6654V35.9266H79.3954V19.6116ZM120.431 35.7251L113.543 19.6116H118.394L122.876 30.4213L127.395 19.6116L127.394 19.6102H131.903L125.034 35.7551C124.508 37.0895 123.907 38.1254 123.23 38.8636C122.552 39.6014 121.805 40.1223 120.986 40.4254C120.167 40.7289 119.262 40.8805 118.272 40.8805C117.443 40.8805 116.615 40.7489 115.786 40.4862C114.957 40.2235 114.27 39.8591 113.724 39.3945L115.452 35.9983C115.816 36.3417 116.236 36.6049 116.711 36.7869C117.186 36.9688 117.666 37.06 118.151 37.06C118.798 37.06 119.319 36.903 119.713 36.5899C119.967 36.3877 120.207 36.0995 120.431 35.7251Z"
        fill="black" />
</svg>
