<svg width="50" height="50" viewBox="0 0 50 50" fill="none" xmlns="http://www.w3.org/2000/svg">
    <path
        d="M37.9145 30.5032C36.8399 30.5032 35.8465 30.1556 35.0349 29.5698V32.1124C35.0349 33.7269 33.7256 35.0361 32.1111 35.0361H17.8895C16.275 35.0361 14.9658 33.7269 14.9658 32.1124V17.889C14.9658 16.2745 16.275 14.9653 17.8895 14.9653H20.4233C19.8216 14.1466 19.4617 13.1409 19.4617 12.0486C19.4617 10.9564 19.8234 9.93834 20.4321 9.11963H14.9676C11.7368 9.11963 9.12012 11.7363 9.12012 14.9653V35.0344C9.12012 38.2634 11.7368 40.8801 14.9658 40.8801H35.0349C38.2638 40.8801 40.8806 38.2634 40.8806 35.0344V29.5063C40.0548 30.1309 39.0279 30.5032 37.9145 30.5032Z"
        fill="#DB0025" />
    <path
        d="M40.2538 24.9473C40.2538 16.5272 33.4041 9.67578 24.9823 9.67578H24.3983C23.1067 9.67578 22.0586 10.7239 22.0586 12.0155C22.0586 13.3071 23.1067 14.3552 24.3983 14.3552H24.9823C30.8227 14.3552 35.5744 19.1069 35.5744 24.9473V25.5313C35.5744 26.8229 36.6225 27.871 37.9141 27.871C39.2057 27.871 40.2538 26.8229 40.2538 25.5313V24.9543C40.2538 24.9543 40.2538 24.9508 40.2538 24.9473Z"
        fill="#3C5AAA" />
    <path
        d="M24.9823 27.8709C26.597 27.8709 27.906 26.5619 27.906 24.9472C27.906 23.3324 26.597 22.0234 24.9823 22.0234C23.3676 22.0234 22.0586 23.3324 22.0586 24.9472C22.0586 26.5619 23.3676 27.8709 24.9823 27.8709Z"
        fill="#FED141" />
    <path
        d="M24.9823 16.0293H24.3983C23.1067 16.0293 22.0586 17.0774 22.0586 18.369C22.0586 19.6606 23.1067 20.7087 24.3983 20.7087H24.9823C27.3202 20.7087 29.2223 22.6108 29.2223 24.9487V25.5327C29.2223 26.8243 30.2704 27.8724 31.562 27.8724C32.8536 27.8724 33.9017 26.8243 33.9017 25.5327V24.9487C33.9017 20.0311 29.8999 16.0293 24.9823 16.0293Z"
        fill="#3AC9CC" />
</svg>
