<svg width="88" height="88" viewBox="0 0 88 88" fill="none" xmlns="http://www.w3.org/2000/svg">
<g filter="url(#filter0_d_3434_80699)">
<g clip-path="url(#clip0_3434_80699)">
<mask id="path-1-inside-1_3434_80699" fill="white">
<path d="M16 36C16 20.536 28.536 8 44 8C59.464 8 72 20.536 72 36C72 51.464 59.464 64 44 64C28.536 64 16 51.464 16 36Z"/>
</mask>
<path d="M16 36C16 20.536 28.536 8 44 8C59.464 8 72 20.536 72 36C72 51.464 59.464 64 44 64C28.536 64 16 51.464 16 36Z" fill="#20273E"/>
<path fill-rule="evenodd" clip-rule="evenodd" d="M37.8993 40.8994C37.5674 41.2313 37.5674 41.7695 37.8993 42.1014C38.2313 42.4334 38.7695 42.4334 39.1014 42.1014L44.0004 37.2025L48.8994 42.1014C49.2313 42.4334 49.7695 42.4334 50.1014 42.1014C50.4334 41.7695 50.4334 41.2313 50.1014 40.8994L45.2025 36.0004L50.1014 31.1014C50.4334 30.7695 50.4334 30.2313 50.1014 29.8993C49.7695 29.5674 49.2313 29.5674 48.8994 29.8993L44.0004 34.7983L39.1014 29.8994C38.7695 29.5674 38.2313 29.5674 37.8993 29.8994C37.5674 30.2313 37.5674 30.7695 37.8993 31.1014L42.7983 36.0004L37.8993 40.8994Z" fill="white"/>
</g>
<path d="M44 63C29.0883 63 17 50.9117 17 36H15C15 52.0163 27.9837 65 44 65V63ZM71 36C71 50.9117 58.9117 63 44 63V65C60.0163 65 73 52.0163 73 36H71ZM44 9C58.9117 9 71 21.0883 71 36H73C73 19.9837 60.0163 7 44 7V9ZM44 7C27.9837 7 15 19.9837 15 36H17C17 21.0883 29.0883 9 44 9V7Z" fill="#20273E" mask="url(#path-1-inside-1_3434_80699)"/>
</g>
<defs>
<filter id="filter0_d_3434_80699" x="0" y="0" width="88" height="88" filterUnits="userSpaceOnUse" color-interpolation-filters="sRGB">
<feFlood flood-opacity="0" result="BackgroundImageFix"/>
<feColorMatrix in="SourceAlpha" type="matrix" values="0 0 0 0 0 0 0 0 0 0 0 0 0 0 0 0 0 0 127 0" result="hardAlpha"/>
<feOffset dy="8"/>
<feGaussianBlur stdDeviation="8"/>
<feComposite in2="hardAlpha" operator="out"/>
<feColorMatrix type="matrix" values="0 0 0 0 0.0823529 0 0 0 0 0.109804 0 0 0 0 0.196078 0 0 0 0.16 0"/>
<feBlend mode="normal" in2="BackgroundImageFix" result="effect1_dropShadow_3434_80699"/>
<feBlend mode="normal" in="SourceGraphic" in2="effect1_dropShadow_3434_80699" result="shape"/>
</filter>
<clipPath id="clip0_3434_80699">
<path d="M16 36C16 20.536 28.536 8 44 8C59.464 8 72 20.536 72 36C72 51.464 59.464 64 44 64C28.536 64 16 51.464 16 36Z" fill="white"/>
</clipPath>
</defs>
</svg>
