<svg width="32" height="32" viewBox="0 0 32 32" fill="none" xmlns="http://www.w3.org/2000/svg">
<g clip-path="url(#clip0_9123_6863)">
<path d="M6.64738 21.4014C5.50738 19.4268 6.18575 16.8951 8.16029 15.7551L12.7791 13.0885L11.5124 10.8945L6.89362 13.5612C3.70665 15.4012 2.61345 19.4811 4.45345 22.668C6.29345 25.855 10.3733 26.9482 13.5603 25.1082L18.1791 22.4415L16.9124 20.2476L12.2936 22.9143C10.3191 24.0543 7.78738 23.3759 6.64738 21.4014ZM12.0483 19.8227L21.2859 14.4894L19.9526 12.18L10.715 17.5133L12.0483 19.8227ZM18.4406 6.89453L13.8218 9.5612L15.0885 11.7551L19.7073 9.08846C21.6818 7.94846 24.2135 8.62683 25.3535 10.6014C26.4935 12.5759 25.8152 15.1076 23.8406 16.2476L19.2218 18.9143L20.4885 21.1082L25.1073 18.4415C28.2943 16.6015 29.3875 12.5217 27.5475 9.3347C25.7075 6.14773 21.6276 5.05453 18.4406 6.89453Z" fill="white"/>
</g>
<defs>
<clipPath id="clip0_9123_6863">
<rect width="32" height="32" fill="white"/>
</clipPath>
</defs>
</svg>
