<svg fill="none" height="104" viewBox="0 0 360 104" width="360" xmlns="http://www.w3.org/2000/svg">
	<path
		d="M358 92.0057C358 97.548 353.417 102.037 347.748 102.037H12.2649C6.599 102.037 2 97.548 2 92.0057V12.0067C2 6.46699 6.599 1.96191 12.2649 1.96191H347.746C353.417 1.96191 357.997 6.46699 357.997 12.0067L358 92.0057Z"
		fill="black" />
	<path
		d="M346.667 2.08326C352.84 2.08326 357.863 6.98101 357.863 13V91C357.863 97.019 352.84 101.917 346.667 101.917H13.3333C7.16 101.917 2.13667 97.019 2.13667 91V13C2.13667 6.98101 7.16 2.08326 13.3333 2.08326H346.667ZM346.667 1.49447e-05H13.3333C6.00333 1.49447e-05 0 5.85327 0 13V91C0 98.1468 6.00333 104 13.3333 104H346.667C353.997 104 360 98.1468 360 91V13C360 5.85327 353.997 1.49447e-05 346.667 1.49447e-05Z"
		fill="#A6A6A6" />
	<path
		d="M80.3409 51.4383C80.2636 43.0585 87.3782 38.9817 87.7036 38.7919C83.6742 33.0641 77.4289 32.2815 75.2342 32.2191C69.9889 31.6809 64.9009 35.2793 62.2289 35.2793C59.5036 35.2793 55.3889 32.2711 50.9542 32.3595C45.2476 32.4453 39.9089 35.6667 36.9809 40.6691C30.9382 50.8689 35.4449 65.8578 41.2343 74.1024C44.1302 78.1402 47.5142 82.6486 51.9436 82.49C56.2769 82.3158 57.8956 79.7964 63.1249 79.7964C68.3062 79.7964 69.8262 82.49 74.3436 82.3886C78.9942 82.3158 81.9222 78.3326 84.7169 74.2584C88.0636 69.6305 89.4076 65.0727 89.4609 64.8387C89.3516 64.8023 80.4289 61.4821 80.3409 51.4383Z"
		fill="white" />
	<path
		d="M71.8076 26.7955C74.1382 23.9537 75.7329 20.0875 75.2902 16.1641C71.9169 16.3097 67.6982 18.4391 65.2689 21.2185C63.1196 23.6677 61.1996 27.6821 61.6956 31.4573C65.4849 31.7329 69.3756 29.5931 71.8076 26.7955Z"
		fill="white" />
	<path
		d="M143.054 81.9123H136.998L133.68 71.7489H122.15L118.99 81.9123H113.094L124.518 47.3115H131.574L143.054 81.9123ZM132.68 67.4849L129.68 58.4499C129.363 57.5269 128.768 55.3533 127.891 51.9317H127.784C127.435 53.4033 126.872 55.5769 126.099 58.4499L123.152 67.4849H132.68Z"
		fill="white" />
	<path
		d="M172.432 69.1304C172.432 73.3736 171.256 76.7276 168.904 79.1898C166.797 81.3816 164.181 82.4762 161.058 82.4762C157.688 82.4762 155.266 81.2958 153.792 78.935H153.685V92.078H148V65.1758C148 62.5082 147.928 59.7704 147.789 56.9624H152.789L153.106 60.917H153.213C155.109 57.9374 157.986 56.4502 161.848 56.4502C164.866 56.4502 167.386 57.6124 169.402 59.9394C171.424 62.269 172.432 65.3318 172.432 69.1304ZM166.64 69.3332C166.64 66.9048 166.08 64.9028 164.954 63.3272C163.725 61.684 162.074 60.8624 160.005 60.8624C158.602 60.8624 157.328 61.32 156.189 62.2222C155.048 63.1322 154.301 64.3204 153.952 65.792C153.776 66.4784 153.688 67.04 153.688 67.482V71.642C153.688 73.4568 154.258 74.9882 155.4 76.2388C156.541 77.4894 158.024 78.1134 159.848 78.1134C161.989 78.1134 163.656 77.3074 164.848 75.7006C166.042 74.0912 166.64 71.9696 166.64 69.3332Z"
		fill="white" />
	<path
		d="M201.865 69.1304C201.865 73.3736 200.689 76.7276 198.334 79.1898C196.23 81.3816 193.614 82.4762 190.491 82.4762C187.121 82.4762 184.699 81.2958 183.227 78.935H183.121V92.078H177.435V65.1758C177.435 62.5082 177.363 59.7704 177.225 56.9624H182.225L182.542 60.917H182.649C184.542 57.9374 187.419 56.4502 191.283 56.4502C194.299 56.4502 196.819 57.6124 198.841 59.9394C200.854 62.269 201.865 65.3318 201.865 69.1304ZM196.073 69.3332C196.073 66.9048 195.51 64.9028 194.385 63.3272C193.155 61.684 191.51 60.8624 189.438 60.8624C188.033 60.8624 186.761 61.32 185.619 62.2222C184.478 63.1322 183.734 64.3204 183.385 65.792C183.211 66.4784 183.121 67.04 183.121 67.482V71.642C183.121 73.4568 183.691 74.9882 184.827 76.2388C185.969 77.4868 187.451 78.1134 189.281 78.1134C191.422 78.1134 193.089 77.3074 194.281 75.7006C195.475 74.0912 196.073 71.9696 196.073 69.3332Z"
		fill="white" />
	<path
		d="M234.772 72.2083C234.772 75.1515 233.724 77.5461 231.62 79.3947C229.308 81.4149 226.089 82.4237 221.953 82.4237C218.135 82.4237 215.073 81.7061 212.756 80.2683L214.073 75.6481C216.569 77.1197 219.308 77.8581 222.292 77.8581C224.433 77.8581 226.1 77.3849 227.297 76.4437C228.489 75.5025 229.084 74.2389 229.084 72.6633C229.084 71.2593 228.593 70.0763 227.609 69.1169C226.631 68.1575 224.996 67.2657 222.713 66.4415C216.5 64.1821 213.396 60.8723 213.396 56.5199C213.396 53.6755 214.484 51.3433 216.663 49.5285C218.833 47.7111 221.729 46.8037 225.351 46.8037C228.58 46.8037 231.263 47.3523 233.404 48.4469L231.983 52.9657C229.983 51.9049 227.721 51.3745 225.191 51.3745C223.191 51.3745 221.628 51.8555 220.508 52.8123C219.561 53.6677 219.087 54.7103 219.087 55.9453C219.087 57.3129 219.628 58.4439 220.716 59.3331C221.663 60.1547 223.383 61.0439 225.879 62.0033C228.932 63.2019 231.175 64.6033 232.617 66.2101C234.055 67.8117 234.772 69.8163 234.772 72.2083Z"
		fill="white" />
	<path
		d="M253.568 61.1227H247.302V73.2361C247.302 76.3171 248.406 77.8563 250.619 77.8563C251.635 77.8563 252.478 77.7705 253.144 77.5989L253.302 81.8083C252.182 82.2165 250.707 82.4219 248.88 82.4219C246.635 82.4219 244.88 81.7537 243.614 80.4199C242.352 79.0835 241.718 76.8423 241.718 73.6937V61.1175H237.984V56.9575H241.718V52.3893L247.302 50.7461V56.9575H253.568V61.1227Z"
		fill="white" />
	<path
		d="M281.843 69.2311C281.843 73.0661 280.718 76.2147 278.473 78.6769C276.118 81.2119 272.993 82.4755 269.097 82.4755C265.342 82.4755 262.353 81.2613 260.123 78.8329C257.894 76.4045 256.779 73.3391 256.779 69.6445C256.779 65.7783 257.926 62.6115 260.227 60.1494C262.523 57.6846 265.622 56.4521 269.518 56.4521C273.273 56.4521 276.294 57.6663 278.574 60.0973C280.755 62.4555 281.843 65.5001 281.843 69.2311ZM275.945 69.4105C275.945 67.1095 275.441 65.1361 274.419 63.4903C273.227 61.4987 271.523 60.5055 269.315 60.5055C267.03 60.5055 265.294 61.5013 264.102 63.4903C263.081 65.1387 262.577 67.1433 262.577 69.5145C262.577 71.8155 263.081 73.7889 264.102 75.4321C265.331 77.4237 267.049 78.4169 269.265 78.4169C271.435 78.4169 273.139 77.4029 274.369 75.3801C275.417 73.7031 275.945 71.7089 275.945 69.4105Z"
		fill="white" />
	<path
		d="M300.324 61.8374C299.761 61.736 299.161 61.684 298.532 61.684C296.532 61.684 294.985 62.4198 293.897 63.894C292.95 65.194 292.476 66.8372 292.476 68.821V81.912H286.793L286.846 64.8196C286.846 61.944 286.774 59.3258 286.633 56.965H291.585L291.793 61.7386H291.95C292.55 60.098 293.497 58.7772 294.793 57.7866C296.06 56.8948 297.428 56.4502 298.902 56.4502C299.428 56.4502 299.902 56.4866 300.324 56.5516V61.8374Z"
		fill="white" />
	<path
		d="M325.749 68.2557C325.749 69.2489 325.682 70.0861 325.541 70.7699H308.485C308.552 73.2347 309.376 75.1197 310.96 76.4197C312.397 77.5819 314.256 78.1643 316.538 78.1643C319.064 78.1643 321.368 77.7717 323.44 76.9839L324.33 80.8319C321.909 81.8615 319.05 82.3737 315.752 82.3737C311.784 82.3737 308.669 81.2349 306.402 78.9599C304.141 76.6849 303.008 73.6299 303.008 69.7975C303.008 66.0353 304.061 62.9023 306.17 60.4037C308.378 57.7361 311.362 56.4023 315.117 56.4023C318.805 56.4023 321.597 57.7361 323.493 60.4037C324.994 62.5227 325.749 65.1435 325.749 68.2557ZM320.328 66.8179C320.365 65.1747 319.994 63.7551 319.224 62.5565C318.24 61.0147 316.728 60.2451 314.693 60.2451C312.834 60.2451 311.322 60.9965 310.168 62.5045C309.221 63.7031 308.658 65.1409 308.485 66.8153H320.328V66.8179Z"
		fill="white" />
	<path
		d="M130.799 26.0226C130.799 29.0828 129.858 31.3864 127.978 32.9334C126.237 34.3608 123.762 35.0758 120.557 35.0758C118.967 35.0758 117.607 35.0082 116.469 34.873V18.1524C117.954 17.9184 119.554 17.7988 121.282 17.7988C124.335 17.7988 126.637 18.4462 128.189 19.741C129.927 21.2048 130.799 23.2978 130.799 26.0226ZM127.853 26.098C127.853 24.1142 127.314 22.5932 126.237 21.5324C125.159 20.4742 123.586 19.9438 121.514 19.9438C120.634 19.9438 119.885 20.001 119.263 20.1206V32.832C119.607 32.884 120.237 32.9074 121.151 32.9074C123.29 32.9074 124.941 32.3276 126.103 31.168C127.266 30.0084 127.853 28.3184 127.853 26.098Z"
		fill="white" />
	<path
		d="M146.423 28.6953C146.423 30.5803 145.871 32.1247 144.767 33.3363C143.61 34.5817 142.077 35.2031 140.162 35.2031C138.317 35.2031 136.847 34.6077 135.751 33.4117C134.658 32.2183 134.111 30.7129 134.111 28.8981C134.111 27.0001 134.674 25.4427 135.805 24.2337C136.935 23.0247 138.455 22.4189 140.37 22.4189C142.215 22.4189 143.698 23.0143 144.821 24.2077C145.887 25.3673 146.423 26.8649 146.423 28.6953ZM143.525 28.7837C143.525 27.6527 143.274 26.6829 142.775 25.8743C142.189 24.8967 141.354 24.4079 140.269 24.4079C139.146 24.4079 138.293 24.8967 137.706 25.8743C137.205 26.6829 136.957 27.6683 136.957 28.8331C136.957 29.9641 137.207 30.9339 137.706 31.7425C138.311 32.7201 139.154 33.2089 140.242 33.2089C141.309 33.2089 142.146 32.7123 142.749 31.7165C143.266 30.8923 143.525 29.9147 143.525 28.7837Z"
		fill="white" />
	<path
		d="M167.373 22.6689L163.44 34.9253H160.88L159.251 29.6031C158.837 28.2745 158.501 26.9537 158.24 25.6433H158.189C157.947 26.9901 157.611 28.3083 157.179 29.6031L155.448 34.9253H152.859L149.16 22.6689H152.032L153.453 28.4955C153.797 29.8735 154.08 31.1865 154.307 32.4293H154.357C154.565 31.4049 154.909 30.0997 155.395 28.5215L157.179 22.6715H159.456L161.165 28.3967C161.579 29.7929 161.915 31.1371 162.173 32.4319H162.251C162.44 31.1709 162.725 29.8267 163.104 28.3967L164.629 22.6715H167.373V22.6689Z"
		fill="white" />
	<path
		d="M181.86 34.924H179.066V27.904C179.066 25.7408 178.223 24.6592 176.532 24.6592C175.703 24.6592 175.034 24.9556 174.514 25.551C173.999 26.1464 173.738 26.8484 173.738 27.6518V34.9214H170.943V26.1698C170.943 25.0934 170.908 23.926 170.842 22.6624H173.298L173.428 24.5786H173.506C173.831 23.9832 174.316 23.4918 174.954 23.0992C175.711 22.6416 176.559 22.4102 177.487 22.4102C178.66 22.4102 179.636 22.7794 180.412 23.5204C181.378 24.4278 181.86 25.7824 181.86 27.5816V34.924Z"
		fill="white" />
	<path d="M189.567 34.9251H186.775V17.0449H189.567V34.9251Z" fill="white" />
	<path
		d="M206.021 28.6953C206.021 30.5803 205.469 32.1247 204.365 33.3363C203.208 34.5817 201.672 35.2031 199.76 35.2031C197.912 35.2031 196.442 34.6077 195.349 33.4117C194.256 32.2183 193.709 30.7129 193.709 28.8981C193.709 27.0001 194.272 25.4427 195.402 24.2337C196.533 23.0247 198.053 22.4189 199.965 22.4189C201.813 22.4189 203.293 23.0143 204.418 24.2077C205.485 25.3673 206.021 26.8649 206.021 28.6953ZM203.12 28.7837C203.12 27.6527 202.869 26.6829 202.37 25.8743C201.786 24.8967 200.949 24.4079 199.866 24.4079C198.741 24.4079 197.888 24.8967 197.304 25.8743C196.802 26.6829 196.554 27.6683 196.554 28.8331C196.554 29.9641 196.805 30.9339 197.304 31.7425C197.909 32.7201 198.752 33.2089 199.84 33.2089C200.906 33.2089 201.741 32.7123 202.344 31.7165C202.864 30.8923 203.12 29.9147 203.12 28.7837Z"
		fill="white" />
	<path
		d="M219.547 34.9249H217.037L216.829 33.5131H216.752C215.893 34.6389 214.669 35.2031 213.08 35.2031C211.893 35.2031 210.933 34.8313 210.211 34.0929C209.555 33.4221 209.227 32.5875 209.227 31.5969C209.227 30.0993 209.867 28.9579 211.155 28.1675C212.44 27.3771 214.248 26.9897 216.576 27.0079V26.7791C216.576 25.1645 215.707 24.3585 213.965 24.3585C212.725 24.3585 211.632 24.6627 210.688 25.2659L210.12 23.4771C211.288 22.7725 212.731 22.4189 214.432 22.4189C217.717 22.4189 219.365 24.1089 219.365 27.4889V32.0025C219.365 33.2271 219.427 34.2021 219.547 34.9249ZM216.645 30.7129V28.8227C213.563 28.7707 212.021 29.5949 212.021 31.2927C212.021 31.9323 212.197 32.4107 212.557 32.7305C212.917 33.0503 213.376 33.2089 213.923 33.2089C214.536 33.2089 215.109 33.0191 215.632 32.6421C216.157 32.2625 216.48 31.7815 216.6 31.1913C216.629 31.0587 216.645 30.8975 216.645 30.7129Z"
		fill="white" />
	<path
		d="M235.426 34.9251H232.946L232.815 32.9569H232.738C231.946 34.4545 230.596 35.2033 228.7 35.2033C227.186 35.2033 225.924 34.6235 224.924 33.4639C223.924 32.3043 223.426 30.7989 223.426 28.9503C223.426 26.9665 223.967 25.3597 225.055 24.1325C226.108 22.9885 227.399 22.4165 228.935 22.4165C230.623 22.4165 231.804 22.9703 232.476 24.0805H232.53V17.0449H235.327V31.6231C235.327 32.8165 235.359 33.9163 235.426 34.9251ZM232.53 29.7563V27.7127C232.53 27.3591 232.503 27.0731 232.452 26.8547C232.295 26.1995 231.956 25.6483 231.442 25.2037C230.922 24.7591 230.295 24.5355 229.572 24.5355C228.53 24.5355 227.714 24.9385 227.114 25.7471C226.519 26.5557 226.218 27.5879 226.218 28.8489C226.218 30.0605 226.503 31.0433 227.076 31.7999C227.682 32.6059 228.498 33.0089 229.519 33.0089C230.436 33.0089 231.17 32.6735 231.727 32.0001C232.266 31.3787 232.53 30.6299 232.53 29.7563Z"
		fill="white" />
	<path
		d="M259.328 28.6953C259.328 30.5803 258.776 32.1247 257.672 33.3363C256.514 34.5817 254.984 35.2031 253.066 35.2031C251.224 35.2031 249.754 34.6077 248.656 33.4117C247.562 32.2183 247.016 30.7129 247.016 28.8981C247.016 27.0001 247.578 25.4427 248.709 24.2337C249.84 23.0247 251.36 22.4189 253.277 22.4189C255.12 22.4189 256.605 23.0143 257.725 24.2077C258.792 25.3673 259.328 26.8649 259.328 28.6953ZM256.432 28.7837C256.432 27.6527 256.181 26.6829 255.682 25.8743C255.093 24.8967 254.261 24.4079 253.173 24.4079C252.053 24.4079 251.2 24.8967 250.61 25.8743C250.109 26.6829 249.861 27.6683 249.861 28.8331C249.861 29.9641 250.112 30.9339 250.61 31.7425C251.216 32.7201 252.058 33.2089 253.146 33.2089C254.213 33.2089 255.053 32.7123 255.656 31.7165C256.17 30.8923 256.432 29.9147 256.432 28.7837Z"
		fill="white" />
	<path
		d="M274.354 34.924H271.562V27.904C271.562 25.7408 270.719 24.6592 269.026 24.6592C268.197 24.6592 267.527 24.9556 267.01 25.551C266.493 26.1464 266.234 26.8484 266.234 27.6518V34.9214H263.437V26.1698C263.437 25.0934 263.405 23.926 263.338 22.6624H265.791L265.922 24.5786H265.999C266.327 23.9832 266.813 23.4918 267.447 23.0992C268.207 22.6416 269.053 22.4102 269.983 22.4102C271.154 22.4102 272.13 22.7794 272.906 23.5204C273.874 24.4278 274.354 25.7824 274.354 27.5816V34.924Z"
		fill="white" />
	<path
		d="M293.162 24.7096H290.085V30.6636C290.085 32.1768 290.631 32.9334 291.714 32.9334C292.215 32.9334 292.631 32.8918 292.959 32.806L293.031 34.873C292.479 35.0758 291.754 35.1772 290.861 35.1772C289.757 35.1772 288.898 34.8496 288.277 34.1944C287.653 33.5392 287.343 32.4368 287.343 30.8898V24.7096H285.506V22.6686H287.343V20.4222L290.082 19.6162V22.666H293.159V24.7096H293.162Z"
		fill="white" />
	<path
		d="M307.956 34.9251H305.159V27.9571C305.159 25.7601 304.316 24.6603 302.628 24.6603C301.332 24.6603 300.447 25.2973 299.962 26.5713C299.879 26.8391 299.831 27.1667 299.831 27.5515V34.9225H297.039V17.0449H299.831V24.4315H299.884C300.764 23.0873 302.026 22.4165 303.66 22.4165C304.818 22.4165 305.775 22.7857 306.535 23.5267C307.482 24.4497 307.956 25.8225 307.956 27.6373V34.9251Z"
		fill="white" />
	<path
		d="M323.219 28.2159C323.219 28.7047 323.182 29.1155 323.115 29.4509H314.734C314.771 30.6625 315.171 31.5855 315.947 32.2251C316.656 32.7971 317.571 33.0831 318.691 33.0831C319.931 33.0831 321.062 32.8907 322.08 32.5033L322.518 34.3961C321.326 34.9005 319.923 35.1527 318.299 35.1527C316.352 35.1527 314.819 34.5937 313.71 33.4757C312.595 32.3577 312.043 30.8575 312.043 28.9751C312.043 27.1265 312.558 25.5873 313.595 24.3601C314.678 23.0497 316.142 22.3945 317.99 22.3945C319.798 22.3945 321.171 23.0497 322.099 24.3601C322.848 25.4001 323.219 26.6871 323.219 28.2159ZM320.552 27.5113C320.574 26.7027 320.39 26.0059 320.011 25.4183C319.526 24.6617 318.787 24.2821 317.787 24.2821C316.875 24.2821 316.131 24.6513 315.563 25.3923C315.099 25.9825 314.824 26.6871 314.734 27.5113H320.552Z"
		fill="white" />
</svg>
