<svg fill="none" height="104" viewBox="0 0 360 104" width="360" xmlns="http://www.w3.org/2000/svg">
	<path
		d="M346.667 104H13.3333C6.00333 104 0 98.1468 0 91V13C0 5.85326 6.00333 5.49633e-06 13.3333 5.49633e-06H346.667C353.997 5.49633e-06 360 5.85326 360 13V91C360 98.1468 353.997 104 346.667 104Z"
		fill="black" />
	<path
		d="M346.667 2.08325C352.84 2.08325 357.863 6.981 357.863 13V91C357.863 97.019 352.84 101.917 346.667 101.917H13.3333C7.16 101.917 2.13667 97.019 2.13667 91V13C2.13667 6.981 7.16 2.08325 13.3333 2.08325H346.667ZM346.667 5.49633e-06H13.3333C6.00333 5.49633e-06 0 5.85326 0 13V91C0 98.1468 6.00333 104 13.3333 104H346.667C353.997 104 360 98.1468 360 91V13C360 5.85326 353.997 5.49633e-06 346.667 5.49633e-06Z"
		fill="#A6A6A6" />
	<path
		d="M126.445 26.6324C126.445 28.8034 125.778 30.5422 124.465 31.8389C122.955 33.3762 120.988 34.1497 118.578 34.1497C116.275 34.1497 114.308 33.3632 112.695 31.8129C111.078 30.2399 110.271 28.3094 110.271 25.9987C110.271 23.6879 111.078 21.7574 112.695 20.1974C114.308 18.6342 116.275 17.8477 118.578 17.8477C119.725 17.8477 120.818 18.0784 121.861 18.5074C122.901 18.9397 123.748 19.5247 124.361 20.2462L122.968 21.6177C121.898 20.3859 120.441 19.7782 118.578 19.7782C116.898 19.7782 115.441 20.3502 114.205 21.5039C112.981 22.6609 112.368 24.1592 112.368 25.9987C112.368 27.8382 112.981 29.3494 114.205 30.5064C115.441 31.6472 116.898 32.2322 118.578 32.2322C120.361 32.2322 121.861 31.6472 123.045 30.4934C123.825 29.7297 124.268 28.6767 124.385 27.3312H118.578V25.4527H126.325C126.418 25.8589 126.445 26.2522 126.445 26.6324Z"
		fill="white" stroke="white" stroke-miterlimit="10" stroke-width="0.282034" />
	<path
		d="M138.737 20.1213H131.46V25.0613H138.02V26.9398H131.46V31.8798H138.737V33.794H129.4V18.207H138.737V20.1213Z"
		fill="white" stroke="white" stroke-miterlimit="10" stroke-width="0.282034" />
	<path d="M147.41 33.7931H145.35V20.1203H140.887V18.2061H151.877V20.1203H147.41V33.7931Z"
		fill="white" stroke="white" stroke-miterlimit="10" stroke-width="0.282034" />
	<path d="M159.832 33.7931V18.2061H161.889V33.7931H159.832Z" fill="white" stroke="white"
		stroke-miterlimit="10" stroke-width="0.282034" />
	<path d="M171.004 33.794H168.96V20.1213H164.48V18.207H175.484V20.1213H171.004V33.794Z"
		fill="white" stroke="white" stroke-miterlimit="10" stroke-width="0.282034" />
	<path
		d="M196.289 31.7869C194.713 33.3632 192.759 34.1497 190.429 34.1497C188.086 34.1497 186.133 33.3632 184.556 31.7869C182.983 30.2139 182.199 28.2834 182.199 25.9987C182.199 23.7139 182.983 21.7834 184.556 20.2104C186.133 18.6342 188.086 17.8477 190.429 17.8477C192.746 17.8477 194.699 18.6342 196.276 20.2234C197.863 21.8094 198.646 23.7269 198.646 25.9987C198.646 28.2834 197.863 30.2139 196.289 31.7869ZM186.079 30.4804C187.266 31.6472 188.709 32.2322 190.429 32.2322C192.136 32.2322 193.593 31.6472 194.766 30.4804C195.949 29.3137 196.549 27.8154 196.549 25.9987C196.549 24.1819 195.949 22.6837 194.766 21.5169C193.593 20.3502 192.136 19.7652 190.429 19.7652C188.709 19.7652 187.266 20.3502 186.079 21.5169C184.896 22.6837 184.296 24.1819 184.296 25.9987C184.296 27.8154 184.896 29.3137 186.079 30.4804Z"
		fill="white" stroke="white" stroke-miterlimit="10" stroke-width="0.282034" />
	<path
		d="M201.537 33.794V18.207H204.037L211.81 30.3295H211.9L211.81 27.333V18.207H213.867V33.794H211.72L203.58 21.0735H203.49L203.58 24.083V33.794H201.537Z"
		fill="white" stroke="white" stroke-miterlimit="10" stroke-width="0.282034" />
	<path
		d="M181.693 56.5566C175.429 56.5566 170.313 61.2041 170.313 67.6163C170.313 73.9766 175.429 78.6728 181.693 78.6728C187.969 78.6728 193.086 73.9766 193.086 67.6163C193.086 61.2041 187.969 56.5566 181.693 56.5566ZM181.693 74.3178C178.256 74.3178 175.299 71.5521 175.299 67.6163C175.299 63.6286 178.256 60.9116 181.693 60.9116C185.129 60.9116 188.099 63.6286 188.099 67.6163C188.099 71.5521 185.129 74.3178 181.693 74.3178ZM156.863 56.5566C150.586 56.5566 145.483 61.2041 145.483 67.6163C145.483 73.9766 150.586 78.6728 156.863 78.6728C163.136 78.6728 168.243 73.9766 168.243 67.6163C168.243 61.2041 163.136 56.5566 156.863 56.5566ZM156.863 74.3178C153.423 74.3178 150.456 71.5521 150.456 67.6163C150.456 63.6286 153.423 60.9116 156.863 60.9116C160.299 60.9116 163.256 63.6286 163.256 67.6163C163.256 71.5521 160.299 74.3178 156.863 74.3178ZM127.316 59.9463V64.6458H138.826C138.489 67.2718 137.589 69.2023 136.209 70.5478C134.529 72.1728 131.913 73.9766 127.316 73.9766C120.233 73.9766 114.686 68.4028 114.686 61.4966C114.686 54.5903 120.233 49.0166 127.316 49.0166C131.146 49.0166 133.933 50.4758 135.989 52.3673L139.386 49.0556C136.509 46.3776 132.683 44.3203 127.316 44.3203C117.603 44.3203 109.439 52.0261 109.439 61.4966C109.439 70.9671 117.603 78.6728 127.316 78.6728C132.566 78.6728 136.509 76.9958 139.609 73.8498C142.786 70.7526 143.776 66.3976 143.776 62.8811C143.776 61.7891 143.683 60.7848 143.516 59.9463H127.316ZM248.136 63.5896C247.199 61.1163 244.309 56.5566 238.423 56.5566C232.589 56.5566 227.733 61.0383 227.733 67.6163C227.733 73.8108 232.539 78.6728 238.983 78.6728C244.193 78.6728 247.199 75.5756 248.436 73.7718L244.569 71.2596C243.279 73.0991 241.523 74.3178 238.983 74.3178C236.459 74.3178 234.649 73.1901 233.489 70.9671L248.659 64.8473L248.136 63.5896ZM232.669 67.2718C232.539 63.0078 236.066 60.8238 238.593 60.8238C240.573 60.8238 242.253 61.7891 242.813 63.1703L232.669 67.2718ZM220.339 78.0001H225.326V45.5001H220.339V78.0001ZM212.173 59.0201H212.006C210.886 57.7266 208.749 56.5566 206.043 56.5566C200.363 56.5566 195.169 61.4186 195.169 67.6521C195.169 73.8498 200.363 78.6728 206.043 78.6728C208.749 78.6728 210.886 77.4931 212.006 76.1606H212.173V77.7466C212.173 81.9748 209.856 84.2466 206.119 84.2466C203.073 84.2466 201.183 82.1016 200.403 80.2978L196.066 82.0626C197.316 84.9941 200.626 88.6016 206.119 88.6016C211.966 88.6016 216.899 85.2476 216.899 77.0868V57.2293H212.173V59.0201ZM206.469 74.3178C203.033 74.3178 200.156 71.5131 200.156 67.6521C200.156 63.7553 203.033 60.9116 206.469 60.9116C209.856 60.9116 212.526 63.7553 212.526 67.6521C212.526 71.5131 209.856 74.3178 206.469 74.3178ZM271.483 45.5001H259.556V78.0001H264.529V65.6858H271.483C277.006 65.6858 282.423 61.7891 282.423 55.5913C282.423 49.3968 276.993 45.5001 271.483 45.5001ZM271.613 61.1651H264.529V50.0208H271.613C275.326 50.0208 277.446 53.0271 277.446 55.5913C277.446 58.1068 275.326 61.1651 271.613 61.1651ZM302.356 56.4948C298.763 56.4948 295.026 58.0418 293.489 61.4706L297.903 63.2743C298.853 61.4706 300.599 60.8856 302.446 60.8856C305.026 60.8856 307.643 62.3968 307.683 65.0651V65.4063C306.783 64.8993 304.856 64.1486 302.486 64.1486C297.733 64.1486 292.889 66.6998 292.889 71.4611C292.889 75.8161 296.783 78.6208 301.159 78.6208C304.506 78.6208 306.353 77.1486 307.513 75.4358H307.683V77.9481H312.486V65.4811C312.486 59.7188 308.073 56.4948 302.356 56.4948ZM301.756 74.3048C300.129 74.3048 297.863 73.5183 297.863 71.5521C297.863 69.0366 300.689 68.0713 303.136 68.0713C305.326 68.0713 306.353 68.5426 307.683 69.1633C307.293 72.1728 304.636 74.3048 301.756 74.3048ZM329.986 57.2066L324.269 71.2953H324.099L318.189 57.2066H312.826L321.706 76.8951L316.639 87.8508H321.836L335.519 57.2066H329.986ZM285.156 78.0001H290.143V45.5001H285.156V78.0001Z"
		fill="white" />
	<path
		d="M27.8246 19.5999C27.0412 20.3994 26.5879 21.6442 26.5879 23.2562V80.7552C26.5879 82.3672 27.0412 83.6119 27.8246 84.4114L28.0179 84.5869L61.0645 52.3794V51.6189L28.0179 19.4114L27.8246 19.5999Z"
		fill="url(#paint0_linear_2728_17459)" />
	<path
		d="M72.0697 63.1211L61.0664 52.3798V51.6193L72.0831 40.8781L72.3297 41.0178L85.3764 48.2556C89.0997 50.3096 89.0997 53.6896 85.3764 55.7566L72.3297 62.9813L72.0697 63.1211Z"
		fill="url(#paint1_linear_2728_17459)" />
	<path
		d="M72.3295 62.9814L61.0662 51.9997L27.8262 84.4119C29.0628 85.6794 31.0795 85.8322 33.3728 84.5647L72.3295 62.9814Z"
		fill="url(#paint2_linear_2728_17459)" />
	<path
		d="M72.3276 41.0183L33.3709 19.435C31.0776 18.1805 29.0609 18.3333 27.8242 19.6008L61.0642 52L72.3276 41.0183Z"
		fill="url(#paint3_linear_2728_17459)" />
	<defs>
		<linearGradient gradientUnits="userSpaceOnUse" id="paint0_linear_2728_17459" x1="58.1304" x2="14.5101"
			y1="81.3539" y2="36.6152">
			<stop stop-color="#00A0FF" />
			<stop offset="0.0066" stop-color="#00A1FF" />
			<stop offset="0.2601" stop-color="#00BEFF" />
			<stop offset="0.5122" stop-color="#00D2FF" />
			<stop offset="0.7604" stop-color="#00DFFF" />
			<stop offset="1" stop-color="#00E3FF" />
		</linearGradient>
		<linearGradient gradientUnits="userSpaceOnUse" id="paint1_linear_2728_17459" x1="90.2248" x2="25.6997"
			y1="51.996" y2="51.996">
			<stop stop-color="#FFE000" />
			<stop offset="0.4087" stop-color="#FFBD00" />
			<stop offset="0.7754" stop-color="#FFA500" />
			<stop offset="1" stop-color="#FF9C00" />
		</linearGradient>
		<linearGradient gradientUnits="userSpaceOnUse" id="paint2_linear_2728_17459" x1="66.2048" x2="7.05221"
			y1="46.0298" y2="-14.6395">
			<stop stop-color="#FF3A44" />
			<stop offset="1" stop-color="#C31162" />
		</linearGradient>
		<linearGradient gradientUnits="userSpaceOnUse" id="paint3_linear_2728_17459" x1="19.457" x2="45.8713"
			y1="103.542" y2="76.4506">
			<stop stop-color="#32A071" />
			<stop offset="0.0685" stop-color="#2DA771" />
			<stop offset="0.4762" stop-color="#15CF74" />
			<stop offset="0.8009" stop-color="#06E775" />
			<stop offset="1" stop-color="#00F076" />
		</linearGradient>
	</defs>
</svg>
