<svg width="60" height="60" viewBox="0 0 60 60" fill="none" xmlns="http://www.w3.org/2000/svg">
    <path fill-rule="evenodd" clip-rule="evenodd"
        d="M19.5006 15.2246C17.1396 15.2246 15.2256 17.1386 15.2256 19.4996V23.9996C15.2256 24.7038 15.7964 25.2746 16.5006 25.2746C17.2047 25.2746 17.7756 24.7038 17.7756 23.9996V19.4996C17.7756 18.5469 18.5479 17.7746 19.5006 17.7746H24.0006C24.7047 17.7746 25.2756 17.2038 25.2756 16.4996C25.2756 15.7954 24.7047 15.2246 24.0006 15.2246H19.5006ZM19.5006 44.7746C17.1396 44.7746 15.2256 42.8606 15.2256 40.4996V35.9996C15.2256 35.2954 15.7964 34.7246 16.5006 34.7246C17.2047 34.7246 17.7756 35.2954 17.7756 35.9996V40.4996C17.7756 41.4523 18.5479 42.2246 19.5006 42.2246H24.0006C24.7047 42.2246 25.2756 42.7954 25.2756 43.4996C25.2756 44.2038 24.7047 44.7746 24.0006 44.7746H19.5006ZM44.7756 19.4996C44.7756 17.1386 42.8616 15.2246 40.5006 15.2246H36.0006C35.2964 15.2246 34.7256 15.7954 34.7256 16.4996C34.7256 17.2038 35.2964 17.7746 36.0006 17.7746H40.5006C41.4533 17.7746 42.2256 18.5469 42.2256 19.4996V23.9996C42.2256 24.7038 42.7964 25.2746 43.5006 25.2746C44.2048 25.2746 44.7756 24.7038 44.7756 23.9996V19.4996ZM40.5006 44.7746C42.8616 44.7746 44.7756 42.8606 44.7756 40.4996V35.9996C44.7756 35.2954 44.2048 34.7246 43.5006 34.7246C42.7964 34.7246 42.2256 35.2954 42.2256 35.9996V40.4996C42.2256 41.4523 41.4533 42.2246 40.5006 42.2246H36.0006C35.2964 42.2246 34.7256 42.7954 34.7256 43.4996C34.7256 44.2038 35.2964 44.7746 36.0006 44.7746H40.5006ZM21.3756 19.8746C20.5472 19.8746 19.8756 20.5462 19.8756 21.3746V26.6246C19.8756 27.453 20.5472 28.1246 21.3756 28.1246H26.6256C27.454 28.1246 28.1256 27.453 28.1256 26.6246V21.3746C28.1256 20.5462 27.454 19.8746 26.6256 19.8746H21.3756ZM22.9631 37.4121C22.5489 37.4121 22.2131 37.0763 22.2131 36.6621V34.5871C22.2131 34.1729 22.5489 33.8371 22.9631 33.8371H25.0381C25.4523 33.8371 25.7881 34.1729 25.7881 34.5871V36.6621C25.7881 37.0763 25.4523 37.4121 25.0381 37.4121H22.9631ZM19.8756 32.9996C19.8756 32.1712 20.5472 31.4996 21.3756 31.4996H26.6256C27.454 31.4996 28.1256 32.1712 28.1256 32.9996V38.2496C28.1256 39.078 27.454 39.7496 26.6256 39.7496H21.3756C20.5472 39.7496 19.8756 39.078 19.8756 38.2496V32.9996ZM37.4131 22.9621C37.4131 22.5479 37.0773 22.2121 36.6631 22.2121H34.5881C34.1739 22.2121 33.8381 22.5479 33.8381 22.9621V25.0371C33.8381 25.4513 34.1739 25.7871 34.5881 25.7871H36.6631C37.0773 25.7871 37.4131 25.4513 37.4131 25.0371V22.9621ZM33.0006 19.8746C32.1722 19.8746 31.5006 20.5462 31.5006 21.3746V26.6246C31.5006 27.453 32.1722 28.1246 33.0006 28.1246H38.2506C39.079 28.1246 39.7506 27.453 39.7506 26.6246V21.3746C39.7506 20.5462 39.079 19.8746 38.2506 19.8746H33.0006ZM31.5006 32.2496C31.5006 31.8354 31.8364 31.4996 32.2506 31.4996H35.2506C35.6648 31.4996 36.0006 31.8354 36.0006 32.2496V34.4996C36.0006 34.9138 36.3364 35.2496 36.7506 35.2496H39.0006C39.4148 35.2496 39.7506 35.5854 39.7506 35.9996V38.9996C39.7506 39.4138 39.4148 39.7496 39.0006 39.7496H36.0006C35.5864 39.7496 35.2506 39.4138 35.2506 38.9996V36.7496C35.2506 36.3354 34.9148 35.9996 34.5006 35.9996H32.2506C31.8364 35.9996 31.5006 35.6638 31.5006 35.2496V32.2496ZM25.7881 22.9621C25.7881 22.5479 25.4523 22.2121 25.0381 22.2121H22.9631C22.5489 22.2121 22.2131 22.5479 22.2131 22.9621V25.0371C22.2131 25.4513 22.5489 25.7871 22.9631 25.7871H25.0381C25.4523 25.7871 25.7881 25.4513 25.7881 25.0371V22.9621Z"
        fill="#838CA6" />
</svg>
