<svg width="61" height="60" viewBox="0 0 61 60" fill="none" xmlns="http://www.w3.org/2000/svg">
    <path
        d="M39.7181 31.3846C39.7345 30.1126 40.0723 28.8653 40.7003 27.759C41.3282 26.6526 42.2258 25.7231 43.3095 25.0568C42.621 24.0736 41.7128 23.2645 40.6569 22.6936C39.6011 22.1228 38.4266 21.8061 37.2269 21.7685C34.6678 21.4999 32.1868 23.2999 30.8827 23.2999C29.5534 23.2999 27.5455 21.7952 25.3833 21.8397C23.9848 21.8849 22.6218 22.2916 21.4272 23.0201C20.2326 23.7487 19.247 24.7743 18.5666 25.997C15.6192 31.1 17.8177 38.5996 20.6411 42.7245C22.0537 44.7443 23.7046 47.0005 25.8648 46.9205C27.9787 46.8328 28.7682 45.5726 31.3198 45.5726C33.8477 45.5726 34.5884 46.9205 36.7925 46.8696C39.0608 46.8328 40.4899 44.8408 41.8529 42.8019C42.8679 41.3627 43.6489 39.772 44.167 38.0889C42.8492 37.5315 41.7246 36.5986 40.9334 35.4064C40.1423 34.2141 39.7196 32.8154 39.7181 31.3846Z"
        fill="#838CA6" />
    <path
        d="M35.5542 19.055C36.791 17.5704 37.4003 15.662 37.2527 13.7354C35.3632 13.9338 33.6178 14.8369 32.3644 16.2646C31.7515 16.9621 31.2821 17.7735 30.983 18.6525C30.684 19.5315 30.5611 20.4608 30.6214 21.3873C31.5665 21.3971 32.5014 21.1922 33.3559 20.7882C34.2103 20.3842 34.962 19.7916 35.5542 19.055Z"
        fill="#838CA6" />
</svg>
