<svg width="1022" height="215" viewBox="0 0 1022 215" fill="none"
    xmlns="http://www.w3.org/2000/svg">
    <path
        d="M735.614 68.6537C735.614 71.7855 734.103 74.8843 731.14 77.9234C728.176 80.964 723.783 83.9165 718.089 86.7416C706.704 92.391 690.203 97.4901 669.779 101.777C628.938 110.348 572.498 115.653 510.142 115.653C447.787 115.653 391.347 110.348 350.506 101.777C330.082 97.4901 313.581 92.391 302.195 86.7416C296.502 83.9165 292.109 80.964 289.144 77.9234C286.181 74.8843 284.671 71.7855 284.671 68.6537C284.671 65.5219 286.181 62.423 289.144 59.3839C292.109 56.3434 296.502 53.3908 302.195 50.5658C313.581 44.9163 330.082 39.8173 350.506 35.5308C391.347 26.9592 447.787 21.6544 510.142 21.6544C572.498 21.6544 628.938 26.9592 669.779 35.5308C690.203 39.8173 706.704 44.9163 718.089 50.5658C723.783 53.3908 728.176 56.3434 731.14 59.3839C734.103 62.423 735.614 65.5219 735.614 68.6537Z"
        stroke="#B2B2B2" stroke-width="0.814618" />
    <path
        d="M830.807 79.6987C830.807 84.217 828.634 88.6693 824.407 93.0153C820.18 97.3628 813.924 101.576 805.832 105.602C789.649 113.654 766.205 120.916 737.202 127.019C679.203 139.224 599.06 146.776 510.522 146.776C421.985 146.776 341.841 139.224 283.843 127.019C254.84 120.916 231.396 113.654 215.213 105.602C207.121 101.576 200.865 97.3628 196.637 93.0153C192.411 88.6693 190.237 84.217 190.237 79.6987C190.237 75.1804 192.411 70.7281 196.637 66.3821C200.865 62.0346 207.121 57.8213 215.213 53.7952C231.396 45.7438 254.84 38.4815 283.843 32.3783C341.841 20.1733 421.985 12.6212 510.522 12.6212C599.06 12.6212 679.203 20.1733 737.202 32.3783C766.205 38.4815 789.649 45.7438 805.832 53.7952C813.924 57.8213 820.18 62.0346 824.407 66.3821C828.634 70.7281 830.807 75.1804 830.807 79.6987Z"
        stroke="#CFCFCF" stroke-width="0.814618" />
    <path
        d="M932.792 92.6686C932.792 98.6498 929.909 104.53 924.33 110.256C918.751 115.983 910.5 121.528 899.84 126.821C878.52 137.409 847.644 146.954 809.457 154.975C733.089 171.015 627.569 180.94 511.001 180.94C394.434 180.94 288.913 171.015 212.546 154.975C174.358 146.954 143.482 137.409 122.162 126.821C111.502 121.528 103.252 115.983 97.672 110.256C92.0938 104.53 89.21 98.6498 89.21 92.6686C89.21 86.6875 92.0938 80.8068 97.672 75.0811C103.252 69.3538 111.502 63.8097 122.162 58.5158C143.482 47.9287 174.358 38.383 212.546 30.3622C288.913 14.3218 394.434 4.39754 511.001 4.39754C627.569 4.39754 733.089 14.3218 809.457 30.3622C847.644 38.383 878.52 47.9287 899.84 58.5158C910.5 63.8097 918.751 69.3538 924.33 75.0811C929.909 80.8068 932.792 86.6875 932.792 92.6686Z"
        stroke="#DEDEDE" stroke-width="0.814618" />
    <path
        d="M1021.59 107.33C1021.59 114.599 1018.09 121.737 1011.33 128.677C1004.56 135.618 994.569 142.334 981.662 148.743C955.849 161.562 918.47 173.117 872.248 182.826C779.81 202.241 652.089 214.253 511 214.253C369.911 214.253 242.19 202.241 149.752 182.826C103.53 173.117 66.1512 161.562 40.3381 148.743C27.4307 142.334 17.4361 135.618 10.6734 128.677C3.91225 121.737 0.407309 114.599 0.407309 107.33C0.407309 100.061 3.91225 92.9236 10.6734 85.9837C17.4361 79.0423 27.4307 72.3269 40.3381 65.9173C66.1512 53.0987 103.53 41.5434 149.752 31.8349C242.19 12.4193 369.911 0.407309 511 0.407309C652.089 0.407309 779.81 12.4193 872.248 31.8349C918.47 41.5434 955.849 53.0987 981.662 65.9173C994.569 72.3269 1004.56 79.0423 1011.33 85.9837C1018.09 92.9236 1021.59 100.061 1021.59 107.33Z"
        stroke="#E9E9E9" stroke-width="0.814618" />
    <path
        d="M337.247 46.4313C332.887 46.4313 329.353 42.8971 329.353 38.5374C329.353 34.1778 332.887 30.6436 337.247 30.6436C341.606 30.6436 345.141 34.1778 345.141 38.5374C345.141 42.8971 341.606 46.4313 337.247 46.4313Z"
        fill="#DB0025" />
    <path
        d="M244.042 132.07C233.878 132.07 225.637 123.829 225.637 113.665C225.637 103.5 233.878 95.2598 244.042 95.2598C254.207 95.2598 262.447 103.5 262.447 113.665C262.447 123.829 254.207 132.07 244.042 132.07Z"
        fill="#3AC9CC" />
    <path
        d="M843.121 58.3471C832.416 58.3471 823.738 49.6688 823.738 38.9636C823.738 28.2584 832.416 19.5801 843.121 19.5801C853.827 19.5801 862.505 28.2584 862.505 38.9636C862.505 49.6688 853.827 58.3471 843.121 58.3471Z"
        fill="#FED141" />
    <path
        d="M800.493 19.3935C795.141 19.3935 790.802 23.7325 790.802 29.085C790.802 34.4374 795.141 38.7764 800.493 38.7764C805.846 38.7764 810.185 34.4374 810.185 29.085C810.185 23.7325 805.846 19.3935 800.493 19.3935Z"
        fill="#3C5AAA" />
</svg>
