<svg width="28" height="28" viewBox="0 0 28 28" fill="none" xmlns="http://www.w3.org/2000/svg">
<g id="touch_app_black_24dp 1" clip-path="url(#clip0_5539_1163)">
<g id="Group">
<g id="Group_2">
<g id="Group_3">
<path id="Vector" d="M10.5001 13.1133V8.75C10.5001 7.14 11.8067 5.83333 13.4167 5.83333C15.0267 5.83333 16.3334 7.14 16.3334 8.75V13.1133C17.7451 12.1683 18.6667 10.57 18.6667 8.75C18.6667 5.845 16.3217 3.5 13.4167 3.5C10.5117 3.5 8.16675 5.845 8.16675 8.75C8.16675 10.57 9.08841 12.1683 10.5001 13.1133ZM21.9801 18.515L16.6834 15.8783C16.4851 15.7967 16.2751 15.75 16.0534 15.75H15.1667V8.75C15.1667 7.78167 14.3851 7 13.4167 7C12.4484 7 11.6667 7.78167 11.6667 8.75V21.28C7.46675 20.3933 7.53675 20.405 7.38508 20.405C7.02341 20.405 6.69675 20.5567 6.46341 20.79L5.54175 21.7233L11.3051 27.4867C11.6201 27.8017 12.0634 28 12.5417 28H20.4634C21.3384 28 22.0151 27.3583 22.1434 26.5067L23.0184 20.3583C23.0301 20.2767 23.0417 20.195 23.0417 20.125C23.0417 19.4017 22.5984 18.7717 21.9801 18.515Z" fill="white"/>
</g>
</g>
</g>
</g>
<defs>
<clipPath id="clip0_5539_1163">
<rect width="28" height="28" fill="white"/>
</clipPath>
</defs>
</svg>
