<svg width="20" height="20" viewBox="0 0 20 20" fill="none" xmlns="http://www.w3.org/2000/svg">
    <g clip-path="url(#clip0_19439_41378)">
        <mask id="path-1-inside-1_19439_41378" fill="white">
            <path
                d="M0 10C0 4.47715 4.47715 0 10 0C15.5228 0 20 4.47715 20 10C20 15.5228 15.5228 20 10 20C4.47715 20 0 15.5228 0 10Z" />
        </mask>
        <path
            d="M0 10C0 4.47715 4.47715 0 10 0C15.5228 0 20 4.47715 20 10C20 15.5228 15.5228 20 10 20C4.47715 20 0 15.5228 0 10Z"
            fill="white" />
        <path
            d="M9.99967 14.6663C12.577 14.6663 14.6663 12.577 14.6663 9.99967C14.6663 7.42235 12.577 5.33301 9.99967 5.33301C7.42235 5.33301 5.33301 7.42235 5.33301 9.99967C5.33301 12.577 7.42235 14.6663 9.99967 14.6663Z"
            fill="#5D80ED" />
    </g>
    <path
        d="M10 19C5.02944 19 1 14.9706 1 10H-1C-1 16.0751 3.92487 21 10 21V19ZM19 10C19 14.9706 14.9706 19 10 19V21C16.0751 21 21 16.0751 21 10H19ZM10 1C14.9706 1 19 5.02944 19 10H21C21 3.92487 16.0751 -1 10 -1V1ZM10 -1C3.92487 -1 -1 3.92487 -1 10H1C1 5.02944 5.02944 1 10 1V-1Z"
        fill="#5D80ED" mask="url(#path-1-inside-1_19439_41378)" />
    <defs>
        <clipPath id="clip0_19439_41378">
            <path
                d="M0 10C0 4.47715 4.47715 0 10 0C15.5228 0 20 4.47715 20 10C20 15.5228 15.5228 20 10 20C4.47715 20 0 15.5228 0 10Z"
                fill="white" />
        </clipPath>
    </defs>
</svg>
