<svg width="20" height="20" viewBox="0 0 20 20" fill="none" xmlns="http://www.w3.org/2000/svg">
    <path id="vector" fill-rule="evenodd" clip-rule="evenodd"
        d="M4.91645 14.0826C4.63983 14.3593 4.63983 14.8077 4.91645 15.0844C5.19307 15.361 5.64156 15.361 5.91819 15.0844L10.0007 11.0019L14.0831 15.0844C14.3597 15.361 14.8082 15.361 15.0849 15.0844C15.3615 14.8077 15.3615 14.3593 15.0849 14.0826L11.0024 10.0002L15.0849 5.9177C15.3615 5.64108 15.3615 5.19258 15.0849 4.91596C14.8082 4.63934 14.3597 4.63934 14.0831 4.91596L10.0007 8.99843L5.91819 4.91596C5.64156 4.63934 5.19307 4.63934 4.91645 4.91596C4.63983 5.19258 4.63983 5.64108 4.91645 5.9177L8.99892 10.0002L4.91645 14.0826Z"
        fill="white" />
</svg>
