<svg width="20" height="10" viewBox="0 0 20 10" fill="none" xmlns="http://www.w3.org/2000/svg">
<path d="M18 4C16.8954 4 16 3.10457 16 2C16 0.89543 16.8954 0 18 0C19.1046 0 20 0.895431 20 2C20 3.10457 19.1046 4 18 4Z" fill="#3C455D"/>
<path d="M10 4C8.89543 4 8 3.10457 8 2C8 0.895429 8.89543 -9.53674e-07 10 -9.53674e-07C11.1046 -9.53674e-07 12 0.89543 12 2C12 3.10457 11.1046 4 10 4Z" fill="#3C455D"/>
<path d="M2 4C0.89543 4 1.65704e-07 3.10457 2.62268e-07 2C3.58833e-07 0.895429 0.895431 -1.90735e-06 2 -1.90735e-06C3.10457 -1.90735e-06 4 0.895429 4 2C4 3.10457 3.10457 4 2 4Z" fill="#3C455D"/>
<path d="M18 10C16.8954 10 16 9.10457 16 8C16 6.89543 16.8954 6 18 6C19.1046 6 20 6.89543 20 8C20 9.10457 19.1046 10 18 10Z" fill="#3C455D"/>
<path d="M10 10C8.89543 10 8 9.10457 8 8C8 6.89543 8.89543 6 10 6C11.1046 6 12 6.89543 12 8C12 9.10457 11.1046 10 10 10Z" fill="#3C455D"/>
<path d="M2 10C0.89543 10 -9.65643e-08 9.10457 0 8C9.65648e-08 6.89543 0.895431 6 2 6C3.10457 6 4 6.89543 4 8C4 9.10457 3.10457 10 2 10Z" fill="#3C455D"/>
</svg>
