<svg width="16" height="16" viewBox="0 0 16 16" fill="none" xmlns="http://www.w3.org/2000/svg">
    <path opacity="0.48"
        d="M2.66608 5.56641C2.24266 5.56641 1.89941 5.90965 1.89941 6.33307V11.6664C1.89941 12.0898 2.24266 12.4331 2.66608 12.4331H3.66608C4.0895 12.4331 4.43275 12.0898 4.43275 11.6664V6.33307C4.43275 5.90965 4.0895 5.56641 3.66608 5.56641H2.66608Z"
        fill="#3C5AAA" />
    <path
        d="M9.56062 1.68754C8.97086 1.43478 8.28471 1.63794 7.92762 2.17103L5.81328 5.32755C5.51349 5.77509 5.04731 6.1016 4.5103 6.14384C4.39182 6.15316 4.33301 6.15316 4.33301 6.15316V11.8198C4.99967 11.8198 5.3878 11.8807 5.53195 11.9208L9.93678 13.1481C11.3027 13.5287 12.7114 12.6983 13.0398 11.3189L13.7376 8.3882C14.0867 6.92199 12.9749 5.51442 11.4677 5.51442H10.1676L10.7958 4.01576C11.1497 3.17162 10.7566 2.20009 9.91529 1.83953L9.56062 1.68754Z"
        fill="#3C5AAA" />
</svg>
