<svg width="24" height="24" viewBox="0 0 24 24" fill="none" xmlns="http://www.w3.org/2000/svg">
<path d="M10.9287 19.6168C10.6877 19.8578 10.3799 20.0208 10.0451 20.0846L4.84667 21.0762C4.29361 21.1817 3.72419 21.0065 3.32607 20.6084C2.92794 20.2102 2.75276 19.6408 2.85826 19.0878L3.84983 13.8893C3.91369 13.5546 4.07667 13.2467 4.31765 13.0057L11.9556 5.36783L18.5666 11.9789L10.9287 19.6168Z" fill="#5D80ED"/>
<path d="M19.9808 10.5647L20.1754 10.37C21.6204 8.9251 21.6204 6.58239 20.1754 5.13745L18.797 3.759C17.352 2.31406 15.0093 2.31406 13.5644 3.759L13.3698 3.95361L19.9808 10.5647Z" fill="#5D80ED"/>
</svg>
