<svg width="16" height="16" viewBox="0 0 16 16" fill="none" xmlns="http://www.w3.org/2000/svg">
    <path
        d="M5.46672 7.33347C5.46672 7.03892 5.7055 6.80014 6.00005 6.80014H10C10.2946 6.80014 10.5334 7.03892 10.5334 7.33347C10.5334 7.62803 10.2946 7.86681 10 7.86681H6.00005C5.7055 7.86681 5.46672 7.62803 5.46672 7.33347Z"
        fill="white" />
    <path
        d="M6.00005 9.46681C5.7055 9.46681 5.46672 9.70559 5.46672 10.0001C5.46672 10.2947 5.7055 10.5335 6.00005 10.5335H8.00005C8.2946 10.5335 8.53338 10.2947 8.53338 10.0001C8.53338 9.70559 8.2946 9.46681 8.00005 9.46681H6.00005Z"
        fill="white" />
    <path fill-rule="evenodd" clip-rule="evenodd"
        d="M6.00005 1.80014C5.5214 1.80014 5.13338 2.18816 5.13338 2.66681V2.80014H4.66672C3.63578 2.80014 2.80005 3.63588 2.80005 4.66681V12.6668C2.80005 13.6977 3.63578 14.5335 4.66672 14.5335H11.3334C12.3643 14.5335 13.2 13.6977 13.2 12.6668V4.66681C13.2 3.63588 12.3643 2.80014 11.3334 2.80014H10.8667V2.66681C10.8667 2.18816 10.4787 1.80014 10 1.80014H6.00005ZM10.8667 3.86681V4.00014C10.8667 4.47879 10.4787 4.86681 10 4.86681H6.00005C5.5214 4.86681 5.13338 4.47879 5.13338 4.00014V3.86681H4.66672C4.22489 3.86681 3.86672 4.22498 3.86672 4.66681V12.6668C3.86672 13.1086 4.22489 13.4668 4.66672 13.4668H11.3334C11.7752 13.4668 12.1334 13.1086 12.1334 12.6668V4.66681C12.1334 4.22498 11.7752 3.86681 11.3334 3.86681H10.8667ZM6.20005 3.80014V2.86681H9.80005V3.80014H6.20005Z"
        fill="white" />
</svg>
