<svg width="32" height="32" viewBox="0 0 32 32" fill="none" xmlns="http://www.w3.org/2000/svg">
    <path
        d="M12.0014 25.5333C11.3755 25.5333 10.8681 26.0407 10.8681 26.6666C10.8681 27.2926 11.3755 27.8 12.0014 27.8H26.6681C27.294 27.8 27.8014 27.2926 27.8014 26.6666C27.8014 26.0407 27.294 25.5333 26.6681 25.5333H12.0014Z"
        fill="white" />
    <path fill-rule="evenodd" clip-rule="evenodd"
        d="M18.817 5.22225C17.333 3.73825 14.927 3.73825 13.443 5.22225L4.95479 13.7105C3.47244 15.1928 3.47056 17.5956 4.95058 19.0803L8.40411 22.5476C8.61675 22.7609 8.90556 22.8808 9.20676 22.8808H17.3767C17.6773 22.8808 17.9656 22.7614 18.1781 22.5489L24.4739 16.2531C25.9579 14.7691 25.9579 12.3631 24.4739 10.8791L18.817 5.22225ZM15.0458 6.82502C15.6446 6.22622 16.6155 6.22622 17.2143 6.82502L22.8711 12.4819C23.4699 13.0807 23.4699 14.0515 22.8711 14.6503L16.9073 20.6142L9.67724 20.6142L6.55587 17.48C5.95867 16.8809 5.95943 15.9114 6.55757 15.3133L15.0458 6.82502Z"
        fill="white" />
</svg>
