<svg width="32" height="32" viewBox="0 0 32 32" fill="none" xmlns="http://www.w3.org/2000/svg">
    <path
        d="M12.8019 20.8014C12.3593 21.2439 11.6417 21.2439 11.1991 20.8014C10.7565 20.3588 10.7565 19.6412 11.1991 19.1986L14.3979 15.9998L11.1991 12.8011C10.7565 12.3585 10.7565 11.6409 11.1991 11.1983C11.6417 10.7557 12.3593 10.7557 12.8019 11.1983L16.0007 14.3971L19.1991 11.1986C19.6417 10.756 20.3593 10.756 20.8019 11.1986C21.2445 11.6412 21.2445 12.3588 20.8019 12.8014L17.6034 15.9998L20.8019 19.1983C21.2445 19.6409 21.2445 20.3585 20.8019 20.8011C20.3593 21.2437 19.6417 21.2437 19.1991 20.8011L16.0007 17.6026L12.8019 20.8014Z"
        fill="#838CA6" />
</svg>
