<svg width="24" height="24" viewBox="0 0 24 24" fill="none" xmlns="http://www.w3.org/2000/svg">
    <path id="vector" fill-rule="evenodd" clip-rule="evenodd"
        d="M10.0432 20.0846C10.3779 20.0208 10.6858 19.8578 10.9267 19.6168L20.1735 10.37C21.6184 8.9251 21.6184 6.58239 20.1735 5.13745L18.795 3.759C17.3501 2.31406 15.0074 2.31406 13.5624 3.759L4.31569 13.0057C4.07472 13.2467 3.91173 13.5546 3.84788 13.8893L2.8563 19.0878C2.75081 19.6408 2.92599 20.2102 3.32412 20.6084C3.72224 21.0065 4.29166 21.1817 4.84472 21.0762L10.0432 20.0846ZM5.51777 14.2078L4.5262 19.4063L9.72466 18.4147L17.4687 10.6707L13.2618 6.46382L5.51777 14.2078ZM14.4639 5.26174L18.6707 9.46862L18.9714 9.16796C19.7525 8.38691 19.7525 7.12058 18.9714 6.33953L17.593 4.96108C16.8119 4.18003 15.5456 4.18003 14.7645 4.96108L14.4639 5.26174Z"
        fill="white" />
</svg>
