<svg width="20" height="20" viewBox="0 0 20 20" fill="none" xmlns="http://www.w3.org/2000/svg">
    <path id="vector"
        d="M5.00065 8.33325C4.08398 8.33325 3.33398 9.08325 3.33398 9.99992C3.33398 10.9166 4.08398 11.6666 5.00065 11.6666C5.91732 11.6666 6.66732 10.9166 6.66732 9.99992C6.66732 9.08325 5.91732 8.33325 5.00065 8.33325ZM15.0007 8.33325C14.084 8.33325 13.334 9.08325 13.334 9.99992C13.334 10.9166 14.084 11.6666 15.0007 11.6666C15.9173 11.6666 16.6673 10.9166 16.6673 9.99992C16.6673 9.08325 15.9173 8.33325 15.0007 8.33325ZM10.0007 8.33325C9.08398 8.33325 8.33398 9.08325 8.33398 9.99992C8.33398 10.9166 9.08398 11.6666 10.0007 11.6666C10.9173 11.6666 11.6673 10.9166 11.6673 9.99992C11.6673 9.08325 10.9173 8.33325 10.0007 8.33325Z"
        fill="white" />
</svg>
