<svg width="32" height="32" viewBox="0 0 32 32" fill="none" xmlns="http://www.w3.org/2000/svg">
<path opacity="0.32" fill-rule="evenodd" clip-rule="evenodd" d="M7.73438 9.33315C7.73438 10.2168 8.45072 10.9332 9.33437 10.9332L22.6677 10.9332C23.5514 10.9332 24.2677 10.2168 24.2677 9.33315C24.2677 8.4495 23.5514 7.73315 22.6677 7.73315L9.33437 7.73315C8.45072 7.73315 7.73437 8.4495 7.73438 9.33315Z" fill="white"/>
<path fill-rule="evenodd" clip-rule="evenodd" d="M10.203 24.4644C9.57817 23.8396 9.57817 22.8265 10.203 22.2017L14.8697 17.535C15.1697 17.235 15.5767 17.0664 16.001 17.0664C16.4254 17.0664 16.8324 17.235 17.1324 17.535L21.7991 22.2017C22.4239 22.8265 22.4239 23.8396 21.7991 24.4644C21.1742 25.0893 20.1612 25.0893 19.5363 24.4644L16.001 20.9291L12.4657 24.4644C11.8409 25.0893 10.8278 25.0893 10.203 24.4644Z" fill="white"/>
</svg>
