<svg width="32" height="32" viewBox="0 0 32 32" fill="none" xmlns="http://www.w3.org/2000/svg">
    <path opacity="0.32" fill-rule="evenodd" clip-rule="evenodd"
        d="M9.33047 24.2668C10.2141 24.2668 10.9305 23.5505 10.9305 22.6668L10.9305 9.33351C10.9305 8.44986 10.2141 7.73351 9.33047 7.73351C8.44681 7.73351 7.73047 8.44986 7.73047 9.33351L7.73047 22.6668C7.73047 23.5505 8.44681 24.2668 9.33047 24.2668Z"
        fill="white" />
    <path fill-rule="evenodd" clip-rule="evenodd"
        d="M24.4605 21.7982C23.8357 22.4231 22.8226 22.4231 22.1978 21.7982L17.5311 17.1316C17.2311 16.8315 17.0625 16.4245 17.0625 16.0002C17.0625 15.5758 17.2311 15.1689 17.5311 14.8688L22.1978 10.2021C22.8226 9.5773 23.8357 9.5773 24.4605 10.2021C25.0854 10.827 25.0854 11.84 24.4605 12.4649L20.9252 16.0002L24.4605 19.5355C25.0854 20.1603 25.0854 21.1734 24.4605 21.7982Z"
        fill="white" />
</svg>
