<svg width="16" height="15" viewBox="0 0 16 15" fill="none" xmlns="http://www.w3.org/2000/svg">
<path fill-rule="evenodd" clip-rule="evenodd" d="M2.57902 1.2459C2.16246 1.66246 2.16246 2.33783 2.57902 2.75439L7.24569 7.42106C7.44573 7.6211 7.71704 7.73348 7.99994 7.73348C8.28283 7.73348 8.55414 7.6211 8.75418 7.42106L13.4209 2.75439C13.8374 2.33783 13.8374 1.66246 13.4209 1.2459C13.0043 0.829341 12.3289 0.829341 11.9124 1.2459L7.99994 5.15832L4.08752 1.2459C3.67096 0.829339 2.99558 0.82934 2.57902 1.2459Z" fill="white"/>
<path fill-rule="evenodd" clip-rule="evenodd" d="M0.266602 13.3335C0.266602 12.7444 0.744165 12.2668 1.33327 12.2668L14.6666 12.2668C15.2557 12.2668 15.7333 12.7444 15.7333 13.3335C15.7333 13.9226 15.2557 14.4001 14.6666 14.4001L1.33327 14.4001C0.744164 14.4001 0.266602 13.9226 0.266602 13.3335Z" fill="white"/>
</svg>
