<svg width="20" height="20" viewBox="0 0 20 20" fill="none" xmlns="http://www.w3.org/2000/svg">
    <g id="icon">
        <g id="vector">
            <path fill-rule="evenodd" clip-rule="evenodd"
                d="M9.99935 6.79199C8.22744 6.79199 6.79102 8.22841 6.79102 10.0003C6.79102 11.7722 8.22744 13.2087 9.99935 13.2087C11.7713 13.2087 13.2077 11.7722 13.2077 10.0003C13.2077 8.22841 11.7713 6.79199 9.99935 6.79199ZM8.20768 10.0003C8.20768 9.01082 9.00984 8.20866 9.99935 8.20866C10.9889 8.20866 11.791 9.01082 11.791 10.0003C11.791 10.9898 10.9889 11.792 9.99935 11.792C9.00984 11.792 8.20768 10.9898 8.20768 10.0003Z"
                fill="white" />
            <path fill-rule="evenodd" clip-rule="evenodd"
                d="M8.10738 1.79199C7.76151 1.79199 7.46621 2.04177 7.40885 2.38285L7.03258 4.62022C6.83774 4.72356 6.64896 4.83662 6.46691 4.95873L4.39207 4.31155C4.07678 4.2132 3.73536 4.3458 3.5691 4.63118L1.88735 7.51793C1.71192 7.81906 1.78159 8.20304 2.05161 8.42335L3.67155 9.74496C3.66035 9.89818 3.65466 10.0528 3.65466 10.2087C3.65466 10.3593 3.65998 10.5089 3.67045 10.6571L2.23315 11.9636C1.98584 12.1884 1.92932 12.5555 2.09756 12.8443L3.77933 15.7311C3.9527 16.0287 4.31502 16.1584 4.63791 16.0385L6.37297 15.3944C6.60731 15.5577 6.85327 15.7057 7.10939 15.8372L7.40885 17.6178C7.46621 17.9589 7.76151 18.2087 8.10738 18.2087H11.4709C11.8024 18.2087 12.0895 17.9788 12.1621 17.6553L12.5233 16.0444C12.9315 15.8732 13.3179 15.6611 13.6773 15.4135L15.3609 16.0385C15.6838 16.1584 16.0461 16.0287 16.2195 15.7311L17.9012 12.8443C18.0695 12.5555 18.0129 12.1884 17.7656 11.9636L16.4023 10.7243C16.4162 10.5541 16.4232 10.3821 16.4232 10.2087C16.4232 10.0322 16.4159 9.85732 16.4016 9.68428L17.9472 8.42335C18.2172 8.20304 18.2869 7.81906 18.1114 7.51793L16.4297 4.63118C16.2634 4.3458 15.922 4.2132 15.6067 4.31155L13.5858 4.94192C13.2834 4.74118 12.9627 4.56534 12.6267 4.41738L12.1621 2.34534C12.0895 2.02189 11.8024 1.79199 11.4709 1.79199H8.10738ZM8.36953 5.21252L8.70653 3.20866H10.9038L11.3256 5.08956C11.3782 5.32418 11.5462 5.51609 11.7718 5.59923C12.2293 5.76779 12.6552 6.00132 13.0378 6.28863C13.2199 6.42534 13.4567 6.46617 13.674 6.39837L15.4897 5.83202L16.5827 7.70819L15.206 8.8314C15.0124 8.98932 14.9163 9.23751 14.9531 9.4846C14.9883 9.72052 15.0065 9.96226 15.0065 10.2087C15.0065 10.4454 14.9897 10.6779 14.9572 10.905C14.9239 11.1376 15.0081 11.3715 15.1819 11.5295L16.3886 12.6264L15.2953 14.5031L13.8121 13.9524C13.5808 13.8665 13.3214 13.9072 13.1275 14.0597C12.6979 14.3978 12.2106 14.6668 11.683 14.8499C11.4513 14.9303 11.2777 15.1248 11.224 15.3641L10.9038 16.792H8.70653L8.4453 15.2386C8.40566 15.003 8.24986 14.8032 8.03095 14.7073C7.63339 14.5332 7.26307 14.3088 6.92822 14.0422C6.73406 13.8877 6.47317 13.846 6.24052 13.9324L4.70345 14.5031L3.61015 12.6264L4.88717 11.4655C5.05885 11.3095 5.14322 11.0792 5.11302 10.8492C5.08554 10.6399 5.07133 10.4261 5.07133 10.2087C5.07133 9.97977 5.08708 9.75492 5.11748 9.53502C5.15133 9.29018 5.05511 9.04541 4.8636 8.88916L3.41605 7.70819L4.50906 5.83202L6.3807 6.41583C6.59929 6.48401 6.83736 6.44232 7.01977 6.30391C7.31112 6.08286 7.62779 5.8931 7.96465 5.73964C8.17879 5.6421 8.33051 5.44457 8.36953 5.21252Z"
                fill="white" />
        </g>
    </g>
</svg>
