<svg width="139" height="121" viewBox="0 0 139 121" fill="none" xmlns="http://www.w3.org/2000/svg">
    <path d="M96.5204 86.4421V117.814C96.5204 119.223 95.3782 120.365 93.9693 120.365H44.8401C43.4312 120.365 42.2891 119.223 42.2891 117.814L42.2891 86.4421C42.2891 85.0332 43.4312 83.8911 44.8401 83.8911H57.3427L67.2979 92.4378C68.2537 93.2585 69.6655 93.2585 70.6214 92.4378L80.5766 83.8911H93.9693C95.3782 83.8911 96.5204 85.0332 96.5204 86.4421Z"
          fill="#838CA6"/>
    <path d="M94.2196 115.615H44.4774L44.4774 87.5587C44.4774 86.8543 45.0485 86.2832 45.7529 86.2832H92.944C93.6485 86.2832 94.2196 86.8543 94.2196 87.5587V115.615Z"
          fill="white"/>
    <path d="M103.787 115.582L35.2214 115.582C34.6931 115.582 34.2648 116.01 34.2648 116.539V118.452C34.2648 119.509 35.1214 120.365 36.1781 120.365L102.83 120.365C103.887 120.365 104.744 119.509 104.744 118.452V116.539C104.744 116.01 104.315 115.582 103.787 115.582Z"
          fill="#838CA6"/>
    <path d="M0.346707 1.45936L0.34671 68.2071C0.34671 69.0128 0.999908 69.666 1.80566 69.666L59.7967 69.666L59.7967 60.7298L78.3985 60.7298L78.3985 69.666L136.76 69.666C137.566 69.666 138.219 69.0128 138.219 68.207L138.219 1.45935C138.219 0.653587 137.566 0.000389128 136.76 0.000389163L1.80568 0.000395062C0.999905 0.000395097 0.346707 0.653601 0.346707 1.45936Z"
          fill="#3C5AAA"/>
    <path d="M135.703 61.8762H2.86206V3.46094H135.703V61.8762Z" fill="white"/>
    <path d="M62.0526 14.8181V23.3066H60.2579V14.8181H62.0526ZM63.5292 23.3066V14.8181H69.1495V16.2978H65.3239V18.3205H68.7765V19.8001H65.3239V23.3066H63.5292ZM70.3567 23.3066V14.8181H73.7057C74.3495 14.8181 74.898 14.9411 75.3512 15.187C75.8043 15.4302 76.1497 15.7686 76.3874 16.2025C76.6278 16.6335 76.748 17.1309 76.748 17.6946C76.748 18.2583 76.6264 18.7557 76.3832 19.1867C76.1401 19.6178 75.7877 19.9535 75.3263 20.1939C74.8676 20.4343 74.3122 20.5545 73.6601 20.5545H71.5255V19.1163H73.37C73.7154 19.1163 74 19.0568 74.2238 18.938C74.4504 18.8165 74.6189 18.6493 74.7294 18.4365C74.8427 18.221 74.8994 17.9737 74.8994 17.6946C74.8994 17.4127 74.8427 17.1668 74.7294 16.9568C74.6189 16.7441 74.4504 16.5796 74.2238 16.4636C73.9972 16.3448 73.7098 16.2854 73.3617 16.2854H72.1514V23.3066H70.3567Z"
          fill="#3C5AAA"/>
    <path d="M62.5549 76.6277V45.9556C62.5549 45.5541 62.8805 45.2285 63.282 45.2285H74.9169C75.3178 45.2285 75.6428 45.5535 75.6428 45.9544V76.6277C75.6428 77.0293 75.9683 77.3548 76.3699 77.3548H82.2952C82.9611 77.3548 83.2767 78.1756 82.7824 78.6217L70.2376 89.9426C69.6914 90.4355 68.8633 90.4429 68.3084 89.9598L55.2948 78.6303C54.7878 78.1889 55.1 77.3548 55.7722 77.3548H61.8278C62.2294 77.3548 62.5549 77.0293 62.5549 76.6277Z"
          fill="#3C5AAA"/>
</svg>
