<svg width="24" height="24" viewBox="0 0 24 24" fill="none" xmlns="http://www.w3.org/2000/svg">
    <path
        d="M10.5 9.36863C10.8124 9.68105 10.8124 10.1876 10.5 10.5C10.1876 10.8124 9.68105 10.8124 9.36863 10.5L4.79971 5.93108L4.79971 9.49971C4.79971 9.94153 4.44154 10.2997 3.99971 10.2997C3.55788 10.2997 3.19971 9.94153 3.19971 9.49971V3.99971C3.19971 3.78753 3.28399 3.58405 3.43402 3.43402C3.58405 3.28399 3.78753 3.19971 3.99971 3.19971H9.49971C9.94154 3.19971 10.2997 3.55788 10.2997 3.99971C10.2997 4.44153 9.94154 4.79971 9.49971 4.79971L5.93108 4.79971L10.5 9.36863Z"
        fill="white" />
    <path fill-rule="evenodd" clip-rule="evenodd"
        d="M11.7001 13.4997V18.9997C11.7001 19.9938 12.506 20.7997 13.5001 20.7997L19.0001 20.7997C19.9942 20.7997 20.8001 19.9938 20.8001 18.9997V13.4997C20.8001 12.5056 19.9942 11.6997 19.0001 11.6997H13.5001C12.506 11.6997 11.7001 12.5056 11.7001 13.4997ZM13.3001 18.9997L13.3001 13.4997C13.3001 13.3892 13.3896 13.2997 13.5001 13.2997H19.0001C19.1106 13.2997 19.2001 13.3892 19.2001 13.4997V18.9997C19.2001 19.1102 19.1106 19.1997 19.0001 19.1997L13.5001 19.1997C13.3896 19.1997 13.3001 19.1102 13.3001 18.9997Z"
        fill="white" />
</svg>
