<svg width="36" height="36" viewBox="0 0 36 36" fill="none" xmlns="http://www.w3.org/2000/svg">
<path fill-rule="evenodd" clip-rule="evenodd" d="M16.0549 19.0951C13.2364 17.3988 9.12113 17.6834 6.20861 19.8921C5.3285 20.5595 4.07396 20.3871 3.40652 19.507C2.73908 18.6269 2.91149 17.3724 3.79161 16.7049C7.87909 13.6052 13.7638 13.0477 18.1175 15.6679C21.7763 17.8699 24.1106 18.0518 25.5715 17.8319C26.3309 17.7175 26.9607 17.4796 27.5384 17.2141C27.7402 17.1214 27.9029 17.0414 28.0773 16.9557C28.1813 16.9045 28.2894 16.8514 28.4125 16.7922C28.6861 16.6608 29.0582 16.4877 29.4501 16.3756C30.5121 16.0719 31.6193 16.6866 31.923 17.7485C32.2267 18.8105 31.6121 19.9177 30.5501 20.2214C30.5143 20.2317 30.4094 20.2705 30.1447 20.3977C30.0809 20.4284 30.0013 20.4674 29.9116 20.5114C29.7079 20.6113 29.4518 20.737 29.2085 20.8488C28.441 21.2014 27.433 21.5967 26.167 21.7873C23.5772 22.1772 20.3099 21.6559 16.0549 19.0951Z" fill="white"/>
</svg>
