<svg width="16" height="16" viewBox="0 0 16 16" fill="none" xmlns="http://www.w3.org/2000/svg">
    <path fill-rule="evenodd" clip-rule="evenodd"
        d="M12.0862 7.62038C12.2967 7.85195 12.2796 8.21034 12.0481 8.42086L8.3814 11.7542C8.16526 11.9507 7.83518 11.9507 7.61904 11.7542L3.95237 8.42086C3.7208 8.21034 3.70373 7.85195 3.91425 7.62038C4.12477 7.38881 4.48316 7.37174 4.71473 7.58226L7.43355 10.0539L7.43355 2.66823C7.43355 2.35527 7.68726 2.10156 8.00022 2.10156C8.31318 2.10156 8.56689 2.35527 8.56689 2.66823L8.56689 10.0539L11.2857 7.58226C11.5173 7.37174 11.8757 7.38881 12.0862 7.62038Z"
        fill="white" />
    <path fill-rule="evenodd" clip-rule="evenodd"
        d="M2.66689 10.7682C2.97985 10.7682 3.23355 11.0219 3.23355 11.3349V12.6682C3.23355 13.0916 3.5768 13.4349 4.00022 13.4349H12.0002C12.4236 13.4349 12.7669 13.0916 12.7669 12.6682V11.3349C12.7669 11.0219 13.0206 10.7682 13.3336 10.7682C13.6465 10.7682 13.9002 11.0219 13.9002 11.3349V12.6682C13.9002 13.7176 13.0496 14.5682 12.0002 14.5682H4.00022C2.95088 14.5682 2.10022 13.7176 2.10022 12.6682V11.3349C2.10022 11.0219 2.35393 10.7682 2.66689 10.7682Z"
        fill="white" />
</svg>
