<svg width="32" height="32" viewBox="0 0 32 32" fill="none" xmlns="http://www.w3.org/2000/svg">
<path fill-rule="evenodd" clip-rule="evenodd" d="M21.009 6.8667C20.493 4.57695 18.4468 2.8667 16.0012 2.8667C13.5555 2.8667 11.5094 4.57695 10.9934 6.8667H5.33451C4.70858 6.8667 4.20117 7.37411 4.20117 8.00003C4.20117 8.62596 4.70858 9.13337 5.33451 9.13337H5.67559L7.59399 23.5214C8.02234 26.734 10.7628 29.1334 14.0039 29.1334H17.9984C21.2395 29.1334 23.98 26.734 24.4084 23.5214L26.3268 9.13337H26.6678C27.2938 9.13337 27.8012 8.62596 27.8012 8.00003C27.8012 7.37411 27.2938 6.8667 26.6678 6.8667H21.009ZM18.6351 6.8667C18.1958 5.84713 17.1818 5.13337 16.0012 5.13337C14.8205 5.13337 13.8065 5.84713 13.3673 6.8667H18.6351ZM9.84077 23.2218L7.96231 9.13337H24.04L22.1616 23.2218C21.8834 25.3084 20.1035 26.8667 17.9984 26.8667H14.0039C11.8989 26.8667 10.119 25.3084 9.84077 23.2218Z" fill="white"/>
</svg>
