<svg width="32" height="32" viewBox="0 0 32 32" fill="none" xmlns="http://www.w3.org/2000/svg">
    <path fill-rule="evenodd" clip-rule="evenodd"
        d="M7.13337 8.00029C7.13337 7.15346 7.81986 6.46696 8.6667 6.46696L24 6.46696C24.8469 6.46696 25.5334 7.15345 25.5334 8.00029V12.667C25.5334 13.2929 26.0408 13.8003 26.6667 13.8003C27.2926 13.8003 27.8 13.2929 27.8 12.667V8.00029C27.8 5.90161 26.0987 4.20029 24 4.20029H8.6667C6.56802 4.20029 4.8667 5.90161 4.8667 8.00029L4.8667 24.0003C4.8667 26.099 6.56802 27.8003 8.6667 27.8003L12 27.8003C12.626 27.8003 13.1334 27.2929 13.1334 26.667C13.1334 26.041 12.626 25.5336 12 25.5336L8.6667 25.5336C7.81986 25.5336 7.13337 24.8471 7.13337 24.0003L7.13337 8.00029Z"
        fill="#838CA6" />
    <path fill-rule="evenodd" clip-rule="evenodd"
        d="M15.1986 15.1989C14.7561 15.6415 14.7561 16.3591 15.1986 16.8017L23.9306 25.5336L18.6667 25.5336C18.0408 25.5336 17.5334 26.041 17.5334 26.667C17.5334 27.2929 18.0408 27.8003 18.6667 27.8003L26.6667 27.8003C27.2926 27.8003 27.8 27.2929 27.8 26.667V18.667C27.8 18.041 27.2926 17.5336 26.6667 17.5336C26.0408 17.5336 25.5334 18.041 25.5334 18.667V23.9308L16.8014 15.1989C16.3588 14.7563 15.6412 14.7563 15.1986 15.1989Z"
        fill="#838CA6" />
</svg>
