<svg width="36" height="36" viewBox="0 0 36 36" fill="none" xmlns="http://www.w3.org/2000/svg">
<path fill-rule="evenodd" clip-rule="evenodd" d="M16.8283 17.8093C13.4341 15.7666 8.65528 16.1534 5.30215 18.6963C5.08212 18.8632 4.76849 18.82 4.60163 18.6C4.43477 18.38 4.47787 18.0664 4.6979 17.8995C8.34477 15.1339 13.566 14.6788 17.3439 16.9525C21.2263 19.2891 23.9105 19.5982 25.7947 19.3145C26.7441 19.1716 27.5157 18.8746 28.1646 18.5765C28.3811 18.477 28.5755 18.3815 28.7632 18.2893C28.864 18.2399 28.9627 18.1913 29.062 18.1436C29.3322 18.0138 29.6042 17.8911 29.8625 17.8172C30.128 17.7412 30.4048 17.8949 30.4808 18.1604C30.5567 18.4259 30.403 18.7027 30.1375 18.7786C29.9682 18.8271 29.7631 18.9162 29.4951 19.045C29.4106 19.0856 29.319 19.1306 29.2218 19.1783C29.0266 19.2741 28.809 19.3809 28.5821 19.4851C27.8858 19.8051 27.0196 20.1414 25.9436 20.3034C23.7771 20.6296 20.8597 20.2356 16.8283 17.8093Z" fill="white"/>
</svg>
