<svg width="16" height="17" viewBox="0 0 16 17" fill="none" xmlns="http://www.w3.org/2000/svg">
    <path d="M7.99987 4.9668C8.29442 4.9668 8.5332 5.20558 8.5332 5.50013V9.1668C8.5332 9.46135 8.29442 9.70013 7.99987 9.70013C7.70532 9.70013 7.46654 9.46135 7.46654 9.1668V5.50013C7.46654 5.20558 7.70532 4.9668 7.99987 4.9668Z" fill="#DB0025"/>
    <path d="M7.33333 11.1667C7.33333 11.5333 7.63333 11.8333 8 11.8333C8.36667 11.8333 8.66667 11.5333 8.66667 11.1667C8.66667 10.8 8.36667 10.5 8 10.5C7.63333 10.5 7.33333 10.8 7.33333 11.1667Z" fill="#DB0025"/>
    <path fill-rule="evenodd" clip-rule="evenodd" d="M1.4668 8.50013C1.4668 4.89187 4.39187 1.9668 8.00013 1.9668C11.6084 1.9668 14.5335 4.89187 14.5335 8.50013C14.5335 12.1084 11.6084 15.0335 8.00013 15.0335C4.39187 15.0335 1.4668 12.1084 1.4668 8.50013ZM8.00013 3.03346C4.98097 3.03346 2.53346 5.48097 2.53346 8.50013C2.53346 11.5193 4.98097 13.9668 8.00013 13.9668C11.0193 13.9668 13.4668 11.5193 13.4668 8.50013C13.4668 5.48097 11.0193 3.03346 8.00013 3.03346Z" fill="#DB0025"/>
</svg>
