<svg width="16" height="16" viewBox="0 0 16 16" fill="none" xmlns="http://www.w3.org/2000/svg">
    <g id="Bottom Label Left Icon">
        <g id="vector">
            <path
                d="M8.00059 11.3337C8.31355 11.3337 8.56725 11.08 8.56725 10.767V7.43366C8.56725 7.1207 8.31355 6.86699 8.00059 6.86699C7.68762 6.86699 7.43392 7.1207 7.43392 7.43366V10.767C7.43392 11.08 7.68762 11.3337 8.00059 11.3337Z"
                fill="#2A2A2A" />
            <path
                d="M8.00065 4.60026C7.54232 4.60026 7.16732 4.97526 7.16732 5.43359C7.16732 5.89193 7.54232 6.26693 8.00065 6.26693C8.45898 6.26693 8.83398 5.89193 8.83398 5.43359C8.83398 4.97526 8.45898 4.60026 8.00065 4.60026Z"
                fill="#2A2A2A" />
            <path fill-rule="evenodd" clip-rule="evenodd"
                d="M1.43359 8.00026C1.43359 4.37359 4.37359 1.43359 8.00026 1.43359C11.6269 1.43359 14.5669 4.37359 14.5669 8.00026C14.5669 11.6269 11.6269 14.5669 8.00026 14.5669C4.37359 14.5669 1.43359 11.6269 1.43359 8.00026ZM8.00026 2.56693C4.99951 2.56693 2.56693 4.99951 2.56693 8.00026C2.56693 11.001 4.99951 13.4336 8.00026 13.4336C11.001 13.4336 13.4336 11.001 13.4336 8.00026C13.4336 4.99951 11.001 2.56693 8.00026 2.56693Z"
                fill="#2A2A2A" />
        </g>
    </g>
</svg>
