<svg width="86" height="108" viewBox="0 0 86 108" fill="none" xmlns="http://www.w3.org/2000/svg">
    <g clip-path="url(#clip0_6924_6565)">
        <path
            d="M74.3057 51.943C71.7009 51.943 69.2928 51.1004 67.3253 49.6803V55.8438C67.3253 59.7575 64.1516 62.9312 60.238 62.9312H25.7636C21.85 62.9312 18.6763 59.7575 18.6763 55.8438V21.3652C18.6763 17.4515 21.85 14.2778 25.7636 14.2778H31.9057C30.4472 12.2932 29.5746 9.8552 29.5746 7.2076C29.5746 4.56 30.4514 2.09205 31.9271 0.107422H18.6805C10.849 0.107422 4.50586 6.45053 4.50586 14.2778V62.9269C4.50586 70.7542 10.849 77.0973 18.6763 77.0973H67.3253C75.1526 77.0973 81.4957 70.7542 81.4957 62.9269V49.5264C79.494 51.0405 77.0047 51.943 74.3057 51.943Z"
            fill="#DB0025" />
        <path
            d="M79.9777 38.4744C79.9777 18.0635 63.3736 1.45508 42.9584 1.45508H41.5427C38.4118 1.45508 35.8711 3.99574 35.8711 7.12667C35.8711 10.2576 38.4118 12.7983 41.5427 12.7983H42.9584C57.116 12.7983 68.6346 24.3168 68.6346 38.4744V39.8901C68.6346 43.0211 71.1752 45.5617 74.3061 45.5617C77.4371 45.5617 79.9777 43.0211 79.9777 39.8901V38.4915C79.9777 38.4915 79.9777 38.4829 79.9777 38.4744Z"
            fill="#3C5AAA" />
        <path
            d="M42.9584 45.5614C46.8727 45.5614 50.0458 42.3883 50.0458 38.4741C50.0458 34.5598 46.8727 31.3867 42.9584 31.3867C39.0442 31.3867 35.8711 34.5598 35.8711 38.4741C35.8711 42.3883 39.0442 45.5614 42.9584 45.5614Z"
            fill="#FED141" />
        <path
            d="M42.9584 16.8574H41.5427C38.4118 16.8574 35.8711 19.3981 35.8711 22.529C35.8711 25.6599 38.4118 28.2006 41.5427 28.2006H42.9584C48.6257 28.2006 53.2366 32.8114 53.2366 38.4787V39.8945C53.2366 43.0254 55.7773 45.5661 58.9082 45.5661C62.0391 45.5661 64.5798 43.0254 64.5798 39.8945V38.4787C64.5798 26.5581 54.879 16.8574 42.9584 16.8574Z"
            fill="#3AC9CC" />
    </g>
    <path fill-rule="evenodd" clip-rule="evenodd"
        d="M22.1752 89.8755C22.1752 90.8582 21.4144 91.6551 20.476 91.6551V91.6547C19.5379 91.6547 18.7774 90.8579 18.7774 89.8752C18.7774 88.8926 19.5376 88.0957 20.476 88.0957C21.4144 88.0957 22.1752 88.8929 22.1752 89.8755ZM35.0891 104.059C36.1764 104.39 37.3094 104.555 38.4881 104.555L38.4884 104.555C39.8775 104.555 41.0351 104.335 41.9612 103.894C42.887 103.453 43.5779 102.872 44.0342 102.152C44.4899 101.432 44.7182 100.638 44.7182 99.77C44.7182 98.9761 44.5601 98.3108 44.2445 97.774C43.9287 97.2378 43.5184 96.8115 43.0133 96.495C42.5082 96.1789 41.9536 95.9182 41.3506 95.712C40.7469 95.5061 40.1366 95.3335 39.5194 95.1936C38.9019 95.0541 38.3407 94.9145 37.8356 94.7746C37.3305 94.635 36.9237 94.4403 36.6151 94.1902C36.3065 93.9401 36.1522 93.6095 36.1522 93.1977C36.1522 92.8746 36.247 92.5803 36.4362 92.3157C36.6258 92.051 36.9237 91.8415 37.3309 91.6871C37.7374 91.5326 38.3061 91.4554 38.9513 91.4554C39.5966 91.4554 40.2698 91.5544 40.9718 91.7531C41.6734 91.9517 42.3536 92.2493 43.0133 92.6463L44.0868 89.9557C43.4132 89.5149 42.6241 89.1767 41.719 88.9414C40.814 88.7065 39.8986 88.5887 38.9724 88.5887C37.5834 88.5887 36.4293 88.8058 35.5104 89.2394C34.5915 89.6733 33.9072 90.2537 33.4585 90.9816C33.0091 91.7092 32.7849 92.5143 32.7849 93.3963C32.7849 94.2051 32.9354 94.8775 33.2374 95.4141C33.5388 95.9509 33.9456 96.3842 34.458 96.7151C34.97 97.0457 35.5315 97.3104 36.1418 97.509C36.7521 97.7073 37.3589 97.8766 37.9622 98.0162C38.5653 98.1561 39.123 98.3029 39.6353 98.4573C40.1473 98.6118 40.5577 98.8104 40.8666 99.0529C41.1749 99.2955 41.3295 99.6228 41.3295 100.034C41.3295 100.358 41.2309 100.641 41.0347 100.883C40.8382 101.126 40.5331 101.321 40.1193 101.468C39.7052 101.614 39.1617 101.688 38.4881 101.688C37.6042 101.688 36.7272 101.538 35.8574 101.236C34.987 100.935 34.2435 100.549 33.6263 100.078L32.4687 102.769C33.1282 103.298 34.0017 103.728 35.0891 104.059ZM0.107422 104.291L6.653 88.8533H10.0206L16.6291 104.291H13.0512L11.7382 100.983H4.91405L3.60127 104.291H0.107422ZM8.32609 92.385L10.6617 98.2699H5.99059L8.32609 92.385ZM24.3235 104.291V104.29H27.6063V98.6886C27.6063 97.5569 27.8797 96.7187 28.427 96.1746C28.9743 95.6308 29.7108 95.3586 30.637 95.3586C30.7491 95.3586 30.8649 95.3662 30.9843 95.3807C31.1033 95.3956 31.2264 95.4177 31.3527 95.447V92.2493C30.2861 92.2493 29.3811 92.4665 28.6376 92.9C28.1613 93.1779 27.7686 93.5384 27.4593 93.9819V92.4259H24.3235V104.29H24.3231L24.3235 104.291ZM67.6532 92.2493C68.551 92.2493 69.3543 92.4368 70.0631 92.8116C70.7713 93.1864 71.3293 93.7599 71.7362 94.5317C72.1431 95.3035 72.3465 96.2924 72.3465 97.4978V104.29H69.0633V98.0271C69.0633 97.0715 68.8633 96.3657 68.4634 95.91C68.0635 95.4543 67.4986 95.2263 66.7692 95.2263C66.25 95.2263 65.7833 95.3441 65.3695 95.579C64.9554 95.8143 64.6329 96.1601 64.4015 96.6155C64.17 97.0715 64.0541 97.674 64.0541 98.4237V104.29H60.771V92.4259H63.9068V93.8351C64.2316 93.4558 64.6175 93.1405 65.0643 92.8888C65.822 92.4625 66.6848 92.2493 67.6532 92.2493ZM77.5934 103.684C78.5406 104.206 79.6245 104.467 80.8451 104.467V104.468C82.0376 104.468 83.0793 104.203 83.9705 103.674C84.8614 103.144 85.5031 102.409 85.8961 101.468L83.3706 100.013C83.062 100.586 82.6901 101.002 82.2552 101.259C81.82 101.516 81.3429 101.645 80.824 101.645C80.277 101.645 79.7785 101.516 79.3298 101.259C78.8804 101.002 78.5227 100.627 78.2563 100.134C77.9895 99.6416 77.8563 99.0496 77.8563 98.3587C77.8563 97.6677 77.9895 97.0794 78.2563 96.5943C78.5227 96.1093 78.8804 95.7381 79.3298 95.4807C79.7785 95.2237 80.2767 95.0946 80.824 95.0946C81.3429 95.0946 81.82 95.2237 82.2552 95.4807C82.6898 95.7381 83.0617 96.1459 83.3706 96.7046L85.8961 95.2491C85.5031 94.2935 84.8614 93.5547 83.9705 93.0327C83.0793 92.511 82.0656 92.2497 80.8451 92.2497C79.6245 92.2497 78.5406 92.5143 77.5934 93.0436C76.6465 93.5728 75.9027 94.2935 75.3626 95.2049C74.8223 96.1166 74.5524 97.182 74.5524 98.3584C74.5524 99.5347 74.8223 100.586 75.3626 101.512C75.9024 102.438 76.6462 103.162 77.5934 103.684ZM22.1179 92.4259H18.8347V104.291H22.1179V92.4259ZM50.6018 104.144L45.8203 92.4259H49.1879L52.2985 100.287L55.4352 92.4259L55.4349 92.4249H58.5648L53.7965 104.166C53.4312 105.136 53.014 105.89 52.5441 106.426C52.0737 106.963 51.555 107.342 50.9866 107.562C50.4182 107.783 49.7903 107.893 49.1029 107.893C48.5275 107.893 47.9525 107.797 47.3772 107.606C46.8015 107.415 46.3248 107.15 45.946 106.812L47.1457 104.343C47.3983 104.592 47.6896 104.784 48.0193 104.916C48.349 105.048 48.6825 105.115 49.0191 105.115C49.4678 105.115 49.8293 105.001 50.103 104.773C50.2795 104.626 50.4457 104.416 50.6018 104.144Z"
        fill="black" />
    <defs>
        <clipPath id="clip0_6924_6565">
            <rect width="76.9899" height="76.9899" fill="white"
                transform="translate(4.50586 0.107422)" />
        </clipPath>
    </defs>
</svg>
