<svg width="60" height="60" viewBox="0 0 60 60" fill="none" xmlns="http://www.w3.org/2000/svg">
    <path fill-rule="evenodd" clip-rule="evenodd"
        d="M24 0C10.7452 0 0 10.7452 0 24L0 36C0 49.2548 10.7452 60 24 60H36C49.2548 60 60 49.2548 60 36V24C60 10.7452 49.2548 0 36 0L24 0ZM27.3903 40.7794C27.8366 40.6942 28.247 40.4769 28.5683 40.1556L38.7522 29.9717L29.9375 21.157L19.7536 31.3409C19.4323 31.6622 19.215 32.0726 19.1299 32.519L17.8078 39.4502C17.6671 40.1876 17.9007 40.9469 18.4315 41.4777C18.9623 42.0085 19.7216 42.2421 20.459 42.1015L27.3903 40.7794Z"
        fill="#5D80ED" />
    <path fill-rule="evenodd" clip-rule="evenodd"
        d="M19.7723 39.825C19.7558 39.9117 19.7833 40.001 19.8457 40.0635C19.9082 40.1259 19.9975 40.1534 20.0842 40.1369L27.0155 38.8148C27.068 38.8048 27.1163 38.7792 27.1541 38.7414L35.9238 29.9717L29.9375 23.9854L21.1678 32.7551C21.13 32.7929 21.1045 32.8412 21.0944 32.8937L19.7723 39.825ZM19.7536 31.3409C19.4323 31.6622 19.215 32.0726 19.1299 32.519L17.8078 39.4502C17.6671 40.1877 17.9007 40.9469 18.4315 41.4777C18.9623 42.0085 19.7216 42.2421 20.459 42.1015L27.3903 40.7794C27.8366 40.6942 28.247 40.4769 28.5683 40.1556L38.7522 29.9717L29.9375 21.157L19.7536 31.3409Z"
        fill="white" />
    <path
        d="M40.637 28.0863L40.8965 27.8268C42.8231 25.9002 42.8231 22.7766 40.8965 20.85L39.0585 19.0121C37.132 17.0855 34.0083 17.0855 32.0818 19.0121L31.8223 19.2716L40.637 28.0863Z"
        fill="white" />
</svg>
