<svg width="139" height="120" viewBox="0 0 139 120" fill="none" xmlns="http://www.w3.org/2000/svg">
    <path d="M0.343732 1.45764L0.343735 68.2088C0.343735 69.0136 0.996185 69.666 1.80101 69.666L59.5223 69.666L59.5223 60.7298L78.2846 60.7298L78.2846 69.666L136.759 69.666C137.564 69.666 138.216 69.0136 138.216 68.2087L138.216 1.45763C138.216 0.652809 137.564 0.000366239 136.759 0.000366275L1.80099 0.000372174C0.996167 0.000372209 0.343732 0.652815 0.343732 1.45764Z"
          fill="#838CA6"/>
    <path d="M135.721 61.8043H3.03467V3.45703H135.721V61.8043Z" fill="white"/>
    <path d="M40.8062 13.3052C40.8062 11.8358 41.9974 10.6445 43.4668 10.6445H95.5048C96.9742 10.6445 98.1655 11.8358 98.1655 13.3052V44.2552C98.1655 45.7247 96.9742 46.9159 95.5048 46.9159H43.4668C41.9974 46.9159 40.8062 45.7247 40.8062 44.2552V13.3052Z"
          fill="#3C5AAA" fill-opacity="0.48"/>
    <path d="M85.8284 32.4108C86.236 31.7716 87.1682 31.7683 87.5804 32.4045L94.1691 42.5731L79.3472 42.5731L85.8284 32.4108Z"
          fill="white" fill-opacity="0.48"/>
    <path d="M71.7932 23.92C72.2032 23.3002 73.1117 23.2969 73.5262 23.9136L85.9344 42.3777L59.5842 42.3777L71.7932 23.92Z"
          fill="white"/>
    <ellipse cx="54.2515" cy="22.901" rx="5.06112" ry="5.06112" fill="white"/>
    <path d="M93.9724 83.4269H44.9941C43.5896 83.4269 42.4509 84.5656 42.4509 85.9702L42.4509 117.246C42.4509 118.65 43.5896 119.789 44.9941 119.789H93.9724C95.377 119.789 96.5156 118.65 96.5156 117.246V85.9702C96.5156 84.5656 95.377 83.4269 93.9724 83.4269Z"
          fill="#3C5AAA"/>
    <path d="M94.405 115.055H44.8157L44.8157 87.0841C44.8157 86.3818 45.385 85.8125 46.0873 85.8125H93.1334C93.8357 85.8125 94.405 86.3818 94.405 87.0841V115.055Z"
          fill="white"/>
    <path d="M51.6025 91.428C51.6025 90.6933 52.1982 90.0977 52.9329 90.0977H86.0367C86.7714 90.0977 87.367 90.6933 87.367 91.428V111.383C87.367 112.118 86.7714 112.713 86.0367 112.713H52.9329C52.1982 112.713 51.6025 112.118 51.6025 111.383V91.428Z"
          fill="#3C5AAA" fill-opacity="0.48"/>
    <path d="M79.1921 104.273C79.4525 103.865 80.0479 103.862 80.3112 104.269L84.5196 110.764L75.0525 110.764L79.1921 104.273Z"
          fill="white" fill-opacity="0.48"/>
    <path d="M70.2278 98.8516C70.4897 98.4558 71.07 98.4537 71.3347 98.8476L79.26 110.641L62.4297 110.641L70.2278 98.8516Z"
          fill="white"/>
    <ellipse cx="59.986" cy="97.7397" rx="3.15569" ry="3.15569" fill="white"/>
    <path d="M103.627 115.021L35.2721 115.021C34.7453 115.021 34.3184 115.448 34.3184 115.974V117.882C34.3184 118.935 35.1723 119.789 36.2258 119.789L102.673 119.789C103.727 119.789 104.581 118.935 104.581 117.882V115.974C104.581 115.448 104.154 115.021 103.627 115.021Z"
          fill="#3C5AAA"/>
    <path d="M62.3698 59.3106V80.1483C62.3698 80.5507 62.696 80.877 63.0985 80.877H75.4852V59.3106C75.4852 58.9081 75.8114 58.5819 76.2139 58.5819H82.1517C82.819 58.5819 83.1352 57.7594 82.6398 57.3124L70.0686 45.9676C69.5214 45.4737 68.6914 45.4663 68.1354 45.9504L55.0944 57.3037C54.5863 57.7461 54.8991 58.5819 55.5728 58.5819H61.6412C62.0436 58.5819 62.3698 58.9081 62.3698 59.3106Z"
          fill="#3C5AAA"/>
</svg>
