<svg width="40" height="40" viewBox="0 0 40 40" fill="none" xmlns="http://www.w3.org/2000/svg">
    <path
        d="M11.667 28.334L28.3337 28.334C32.9337 28.334 36.667 24.6007 36.667 20.0007C36.667 15.4007 32.9337 11.6673 28.3337 11.6673L11.667 11.6673C7.06699 11.6673 3.33366 15.4006 3.33366 20.0006C3.33366 24.6006 7.06699 28.334 11.667 28.334ZM11.667 15.0006C14.4337 15.0006 16.667 17.234 16.667 20.0006C16.667 22.7673 14.4337 25.0006 11.667 25.0006C8.90033 25.0006 6.66699 22.7673 6.66699 20.0006C6.66699 17.234 8.90033 15.0006 11.667 15.0006Z"
        fill="#FD1A2D" />
    <circle cx="11.667" cy="20" r="5" transform="rotate(-180 11.667 20)" fill="white" />
</svg>
