<svg width="24" height="24" viewBox="0 0 24 24" fill="none" xmlns="http://www.w3.org/2000/svg">
    <path fill-rule="evenodd" clip-rule="evenodd"
        d="M4.99844 4.15039C3.42443 4.15039 2.14844 5.42638 2.14844 7.00039V17.0004C2.14844 18.5744 3.42443 19.8504 4.99844 19.8504H18.9984C20.5724 19.8504 21.8484 18.5744 21.8484 17.0004V7.00039C21.8484 5.42638 20.5724 4.15039 18.9984 4.15039H4.99844ZM3.84844 7.00039C3.84844 6.36526 4.36331 5.85039 4.99844 5.85039H18.9984C19.6336 5.85039 20.1484 6.36526 20.1484 7.00039V14.6504H3.84844V7.00039ZM3.84844 16.3504V17.0004C3.84844 17.6355 4.36331 18.1504 4.99844 18.1504H18.9984C19.6336 18.1504 20.1484 17.6355 20.1484 17.0004V16.3504H3.84844Z"
        fill="#2A2A2A" />
</svg>
