<svg width="24" height="24" viewBox="0 0 24 24" fill="none" xmlns="http://www.w3.org/2000/svg">
    <path fill-rule="evenodd" clip-rule="evenodd"
        d="M4.99844 2.15137C3.42443 2.15137 2.14844 3.42736 2.14844 5.00137V8.00137C2.14844 8.47081 2.529 8.85137 2.99844 8.85137C3.46788 8.85137 3.84844 8.47081 3.84844 8.00137V5.00137C3.84844 4.36624 4.36331 3.85137 4.99844 3.85137H7.99844C8.46788 3.85137 8.84844 3.47081 8.84844 3.00137C8.84844 2.53193 8.46788 2.15137 7.99844 2.15137H4.99844ZM4.99844 21.8514C3.42443 21.8514 2.14844 20.5754 2.14844 19.0014V16.0014C2.14844 15.5319 2.529 15.1514 2.99844 15.1514C3.46788 15.1514 3.84844 15.5319 3.84844 16.0014V19.0014C3.84844 19.6365 4.36331 20.1514 4.99844 20.1514H7.99844C8.46788 20.1514 8.84844 20.5319 8.84844 21.0014C8.84844 21.4708 8.46788 21.8514 7.99844 21.8514H4.99844ZM21.8484 5.00137C21.8484 3.42736 20.5724 2.15137 18.9984 2.15137H15.9984C15.529 2.15137 15.1484 2.53193 15.1484 3.00137C15.1484 3.47081 15.529 3.85137 15.9984 3.85137H18.9984C19.6336 3.85137 20.1484 4.36624 20.1484 5.00137V8.00137C20.1484 8.47081 20.529 8.85137 20.9984 8.85137C21.4679 8.85137 21.8484 8.47081 21.8484 8.00137V5.00137ZM18.9984 21.8514C20.5724 21.8514 21.8484 20.5754 21.8484 19.0014V16.0014C21.8484 15.5319 21.4679 15.1514 20.9984 15.1514C20.529 15.1514 20.1484 15.5319 20.1484 16.0014V19.0014C20.1484 19.6365 19.6336 20.1514 18.9984 20.1514H15.9984C15.529 20.1514 15.1484 20.5319 15.1484 21.0014C15.1484 21.4708 15.529 21.8514 15.9984 21.8514H18.9984ZM6.24844 5.25137C5.69615 5.25137 5.24844 5.69908 5.24844 6.25137V9.75137C5.24844 10.3037 5.69615 10.7514 6.24844 10.7514H9.74844C10.3007 10.7514 10.7484 10.3037 10.7484 9.75137V6.25137C10.7484 5.69908 10.3007 5.25137 9.74844 5.25137H6.24844ZM7.30677 16.943C7.03063 16.943 6.80677 16.7192 6.80677 16.443V15.0597C6.80677 14.7836 7.03063 14.5597 7.30677 14.5597H8.6901C8.96625 14.5597 9.1901 14.7836 9.1901 15.0597V16.443C9.1901 16.7192 8.96625 16.943 8.6901 16.943H7.30677ZM5.24844 14.0014C5.24844 13.4491 5.69615 13.0014 6.24844 13.0014H9.74844C10.3007 13.0014 10.7484 13.4491 10.7484 14.0014V17.5014C10.7484 18.0537 10.3007 18.5014 9.74844 18.5014H6.24844C5.69615 18.5014 5.24844 18.0537 5.24844 17.5014V14.0014ZM16.9401 7.3097C16.9401 7.03356 16.7162 6.8097 16.4401 6.8097H15.0568C14.7806 6.8097 14.5568 7.03356 14.5568 7.3097V8.69303C14.5568 8.96918 14.7806 9.19303 15.0568 9.19303H16.4401C16.7162 9.19303 16.9401 8.96918 16.9401 8.69303V7.3097ZM13.9984 5.25137C13.4462 5.25137 12.9984 5.69908 12.9984 6.25137V9.75137C12.9984 10.3037 13.4462 10.7514 13.9984 10.7514H17.4984C18.0507 10.7514 18.4984 10.3037 18.4984 9.75137V6.25137C18.4984 5.69908 18.0507 5.25137 17.4984 5.25137H13.9984ZM12.9984 13.5014C12.9984 13.2252 13.2223 13.0014 13.4984 13.0014H15.4984C15.7746 13.0014 15.9984 13.2252 15.9984 13.5014V15.0014C15.9984 15.2775 16.2223 15.5014 16.4984 15.5014H17.9984C18.2746 15.5014 18.4984 15.7252 18.4984 16.0014V18.0014C18.4984 18.2775 18.2746 18.5014 17.9984 18.5014H15.9984C15.7223 18.5014 15.4984 18.2775 15.4984 18.0014V16.5014C15.4984 16.2252 15.2746 16.0014 14.9984 16.0014H13.4984C13.2223 16.0014 12.9984 15.7775 12.9984 15.5014V13.5014ZM9.1901 7.3097C9.1901 7.03356 8.96625 6.8097 8.6901 6.8097H7.30677C7.03063 6.8097 6.80677 7.03356 6.80677 7.3097V8.69303C6.80677 8.96918 7.03063 9.19303 7.30677 9.19303H8.6901C8.96625 9.19303 9.1901 8.96918 9.1901 8.69303V7.3097Z"
        fill="#D3D6E1" />
</svg>
