<svg width="64" height="64" viewBox="0 0 64 64" fill="none" xmlns="http://www.w3.org/2000/svg">
    <path fill-rule="evenodd" clip-rule="evenodd"
          d="M16.6815 31.4088C15.7736 32.2625 15.7736 33.6466 16.6815 34.5003L30.3567 47.3591C31.2646 48.2127 32.7366 48.2127 33.6445 47.3591L47.3197 34.5003C48.2276 33.6466 48.2276 32.2625 47.3197 31.4088C46.4118 30.5551 44.9398 30.5551 44.032 31.4088L32.0006 42.7219L19.9693 31.4088C19.0614 30.5551 17.5894 30.5551 16.6815 31.4088Z"
          fill="white" fill-opacity="0.64"/>
    <path fill-rule="evenodd" clip-rule="evenodd"
          d="M16.6815 16.6408C15.7736 17.4944 15.7736 18.8785 16.6815 19.7322L30.3567 32.591C31.2646 33.4447 32.7366 33.4447 33.6445 32.591L47.3197 19.7322C48.2276 18.8785 48.2276 17.4944 47.3197 16.6408C46.4118 15.7871 44.9398 15.7871 44.032 16.6408L32.0006 27.9538L19.9693 16.6408C19.0614 15.7871 17.5894 15.7871 16.6815 16.6408Z"
          fill="white" fill-opacity="0.64"/>
</svg>
