<svg width="80" height="80" viewBox="0 0 80 80" fill="none" xmlns="http://www.w3.org/2000/svg">
<g clip-path="url(#clip0_7792_11431)">
<path d="M42.9167 57.5H74C74.5523 57.5 75 57.0523 75 56.5V16C75 15.4477 74.5523 15 74 15H21C20.4477 15 20 15.4477 20 16V38.6111" stroke="white" stroke-width="2"/>
<path d="M71.3158 46.2877L71.3158 41.3082C58.9416 41.3082 48.9078 31.2744 48.9078 18.9002L43.9282 18.9002C43.9282 34.0131 56.1904 46.2753 71.3158 46.2877ZM71.3158 26.3695L71.3158 18.9002L63.8465 18.9002C63.834 23.0207 67.1828 26.3695 71.3158 26.3695ZM71.3158 36.3286L71.3158 31.349C64.444 31.349 58.8669 25.7719 58.8669 18.9002L53.8873 18.9002C53.8873 28.5107 61.6928 36.3162 71.3158 36.3286Z" fill="white"/>
<path d="M10.8333 45.3125H37.0833V42.5H10.8333C9.22917 42.5 7.91667 43.7656 7.91667 45.3125V60.7812H5V65H25.4167V60.7812H10.8333V45.3125ZM38.5417 48.125H29.7917C28.9896 48.125 28.3333 48.7578 28.3333 49.5312V63.5938C28.3333 64.3672 28.9896 65 29.7917 65H38.5417C39.3438 65 40 64.3672 40 63.5938V49.5312C40 48.7578 39.3438 48.125 38.5417 48.125ZM37.0833 60.7812H31.25V50.9375H37.0833V60.7812Z" fill="white"/>
</g>
<defs>
<clipPath id="clip0_7792_11431">
<rect width="80" height="80" fill="white"/>
</clipPath>
</defs>
</svg>
