<svg width="32" height="32" viewBox="0 0 32 32" fill="none" xmlns="http://www.w3.org/2000/svg">
<path opacity="0.32" fill-rule="evenodd" clip-rule="evenodd" d="M7.73438 9.33315C7.73438 10.2168 8.45072 10.9332 9.33437 10.9332L22.6677 10.9332C23.5514 10.9332 24.2677 10.2168 24.2677 9.33315C24.2677 8.4495 23.5514 7.73315 22.6677 7.73315L9.33437 7.73315C8.45072 7.73315 7.73437 8.4495 7.73438 9.33315Z" fill="white"/>
<path fill-rule="evenodd" clip-rule="evenodd" d="M10.203 17.5348C9.57817 18.1597 9.57817 19.1727 10.203 19.7976L14.8697 24.4642C15.1697 24.7643 15.5767 24.9329 16.001 24.9329C16.4254 24.9329 16.8324 24.7643 17.1324 24.4642L21.7991 19.7976C22.4239 19.1727 22.4239 18.1597 21.7991 17.5348C21.1742 16.91 20.1612 16.91 19.5363 17.5348L16.001 21.0701L12.4657 17.5348C11.8409 16.91 10.8278 16.91 10.203 17.5348Z" fill="white"/>
</svg>
