<svg width="109" height="94" viewBox="0 0 109 94" fill="none" xmlns="http://www.w3.org/2000/svg">
    <path
        d="M0.0234275 1.14139L0.0234298 53.4298C0.0234298 54.0602 0.534508 54.5713 1.16496 54.5713L45.8085 54.5713L45.8085 47.5713L61.9342 47.5713L61.9342 54.5713L106.882 54.5713C107.512 54.5713 108.023 54.0602 108.023 53.4298L108.023 1.14138C108.023 0.510937 107.512 -0.000141121 106.882 -0.000141094L1.16496 -0.000136473C0.534513 -0.000136445 0.0234275 0.510941 0.0234275 1.14139Z"
        fill="#3C5AAA" />
    <path d="M106.187 48.2102H2.25V2.50488H106.187V48.2102Z" fill="white" />
    <path
        d="M75.4796 67.4275V91.9268C75.4796 93.027 74.5877 93.9189 73.4874 93.9189H35.1211C34.0208 93.9189 33.1289 93.027 33.1289 91.9268V67.4275C33.1289 66.3272 34.0208 65.4353 35.1211 65.4353H41.8803L52.6571 74.6086C53.405 75.2452 54.5053 75.2418 55.2492 74.6004L65.8803 65.4353H73.4874C74.5877 65.4353 75.4796 66.3272 75.4796 67.4275Z"
        fill="#D3D6E1" />
    <path
        d="M73.5392 89.9247H35.2656V68.5859C35.2656 68.0358 35.7116 67.5898 36.2617 67.5898H72.5431C73.0932 67.5898 73.5392 68.0358 73.5392 68.5859V89.9247Z"
        fill="white" />
    <path
        d="M81.0497 90.1836H27.5049C27.0923 90.1836 26.7578 90.5181 26.7578 90.9307V92.4248C26.7578 93.25 27.4268 93.9189 28.2519 93.9189H80.3026C81.1278 93.9189 81.7967 93.25 81.7967 92.4248V90.9307C81.7967 90.5181 81.4623 90.1836 81.0497 90.1836Z"
        fill="#D3D6E1" />
    <path
        d="M47.8489 60.3632V32.0987C47.8489 31.7287 48.1489 31.4287 48.5189 31.4287H59.9094V60.3632C59.9094 60.7332 60.2094 61.0332 60.5794 61.0332H66.0397C66.6533 61.0332 66.9441 61.7896 66.4886 62.2007L54.9285 72.6329C54.4252 73.0871 53.6621 73.0939 53.1508 72.6488L41.1587 62.2086C40.6914 61.8018 40.9791 61.0332 41.5986 61.0332H47.1789C47.5489 61.0332 47.8489 60.7332 47.8489 60.3632Z"
        fill="#5D80ED" />
</svg>
