<svg width="33" height="32" viewBox="0 0 33 32" fill="none" xmlns="http://www.w3.org/2000/svg">
    <path
        d="M12.5005 25.5332C11.8746 25.5332 11.3672 26.0406 11.3672 26.6665C11.3672 27.2925 11.8746 27.7999 12.5005 27.7999H27.1672C27.7931 27.7999 28.3005 27.2925 28.3005 26.6665C28.3005 26.0406 27.7931 25.5332 27.1672 25.5332H12.5005Z"
        fill="white" />
    <path
        d="M14.1012 5.22237C15.5852 3.73838 17.9912 3.73838 19.4752 5.22237L25.1321 10.8792C26.6161 12.3632 26.6161 14.7692 25.1321 16.2532L18.8363 22.549C18.6238 22.7615 18.3355 22.8809 18.0349 22.8809H9.86496C9.56376 22.8809 9.27496 22.7611 9.06231 22.5477L5.60878 19.0804C4.12876 17.5957 4.13065 15.193 5.61299 13.7106L14.1012 5.22237Z"
        fill="white" />
</svg>
