<svg width="20" height="20" viewBox="0 0 20 20" fill="none" xmlns="http://www.w3.org/2000/svg">
    <g id="icon">
        <path id="vector" fill-rule="evenodd" clip-rule="evenodd"
            d="M4.16602 1.79199C2.85434 1.79199 1.79102 2.85532 1.79102 4.16699V6.66699C1.79102 7.05819 2.10815 7.37533 2.49935 7.37533C2.89055 7.37533 3.20768 7.05819 3.20768 6.66699V4.16699C3.20768 3.63772 3.63674 3.20866 4.16602 3.20866H6.66602C7.05722 3.20866 7.37435 2.89153 7.37435 2.50033C7.37435 2.10912 7.05722 1.79199 6.66602 1.79199H4.16602ZM4.16602 18.2087C2.85434 18.2087 1.79102 17.1453 1.79102 15.8337V13.3337C1.79102 12.9425 2.10815 12.6253 2.49935 12.6253C2.89055 12.6253 3.20768 12.9425 3.20768 13.3337V15.8337C3.20768 16.3629 3.63674 16.792 4.16602 16.792H6.66602C7.05722 16.792 7.37435 17.1091 7.37435 17.5003C7.37435 17.8915 7.05722 18.2087 6.66602 18.2087H4.16602ZM18.2077 4.16699C18.2077 2.85532 17.1444 1.79199 15.8327 1.79199H13.3327C12.9415 1.79199 12.6243 2.10912 12.6243 2.50033C12.6243 2.89153 12.9415 3.20866 13.3327 3.20866H15.8327C16.362 3.20866 16.791 3.63772 16.791 4.16699V6.66699C16.791 7.05819 17.1081 7.37533 17.4993 7.37533C17.8906 7.37533 18.2077 7.05819 18.2077 6.66699V4.16699ZM15.8327 18.2087C17.1444 18.2087 18.2077 17.1453 18.2077 15.8337V13.3337C18.2077 12.9425 17.8906 12.6253 17.4993 12.6253C17.1081 12.6253 16.791 12.9425 16.791 13.3337V15.8337C16.791 16.3629 16.362 16.792 15.8327 16.792H13.3327C12.9415 16.792 12.6243 17.1091 12.6243 17.5003C12.6243 17.8915 12.9415 18.2087 13.3327 18.2087H15.8327ZM5.37435 4.37533C4.82206 4.37533 4.37435 4.82304 4.37435 5.37533V7.95866C4.37435 8.51094 4.82207 8.95866 5.37435 8.95866H7.95768C8.50997 8.95866 8.95768 8.51094 8.95768 7.95866V5.37533C8.95768 4.82304 8.50997 4.37533 7.95768 4.37533H5.37435ZM6.17296 14.1184C5.89682 14.1184 5.67296 13.8945 5.67296 13.6184V12.6323C5.67296 12.3561 5.89682 12.1323 6.17296 12.1323H7.15907C7.43521 12.1323 7.65907 12.3561 7.65907 12.6323V13.6184C7.65907 13.8945 7.43521 14.1184 7.15907 14.1184H6.17296ZM4.37435 11.8337C4.37435 11.2814 4.82207 10.8337 5.37435 10.8337H7.95768C8.50997 10.8337 8.95768 11.2814 8.95768 11.8337V14.417C8.95768 14.9693 8.50997 15.417 7.95768 15.417H5.37435C4.82206 15.417 4.37435 14.9693 4.37435 14.417V11.8337ZM14.1174 6.17394C14.1174 5.89779 13.8935 5.67394 13.6174 5.67394H12.6313C12.3552 5.67394 12.1313 5.89779 12.1313 6.17394V7.16005C12.1313 7.43619 12.3552 7.66005 12.6313 7.66005H13.6174C13.8935 7.66005 14.1174 7.43619 14.1174 7.16005V6.17394ZM11.8327 4.37533C11.2804 4.37533 10.8327 4.82304 10.8327 5.37533V7.95866C10.8327 8.51094 11.2804 8.95866 11.8327 8.95866H14.416C14.9683 8.95866 15.416 8.51094 15.416 7.95866V5.37533C15.416 4.82304 14.9683 4.37533 14.416 4.37533H11.8327ZM10.8327 11.2503C10.8327 11.0202 11.0192 10.8337 11.2493 10.8337H12.916C13.1461 10.8337 13.3327 11.0202 13.3327 11.2503V12.5003C13.3327 12.7304 13.5192 12.917 13.7493 12.917H14.9993C15.2295 12.917 15.416 13.1035 15.416 13.3337V15.0003C15.416 15.2304 15.2295 15.417 14.9993 15.417H13.3327C13.1026 15.417 12.916 15.2304 12.916 15.0003V13.7503C12.916 13.5202 12.7295 13.3337 12.4993 13.3337H11.2493C11.0192 13.3337 10.8327 13.1471 10.8327 12.917V11.2503ZM7.65907 6.17394C7.65907 5.89779 7.43521 5.67394 7.15907 5.67394H6.17296C5.89682 5.67394 5.67296 5.89779 5.67296 6.17394V7.16005C5.67296 7.43619 5.89682 7.66005 6.17296 7.66005H7.15907C7.43521 7.66005 7.65907 7.43619 7.65907 7.16005V6.17394Z"
            fill="#2A2A2A" />
    </g>
</svg>
