<svg width="138" height="120" viewBox="0 0 138 120" fill="none" xmlns="http://www.w3.org/2000/svg">
    <path
        d="M0.000759958 1.45669L0.000762876 68.2078C0.000762911 69.0126 0.653214 69.665 1.45804 69.665L59.1793 69.665L59.1793 60.7289L77.9416 60.7289L77.9416 69.665L136.416 69.665C137.221 69.665 137.873 69.0126 137.873 68.2078L137.873 1.45668C137.873 0.651855 137.221 -0.000587435 136.416 -0.0005874L1.45802 -0.0005815C0.653195 -0.000581465 0.000759923 0.651861 0.000759958 1.45669Z"
        fill="#3C455D" />
    <path d="M135.377 61.8043H2.69141V3.45703H135.377V61.8043Z" fill="#151C32" />
    <path
        d="M40.4609 13.3033C40.4609 11.8338 41.6522 10.6426 43.1216 10.6426H95.1596C96.629 10.6426 97.8202 11.8338 97.8202 13.3033V44.2532C97.8202 45.7227 96.629 46.9139 95.1596 46.9139H43.1216C41.6522 46.9139 40.4609 45.7227 40.4609 44.2532V13.3033Z"
        fill="#20273E" />
    <path
        d="M85.4831 32.4079C85.8908 31.7687 86.8229 31.7653 87.2352 32.4016L93.8239 42.5702L79.002 42.5702L85.4831 32.4079Z"
        fill="#3C455D" />
    <path
        d="M71.4473 23.918C71.8573 23.2982 72.7658 23.2949 73.1803 23.9117L85.5884 42.3758L59.2383 42.3758L71.4473 23.918Z"
        fill="#636D8A" />
    <ellipse cx="53.9068" cy="22.898" rx="5.06111" ry="5.06112" fill="#636D8A" />
    <path
        d="M93.6289 83.4299H44.6506C43.2461 83.4299 42.1074 84.5685 42.1074 85.9731L42.1074 117.249C42.1074 118.653 43.2461 119.792 44.6506 119.792H93.6289C95.0335 119.792 96.1721 118.653 96.1721 117.249V85.9731C96.1721 84.5685 95.0335 83.4299 93.6289 83.4299Z"
        fill="#C2C6D5" />
    <path
        d="M94.06 115.057H44.4707L44.4707 87.0861C44.4707 86.3838 45.04 85.8145 45.7423 85.8145H92.7884C93.4907 85.8145 94.06 86.3838 94.06 87.0861V115.057Z"
        fill="#151C32" />
    <path
        d="M51.2598 91.4299C51.2598 90.6952 51.8554 90.0996 52.5901 90.0996H85.6939C86.4286 90.0996 87.0243 90.6952 87.0243 91.4299V111.385C87.0243 112.12 86.4286 112.715 85.6939 112.715H52.5901C51.8554 112.715 51.2598 112.12 51.2598 111.385V91.4299Z"
        fill="#20273E" />
    <path
        d="M78.8486 104.276C79.109 103.867 79.7044 103.865 79.9677 104.272L84.1761 110.767L74.709 110.767L78.8486 104.276Z"
        fill="#3C455D" />
    <path
        d="M69.886 98.8526C70.1479 98.4568 70.7282 98.4546 70.9929 98.8486L78.9182 110.642L62.0879 110.642L69.886 98.8526Z"
        fill="#636D8A" />
    <ellipse cx="59.644" cy="97.7416" rx="3.15569" ry="3.15569" fill="#636D8A" />
    <path
        d="M103.283 115.023L34.9283 115.023C34.4016 115.023 33.9746 115.45 33.9746 115.977V117.885C33.9746 118.938 34.8286 119.792 35.882 119.792L102.33 119.792C103.383 119.792 104.237 118.938 104.237 117.885V115.977C104.237 115.45 103.81 115.023 103.283 115.023Z"
        fill="#C2C6D5" />
    <path
        d="M62.0248 59.3115V80.1493C62.0248 80.5517 62.3511 80.8779 62.7535 80.8779H75.1402V59.3115C75.1402 58.9091 75.4665 58.5829 75.8689 58.5829H81.8067C82.474 58.5829 82.7903 57.7604 82.2949 57.3133L69.7237 45.9686C69.1764 45.4747 68.3465 45.4673 67.7905 45.9513L54.7494 57.3047C54.2413 57.7471 54.5542 58.5829 55.2279 58.5829H61.2962C61.6986 58.5829 62.0248 58.9091 62.0248 59.3115Z"
        fill="#C2C6D5" />
</svg>
