<svg width="20" height="20" viewBox="0 0 20 20" fill="none" xmlns="http://www.w3.org/2000/svg">
    <mask id="path-1-inside-1_7353_204379" fill="white">
        <path
            d="M0 10C0 4.47715 4.47715 0 10 0C15.5228 0 20 4.47715 20 10C20 15.5228 15.5228 20 10 20C4.47715 20 0 15.5228 0 10Z" />
    </mask>
    <path
        d="M0 10C0 4.47715 4.47715 0 10 0C15.5228 0 20 4.47715 20 10C20 15.5228 15.5228 20 10 20C4.47715 20 0 15.5228 0 10Z"
        fill="white" />
    <path
        d="M10 19C5.02944 19 1 14.9706 1 10H-1C-1 16.0751 3.92487 21 10 21V19ZM19 10C19 14.9706 14.9706 19 10 19V21C16.0751 21 21 16.0751 21 10H19ZM10 1C14.9706 1 19 5.02944 19 10H21C21 3.92487 16.0751 -1 10 -1V1ZM10 -1C3.92487 -1 -1 3.92487 -1 10H1C1 5.02944 5.02944 1 10 1V-1Z"
        fill="#4C71D2" mask="url(#path-1-inside-1_7353_204379)" />
    <path
        d="M10.0007 14.6663C12.578 14.6663 14.6673 12.577 14.6673 9.99967C14.6673 7.42235 12.578 5.33301 10.0007 5.33301C7.42332 5.33301 5.33398 7.42235 5.33398 9.99967C5.33398 12.577 7.42332 14.6663 10.0007 14.6663Z"
        fill="#5D80ED" />
</svg>
