<svg width="16" height="16" viewBox="0 0 16 16" fill="none" xmlns="http://www.w3.org/2000/svg">
    <path fill-rule="evenodd" clip-rule="evenodd"
        d="M5.61968 2.13194L5.84768 2.12944L10.2936 2.0807L10.5282 2.07812L10.696 2.24218L13.8104 5.28773L13.9831 5.45666L13.9808 5.69828L13.9393 10.0541L13.9371 10.2887L13.7696 10.4531L10.5965 13.5676L10.4338 13.7273L10.2058 13.7298L5.75984 13.7785L5.52521 13.7811L5.35744 13.617L2.24307 10.5715L2.07031 10.4026L2.07262 10.1609L2.11415 5.80515L2.11638 5.57051L2.28385 5.40614L5.45695 2.29166L5.61968 2.13194ZM3.24519 6.0506L3.2082 9.93014L5.98206 12.6427L9.96534 12.599L12.8083 9.80863L12.8452 5.92909L10.0714 3.21654L6.08811 3.26021L3.24519 6.0506ZM7.99963 4.76621C8.31259 4.76621 8.5663 5.01991 8.5663 5.33288V8.66621C8.5663 8.97917 8.31259 9.23287 7.99963 9.23288C7.68667 9.23288 7.43296 8.97917 7.43296 8.66621L7.43296 5.33288C7.43296 5.01991 7.68667 4.76621 7.99963 4.76621ZM7.33296 10.6662C7.33296 11.0329 7.63296 11.3329 7.99963 11.3329C8.3663 11.3329 8.6663 11.0329 8.6663 10.6662C8.6663 10.2995 8.3663 9.99954 7.99963 9.99954C7.63296 9.99954 7.33296 10.2995 7.33296 10.6662Z"
        fill="#FFD9DF" />
</svg>
