<svg width="24" height="24" viewBox="0 0 24 24" fill="none" xmlns="http://www.w3.org/2000/svg">
    <path id="vector" fill-rule="evenodd" clip-rule="evenodd" d="M7 6.7H8.5C8.66569 6.7 8.8 6.83431 8.8 7V17C8.8 17.1657 8.66569 17.3 8.5 17.3H7C6.83431 17.3 6.7 17.1657 6.7 17V7C6.7 6.83431 6.83431 6.7 7 6.7ZM5 7C5 5.89543 5.89543 5 7 5H8.5C9.60457 5 10.5 5.89543 10.5 7V17C10.5 18.1046 9.60457 19 8.5 19H7C5.89543 19 5 18.1046 5 17V7ZM15.5 6.7H17C17.1657 6.7 17.3 6.83431 17.3 7V17C17.3 17.1657 17.1657 17.3 17 17.3H15.5C15.3343 17.3 15.2 17.1657 15.2 17V7C15.2 6.83431 15.3343 6.7 15.5 6.7ZM13.5 7C13.5 5.89543 14.3954 5 15.5 5H17C18.1046 5 19 5.89543 19 7V17C19 18.1046 18.1046 19 17 19H15.5C14.3954 19 13.5 18.1046 13.5 17V7Z" fill="white"/>
</svg>
