<svg width="36" height="36" viewBox="0 0 36 36" fill="none" xmlns="http://www.w3.org/2000/svg">
<path fill-rule="evenodd" clip-rule="evenodd" d="M15.5988 20.7227C13.61 19.5258 10.4774 19.6694 8.22277 21.3792C6.51588 22.6736 4.08283 22.3393 2.7884 20.6324C1.49398 18.9255 1.82835 16.4924 3.53524 15.198C8.06854 11.7602 14.6329 11.0873 19.599 14.0761C22.8579 16.0374 24.669 16.0492 25.5383 15.9183C26.0291 15.8444 26.4564 15.6899 26.9246 15.4748C27.1023 15.3931 27.2242 15.3331 27.3733 15.2596C27.4749 15.2096 27.589 15.1534 27.742 15.0799C28.0117 14.9503 28.5022 14.7174 29.0548 14.5593C31.1145 13.9703 33.2616 15.1624 33.8507 17.222C34.4315 19.2525 33.281 21.3681 31.2748 21.992C31.2494 22.0031 31.1945 22.0276 31.1016 22.0722C31.0633 22.0906 31.0041 22.1197 30.9312 22.1554C30.7296 22.2543 30.4232 22.4045 30.1636 22.5238C29.3273 22.9081 28.1665 23.3676 26.6933 23.5894C23.6345 24.0499 20.0138 23.3799 15.5988 20.7227Z" fill="white"/>
</svg>
