<svg width="16" height="16" viewBox="0 0 16 16" fill="none" xmlns="http://www.w3.org/2000/svg">
    <path fill-rule="evenodd" clip-rule="evenodd"
        d="M8.00013 2.53346C4.98097 2.53346 2.53346 4.98097 2.53346 8.00013C2.53346 11.0193 4.98097 13.4668 8.00013 13.4668C11.0193 13.4668 13.4668 11.0193 13.4668 8.00013C13.4668 4.98097 11.0193 2.53346 8.00013 2.53346ZM1.4668 8.00013C1.4668 4.39187 4.39187 1.4668 8.00013 1.4668C11.6084 1.4668 14.5335 4.39187 14.5335 8.00013C14.5335 11.6084 11.6084 14.5335 8.00013 14.5335C4.39187 14.5335 1.4668 11.6084 1.4668 8.00013ZM8.00013 11.2001C8.29468 11.2001 8.53346 10.9613 8.53346 10.6668V7.33346C8.53346 7.03891 8.29468 6.80013 8.00013 6.80013C7.70558 6.80013 7.4668 7.03891 7.4668 7.33346V10.6668C7.4668 10.9613 7.70558 11.2001 8.00013 11.2001ZM7.1668 5.1668C7.1668 4.70846 7.5418 4.33346 8.00013 4.33346C8.45846 4.33346 8.83346 4.70846 8.83346 5.1668C8.83346 5.62513 8.45846 6.00013 8.00013 6.00013C7.5418 6.00013 7.1668 5.62513 7.1668 5.1668Z"
        fill="#FC9700" />
</svg>
