<svg width="109" height="94" viewBox="0 0 109 94" fill="none" xmlns="http://www.w3.org/2000/svg">
    <path
        d="M0.0234275 1.14139L0.0234298 53.4298C0.0234298 54.0602 0.534508 54.5713 1.16496 54.5713L46.3799 54.5713L46.3799 47.5713L61.0771 47.5713L61.0771 54.5713L106.882 54.5713C107.512 54.5713 108.023 54.0602 108.023 53.4298L108.023 1.14138C108.023 0.510937 107.512 -0.000141121 106.882 -0.000141094L1.16495 -0.000136473C0.534505 -0.000136445 0.0234275 0.510941 0.0234275 1.14139Z"
        fill="#D3D6E1" />
    <path d="M106.07 48.4134H2.13281V2.70801H106.07V48.4134Z" fill="white" />
    <path
        d="M31.7188 10.4211C31.7188 9.27004 32.6519 8.33691 33.803 8.33691H74.566C75.7171 8.33691 76.6502 9.27004 76.6502 10.4211V34.6653C76.6502 35.8164 75.7171 36.7495 74.566 36.7495H33.8029C32.6519 36.7495 31.7188 35.8164 31.7188 34.6653V10.4211Z"
        fill="#E5ECFF" />
    <path
        d="M66.9871 25.3863C67.3064 24.8857 68.0366 24.883 68.3595 25.3814L73.5207 33.3468L61.9102 33.3468L66.9871 25.3863Z"
        fill="#BCCEFE" />
    <path
        d="M55.9934 18.7363C56.3146 18.2508 57.0262 18.2482 57.3509 18.7314L67.0707 33.1949L46.4297 33.1949L55.9934 18.7363Z"
        fill="#86A1F4" />
    <ellipse cx="42.2497" cy="17.9372" rx="3.96454" ry="3.96454" fill="#86A1F4" />
    <path
        d="M73.3663 65.3523H35C33.8997 65.3523 33.0078 66.2442 33.0078 67.3445V91.8438C33.0078 92.944 33.8997 93.8359 35 93.8359H73.3663C74.4666 93.8359 75.3585 92.944 75.3585 91.8438V67.3445C75.3585 66.2442 74.4666 65.3523 73.3663 65.3523Z"
        fill="#3C5AAA" />
    <path
        d="M73.7043 90.127H34.8594V68.2168C34.8594 67.6667 35.3053 67.2207 35.8555 67.2207H72.7083C73.2584 67.2207 73.7043 67.6667 73.7043 68.2168V90.127Z"
        fill="white" />
    <path
        d="M40.1758 71.6202C40.1758 71.0447 40.6423 70.5781 41.2179 70.5781H67.1492C67.7247 70.5781 68.1913 71.0447 68.1913 71.6202V87.2517C68.1913 87.8273 67.7247 88.2938 67.1492 88.2938H41.2179C40.6423 88.2938 40.1758 87.8273 40.1758 87.2517V71.6202Z"
        fill="#E5ECFF" />
    <path
        d="M61.7857 81.6824C61.9897 81.3626 62.456 81.3609 62.6623 81.6793L65.9588 86.7669L58.543 86.7669L61.7857 81.6824Z"
        fill="#BCCEFE" />
    <path
        d="M54.7648 77.435C54.9699 77.1249 55.4245 77.1233 55.6318 77.4319L61.84 86.67L48.6562 86.67L54.7648 77.435Z"
        fill="#86A1F4" />
    <ellipse cx="46.7415" cy="76.5638" rx="2.47196" ry="2.47196" fill="#86A1F4" />
    <path
        d="M80.9286 90.1006H27.3838C26.9712 90.1006 26.6367 90.4351 26.6367 90.8477V92.3418C26.6367 93.167 27.3057 93.8359 28.1309 93.8359H80.1815C81.0067 93.8359 81.6757 93.167 81.6757 92.3418V90.8477C81.6757 90.4351 81.3412 90.1006 80.9286 90.1006Z"
        fill="#3C5AAA" />
    <path
        d="M48.6109 46.4608V62.7837C48.6109 63.099 48.8664 63.3545 49.1816 63.3545H58.8846V46.4608C58.8846 46.1456 59.1401 45.8901 59.4554 45.8901H64.1067C64.6294 45.8901 64.8771 45.2458 64.4891 44.8956L54.6416 36.0088C54.2129 35.6219 53.5628 35.6162 53.1273 35.9953L42.9118 44.8888C42.5138 45.2353 42.7588 45.8901 43.2866 45.8901H48.0401C48.3553 45.8901 48.6109 46.1456 48.6109 46.4608Z"
        fill="#5D80ED" />
</svg>
