<svg fill="none" height="25" viewBox="0 0 25 25" width="25" xmlns="http://www.w3.org/2000/svg">
    <path
        d="M6.68441 17.3312C6.37199 17.6437 6.37199 18.1502 6.68441 18.4626C6.99683 18.775 7.50336 18.775 7.81578 18.4626L12.7499 13.5285L17.684 18.4626C17.9964 18.775 18.503 18.775 18.8154 18.4626C19.1278 18.1502 19.1278 17.6437 18.8154 17.3312L13.8813 12.3971L18.8158 7.46261C19.1282 7.15019 19.1282 6.64366 18.8158 6.33124C18.5034 6.01882 17.9968 6.01882 17.6844 6.33124L12.7499 11.2657L7.81539 6.33124C7.50297 6.01882 6.99644 6.01882 6.68402 6.33124C6.3716 6.64366 6.3716 7.15019 6.68402 7.46261L11.6185 12.3971L6.68441 17.3312Z"
        fill="#DB0025" />
</svg>
