<svg fill="none" height="25" viewBox="0 0 25 25" width="25" xmlns="http://www.w3.org/2000/svg">
    <path
        d="M5.7502 4.59741C4.2038 4.59741 2.9502 5.85101 2.9502 7.39741V14.3974C2.9502 15.9438 4.2038 17.1974 5.7502 17.1974H8.7502C9.19202 17.1974 9.5502 16.8392 9.5502 16.3974C9.5502 15.9556 9.19202 15.5974 8.7502 15.5974H5.7502C5.08745 15.5974 4.5502 15.0602 4.5502 14.3974V7.39741C4.5502 6.73467 5.08745 6.19741 5.7502 6.19741H19.7502C20.4129 6.19741 20.9502 6.73467 20.9502 7.39741V14.3974C20.9502 15.0602 20.4129 15.5974 19.7502 15.5974H16.7502C16.3084 15.5974 15.9502 15.9556 15.9502 16.3974C15.9502 16.8392 16.3084 17.1974 16.7502 17.1974H19.7502C21.2966 17.1974 22.5502 15.9438 22.5502 14.3974V7.39741C22.5502 5.85102 21.2966 4.59741 19.7502 4.59741H5.7502Z"
        fill="#2A2A2A" />
    <path
        d="M16.8155 12.3314C17.1279 12.6438 17.1279 13.1503 16.8155 13.4627C16.503 13.7751 15.9965 13.7751 15.6841 13.4627L13.5502 11.3285V21.397C13.5502 21.8389 13.192 22.197 12.7502 22.197C12.3084 22.197 11.9502 21.8389 11.9502 21.397V11.3282L9.81546 13.4627C9.50302 13.7751 8.99649 13.7751 8.68409 13.4627C8.37169 13.1502 8.37171 12.6437 8.68415 12.3313L12.1845 8.83131C12.3346 8.68128 12.5381 8.59701 12.7502 8.59702C12.9624 8.59703 13.1659 8.68133 13.3159 8.83137L16.8155 12.3314Z"
        fill="#2A2A2A" />
</svg>
