<svg width="64" height="64" viewBox="0 0 64 64" fill="none" xmlns="http://www.w3.org/2000/svg">
	<g>
		<path
			d="M13.3334 11.0674C9.13603 11.0674 5.7334 14.47 5.7334 18.6674V37.3341C5.7334 41.5314 9.13603 44.9341 13.3334 44.9341H21.3334C22.5852 44.9341 23.6001 43.9192 23.6001 42.6674C23.6001 41.4155 22.5852 40.4007 21.3334 40.4007H13.3334C11.6397 40.4007 10.2667 39.0277 10.2667 37.3341V18.6674C10.2667 16.9737 11.6397 15.6007 13.3334 15.6007H50.6667C52.3604 15.6007 53.7334 16.9737 53.7334 18.6674V37.3341C53.7334 39.0277 52.3604 40.4007 50.6667 40.4007H42.6667C41.4149 40.4007 40.4001 41.4155 40.4001 42.6674C40.4001 43.9192 41.4149 44.9341 42.6667 44.9341H50.6667C54.8641 44.9341 58.2667 41.5314 58.2667 37.3341V18.6674C58.2667 14.47 54.8641 11.0674 50.6667 11.0674H13.3334Z"
			fill="black" />
		<path
			d="M42.9368 31.7319C43.8219 32.6171 43.8218 34.0523 42.9366 34.9374C42.0514 35.8226 40.6162 35.8225 39.7311 34.9373L34.2683 29.4739V53.3346C34.2683 54.5864 33.2534 55.6012 32.0016 55.6012C30.7498 55.6012 29.7349 54.5864 29.7349 53.3346V29.473L24.2699 34.9374C23.3847 35.8226 21.9495 35.8225 21.0644 34.9373C20.1792 34.052 20.1793 32.6168 21.0646 31.7317L30.3989 22.3984C30.824 21.9733 31.4006 21.7345 32.0017 21.7346C32.6029 21.7346 33.1794 21.9734 33.6045 22.3985L42.9368 31.7319Z"
			fill="black" />
	</g>
</svg>
