<svg width="49" height="49" viewBox="0 0 49 49" fill="none" xmlns="http://www.w3.org/2000/svg">
    <path fill-rule="evenodd" clip-rule="evenodd"
        d="M5.01562 24.1805C5.01562 13.3005 13.8356 4.48047 24.7156 4.48047C35.5956 4.48047 44.4156 13.3005 44.4156 24.1805C44.4156 35.0605 35.5956 43.8805 24.7156 43.8805C13.8356 43.8805 5.01562 35.0605 5.01562 24.1805ZM26.4148 14.1805C26.4148 13.2416 25.6537 12.4805 24.7148 12.4805C23.776 12.4805 23.0148 13.2416 23.0148 14.1805L23.0148 26.1805C23.0148 27.1194 23.776 27.8805 24.7148 27.8805C25.6537 27.8805 26.4148 27.1194 26.4148 26.1805V14.1805ZM24.7148 34.1805C23.6148 34.1805 22.7148 33.2805 22.7148 32.1805C22.7148 31.0805 23.6148 30.1805 24.7148 30.1805C25.8148 30.1805 26.7148 31.0805 26.7148 32.1805C26.7148 33.2805 25.8148 34.1805 24.7148 34.1805Z"
        fill="#E34521" />
</svg>
