<svg width="48" height="48" viewBox="0 0 48 48" fill="none" xmlns="http://www.w3.org/2000/svg">
    <g id="vsds/icon/broadcast">
        <g id="vector">
            <path
                d="M12.3933 12.9589C9.49934 15.7311 7.70078 19.6291 7.70078 23.95C7.70078 28.2709 9.49934 32.1689 12.3933 34.9411C13.0713 35.5906 13.0944 36.6667 12.4449 37.3447C11.7954 38.0227 10.7193 38.0458 10.0413 37.3963C6.50569 34.0094 4.30078 29.2358 4.30078 23.95C4.30078 18.6642 6.50569 13.8906 10.0413 10.5036C10.7193 9.85415 11.7954 9.87727 12.4449 10.5553C13.0944 11.2333 13.0713 12.3094 12.3933 12.9589Z"
                fill="white" />
            <path
                d="M40.2992 23.95C40.2992 19.6291 38.5007 15.7311 35.6067 12.9589C34.9287 12.3094 34.9056 11.2333 35.5551 10.5553C36.2046 9.87727 37.2807 9.85415 37.9587 10.5036C41.4943 13.8906 43.6992 18.6642 43.6992 23.95C43.6992 29.2358 41.4943 34.0094 37.9587 37.3963C37.2807 38.0458 36.2046 38.0227 35.5551 37.3447C34.9056 36.6667 34.9287 35.5906 35.6067 34.9411C38.5007 32.1689 40.2992 28.2709 40.2992 23.95Z"
                fill="white" />
            <path
                d="M33.1195 23.9513C33.1195 21.7972 32.2371 19.8523 30.8097 18.453C30.1393 17.7958 30.1286 16.7194 30.7859 16.049C31.4431 15.3785 32.5194 15.3678 33.1899 16.0251C35.2427 18.0375 36.5195 20.8468 36.5195 23.9513C36.5195 27.0558 35.2427 29.8651 33.1899 31.8775C32.5194 32.5348 31.4431 32.5241 30.7859 31.8536C30.1286 31.1832 30.1393 30.1069 30.8097 29.4496C32.2371 28.0503 33.1195 26.1054 33.1195 23.9513Z"
                fill="white" />
            <path
                d="M14.7008 23.9513C14.7008 21.7972 15.5832 19.8523 17.0106 18.453C17.681 17.7958 17.6917 16.7194 17.0345 16.049C16.3772 15.3785 15.3009 15.3678 14.6304 16.0251C12.5776 18.0375 11.3008 20.8468 11.3008 23.9513C11.3008 27.0558 12.5776 29.8651 14.6304 31.8775C15.3009 32.5348 16.3772 32.5241 17.0345 31.8536C17.6917 31.1832 17.681 30.1069 17.0106 29.4496C15.5832 28.0503 14.7008 26.1054 14.7008 23.9513Z"
                fill="white" />
            <path fill-rule="evenodd" clip-rule="evenodd"
                d="M24.0008 18.3008C20.8528 18.3008 18.3008 20.8528 18.3008 24.0008C18.3008 27.1488 20.8528 29.7008 24.0008 29.7008C27.1488 29.7008 29.7008 27.1488 29.7008 24.0008C29.7008 20.8528 27.1488 18.3008 24.0008 18.3008ZM21.7008 24.0008C21.7008 22.7305 22.7305 21.7008 24.0008 21.7008C25.271 21.7008 26.3008 22.7305 26.3008 24.0008C26.3008 25.271 25.271 26.3008 24.0008 26.3008C22.7305 26.3008 21.7008 25.271 21.7008 24.0008Z"
                fill="white" />
        </g>
    </g>
</svg>
