<svg width="130" height="130" viewBox="0 0 130 130" fill="none" xmlns="http://www.w3.org/2000/svg">
    <path
        d="M33.5656 35.0943C25.7279 42.6024 20.8568 53.1594 20.8568 64.8619C20.8568 76.5643 25.7279 87.1213 33.5657 94.6295C35.4019 96.3885 35.4645 99.303 33.7055 101.139C31.9465 102.975 29.0319 103.038 27.1957 101.279C17.6201 92.1061 11.6484 79.1775 11.6484 64.8619C11.6484 50.5462 17.6201 37.6176 27.1957 28.4447C29.0319 26.6856 31.9465 26.7482 33.7055 28.5845C35.4645 30.4207 35.4019 33.3352 33.5656 35.0943Z"
        fill="white" opacity="0.24" />
    <path
        d="M109.144 64.8619C109.144 53.1594 104.273 42.6024 96.4353 35.0943C94.5991 33.3352 94.5365 30.4207 96.2955 28.5845C98.0545 26.7482 100.969 26.6856 102.805 28.4447C112.381 37.6176 118.353 50.5462 118.353 64.8619C118.353 79.1775 112.381 92.1061 102.805 101.279C100.969 103.038 98.0545 102.975 96.2955 101.139C94.5365 99.303 94.5991 96.3885 96.4353 94.6295C104.273 87.1213 109.144 76.5643 109.144 64.8619Z"
        fill="white" opacity="0.24" />
    <path
        d="M89.6992 64.8655C89.6992 59.0315 87.3094 53.764 83.4436 49.9743C81.6277 48.1942 81.5988 45.2791 83.3788 43.4633C85.1589 41.6475 88.074 41.6185 89.8898 43.3986C95.4495 48.8489 98.9076 56.4575 98.9076 64.8655C98.9076 73.2734 95.4495 80.882 89.8898 86.3323C88.074 88.1124 85.1589 88.0834 83.3788 86.2676C81.5988 84.4518 81.6277 81.5367 83.4436 79.7566C87.3094 75.9669 89.6992 70.6994 89.6992 64.8655Z"
        fill="white" opacity="0.24" />
    <path
        d="M39.8151 64.8655C39.8151 59.0315 42.2049 53.764 46.0708 49.9743C47.8866 48.1942 47.9156 45.2791 46.1355 43.4633C44.3554 41.6475 41.4403 41.6185 39.6245 43.3986C34.0648 48.8489 30.6068 56.4575 30.6068 64.8655C30.6068 73.2734 34.0648 80.882 39.6245 86.3323C41.4403 88.1124 44.3554 88.0834 46.1355 86.2676C47.9156 84.4518 47.8866 81.5367 46.0708 79.7566C42.2049 75.9669 39.8151 70.6994 39.8151 64.8655Z"
        fill="white" opacity="0.24" />
    <path id="vector_2"
        d="M75.8337 65.0001C75.8337 70.9832 70.9834 75.8334 65.0003 75.8334C59.0172 75.8334 54.167 70.9832 54.167 65.0001C54.167 59.017 59.0172 54.1667 65.0003 54.1667C70.9834 54.1667 75.8337 59.017 75.8337 65.0001Z"
        fill="white" />
</svg>
