<svg width="130" height="130" viewBox="0 0 130 130" fill="none" xmlns="http://www.w3.org/2000/svg">
    <path id="vector" opacity="0.32"
        d="M26.5056 16.25C17.8499 16.25 10.833 22.2364 10.833 29.6211V62.4623C10.833 69.8469 17.8499 75.8333 26.5056 75.8333H103.494C112.149 75.8333 119.166 69.8469 119.166 62.4623V29.6211C119.166 22.2364 112.149 16.25 103.494 16.25H26.5056Z"
        fill="white" />
    <path id="vector_2" fill-rule="evenodd" clip-rule="evenodd"
        d="M87.2118 86.1193C89.01 87.9173 89.0101 90.8325 87.2122 92.6306L68.2559 111.589C67.3925 112.452 66.2215 112.938 65.0004 112.938C63.7793 112.938 62.6081 112.453 61.7446 111.589L42.7843 92.631C40.9861 90.833 40.986 87.9178 42.7839 86.1197C44.5818 84.3216 47.497 84.3214 49.2952 86.1193L60.3959 97.2189L60.3959 48.7502C60.3959 46.2074 62.4573 44.146 65.0001 44.146C67.5429 44.146 69.6043 46.2074 69.6043 48.7502L69.6043 97.2172L80.7006 86.1197C82.4985 84.3216 85.4137 84.3214 87.2118 86.1193Z"
        fill="white" />
</svg>
