<svg width="96" height="96" viewBox="0 0 96 96" fill="none" xmlns="http://www.w3.org/2000/svg">
    <circle cx="48" cy="48" r="46.4" fill="#3AC9CC" fill-opacity="0.16" stroke="#3AC9CC" stroke-width="3.2"/>
    <path fill-rule="evenodd" clip-rule="evenodd" d="M20.8022 35.9992C20.8022 31.2863 24.6228 27.4658 29.3356 27.4658H66.6689C71.3818 27.4658 75.2023 31.2863 75.2023 35.9992V49.3325C75.2023 54.0453 71.3818 57.8658 66.6689 57.8658H59.5982C57.8309 57.8658 56.3982 56.4331 56.3982 54.6658C56.3982 52.8985 57.8309 51.4658 59.5982 51.4658H66.6689C67.8471 51.4658 68.8022 50.5107 68.8022 49.3325V35.9992C68.8022 34.8209 67.8471 33.8658 66.6689 33.8658H29.3356C28.1574 33.8658 27.2022 34.8209 27.2022 35.9992V49.3325C27.2022 50.5107 28.1574 51.4658 29.3356 51.4658H36.8028C38.5701 51.4658 40.0028 52.8985 40.0028 54.6658C40.0028 56.4331 38.5701 57.8658 36.8028 57.8658H29.3356C24.6227 57.8658 20.8022 54.0453 20.8022 49.3325V35.9992Z" fill="#3AC9CC"/>
    <path fill-rule="evenodd" clip-rule="evenodd" d="M59.5982 61.7363C60.8479 62.9859 60.8481 65.012 59.5984 66.2618L50.2661 75.5951C49.666 76.1953 48.8521 76.5324 48.0034 76.5325C47.1547 76.5325 46.3408 76.1954 45.7406 75.5954L36.4063 66.262C35.1566 65.0124 35.1564 62.9863 36.4061 61.7365C37.6557 60.4868 39.6818 60.4867 40.9315 61.7363L44.8033 65.6076V43.9992C44.8033 42.2318 46.236 40.7992 48.0033 40.7992C49.7706 40.7992 51.2033 42.2318 51.2033 43.9992V65.6064L55.0727 61.7365C56.3223 60.4868 58.3485 60.4867 59.5982 61.7363Z" fill="#3AC9CC"/>
</svg>
