<svg width="48" height="48" viewBox="0 0 48 48" fill="none" xmlns="http://www.w3.org/2000/svg">
	<path
		d="M10.0008 8.2998C6.85276 8.2998 4.30078 10.8518 4.30078 13.9998V27.9998C4.30078 31.1478 6.85276 33.6998 10.0008 33.6998H21.7411L20.4468 30.2998H10.0008C8.73053 30.2998 7.70078 29.2701 7.70078 27.9998V13.9998C7.70078 12.7295 8.73053 11.6998 10.0008 11.6998H38.0008C39.271 11.6998 40.3008 12.7295 40.3008 13.9998V22.8296L43.7008 24.1146V13.9998C43.7008 10.8518 41.1488 8.2998 38.0008 8.2998H10.0008Z"
		fill="white" />
	<path
		d="M24.5275 22.0755C23.6201 21.7326 22.7316 22.6179 23.0758 23.522L29.9913 41.688C30.3455 42.6184 31.6498 42.6627 32.0667 41.7585L35.2812 34.7877C35.3935 34.5441 35.5896 34.3487 35.8341 34.2368L42.8301 31.034C43.7376 30.6186 43.6931 29.3189 42.7594 28.966L24.5275 22.0755Z"
		fill="white" />
</svg>
