<svg width="96" height="96" viewBox="0 0 96 96" fill="none" xmlns="http://www.w3.org/2000/svg">
    <circle cx="48" cy="48" r="46.4" fill="#3AC9CC" fill-opacity="0.16" stroke="#3AC9CC"
        stroke-width="3.2" />
    <path opacity="0.32"
        d="M29.0478 22C24.7865 22 21.332 24.9472 21.332 28.5827V44.7507C21.332 48.3862 24.7865 51.3333 29.0478 51.3333H66.9496C71.2109 51.3333 74.6654 48.3862 74.6654 44.7507V28.5827C74.6654 24.9472 71.2109 22 66.9496 22H29.0478Z"
        fill="#3AC9CC" />
    <path fill-rule="evenodd" clip-rule="evenodd"
        d="M58.9337 56.3982C59.8189 57.2833 59.819 58.7185 58.9339 59.6037L49.6015 68.9371C49.1765 69.3622 48.6 69.601 47.9988 69.601C47.3976 69.6011 46.8211 69.3623 46.396 68.9372L37.0616 59.6039C36.1764 58.7188 36.1763 57.2836 37.0615 56.3984C37.9466 55.5131 39.3818 55.513 40.267 56.3982L45.732 61.8626L45.732 38.001C45.732 36.7492 46.7468 35.7344 47.9987 35.7344C49.2505 35.7344 50.2653 36.7492 50.2653 38.001L50.2653 61.8617L55.7281 56.3984C56.6133 55.5131 58.0484 55.513 58.9337 56.3982Z"
        fill="#3AC9CC" />
</svg>
