<svg width="378" height="330" viewBox="0 0 378 330" fill="none" xmlns="http://www.w3.org/2000/svg">
    <path d="M263.684 236.994V323.006C263.684 326.869 260.553 330 256.69 330H121.994C118.131 330 115 326.869 115 323.006L115 236.994C115 233.131 118.131 230 121.994 230H156.272L183.566 253.432C186.187 255.682 190.057 255.682 192.678 253.432L219.972 230H256.69C260.553 230 263.684 233.131 263.684 236.994Z" fill="#838CA6"/>
    <path d="M257.376 316.979H121L121 240.057C121 238.125 122.566 236.56 124.497 236.56L253.879 236.56C255.811 236.56 257.376 238.125 257.376 240.057V316.979Z" fill="white"/>
    <path d="M283.607 316.886H95.6228C94.1743 316.886 93 318.06 93 319.509V324.754C93 327.651 95.3485 330 98.2456 330H280.984C283.881 330 286.23 327.651 286.23 324.754V319.509C286.23 318.06 285.056 316.886 283.607 316.886Z" fill="#838CA6"/>
    <path d="M0.00780433 4.00099L0.00781233 187.001C0.00781242 189.21 1.79868 191.001 4.00781 191.001L163 191.001L163 166.501L214 166.501L214 191.001L374.008 191.001C376.217 191.001 378.008 189.21 378.008 187.001L378.008 4.00098C378.008 1.79184 376.217 0.000976641 374.008 0.000976737L4.0078 0.000992911C1.79867 0.000993007 0.00780423 1.79186 0.00780433 4.00099Z" fill="#3C5AAA"/>
    <path d="M371.109 169.646H6.90405V9.49121H371.109V169.646Z" fill="white"/>
    <path d="M171.752 40.7273V64H166.831V40.7273H171.752ZM175.8 64V40.7273H191.209V44.7841H180.721V50.3295H190.186V54.3864H180.721V64H175.8ZM194.519 64V40.7273H203.701C205.466 40.7273 206.97 41.0644 208.212 41.7386C209.454 42.4053 210.401 43.3333 211.053 44.5227C211.712 45.7045 212.042 47.0682 212.042 48.6136C212.042 50.1591 211.708 51.5227 211.042 52.7045C210.375 53.8864 209.409 54.8068 208.144 55.4659C206.886 56.125 205.364 56.4545 203.576 56.4545H197.723V52.5114H202.78C203.727 52.5114 204.507 52.3485 205.121 52.0227C205.742 51.6894 206.204 51.2311 206.507 50.6477C206.818 50.0568 206.973 49.3788 206.973 48.6136C206.973 47.8409 206.818 47.1667 206.507 46.5909C206.204 46.0076 205.742 45.5568 205.121 45.2386C204.5 44.9129 203.712 44.75 202.757 44.75H199.439V64H194.519Z" fill="#3C5AAA"/>
    <path d="M170.562 210.086V125.993C170.562 124.893 171.455 124 172.556 124H204.455C205.554 124 206.445 124.891 206.445 125.99V210.086C206.445 211.187 207.337 212.08 208.438 212.08H224.684C226.509 212.08 227.375 214.33 226.019 215.553L191.626 246.591C190.128 247.942 187.858 247.963 186.337 246.638L150.657 215.577C149.267 214.366 150.123 212.08 151.966 212.08H168.569C169.67 212.08 170.562 211.187 170.562 210.086Z" fill="#3C5AAA"/>
</svg>
