<svg width="280" height="280" viewBox="0 0 280 280" fill="none" xmlns="http://www.w3.org/2000/svg">
<path d="M280 164.15C280 133.35 256.083 108.383 225.75 106.283C217.817 66.0333 182.467 35.8167 140 35.8167C124.483 35.8167 110.017 40.0167 97.4167 47.1333L114.8 64.5167C122.617 61.1333 131.017 59.15 140 59.15C175.467 59.15 204.167 87.85 204.167 123.317V129.15H221.667C241.033 129.15 256.667 144.783 256.667 164.15C256.667 175.7 251.067 185.733 242.55 192.15L259 208.6C271.717 197.867 280 182.117 280 164.15ZM51.45 34.1833L35 50.6333L67.3167 82.95H62.4167C27.3 86.6833 0 116.433 0 152.483C0 191.1 31.3833 222.483 70 222.483H206.85L230.183 245.817L246.633 229.367L51.45 34.1833ZM70 199.15C44.2167 199.15 23.3333 178.267 23.3333 152.483C23.3333 126.7 44.2167 105.817 70 105.817H90.1833L183.517 199.15H70Z" fill="#FF3B30"/>
</svg>
