<svg width="378" height="331" viewBox="0 0 378 331" fill="none" xmlns="http://www.w3.org/2000/svg">
    <path
        d="M263.001 237.494V323.506C263.001 327.369 259.869 330.5 256.007 330.5H121.311C117.448 330.5 114.316 327.369 114.316 323.506L114.316 237.494C114.316 233.631 117.448 230.5 121.311 230.5H155.588L182.882 253.932C185.503 256.182 189.374 256.182 191.994 253.932L219.288 230.5H256.007C259.869 230.5 263.001 233.631 263.001 237.494Z"
        fill="#E9EAF0" />
    <path
        d="M257.189 317.478H120.813L120.812 240.556C120.812 238.624 122.378 237.059 124.31 237.059L253.692 237.059C255.623 237.059 257.189 238.624 257.189 240.556V317.478Z"
        fill="white" />
    <path
        d="M282.556 317.386H94.572C93.1235 317.386 91.9492 318.56 91.9492 320.009V325.254C91.9492 328.151 94.2978 330.5 97.1948 330.5H279.934C282.831 330.5 285.179 328.151 285.179 325.254V320.009C285.179 318.56 284.005 317.386 282.556 317.386Z"
        fill="#E9EAF0" />
    <path
        d="M0.634056 4.48729L0.634064 186.89C0.634064 189.092 2.41907 190.877 4.621 190.877L162.541 190.877L162.541 166.457L213.873 166.457L213.873 190.877L373.853 190.877C376.055 190.877 377.84 189.092 377.84 186.89L377.84 4.48727C377.84 2.28535 376.055 0.500336 373.853 0.500336L4.62099 0.500352C2.41906 0.500352 0.634055 2.28536 0.634056 4.48729Z"
        fill="#D3D6E1" />
    <path d="M371.192 169.592H8.17578V9.95898H371.192V169.592Z" fill="white" />
    <path
        d="M170.515 210.627V126.534C170.515 125.434 171.408 124.541 172.509 124.541H206.398V210.627C206.398 211.728 207.29 212.621 208.391 212.621H224.637C226.462 212.621 227.328 214.871 225.972 216.094L191.579 247.132C190.081 248.483 187.811 248.504 186.29 247.179L150.611 216.118C149.22 214.907 150.076 212.621 151.92 212.621H168.522C169.623 212.621 170.515 211.728 170.515 210.627Z"
        fill="#D3D6E1" />
</svg>
