<svg width="130" height="130" viewBox="0 0 130 130" fill="none" xmlns="http://www.w3.org/2000/svg">
    <path fill-rule="evenodd" clip-rule="evenodd" d="M9.74902 32.4993C9.74902 22.9264 17.5094 15.166 27.0824 15.166H102.916C112.489 15.166 120.249 22.9264 120.249 32.4993V59.5827C120.249 69.1556 112.489 76.916 102.916 76.916H88.5533C84.9635 76.916 82.0533 74.0059 82.0533 70.416C82.0533 66.8262 84.9635 63.916 88.5533 63.916H102.916C105.309 63.916 107.249 61.9759 107.249 59.5827V32.4993C107.249 30.1061 105.309 28.166 102.916 28.166H27.0824C24.6891 28.166 22.749 30.1061 22.749 32.4993V59.5827C22.749 61.9759 24.6891 63.916 27.0824 63.916H42.2501C45.8399 63.916 48.7501 66.8262 48.7501 70.416C48.7501 74.0059 45.8399 76.916 42.2501 76.916H27.0824C17.5094 76.916 9.74902 69.1556 9.74902 59.5827V32.4993Z" fill="white"/>
    <path fill-rule="evenodd" clip-rule="evenodd" d="M88.5533 84.7779C91.0919 87.3162 91.0921 91.4318 88.5538 93.9703L69.5975 112.929C68.3786 114.148 66.7254 114.833 65.0014 114.833C63.2775 114.833 61.6242 114.148 60.4051 112.929L41.4448 93.9708C38.9062 91.4325 38.906 87.317 41.4443 84.7784C43.9825 82.2399 48.0981 82.2396 50.6366 84.7779L58.5011 92.6415V48.7494C58.5011 45.1595 61.4112 42.2494 65.0011 42.2494C68.5909 42.2493 71.5011 45.1595 71.5011 48.7494V92.6391L79.3609 84.7784C81.8992 82.2399 86.0148 82.2396 88.5533 84.7779Z" fill="white"/>
</svg>
