<svg width="24" height="24" viewBox="0 0 24 24" fill="none" xmlns="http://www.w3.org/2000/svg">
<path d="M7.787 3.95117C8.22882 3.95117 8.5868 4.30915 8.5868 4.75098V17.3184L10.7216 15.1836L10.7821 15.1289C11.0963 14.8725 11.5595 14.8907 11.8524 15.1836C12.1454 15.4765 12.1636 15.9397 11.9071 16.2539L11.8524 16.3145L8.36121 19.8047C8.21577 19.9555 8.0131 20.0508 7.787 20.0508C7.60212 20.0507 7.43413 19.9852 7.29871 19.8799C7.29357 19.8759 7.28718 19.8733 7.28211 19.8691L7.2118 19.8047L3.72157 16.3145C3.40924 16.002 3.40919 15.496 3.72157 15.1836C4.03396 14.8712 4.54 14.8713 4.85243 15.1836L6.98719 17.3184V4.75098C6.98719 4.3092 7.34524 3.95125 7.787 3.95117Z" fill="#333333"/>
<path d="M18.7092 13.4492C19.0326 13.4494 19.3247 13.6445 19.4485 13.9434C19.5719 14.2421 19.5031 14.5858 19.2747 14.8145L15.6399 18.4492H18.7092L18.7913 18.4531C19.1944 18.4944 19.509 18.835 19.509 19.249C19.509 19.6907 19.1509 20.0486 18.7092 20.0488H13.7092C13.3857 20.0488 13.0938 19.8535 12.97 19.5547C12.8464 19.2559 12.9151 18.9123 13.1438 18.6836L16.7786 15.0488H13.7092C13.2674 15.0488 12.9094 14.6909 12.9094 14.249C12.9094 13.8072 13.2674 13.4492 13.7092 13.4492H18.7092Z" fill="#333333"/>
<path fill-rule="evenodd" clip-rule="evenodd" d="M16.2092 3.94922C16.5176 3.94938 16.7993 4.1268 16.9319 4.40527L19.9319 10.7051L19.9631 10.7803C20.0997 11.162 19.9268 11.5933 19.553 11.7715C19.1542 11.9612 18.6765 11.7913 18.4866 11.3926C18.3092 11.0202 18.1316 10.6478 17.9543 10.2754H14.4641L13.9319 11.3926C13.742 11.7913 13.2643 11.961 12.8655 11.7715C12.4666 11.5816 12.2967 11.104 12.4866 10.7051L15.4866 4.40527C15.6193 4.12677 15.9007 3.94922 16.2092 3.94922ZM15.2258 8.67578H17.1926C16.8647 7.98703 16.5372 7.2981 16.2092 6.60938L15.2258 8.67578Z" fill="#333333"/>
</svg>
