<svg width="24" height="24" viewBox="0 0 24 24" fill="none" xmlns="http://www.w3.org/2000/svg">
<path d="M7.78702 3.9502C8.22885 3.9502 8.58682 4.30817 8.58682 4.75V17.3193L10.7216 15.1846L10.7821 15.1299C11.0963 14.8734 11.5595 14.8916 11.8524 15.1846C12.1454 15.4775 12.1636 15.9407 11.9071 16.2549L11.8524 16.3154L8.35245 19.8154C8.2515 19.9164 8.12343 19.9888 7.98038 20.0244C7.97285 20.0263 7.96548 20.0286 7.95792 20.0303C7.91757 20.0391 7.87626 20.0444 7.83389 20.0469C7.8277 20.0472 7.82154 20.0476 7.81534 20.0479C7.80594 20.0482 7.79649 20.0498 7.78702 20.0498C7.75359 20.0498 7.72074 20.047 7.68839 20.043C7.68185 20.0422 7.67537 20.041 7.66885 20.04C7.53566 20.0203 7.4147 19.9666 7.31143 19.8896C7.30208 19.8827 7.29124 19.8776 7.28214 19.8701L7.22159 19.8154L3.72159 16.3154C3.40921 16.003 3.40921 15.497 3.72159 15.1846C4.034 14.8722 4.54003 14.8722 4.85245 15.1846L6.98721 17.3193V4.75C6.98721 4.30819 7.34522 3.95023 7.78702 3.9502Z" fill="#2A2A2A"/>
<path fill-rule="evenodd" clip-rule="evenodd" d="M16.2089 12.1494C16.5174 12.1495 16.7989 12.3269 16.9315 12.6055L19.9315 18.9053L19.9628 18.9805C20.0994 19.3623 19.9266 19.7935 19.5526 19.9717C19.1538 20.1615 18.6762 19.9916 18.4862 19.5928C18.3086 19.2197 18.1307 18.8467 17.953 18.4736H14.4648L13.9315 19.5928C13.7417 19.9916 13.264 20.1614 12.8651 19.9717C12.4663 19.7817 12.2964 19.3042 12.4862 18.9053L15.4862 12.6055C15.6189 12.3269 15.9004 12.1494 16.2089 12.1494ZM15.2255 16.874H17.1923C16.8646 16.1858 16.5366 15.4978 16.2089 14.8096L15.2255 16.874Z" fill="#2A2A2A"/>
<path d="M18.7089 3.9502C19.0324 3.95027 19.3243 4.14545 19.4482 4.44434C19.5717 4.74311 19.5029 5.08677 19.2743 5.31543L15.6396 8.9502H18.7089L18.7909 8.9541C19.1941 8.99526 19.5087 9.33593 19.5087 9.75C19.5087 10.1918 19.1506 10.5497 18.7089 10.5498H13.7089C13.3853 10.5498 13.0935 10.3546 12.9696 10.0557C12.8461 9.75683 12.9148 9.41325 13.1435 9.18457L16.7782 5.5498H13.7089C13.2671 5.5498 12.9091 5.19183 12.9091 4.75C12.9091 4.30817 13.2671 3.9502 13.7089 3.9502H18.7089Z" fill="#2A2A2A"/>
</svg>
