<svg width="130" height="130" viewBox="0 0 130 130" fill="none" xmlns="http://www.w3.org/2000/svg">
    <path d="M34.8735 36.4634C27.3935 43.6288 22.749 53.6975 22.749 64.8619C22.749 76.0264 27.3936 86.0951 34.8735 93.2605C37.4659 95.7438 37.5542 99.8584 35.0709 102.451C32.5876 105.043 28.473 105.131 25.8807 102.648C15.9472 93.1325 9.74902 79.7156 9.74902 64.8619C9.74902 50.0083 15.9472 36.5914 25.8807 27.0757C28.473 24.5924 32.5876 24.6808 35.0709 27.2731C37.5542 29.8654 37.4659 33.9801 34.8735 36.4634Z" fill="white"/>
    <path d="M107.251 64.8619C107.251 53.6975 102.607 43.6288 95.1266 36.4634C92.5343 33.9801 92.4459 29.8654 94.9292 27.2731C97.4126 24.6808 101.527 24.5924 104.12 27.0757C114.053 36.5914 120.251 50.0083 120.251 64.8619C120.251 79.7156 114.053 93.1325 104.119 102.648C101.527 105.131 97.4125 105.043 94.9292 102.451C92.4459 99.8584 92.5343 95.7438 95.1266 93.2605C102.607 86.0951 107.251 76.0264 107.251 64.8619Z" fill="white"/>
    <path d="M87.8062 64.8655C87.8062 59.5615 85.6363 54.776 82.1192 51.3282C79.5556 48.8151 79.5147 44.6997 82.0278 42.1362C84.5409 39.5727 88.6562 39.5318 91.2197 42.0449C97.1282 47.837 100.806 55.9276 100.806 64.8655C100.806 73.8034 97.1282 81.894 91.2197 87.6862C88.6562 90.1993 84.5409 90.1584 82.0278 87.5948C79.5147 85.0313 79.5556 80.916 82.1192 78.4029C85.6363 74.955 87.8062 70.1696 87.8062 64.8655Z" fill="white"/>
    <path d="M41.7074 64.8655C41.7074 59.5615 43.8773 54.776 47.3944 51.3282C49.9579 48.8151 49.9988 44.6997 47.4857 42.1362C44.9727 39.5727 40.8573 39.5318 38.2938 42.0449C32.3853 47.837 28.7074 55.9276 28.7074 64.8655C28.7074 73.8034 32.3853 81.894 38.2938 87.6862C40.8573 90.1993 44.9727 90.1584 47.4857 87.5948C49.9988 85.0313 49.9579 80.916 47.3944 78.4029C43.8773 74.955 41.7074 70.1696 41.7074 64.8655Z" fill="white"/>
    <path d="M75.8334 65.0006C75.8334 70.9837 70.9832 75.8339 65.0001 75.8339C59.017 75.8339 54.1668 70.9837 54.1668 65.0006C54.1668 59.0175 59.017 54.1672 65.0001 54.1672C70.9832 54.1672 75.8334 59.0175 75.8334 65.0006Z" fill="white"/>
</svg>
