<svg width="64" height="64" viewBox="0 0 64 64" fill="none" xmlns="http://www.w3.org/2000/svg">
    <circle cx="32" cy="32" r="32" fill="white" />
    <path fill-rule="evenodd" clip-rule="evenodd"
        d="M21.588 40.3608C21.0215 40.9273 21.0215 41.8459 21.588 42.4124C22.1545 42.9789 23.073 42.9789 23.6395 42.4124L32.0004 34.0515L40.3613 42.4124C40.9278 42.9789 41.8463 42.9789 42.4129 42.4124C42.9794 41.8459 42.9794 40.9273 42.4129 40.3608L34.052 31.9999L42.4129 23.639C42.9794 23.0725 42.9794 22.154 42.4129 21.5875C41.8463 21.021 40.9278 21.021 40.3613 21.5875L32.0004 29.9484L23.6395 21.5875C23.073 21.021 22.1545 21.021 21.588 21.5875C21.0215 22.154 21.0215 23.0725 21.588 23.639L29.9489 31.9999L21.588 40.3608Z"
        fill="#2A2A2A" />
</svg>
