<svg width="60" height="60" viewBox="0 0 60 60" fill="none" xmlns="http://www.w3.org/2000/svg">
    <path fill-rule="evenodd" clip-rule="evenodd"
        d="M30.001 9.625C18.7482 9.625 9.62598 18.7472 9.62598 30C9.62598 41.2528 18.7482 50.375 30.001 50.375C41.2538 50.375 50.376 41.2528 50.376 30C50.376 18.7472 41.2538 9.625 30.001 9.625ZM5.37598 30C5.37598 16.4 16.401 5.375 30.001 5.375C43.601 5.375 54.626 16.4 54.626 30C54.626 43.6 43.601 54.625 30.001 54.625C16.401 54.625 5.37598 43.6 5.37598 30Z"
        fill="white" />
    <path
        d="M30.0022 17.875C31.1758 17.875 32.1272 18.8264 32.1272 20V32.5C32.1272 33.6736 31.1758 34.625 30.0022 34.625C28.8286 34.625 27.8772 33.6736 27.8772 32.5V20C27.8772 18.8264 28.8286 17.875 30.0022 17.875Z"
        fill="white" />
    <path
        d="M27.5022 40C27.5022 41.375 28.6272 42.5 30.0022 42.5C31.3772 42.5 32.5022 41.375 32.5022 40C32.5022 38.625 31.3772 37.5 30.0022 37.5C28.6272 37.5 27.5022 38.625 27.5022 40Z"
        fill="white" />
</svg>
