<svg width="80" height="81" viewBox="0 0 80 81" fill="none" xmlns="http://www.w3.org/2000/svg">
    <path opacity="0.48"
        d="M13.3314 28.3281C11.2143 28.3281 9.49805 30.0444 9.49805 32.1615V58.8281C9.49805 60.9452 11.2143 62.6615 13.3314 62.6615H18.3314C20.4485 62.6615 22.1647 60.9452 22.1647 58.8281V32.1615C22.1647 30.0444 20.4485 28.3281 18.3314 28.3281H13.3314Z"
        fill="#3C5AAA" />
    <path
        d="M47.8041 8.93816C44.8553 7.67439 41.4245 8.69016 39.6391 11.3557L27.1922 29.9377C26.8924 30.3853 26.424 30.695 25.893 30.7852C23.0604 31.2663 21.666 31.2663 21.666 31.2663V59.5996C24.9993 59.5996 26.94 59.9038 27.6607 60.1046L49.6849 66.2411C56.5145 68.144 63.5579 63.992 65.2 57.095L68.6889 42.4415C70.4344 35.1104 64.8755 28.0726 57.3395 28.0726H50.8391L53.9802 20.5793C55.7494 16.3586 53.7839 11.5009 49.5774 9.69816L47.8041 8.93816Z"
        fill="#3C5AAA" />
</svg>
