<svg width="32" height="32" viewBox="0 0 32 32" fill="none" xmlns="http://www.w3.org/2000/svg">
<path fill-rule="evenodd" clip-rule="evenodd" d="M14.2998 3.91751C14.9423 2.42569 17.0575 2.42569 17.6999 3.91751L20.3341 10.0344L26.9657 10.6495C28.583 10.7995 29.2366 12.8111 28.0164 13.8831L23.0129 18.2787L24.4772 24.7757C24.8343 26.3602 23.1231 27.6035 21.7264 26.7742L15.9999 23.3739L10.2733 26.7742C8.87672 27.6035 7.16549 26.3602 7.52262 24.7757L8.98692 18.2787L3.98341 13.8831C2.76313 12.8111 3.41677 10.7995 5.0341 10.6495L11.6656 10.0344L14.2998 3.91751ZM15.9999 5.36349L13.5587 11.0322C13.2907 11.6544 12.7042 12.0806 12.0296 12.1431L5.88396 12.7131L10.5208 16.7866C11.0298 17.2337 11.2539 17.9232 11.1049 18.5841L9.7479 24.6051L15.0548 21.4539C15.6374 21.108 16.3624 21.108 16.9449 21.4539L22.2519 24.6051L20.8949 18.5841C20.7459 17.9232 20.9699 17.2337 21.4789 16.7866L26.1158 12.7131L19.9702 12.1431C19.2956 12.0806 18.7091 11.6544 18.4411 11.0322L15.9999 5.36349Z" fill="white"/>
</svg>
