<svg width="64" height="64" viewBox="0 0 64 64" fill="none" xmlns="http://www.w3.org/2000/svg">
    <path d="M34.133 49.068C34.133 46.7116 36.0433 44.8013 38.3997 44.8013C40.7561 44.8013 42.6663 46.7116 42.6663 49.068C42.6663 51.4244 40.7561 53.3346 38.3997 53.3346C36.0433 53.3346 34.133 51.4244 34.133 49.068Z"
          fill="white" fill-opacity="0.48"/>
    <path d="M34.133 32.0013C34.133 29.6449 36.0433 27.7346 38.3997 27.7346C40.7561 27.7346 42.6663 29.6449 42.6663 32.0013C42.6663 34.3577 40.7561 36.268 38.3997 36.268C36.0433 36.268 34.133 34.3577 34.133 32.0013Z"
          fill="white" fill-opacity="0.48"/>
    <path d="M34.133 14.9346C34.133 12.5782 36.0433 10.668 38.3997 10.668C40.7561 10.668 42.6663 12.5782 42.6663 14.9346C42.6663 17.2911 40.7561 19.2013 38.3997 19.2013C36.0433 19.2013 34.133 17.2911 34.133 14.9346Z"
          fill="white" fill-opacity="0.48"/>
    <path d="M21.333 49.068C21.333 46.7116 23.2433 44.8013 25.5997 44.8013C27.9561 44.8013 29.8663 46.7116 29.8663 49.068C29.8663 51.4244 27.9561 53.3346 25.5997 53.3346C23.2433 53.3346 21.333 51.4244 21.333 49.068Z"
          fill="white" fill-opacity="0.48"/>
    <path d="M21.333 32.0013C21.333 29.6449 23.2433 27.7346 25.5997 27.7346C27.9561 27.7346 29.8663 29.6449 29.8663 32.0013C29.8663 34.3577 27.9561 36.268 25.5997 36.268C23.2433 36.268 21.333 34.3577 21.333 32.0013Z"
          fill="white" fill-opacity="0.48"/>
    <path d="M21.333 14.9346C21.333 12.5782 23.2433 10.668 25.5997 10.668C27.9561 10.668 29.8663 12.5782 29.8663 14.9346C29.8663 17.2911 27.9561 19.2013 25.5997 19.2013C23.2433 19.2013 21.333 17.2911 21.333 14.9346Z"
          fill="white" fill-opacity="0.48"/>
</svg>
