<svg width="64" height="65" viewBox="0 0 64 65" fill="none" xmlns="http://www.w3.org/2000/svg">
    <path
        d="M30.4912 30.9914C29.6581 31.8245 29.6581 33.1753 30.4912 34.0084C31.3243 34.8415 32.6751 34.8415 33.5082 34.0084L51.1997 16.3169V27.1665C51.1997 28.3447 52.1548 29.2999 53.333 29.2999C54.5112 29.2999 55.4664 28.3447 55.4664 27.1665V11.1665C55.4664 9.98833 54.5112 9.0332 53.333 9.0332H37.333C36.1548 9.0332 35.1997 9.98833 35.1997 11.1665C35.1997 12.3447 36.1548 13.2999 37.333 13.2999L48.1827 13.2999L30.4912 30.9914Z"
        fill="#2A2A2A" />
    <path
        d="M15.4664 47.1665L15.4664 19.1665C15.4664 17.3992 16.8991 15.9665 18.6664 15.9665L23.9997 15.9665C25.1779 15.9665 26.133 15.0114 26.133 13.8332C26.133 12.655 25.1779 11.6999 23.9997 11.6999L18.6664 11.6999C14.5426 11.6999 11.1997 15.0428 11.1997 19.1665V47.1665C11.1997 51.2903 14.5427 54.6332 18.6664 54.6332L45.333 54.6332C49.4568 54.6332 52.7997 51.2903 52.7997 47.1665V39.1665C52.7997 37.9883 51.8446 37.0332 50.6664 37.0332C49.4882 37.0332 48.533 37.9883 48.533 39.1665V47.1665C48.533 48.9338 47.1004 50.3665 45.333 50.3665L18.6664 50.3665C16.8991 50.3665 15.4664 48.9339 15.4664 47.1665Z"
        fill="#2A2A2A" />
</svg>
