<svg width="48" height="48" viewBox="0 0 48 48" fill="none" xmlns="http://www.w3.org/2000/svg">
    <path fill-rule="evenodd" clip-rule="evenodd"
          d="M12.8065 23.1974C12.1426 22.5335 12.1426 21.4571 12.8065 20.7932L22.8065 10.7932C23.4704 10.1293 24.5468 10.1293 25.2107 10.7932L35.2107 20.7932C35.8746 21.4571 35.8746 22.5335 35.2107 23.1974C34.5468 23.8613 33.4704 23.8613 32.8065 23.1974L24.0086 14.3995L15.2107 23.1974C14.5468 23.8613 13.4704 23.8613 12.8065 23.1974Z"
          fill="white" fill-opacity="0.64"/>
    <path fill-rule="evenodd" clip-rule="evenodd"
          d="M12.8065 36.6974C12.1426 36.0335 12.1426 34.9571 12.8065 34.2932L22.8065 24.2932C23.4704 23.6293 24.5468 23.6293 25.2107 24.2932L35.2107 34.2932C35.8746 34.9571 35.8746 36.0335 35.2107 36.6974C34.5468 37.3613 33.4704 37.3613 32.8065 36.6974L24.0086 27.8995L15.2107 36.6974C14.5468 37.3613 13.4704 37.3613 12.8065 36.6974Z"
          fill="white" fill-opacity="0.64"/>
</svg>
