<svg width="49" height="48" viewBox="0 0 49 48" fill="none" xmlns="http://www.w3.org/2000/svg">
	<path id="Vector 732"
		d="M7.80222 29.9956L13.7363 37.7817C16.006 40.7599 19.5359 42.5078 23.2804 42.5078H26.8173C32.4438 42.5078 37.3148 38.5985 38.5328 33.1054L38.9851 31.0653C40.0452 26.2841 36.5994 21.6812 31.7132 21.3517L30.3557 21.2601C28.1309 21.11 26.3408 19.3732 26.1236 17.1539L25.3942 9.70088C25.2164 7.88477 23.6895 6.5 21.8647 6.5C19.9665 6.5 18.4049 7.9947 18.3218 9.89109L17.5362 27.8235C17.5099 28.4238 16.7977 28.7235 16.3501 28.3226L12.9295 25.259C11.5128 23.9901 9.34271 24.0823 8.03863 25.4667C6.86254 26.7152 6.76251 28.6314 7.80222 29.9956Z"
		stroke="#E34521" stroke-width="4" stroke-linejoin="round" />
	<path id="Vector 730" d="M9 8L45 44" stroke="white" stroke-width="4" stroke-linecap="round"
		stroke-linejoin="round" />
	<path id="Vector 731" d="M5 8L41 44" stroke="#E34521" stroke-width="4" stroke-linecap="round"
		stroke-linejoin="round" />
</svg>
