<svg width="48" height="48" viewBox="0 0 48 48" fill="none" xmlns="http://www.w3.org/2000/svg">
    <g clip-path="url(#clip0_19408_3593)">
        <path fill-rule="evenodd" clip-rule="evenodd" d="M8.36528 9.49903L16.4445 25.7035L17.9834 28.7791C18.3028 29.4177 18.1606 30.1907 17.6346 30.6736C17.1087 31.1565 16.3264 31.2325 15.7174 30.8598L13.7279 29.6425C13.069 29.2393 12.4905 28.9174 11.9517 28.7417C11.4343 28.5729 11.0895 28.5841 10.8218 28.6884C10.2112 28.9263 9.7039 29.4832 9.56752 30.3947L9.55163 30.5009C9.47134 31.0375 9.57534 31.5855 9.84664 32.0555L10.8855 33.8549C14.817 40.6644 23.9763 42.9246 31.4223 38.6256C38.8684 34.3267 41.4906 25.2644 37.5591 18.4549L37.5573 18.4517L35.3963 14.6887C34.9785 14.006 34.0918 13.7796 33.3973 14.1805C33.1813 14.3053 33.1073 14.5815 33.232 14.7976L34.0197 16.1619C34.4615 16.9272 34.1993 17.9057 33.4341 18.3476C32.6688 18.7894 31.6903 18.5272 31.2484 17.7619L29.3032 14.3926C28.9993 13.8664 28.3264 13.686 27.8001 13.9899C27.2739 14.2937 27.0935 14.9667 27.3974 15.4929L28.8945 18.086C29.3363 18.8512 29.0741 19.8298 28.3088 20.2716C27.5436 20.7134 26.565 20.4512 26.1232 19.686L23.795 15.6534C23.3978 14.9654 22.5181 14.7297 21.8301 15.1269C21.1422 15.5241 20.9064 16.4038 21.3036 17.0918L23.2923 20.5363C23.7187 21.2747 23.491 22.2178 22.7746 22.6804C22.0582 23.143 21.105 22.9624 20.6074 22.27L10.5352 8.25369L10.5201 8.23103C10.1987 7.7501 9.55934 7.60102 9.05842 7.89023C8.80846 8.03455 8.55067 8.32918 8.40863 8.70237C8.27031 9.0658 8.298 9.34397 8.36528 9.49903ZM24.9006 12.3734C25.2401 11.9171 25.6763 11.5211 26.2001 11.2186C27.871 10.2539 29.9201 10.538 31.2669 11.7812C31.4296 11.6441 31.6066 11.5194 31.7973 11.4093C34.0075 10.1332 36.8326 10.8643 38.1463 13.0523L38.1543 13.0656L40.3304 16.8549C40.3308 16.8555 40.3311 16.8561 40.3315 16.8567C45.235 25.3523 41.8376 36.3074 33.0223 41.3969C24.2064 46.4868 13.0194 43.9508 8.11426 35.4549L7.07536 33.6555C6.44218 32.5588 6.19947 31.2798 6.38686 30.0274L6.40274 29.9212C6.69878 27.9426 7.91824 26.3855 9.65982 25.7068C10.8057 25.2602 11.9217 25.3814 12.8523 25.6702L5.47994 10.8836L5.47125 10.865C4.95041 9.74952 5.04618 8.54085 5.41791 7.56413C5.78963 6.58746 6.49655 5.67428 7.45842 5.11895C9.41076 3.99176 11.9004 4.5652 13.1639 6.42809L18.582 13.9679C18.9734 13.3208 19.5289 12.7605 20.2301 12.3556C21.7282 11.4907 23.5081 11.5565 24.9006 12.3734Z" fill="#2A2A2A"/>
    </g>
    <defs>
        <clipPath id="clip0_19408_3593">
            <rect width="48" height="48" fill="white"/>
        </clipPath>
    </defs>
</svg>
