<svg width="48" height="48" viewBox="0 0 48 48" fill="none" xmlns="http://www.w3.org/2000/svg">
	<path id="vector" fill-rule="evenodd" clip-rule="evenodd"
		d="M21.8612 7.60039C20.8198 7.60039 19.9631 8.42039 19.9175 9.46077L19.1321 27.3893C19.0467 29.3386 16.7337 30.3119 15.2803 29.0101L11.8604 25.9472C11.0906 25.2577 9.91138 25.3077 9.20275 26.06C8.56366 26.7385 8.50931 27.7797 9.07428 28.521L15.007 36.3055C16.9737 38.8859 20.0321 40.4004 23.2766 40.4004H26.8127C31.6878 40.4004 35.9083 37.0132 36.9636 32.2537L37.4158 30.214C38.2637 26.3901 35.5077 22.7088 31.5999 22.4452L30.2427 22.3536C27.2378 22.151 24.8201 19.8052 24.5267 16.8078L23.7975 9.35642C23.7 8.36009 22.8623 7.60039 21.8612 7.60039ZM16.7206 9.32071C16.8411 6.56913 19.107 4.40039 21.8612 4.40039C24.5089 4.40039 26.7244 6.40964 26.9823 9.04473L27.7115 16.4961C27.8525 17.9364 29.0142 19.0635 30.458 19.1609L31.8152 19.2525C37.6776 19.6479 41.8118 25.1703 40.54 30.9067L40.0877 32.9464C38.7076 39.1707 33.1882 43.6004 26.8127 43.6004H23.2766C19.0336 43.6004 15.0338 41.6198 12.4619 38.2452L6.52918 30.4607C5.0152 28.4742 5.16085 25.684 6.87343 23.8659C8.77239 21.8499 11.9324 21.7158 13.9954 23.5635L16.0173 25.3744L16.7206 9.32071Z"
		fill="#2A2A2A" />
</svg>
