<svg width="48" height="48" viewBox="0 0 48 48" fill="none" xmlns="http://www.w3.org/2000/svg">
    <g clip-path="url(#clip0_14903_41352)">
        <path fill-rule="evenodd" clip-rule="evenodd"
            d="M9.53749 9.65018C9.04438 9.93489 8.8508 10.5494 9.09169 11.0653L17.2033 28.4382C18.0134 30.1734 16.4835 32.0847 14.613 31.6742L12.4318 31.1954C11.3576 30.9597 10.3083 31.6824 10.1456 32.77C10.0406 33.4716 10.324 34.0959 10.8031 34.4176C13.0087 35.8986 16.6604 37.8926 22.9609 40.0214C23.798 40.3043 24.2474 41.2123 23.9645 42.0494C23.6816 42.8866 22.7737 43.3359 21.9365 43.0531C15.4123 40.8486 11.4966 38.7378 9.01919 37.0742C7.40634 35.9912 6.71291 34.087 6.98081 32.2965C7.41763 29.3769 10.2344 27.437 13.1178 28.0698L13.5432 28.1632L6.19218 12.4191C5.24907 10.3992 6.00693 7.99352 7.93749 6.8789C9.89858 5.74667 12.4018 6.33033 13.6598 8.21316L19.2612 16.5962C19.6363 16.0654 20.1294 15.6055 20.7291 15.2592C22.2272 14.3943 24.0072 14.46 25.3996 15.277C25.7391 14.8207 26.1753 14.4246 26.6991 14.1222C28.1824 13.2658 29.9637 13.3935 31.2872 14.3026C31.4944 14.1045 31.7284 13.9278 31.9876 13.7781C34.1978 12.5021 37.0229 13.2332 38.3366 15.4212L40.4752 18.9829C40.4841 18.9976 40.4927 19.0125 40.501 19.0275C42.1076 21.9096 42.6482 25.0525 42.8036 27.4127C42.8819 28.6031 42.864 29.6212 42.8259 30.3465C42.8069 30.7098 42.7827 31.0013 42.7628 31.2063C42.7528 31.3088 42.7438 31.3898 42.7371 31.4475L42.7287 31.5162L42.726 31.5371L42.7251 31.544L42.7247 31.5466C42.7247 31.5471 42.7245 31.5487 41.139 31.3334L42.7245 31.5487C42.6056 32.4243 41.7993 33.0377 40.9237 32.9188C40.0488 32.8 39.4356 31.9949 39.5533 31.1201C39.5533 31.1198 39.5535 31.1184 39.5536 31.1181L39.5541 31.1139L39.5589 31.0745C39.5633 31.0369 39.57 30.9768 39.5779 30.896C39.5936 30.7343 39.614 30.4906 39.6303 30.179C39.6631 29.5546 39.6791 28.6649 39.6105 27.6229C39.4724 25.5249 38.9978 22.9142 37.7181 20.6074L35.5932 17.0684C35.1782 16.3773 34.2858 16.1464 33.5876 16.5494C33.3716 16.6742 33.2976 16.9504 33.4223 17.1665L33.8965 17.9877C34.3383 18.753 34.0761 19.7315 33.3108 20.1734C32.5456 20.6152 31.567 20.353 31.1252 19.5877L29.8022 17.2962C29.4983 16.7699 28.8254 16.5896 28.2991 16.8935C27.7729 17.1973 27.5926 17.8702 27.8964 18.3965L28.8089 19.977C29.2507 20.7422 28.9885 21.7208 28.2232 22.1626C27.458 22.6044 26.4794 22.3422 26.0376 21.577L24.294 18.557C23.8968 17.869 23.0171 17.6333 22.3292 18.0305C21.6412 18.4277 21.4055 19.3074 21.8027 19.9954L23.5463 23.0154C23.9779 23.763 23.7386 24.7182 23.0055 25.1741C22.2724 25.6299 21.3099 25.4221 20.8303 24.7043L10.9991 9.99099C10.6778 9.51006 10.0384 9.36098 9.53749 9.65018Z"
            fill="#2A2A2A" />
    </g>
    <defs>
        <clipPath id="clip0_14903_41352">
            <rect width="48" height="48" fill="white" />
        </clipPath>
    </defs>
</svg>
