<svg width="80" height="80" viewBox="0 0 84 84" fill="none" xmlns="http://www.w3.org/2000/svg">
	<g filter="url(#filter0_dd_12491_147831)" transform="translate(-20, -4)">
		<mask id="path-1-inside-1_12491_147831" fill="white">
			<path
				d="M22 46C22 23.9086 39.9086 6 62 6C84.0914 6 102 23.9086 102 46C102 68.0914 84.0914 86 62 86C39.9086 86 22 68.0914 22 46Z" />
		</mask>
		<path
			d="M22 46C22 23.9086 39.9086 6 62 6C84.0914 6 102 23.9086 102 46C102 68.0914 84.0914 86 62 86C39.9086 86 22 68.0914 22 46Z"
			fill="white" shape-rendering="crispEdges" />
		<path fill-rule="evenodd" clip-rule="evenodd"
			d="M74.9353 33.3641C75.6652 32.7735 76.7356 32.8864 77.3262 33.6162C80.0638 36.9993 81.7047 41.3105 81.7047 46.0003C81.7047 50.6901 80.0638 55.0013 77.3262 58.3843C76.7356 59.1142 75.6652 59.2271 74.9353 58.6365C74.2055 58.0459 74.0926 56.9754 74.6832 56.2456C76.9488 53.4457 78.3047 49.8837 78.3047 46.0003C78.3047 42.1169 76.9488 38.5549 74.6832 35.755C74.0926 35.0251 74.2055 33.9547 74.9353 33.3641Z"
			fill="#2A2A2A" />
		<path fill-rule="evenodd" clip-rule="evenodd"
			d="M70.76 37.6201C71.5222 37.0718 72.5845 37.2452 73.1328 38.0073C74.7512 40.2572 75.7048 43.0198 75.7048 46.0001C75.7048 48.9804 74.7512 51.743 73.1328 53.9928C72.5845 54.755 71.5222 54.9284 70.76 54.3801C69.9978 53.8318 69.8244 52.7695 70.3727 52.0073C71.5889 50.3167 72.3048 48.2445 72.3048 46.0001C72.3048 43.7557 71.5889 41.6835 70.3727 39.9928C69.8244 39.2307 69.9978 38.1683 70.76 37.6201Z"
			fill="#2A2A2A" />
		<path fill-rule="evenodd" clip-rule="evenodd"
			d="M65.7011 28.4493C66.3118 28.7235 66.7047 29.3306 66.7047 30.0001V62.0001C66.7047 62.6695 66.3118 63.2766 65.7011 63.5509C65.0904 63.8251 64.3756 63.7154 63.8753 63.2707L56.0119 56.281C55.5909 55.9068 55.0472 55.7001 54.4839 55.7001H48.0047C44.8567 55.7001 42.3047 53.1481 42.3047 50.0001V42.0001C42.3047 38.8521 44.8567 36.3001 48.0047 36.3001H54.4839C55.0472 36.3001 55.5909 36.0934 56.0119 35.7191L63.8753 28.7295C64.3756 28.2847 65.0904 28.175 65.7011 28.4493ZM63.3047 33.7857L58.2708 38.2603C57.2274 39.1878 55.8799 39.7001 54.4839 39.7001H48.0047C46.7344 39.7001 45.7047 40.7298 45.7047 42.0001V50.0001C45.7047 51.2703 46.7344 52.3001 48.0047 52.3001H54.4839C55.8799 52.3001 57.2274 52.8124 58.2708 53.7398L63.3047 58.2144V33.7857Z"
			fill="#2A2A2A" />
	</g>
</svg>

