<svg width="161" height="160" viewBox="0 0 161 160" fill="none" xmlns="http://www.w3.org/2000/svg">
    <path d="M43.4215 44.8771C34.2154 53.6961 28.499 66.0883 28.499 79.8292C28.499 93.5701 34.2154 105.962 43.4215 114.781C46.6121 117.838 46.7208 122.902 43.6644 126.092C40.6081 129.283 35.5439 129.392 32.3533 126.335C20.1276 114.624 12.499 98.1106 12.499 79.8292C12.499 61.5478 20.1276 45.0347 32.3533 33.3231C35.5439 30.2667 40.6081 30.3755 43.6644 33.566C46.7208 36.7566 46.6121 41.8208 43.4215 44.8771Z" fill="white"/>
    <path d="M132.321 75.6108C131.282 63.5628 125.833 52.7839 117.579 44.8771C114.389 41.8208 114.28 36.7566 117.336 33.566C120.393 30.3755 125.457 30.2667 128.647 33.3231C140.873 45.0347 148.502 61.5478 148.502 79.8292C148.502 82.8544 148.293 85.8312 147.889 88.7458C143.871 83.1907 138.526 78.6576 132.321 75.6108Z" fill="white"/>
    <path d="M123.895 72.5469C122.38 64.4715 118.397 57.2624 112.771 51.7467C109.616 48.6537 104.551 48.704 101.458 51.8591C98.3645 55.0142 98.4149 60.0793 101.57 63.1723C104.041 65.5943 105.971 68.5527 107.173 71.8599C109.343 71.5141 111.568 71.3345 113.835 71.3345C117.302 71.3345 120.672 71.7547 123.895 72.5469Z" fill="white"/>
    <path d="M93.4041 76.63C91.9113 70.8978 86.7 66.6665 80.5003 66.6665C73.1365 66.6665 67.167 72.636 67.167 79.9998C67.167 86.1995 71.3983 91.4109 77.1305 92.9037C80.9347 86.0839 86.5844 80.4342 93.4041 76.63Z" fill="white"/>
    <path d="M51.8324 79.8336C51.8324 73.3056 54.503 67.4158 58.8317 63.1723C61.9868 60.0793 62.0372 55.0142 58.9442 51.8591C55.8512 48.704 50.7861 48.6537 47.631 51.7467C40.3591 58.8755 35.8324 68.8332 35.8324 79.8336C35.8324 90.8341 40.3591 100.792 47.631 107.921C50.7861 111.014 55.8512 110.963 58.9442 107.808C62.0372 104.653 61.9868 99.588 58.8317 96.495C54.503 92.2515 51.8324 86.3617 51.8324 79.8336Z" fill="white"/>
    <path fill-rule="evenodd" clip-rule="evenodd" d="M147.167 113.333C147.167 131.743 132.243 146.667 113.834 146.667C95.4242 146.667 80.5003 131.743 80.5003 113.333C80.5003 94.9237 95.4242 79.9998 113.834 79.9998C132.243 79.9998 147.167 94.9237 147.167 113.333ZM119.5 92.3332C119.5 89.2036 116.963 86.6665 113.834 86.6665C110.704 86.6665 108.167 89.2036 108.167 92.3332L108.167 112.333C108.167 115.463 110.704 118 113.834 118C116.963 118 119.5 115.463 119.5 112.333V92.3332ZM113.834 139C110.167 139 107.167 136 107.167 132.333C107.167 128.667 110.167 125.666 113.834 125.666C117.5 125.666 120.5 128.667 120.5 132.333C120.5 136 117.5 139 113.834 139Z" fill="white"/>
</svg>
