<svg width="161" height="160" viewBox="0 0 161 160" fill="none" xmlns="http://www.w3.org/2000/svg">
    <g opacity="0.32">
        <path
            d="M41.811 43.1962C32.1645 52.437 26.1693 65.4303 26.1693 79.8333C26.1693 94.2363 32.1645 107.23 41.811 116.47C44.0709 118.635 44.148 122.222 41.9831 124.482C39.8181 126.742 36.231 126.819 33.971 124.654C22.1856 113.365 14.8359 97.4525 14.8359 79.8333C14.8359 62.2141 22.1856 46.3019 33.971 35.0121C36.231 32.8472 39.8181 32.9242 41.9831 35.1842C44.148 37.4442 44.0709 41.0313 41.811 43.1962Z"
            fill="white" />
        <path
            d="M134.831 79.8333C134.831 65.4303 128.836 52.437 119.189 43.1962C116.929 41.0313 116.852 37.4442 119.017 35.1842C121.182 32.9242 124.769 32.8472 127.029 35.0121C138.814 46.3019 146.164 62.2141 146.164 79.8333C146.164 86.1644 145.215 92.2751 143.452 98.0302C141.23 93.7388 138.103 89.9919 134.323 87.0423C134.658 84.6877 134.831 82.2808 134.831 79.8333Z"
            fill="white" />
        <path
            d="M122.212 81.065C122.225 80.6576 122.232 80.2484 122.232 79.8377C122.232 69.4895 117.976 60.125 111.133 53.417C108.898 51.2261 105.31 51.2618 103.12 53.4966C100.929 55.7315 100.964 59.3192 103.199 61.5101C107.957 66.1744 110.898 72.6575 110.898 79.8377C110.898 79.9356 110.898 80.0333 110.897 80.1308C111.864 80.0464 112.844 80.0033 113.833 80.0033C116.727 80.0033 119.535 80.372 122.212 81.065Z"
            fill="white" />
        <path
            d="M49.5026 79.8377C49.5026 72.6575 52.4439 66.1744 57.2019 61.5101C59.4367 59.3192 59.4724 55.7315 57.2815 53.4966C55.0907 51.2618 51.5029 51.2261 49.268 53.417C42.4253 60.125 38.1693 69.4895 38.1693 79.8377C38.1693 90.186 42.4253 99.5504 49.268 106.258C51.5029 108.449 55.0907 108.414 57.2815 106.179C59.4724 103.944 59.4367 100.356 57.2019 98.1653C52.4439 93.501 49.5026 87.018 49.5026 79.8377Z"
            fill="white" />
        <path
            d="M80.5 93.3366C87.8638 93.3366 93.8333 87.3671 93.8333 80.0033C93.8333 72.6395 87.8638 66.6699 80.5 66.6699C73.1362 66.6699 67.1667 72.6395 67.1667 80.0033C67.1667 87.3671 73.1362 93.3366 80.5 93.3366Z"
            fill="white" />
    </g>
    <path fill-rule="evenodd" clip-rule="evenodd"
        d="M147.167 113.333C147.167 131.743 132.243 146.667 113.833 146.667C95.4238 146.667 80.5 131.743 80.5 113.333C80.5 94.9238 95.4238 80 113.833 80C132.243 80 147.167 94.9238 147.167 113.333ZM119.5 92.3333C119.5 89.2037 116.963 86.6667 113.833 86.6667C110.704 86.6667 108.167 89.2037 108.167 92.3333L108.167 112.333C108.167 115.463 110.704 118 113.833 118C116.963 118 119.5 115.463 119.5 112.333V92.3333ZM113.833 139C110.167 139 107.167 136 107.167 132.333C107.167 128.667 110.167 125.667 113.833 125.667C117.5 125.667 120.5 128.667 120.5 132.333C120.5 136 117.5 139 113.833 139Z"
        fill="white" />
</svg>
