<svg width="80" height="80" viewBox="0 0 80 80" fill="none" xmlns="http://www.w3.org/2000/svg">
    <mask id="path-1-inside-1_8544_134487" fill="white">
        <path
            d="M0 40C0 17.9086 17.9086 0 40 0C62.0914 0 80 17.9086 80 40C80 62.0914 62.0914 80 40 80C17.9086 80 0 62.0914 0 40Z" />
    </mask>
    <path
        d="M40 78C19.0132 78 2 60.9868 2 40H-2C-2 63.196 16.804 82 40 82V78ZM78 40C78 60.9868 60.9868 78 40 78V82C63.196 82 82 63.196 82 40H78ZM40 2C60.9868 2 78 19.0132 78 40H82C82 16.804 63.196 -2 40 -2V2ZM40 -2C16.804 -2 -2 16.804 -2 40H2C2 19.0132 19.0132 2 40 2V-2Z"
        fill="#E9EAF0" mask="url(#path-1-inside-1_8544_134487)" />
    <path fill-rule="evenodd" clip-rule="evenodd"
        d="M27.7987 49.7967C27.1348 50.4606 27.1348 51.537 27.7987 52.2009C28.4626 52.8648 29.539 52.8648 30.2029 52.2009L40.0008 42.403L49.7987 52.2009C50.4626 52.8648 51.539 52.8648 52.2029 52.2009C52.8668 51.537 52.8668 50.4606 52.2029 49.7967L42.4049 39.9988L52.2029 30.2009C52.8668 29.537 52.8668 28.4606 52.2029 27.7967C51.539 27.1329 50.4626 27.1329 49.7987 27.7967L40.0008 37.5947L30.2029 27.7967C29.539 27.1329 28.4626 27.1329 27.7987 27.7967C27.1348 28.4606 27.1348 29.537 27.7987 30.2009L37.5966 39.9988L27.7987 49.7967Z"
        fill="white" />
</svg>
