<svg width="96" height="96" viewBox="0 0 96 96" fill="none" xmlns="http://www.w3.org/2000/svg">
    <g filter="url(#filter0_d_4477_180154)">
        <mask id="path-1-inside-1_4477_180154" fill="white">
            <path
                d="M8 44C8 21.9086 25.9086 4 48 4C70.0914 4 88 21.9086 88 44C88 66.0914 70.0914 84 48 84C25.9086 84 8 66.0914 8 44Z" />
        </mask>
        <path
            d="M8 44C8 21.9086 25.9086 4 48 4C70.0914 4 88 21.9086 88 44C88 66.0914 70.0914 84 48 84C25.9086 84 8 66.0914 8 44Z"
            fill="white" shape-rendering="crispEdges" />
        <path
            d="M48 82C27.0132 82 10 64.9868 10 44H6C6 67.196 24.804 86 48 86V82ZM86 44C86 64.9868 68.9868 82 48 82V86C71.196 86 90 67.196 90 44H86ZM48 6C68.9868 6 86 23.0132 86 44H90C90 20.804 71.196 2 48 2V6ZM48 2C24.804 2 6 20.804 6 44H10C10 23.0132 27.0132 6 48 6V2Z"
            fill="#E9EAF0" mask="url(#path-1-inside-1_4477_180154)" />
        <path
            d="M52.2998 41.8937V31.9998C52.2998 29.625 50.3746 27.6998 47.9998 27.6998C45.625 27.6998 43.6998 29.625 43.6998 31.9998V33.2937L40.5299 30.1238C41.3676 26.7779 44.3943 24.2998 47.9998 24.2998C52.2524 24.2998 55.6998 27.7472 55.6998 31.9998V43.9998C55.6998 44.4083 55.668 44.8093 55.6067 45.2006L52.2998 41.8937Z"
            fill="#2A2A2A" />
        <path fill-rule="evenodd" clip-rule="evenodd"
            d="M32.7977 31.2019L40.2998 38.704V43.9998C40.2998 48.2524 43.7472 51.6998 47.9998 51.6998C49.5106 51.6998 50.9197 51.2647 52.1088 50.513L53.9816 52.3858C52.2953 53.5908 50.2304 54.2998 47.9998 54.2998C42.3113 54.2998 37.6998 49.6883 37.6998 43.9998V41.9998C37.6998 41.0609 36.9387 40.2998 35.9998 40.2998C35.0609 40.2998 34.2998 41.0609 34.2998 41.9998V43.9998C34.2998 50.9905 39.5357 56.7582 46.2998 57.5954V61.9998C46.2998 62.9387 47.0609 63.6998 47.9998 63.6998C48.9387 63.6998 49.6998 62.9387 49.6998 61.9998V57.5954C52.2105 57.2846 54.5107 56.2946 56.4107 54.8148L60.7977 59.2019C61.4616 59.8658 62.538 59.8658 63.2019 59.2019C63.8658 58.538 63.8658 57.4616 63.2019 56.7977L58.8148 52.4107C60.6229 50.0892 61.6998 47.1702 61.6998 43.9998V41.9998C61.6998 41.0609 60.9387 40.2998 59.9998 40.2998C59.0609 40.2998 58.2998 41.0609 58.2998 41.9998V43.9998C58.2998 46.2304 57.5908 48.2953 56.3858 49.9816L35.2019 28.7977C34.538 28.1338 33.4616 28.1338 32.7977 28.7977C32.1338 29.4616 32.1338 30.538 32.7977 31.2019ZM47.9998 48.2998C48.5621 48.2998 49.0992 48.1919 49.5915 47.9956L43.6998 42.104V43.9998C43.6998 46.3746 45.625 48.2998 47.9998 48.2998Z"
            fill="#2A2A2A" />
    </g>
    <defs>
        <filter id="filter0_d_4477_180154" x="0" y="0" width="96" height="96"
            filterUnits="userSpaceOnUse" color-interpolation-filters="sRGB">
            <feFlood flood-opacity="0" result="BackgroundImageFix" />
            <feColorMatrix in="SourceAlpha" type="matrix"
                values="0 0 0 0 0 0 0 0 0 0 0 0 0 0 0 0 0 0 127 0" result="hardAlpha" />
            <feOffset dy="4" />
            <feGaussianBlur stdDeviation="4" />
            <feComposite in2="hardAlpha" operator="out" />
            <feColorMatrix type="matrix"
                values="0 0 0 0 0.0823529 0 0 0 0 0.109804 0 0 0 0 0.196078 0 0 0 0.16 0" />
            <feBlend mode="normal" in2="BackgroundImageFix"
                result="effect1_dropShadow_4477_180154" />
            <feBlend mode="normal" in="SourceGraphic" in2="effect1_dropShadow_4477_180154"
                result="shape" />
        </filter>
    </defs>
</svg>
