<svg width="96" height="96" viewBox="0 0 96 96" fill="none" xmlns="http://www.w3.org/2000/svg">
    <g filter="url(#filter0_d_4214_147332)">
        <mask id="path-1-inside-1_4214_147332" fill="white">
            <path
                d="M8 44C8 21.9086 25.9086 4 48 4C70.0914 4 88 21.9086 88 44C88 66.0914 70.0914 84 48 84C25.9086 84 8 66.0914 8 44Z" />
        </mask>
        <path
            d="M8 44C8 21.9086 25.9086 4 48 4C70.0914 4 88 21.9086 88 44C88 66.0914 70.0914 84 48 84C25.9086 84 8 66.0914 8 44Z"
            fill="white" shape-rendering="crispEdges" />
        <path
            d="M48 82C27.0132 82 10 64.9868 10 44H6C6 67.196 24.804 86 48 86V82ZM86 44C86 64.9868 68.9868 82 48 82V86C71.196 86 90 67.196 90 44H86ZM48 6C68.9868 6 86 23.0132 86 44H90C90 20.804 71.196 2 48 2V6ZM48 2C24.804 2 6 20.804 6 44H10C10 23.0132 27.0132 6 48 6V2Z"
            fill="#E9EAF0" mask="url(#path-1-inside-1_4214_147332)" />
        <path fill-rule="evenodd" clip-rule="evenodd"
            d="M36.847 35.2513L32.7987 31.2031C32.1348 30.5392 32.1348 29.4628 32.7987 28.7989C33.4626 28.135 34.539 28.135 35.2029 28.7989L63.2029 56.7989C63.8668 57.4628 63.8668 58.5392 63.2029 59.2031C62.539 59.867 61.4626 59.867 60.7987 59.2031L58.6996 57.104V60.0008C58.6996 60.6703 58.3067 61.2774 57.696 61.5516C57.0853 61.8259 56.3705 61.7162 55.8702 61.2714L48.0069 54.2818C47.5858 53.9075 47.0421 53.7008 46.4788 53.7008H39.9996C36.8516 53.7008 34.2996 51.1488 34.2996 48.0008V40.0008C34.2996 38.0185 35.3115 36.2726 36.847 35.2513ZM55.2996 53.704V56.2152L50.2657 51.7406C49.2223 50.8131 47.8748 50.3008 46.4788 50.3008H39.9996C38.7294 50.3008 37.6996 49.2711 37.6996 48.0008V40.0008C37.6996 38.945 38.411 38.0553 39.3807 37.785L55.2996 53.704Z"
            fill="#2A2A2A" />
        <path
            d="M55.2996 31.7864V43.601L58.6996 47.001V28.0008C58.6996 27.3314 58.3067 26.7242 57.696 26.45C57.0853 26.1758 56.3705 26.2855 55.8702 26.7302L48.0068 33.7199C47.5858 34.0941 47.0421 34.3008 46.4788 34.3008H44.7058L47.9205 37.5155C48.7837 37.2898 49.5887 36.8628 50.2657 36.261L55.2996 31.7864Z"
            fill="#2A2A2A" />
    </g>
    <defs>
        <filter id="filter0_d_4214_147332" x="0" y="0" width="96" height="96"
            filterUnits="userSpaceOnUse" color-interpolation-filters="sRGB">
            <feFlood flood-opacity="0" result="BackgroundImageFix" />
            <feColorMatrix in="SourceAlpha" type="matrix"
                values="0 0 0 0 0 0 0 0 0 0 0 0 0 0 0 0 0 0 127 0" result="hardAlpha" />
            <feOffset dy="4" />
            <feGaussianBlur stdDeviation="4" />
            <feComposite in2="hardAlpha" operator="out" />
            <feColorMatrix type="matrix"
                values="0 0 0 0 0.0823529 0 0 0 0 0.109804 0 0 0 0 0.196078 0 0 0 0.16 0" />
            <feBlend mode="normal" in2="BackgroundImageFix"
                result="effect1_dropShadow_4214_147332" />
            <feBlend mode="normal" in="SourceGraphic" in2="effect1_dropShadow_4214_147332"
                result="shape" />
        </filter>
    </defs>
</svg>
