<svg width="60" height="60" viewBox="0 0 60 60" fill="none" xmlns="http://www.w3.org/2000/svg">
<path d="M27.001 24.1442C27.001 22.2696 28.5206 20.75 30.3952 20.75C32.2698 20.75 33.7894 22.2696 33.7894 24.1442C33.7894 25.1248 33.3762 26.0059 32.7085 26.6281C32.6117 26.7183 32.5099 26.8124 32.404 26.9102C31.6838 27.5755 30.7793 28.4111 30.0522 29.3301C29.2017 30.405 28.3952 31.8293 28.3952 33.5841V34.6383C28.3952 35.7429 29.2906 36.6383 30.3952 36.6383C31.4998 36.6383 32.3952 35.7429 32.3952 34.6383V33.5841C32.3952 33.1045 32.6098 32.5442 33.1891 31.812C33.7078 31.1565 34.3596 30.5523 35.1 29.8659C35.21 29.764 35.3219 29.6603 35.4356 29.5544C36.8811 28.2072 37.7894 26.2802 37.7894 24.1442C37.7894 20.0605 34.4789 16.75 30.3952 16.75C26.3115 16.75 23.001 20.0605 23.001 24.1442C23.001 25.2488 23.8964 26.1442 25.001 26.1442C26.1055 26.1442 27.001 25.2488 27.001 24.1442Z" fill="#838CA6"/>
<path d="M27.9644 42.4995C27.9644 43.8745 29.0894 44.9995 30.4644 44.9995C31.8394 44.9995 32.9644 43.8745 32.9644 42.4995C32.9644 41.1245 31.8394 39.9995 30.4644 39.9995C29.0894 39.9995 27.9644 41.1245 27.9644 42.4995Z" fill="#838CA6"/>
<path fill-rule="evenodd" clip-rule="evenodd" d="M30.001 5.5C16.47 5.5 5.50098 16.469 5.50098 30C5.50098 43.531 16.47 54.5 30.001 54.5C43.532 54.5 54.501 43.531 54.501 30C54.501 16.469 43.532 5.5 30.001 5.5ZM9.50098 30C9.50098 18.6782 18.6791 9.5 30.001 9.5C41.3228 9.5 50.501 18.6782 50.501 30C50.501 41.3218 41.3228 50.5 30.001 50.5C18.6791 50.5 9.50098 41.3218 9.50098 30Z" fill="#838CA6"/>
</svg>
