<svg width="24" height="24" viewBox="0 0 24 24" fill="none" xmlns="http://www.w3.org/2000/svg">
<g clip-path="url(#clip0_29703_140333)">
<path fill-rule="evenodd" clip-rule="evenodd" d="M5.07035 4.92965C8.89749 1.10251 15.1025 1.10251 18.9296 4.92965C22.7568 8.75678 22.7568 14.9618 18.9296 18.7889C15.1025 22.6161 8.89749 22.6161 5.07035 18.7889C1.24322 14.9618 1.24322 8.75678 5.07035 4.92965ZM16.9504 12.6592C17.3922 12.6592 17.7504 12.301 17.7504 11.8592C17.7504 11.4174 17.3922 11.0592 16.9504 11.0592C13.648 11.0592 10.3547 11.0592 7.05087 11.0592C6.60905 11.0592 6.25087 11.4174 6.25087 11.8592C6.25087 12.3011 6.60905 12.6592 7.05087 12.6592L16.9504 12.6592Z" fill="#DB0025"/>
</g>
<defs>
<clipPath id="clip0_29703_140333">
<rect width="24" height="24" fill="white"/>
</clipPath>
</defs>
</svg>
