<svg width="80" height="81" viewBox="0 0 80 81" fill="none" xmlns="http://www.w3.org/2000/svg">
	<circle cx="40" cy="40.501" r="40" fill="#E9EAF0" />
	<path
		d="M28.2124 57.501V52.1828L40.6385 40.6771C41.6953 39.6544 42.5817 38.7339 43.2976 37.9157C44.0249 37.0976 44.576 36.2964 44.951 35.5123C45.326 34.7169 45.5135 33.8589 45.5135 32.9385C45.5135 31.9157 45.2805 31.0351 44.8146 30.2964C44.3487 29.5464 43.7124 28.9726 42.9055 28.5748C42.0987 28.1657 41.1839 27.9612 40.1612 27.9612C39.093 27.9612 38.1612 28.1771 37.3658 28.6089C36.5703 29.0407 35.9567 29.6601 35.5249 30.4669C35.093 31.2737 34.8771 32.2339 34.8771 33.3476H27.8714C27.8714 31.0635 28.3885 29.0805 29.4226 27.3987C30.4567 25.7169 31.9055 24.4157 33.7692 23.4953C35.6328 22.5748 37.7805 22.1146 40.2124 22.1146C42.7124 22.1146 44.8885 22.5578 46.7408 23.4442C48.6044 24.3192 50.0533 25.5351 51.0874 27.0919C52.1215 28.6487 52.6385 30.4328 52.6385 32.4442C52.6385 33.7623 52.3771 35.0635 51.8544 36.3476C51.343 37.6317 50.4283 39.0578 49.1101 40.626C47.7919 42.1828 45.9339 44.0521 43.5362 46.2339L38.4396 51.2282V51.4669H53.0987V57.501H28.2124Z"
        fill="#2A2A2A" />
</svg>
