<svg width="24" height="24" viewBox="0 0 24 24" fill="none" xmlns="http://www.w3.org/2000/svg">
<path fill-rule="evenodd" clip-rule="evenodd" d="M2.2002 11.8593C2.2002 6.44691 6.5878 2.0593 12.0002 2.0593C17.4126 2.0593 21.8002 6.44691 21.8002 11.8593C21.8002 17.2717 17.4126 21.6593 12.0002 21.6593C6.5878 21.6593 2.2002 17.2717 2.2002 11.8593ZM16.0659 15.9245C16.3783 15.6121 16.3783 15.1055 16.0659 14.7931L13.1318 11.859L16.0663 8.92449C16.3787 8.61207 16.3787 8.10554 16.0663 7.79312C15.7538 7.4807 15.2473 7.4807 14.9349 7.79312L12.0004 10.7276L9.06588 7.79312C8.75346 7.4807 8.24693 7.4807 7.93451 7.79312C7.62209 8.10554 7.62209 8.61207 7.93451 8.92449L10.869 11.859L7.9349 14.7931C7.62248 15.1055 7.62248 15.6121 7.9349 15.9245C8.24732 16.2369 8.75385 16.2369 9.06627 15.9245L12.0004 12.9904L14.9345 15.9245C15.2469 16.2369 15.7535 16.2369 16.0659 15.9245Z" fill="#636D8A"/>
</svg>
