<svg width="64" height="64" viewBox="0 0 64 64" fill="none" xmlns="http://www.w3.org/2000/svg">
    <path fill-rule="evenodd" clip-rule="evenodd"
          d="M5.875 32.0083C5.875 17.5753 17.5753 5.875 32.0083 5.875C46.4414 5.875 58.1417 17.5753 58.1417 32.0083C58.1417 46.4414 46.4414 58.1417 32.0083 58.1417C17.5753 58.1417 5.875 46.4414 5.875 32.0083ZM10.9376 26.1417C10.4189 28.0086 10.1417 29.9761 10.1417 32.0083C10.1417 34.0406 10.4189 36.008 10.9376 37.875H19.9761C19.3034 34.0557 19.3407 30.3705 19.877 26.9135C19.9172 26.6548 19.9601 26.3975 20.0057 26.1417H10.9376ZM24.3491 26.1417C24.2534 26.6115 24.1678 27.0869 24.0933 27.5676C23.5958 30.7738 23.5809 34.2407 24.3183 37.875H39.5723C40.3097 34.2407 40.2948 30.7738 39.7974 27.5676C39.7228 27.0869 39.6372 26.6115 39.5416 26.1417H24.3491ZM21.0178 42.1417H12.6263C15.4761 47.5813 20.5488 51.6731 26.6379 53.2106C23.9719 49.4852 22.1549 45.7704 21.0178 42.1417ZM31.9453 53.1153C28.8745 49.392 26.8101 45.7074 25.5199 42.1417H38.3707C37.0806 45.7074 35.0161 49.392 31.9453 53.1153ZM25.531 21.875C27.145 17.2814 29.6156 13.4474 31.9453 10.7822C34.275 13.4474 36.7456 17.2814 38.3596 21.875H25.531ZM26.4771 10.8473C24.3554 13.8459 22.3552 17.5933 21.0396 21.875H12.6263C15.451 16.4833 20.4595 12.4158 26.4771 10.8473ZM42.8728 42.1417C41.7318 45.7828 39.9063 49.5105 37.2254 53.2488C43.3827 51.7416 48.5166 47.6269 51.3903 42.1417H42.8728ZM44.0136 26.9135C44.55 30.3705 44.5872 34.0557 43.9145 37.875H53.0791C53.5978 36.008 53.875 34.0406 53.875 32.0083C53.875 29.9761 53.5978 28.0086 53.0791 26.1417H43.885C43.9305 26.3975 43.9735 26.6548 44.0136 26.9135ZM51.3903 21.875H42.851C41.5297 17.5745 39.5176 13.8129 37.3855 10.8077C43.4716 12.3466 48.5416 16.4374 51.3903 21.875Z"
          fill="#838CA6"/>
</svg>
