<svg width="64" height="64" viewBox="0 0 64 64" fill="none" xmlns="http://www.w3.org/2000/svg">
    <path fill-rule="evenodd" clip-rule="evenodd"
          d="M24.0519 27.5611C24.1266 27.0799 24.2122 26.6041 24.308 26.1339H39.5052C39.6009 26.6041 39.6866 27.0799 39.7612 27.5611C39.8548 28.1643 39.9313 28.7767 39.9889 29.3977C41.324 28.9512 42.7337 28.6678 44.1944 28.571C44.1352 28.0108 44.0626 27.456 43.9775 26.9069C43.9372 26.6478 43.8943 26.3901 43.8486 26.1339H53.0586C53.478 27.6437 53.7396 29.2192 53.8243 30.8416C55.4065 31.7719 56.8229 32.9539 58.0185 34.3327C58.0865 33.5644 58.1212 32.7865 58.1212 32.0005C58.1212 17.5675 46.4209 5.86719 31.9878 5.86719C17.5548 5.86719 5.85449 17.5675 5.85449 32.0005C5.85449 46.4336 17.5548 58.1339 31.9878 58.1339C32.7738 58.1339 33.5517 58.0992 34.32 58.0312C31.6635 55.7276 29.7372 52.6042 28.9346 49.0546C27.4301 46.7134 26.2978 44.3996 25.4781 42.1339H28.8256C29.1154 40.6306 29.6057 39.1988 30.2675 37.8672H24.2767C23.5396 34.2334 23.5545 30.7669 24.0519 27.5611ZM10.1212 32.0005C10.1212 29.9683 10.3984 28.0008 10.9171 26.1339H19.9645C19.9189 26.3901 19.8759 26.6478 19.8357 26.9069C19.2994 30.3636 19.2621 34.0483 19.9346 37.8672H10.9171C10.3984 36.0002 10.1212 34.0327 10.1212 32.0005ZM12.6058 42.1339H20.9761C22.1123 45.7604 23.9277 49.4729 26.5908 53.1961C20.5135 51.6533 15.4515 47.5656 12.6058 42.1339ZM31.9066 10.7727C29.5763 13.4377 27.1048 17.2724 25.4901 21.8672H38.323C36.7084 17.2724 34.2368 13.4377 31.9066 10.7727ZM20.9987 21.8672C22.3135 17.5884 24.312 13.8433 26.4322 10.8459C20.4255 12.419 15.4267 16.4828 12.6058 21.8672H20.9987ZM42.8145 21.8672H51.3698C48.5179 16.4236 43.4399 12.3298 37.3448 10.7948C39.4784 13.8008 41.4922 17.5641 42.8145 21.8672Z"
          fill="#E34521"/>
    <path fill-rule="evenodd" clip-rule="evenodd"
          d="M53.66 34.9294C55.088 36.0753 56.2751 37.5092 57.1331 39.143L57.1298 39.1546C58.0983 41.0023 58.6462 43.1051 58.6462 45.3359C58.6462 52.6997 52.6766 58.6693 45.3128 58.6693C37.949 58.6693 31.9795 52.6997 31.9795 45.3359C31.9795 39.0946 36.2679 33.8548 42.0589 32.4025C42.0628 32.4015 42.0667 32.4005 42.0706 32.3996C42.8179 32.2124 43.5902 32.0882 44.3815 32.0331C44.6892 32.0119 44.9997 32.0026 45.3128 32.0026C48.4719 32.0026 51.3743 33.1013 53.659 34.9373L53.66 34.9294ZM42.0589 32.4025C42.0628 32.4015 42.0667 32.4005 42.0706 32.3996L42.0589 32.4025ZM45.3128 34.6693C46.5647 34.6693 47.5795 35.6841 47.5795 36.9359V44.9359C47.5795 46.1878 46.5647 47.2026 45.3128 47.2026C44.061 47.2026 43.0462 46.1878 43.0462 44.9359L43.0462 36.9359C43.0462 35.6841 44.061 34.6693 45.3128 34.6693ZM42.6462 52.9359C42.6462 54.4026 43.8462 55.6026 45.3128 55.6026C46.7795 55.6026 47.9795 54.4026 47.9795 52.9359C47.9795 51.4693 46.7795 50.2693 45.3128 50.2693C43.8462 50.2693 42.6462 51.4693 42.6462 52.9359Z"
          fill="#E34521"/>
    <path fill-rule="evenodd" clip-rule="evenodd"
          d="M10.9288 26.1339C10.4101 28.0008 10.1329 29.9683 10.1329 32.0005C10.1329 34.0327 10.4101 36.0002 10.9288 37.8672H19.9463C19.2738 34.0483 19.3111 30.3636 19.8474 26.9069C19.8876 26.6478 19.9306 26.3901 19.9763 26.1339H10.9288ZM24.3197 26.1339C24.2239 26.6041 24.1383 27.0799 24.0636 27.5611C23.5663 30.7669 23.5513 34.2334 24.2884 37.8672H30.2792C29.6174 39.1988 29.1272 40.6306 28.8373 42.1339H25.4898C26.3095 44.3996 27.4418 46.7134 28.9463 49.0546C29.7489 52.6042 31.6752 55.7276 34.3317 58.0312C33.5634 58.0992 32.7855 58.1339 31.9995 58.1339C17.5665 58.1339 5.86621 46.4336 5.86621 32.0005C5.86621 17.5675 17.5665 5.86719 31.9995 5.86719C46.4326 5.86719 58.1329 17.5675 58.1329 32.0005C58.1329 32.7865 58.0982 33.5644 58.0302 34.3327C56.8346 32.9539 55.4182 31.7719 53.836 30.8416C53.7513 29.2192 53.4897 27.6437 53.0703 26.1339H43.8603C43.906 26.3901 43.949 26.6478 43.9892 26.9069C44.0744 27.456 44.147 28.0108 44.2061 28.571C42.7454 28.6678 41.3357 28.9512 40.0007 29.3977C39.943 28.7767 39.8665 28.1643 39.7729 27.5611C39.6983 27.0799 39.6127 26.6041 39.5169 26.1339H24.3197ZM57.1449 39.143C56.2868 37.5092 55.0998 36.0753 53.6718 34.9294C53.6714 34.932 53.6711 34.9346 53.6707 34.9373C55.0983 36.0845 56.2846 37.5197 57.1416 39.1546C57.1427 39.1507 57.1438 39.1469 57.1449 39.143ZM44.3932 32.0331C44.3932 32.0336 44.3932 32.0341 44.3932 32.0346C43.6011 32.0893 42.828 32.2131 42.0799 32.4002C42.8279 32.2126 43.601 32.0883 44.3932 32.0331ZM20.9878 42.1339H12.6175C15.4632 47.5656 20.5252 51.6533 26.6025 53.1961C23.9394 49.4729 22.1241 45.7604 20.9878 42.1339ZM25.5018 21.8672C27.1165 17.2724 29.588 13.4377 31.9183 10.7727C34.2485 13.4377 36.7201 17.2724 38.3348 21.8672H25.5018ZM26.4439 10.8459C24.3237 13.8433 22.3252 17.5884 21.0104 21.8672H12.6175C15.4384 16.4828 20.4372 12.419 26.4439 10.8459ZM51.3815 21.8672H42.8262C41.5039 17.5641 39.4902 13.8008 37.3565 10.7948C43.4516 12.3298 48.5296 16.4236 51.3815 21.8672Z"
          fill="#E34521"/>
    <path fill-rule="evenodd" clip-rule="evenodd"
          d="M58.6667 45.3333C58.6667 52.6971 52.6971 58.6667 45.3333 58.6667C37.9695 58.6667 32 52.6971 32 45.3333C32 37.9695 37.9695 32 45.3333 32C52.6971 32 58.6667 37.9695 58.6667 45.3333ZM47.6 36.9333C47.6 35.6815 46.5852 34.6667 45.3333 34.6667C44.0815 34.6667 43.0667 35.6815 43.0667 36.9333L43.0667 44.9333C43.0667 46.1852 44.0815 47.2 45.3333 47.2C46.5852 47.2 47.6 46.1852 47.6 44.9333V36.9333ZM45.3333 55.6C43.8667 55.6 42.6667 54.4 42.6667 52.9333C42.6667 51.4667 43.8667 50.2667 45.3333 50.2667C46.8 50.2667 48 51.4667 48 52.9333C48 54.4 46.8 55.6 45.3333 55.6Z"
          fill="#E34521"/>
</svg>
