<svg width="80" height="81" viewBox="0 0 80 81" fill="none" xmlns="http://www.w3.org/2000/svg">
	<circle cx="40" cy="40.501" r="40" fill="#E9EAF0" />
	<path
		d="M39.9126 57.9782C37.3672 57.9782 35.1001 57.5407 33.1115 56.6657C31.1342 55.7794 29.5717 54.5635 28.424 53.018C27.2876 51.4612 26.7024 49.6657 26.6683 47.6317H34.1001C34.1456 48.4839 34.424 49.2339 34.9354 49.8817C35.4581 50.518 36.1513 51.0123 37.0149 51.3646C37.8786 51.7169 38.8501 51.893 39.9297 51.893C41.0547 51.893 42.049 51.6942 42.9126 51.2964C43.7763 50.8987 44.4524 50.3476 44.9411 49.643C45.4297 48.9385 45.674 48.126 45.674 47.2055C45.674 46.2737 45.4126 45.4498 44.8899 44.7339C44.3786 44.0067 43.6399 43.4385 42.674 43.0294C41.7195 42.6203 40.5831 42.4157 39.2649 42.4157H36.0092V36.9953H39.2649C40.3786 36.9953 41.3615 36.8021 42.2138 36.4157C43.0774 36.0294 43.7479 35.4953 44.2251 34.8135C44.7024 34.1203 44.9411 33.3135 44.9411 32.393C44.9411 31.518 44.7308 30.751 44.3104 30.0919C43.9013 29.4214 43.3217 28.8987 42.5717 28.5237C41.8331 28.1487 40.9695 27.9612 39.9808 27.9612C38.9808 27.9612 38.0661 28.143 37.2365 28.5067C36.407 28.8589 35.7422 29.3646 35.2422 30.0237C34.7422 30.6828 34.4751 31.4555 34.4411 32.3419H27.3672C27.4013 30.3305 27.9751 28.5578 29.0888 27.0237C30.2024 25.4896 31.7024 24.2907 33.5888 23.4271C35.4865 22.5521 37.6286 22.1146 40.0149 22.1146C42.424 22.1146 44.532 22.5521 46.3388 23.4271C48.1456 24.3021 49.549 25.4839 50.549 26.9726C51.5604 28.4498 52.0604 30.1089 52.049 31.9498C52.0604 33.9044 51.4524 35.5351 50.2251 36.8419C49.0092 38.1487 47.424 38.9782 45.4695 39.3305V39.6032C48.0376 39.9328 49.9922 40.8248 51.3331 42.2794C52.6854 43.7226 53.3558 45.5294 53.3445 47.6998C53.3558 49.6885 52.782 51.4555 51.6229 53.001C50.4751 54.5464 48.8899 55.7623 46.8672 56.6487C44.8445 57.5351 42.5263 57.9782 39.9126 57.9782Z"
        fill="#2A2A2A" />
</svg>
