<svg width="32" height="33" viewBox="0 0 32 33" fill="none" xmlns="http://www.w3.org/2000/svg">
    <path fill-rule="evenodd" clip-rule="evenodd"
        d="M10.505 13.389V10.2406C10.505 7.21741 12.9559 4.7666 15.9791 4.7666C19.0023 4.7666 21.4531 7.21742 21.4531 10.2407V13.389H21.6079C23.9924 13.389 25.9254 15.322 25.9254 17.7065V24.1826C25.9254 26.5671 23.9924 28.5001 21.6079 28.5001H10.0948C7.71033 28.5001 5.77734 26.5671 5.77734 24.1826V17.7065C5.77734 15.322 7.71033 13.389 10.0948 13.389H10.505ZM12.6384 10.2406C12.6384 8.39562 14.1341 6.89993 15.9791 6.89993C17.8241 6.89993 19.3198 8.39562 19.3198 10.2407V13.389H12.6384V10.2406ZM10.0948 15.5224H21.6079C22.8142 15.5224 23.792 16.5002 23.792 17.7065V24.1826C23.792 25.3889 22.8142 26.3667 21.6079 26.3667H10.0948C8.88853 26.3667 7.91068 25.3889 7.91068 24.1826V17.7065C7.91068 16.5002 8.88853 15.5224 10.0948 15.5224Z"
        fill="white" />
</svg>
