<svg width="54" height="54" viewBox="0 0 54 54" fill="none" xmlns="http://www.w3.org/2000/svg">
    <path
        d="M0 15C0 6.71573 6.71573 0 15 0H39C47.2843 0 54 6.71573 54 15V39C54 47.2843 47.2843 54 39 54H15C6.71573 54 0 47.2843 0 39V15Z"
        fill="#5A5A5A" />
    <path
        d="M23.6476 32.5708V35H14.2115V32.5708H23.6476ZM15.0782 17.2266V35H12.0143V17.2266H15.0782ZM22.4146 24.6484V27.041H14.2115V24.6484H22.4146ZM23.5865 17.2266V19.668H14.2115V17.2266H23.5865ZM39.9491 17.2266V35H36.8852L28.914 22.2681V35H25.85V17.2266H28.914L36.9096 29.9829V17.2266H39.9491Z"
        fill="#BDBDBD" />
</svg>
