<svg fill="none" height="161" viewBox="0 0 420 161" width="420" xmlns="http://www.w3.org/2000/svg">
    <g opacity="0.8">
        <path
            d="M209.496 64.1383C246.104 64.1383 279.24 67.2525 303.217 72.2847C315.207 74.8013 324.895 77.7952 331.579 81.1119C334.921 82.7704 337.501 84.5036 339.241 86.2887C340.981 88.0728 341.867 89.8925 341.867 91.731C341.867 93.5694 340.98 95.3885 339.241 97.1724C337.501 98.9575 334.922 100.692 331.579 102.35C324.895 105.667 315.207 108.66 303.217 111.176C279.24 116.209 246.104 119.323 209.496 119.323C172.888 119.323 139.753 116.209 115.776 111.176C103.786 108.66 94.0982 105.667 87.4141 102.35C84.0716 100.692 81.4924 98.9575 79.752 97.1724C78.0126 95.3884 77.1261 93.5695 77.126 91.731C77.126 89.8924 78.0124 88.0728 79.752 86.2887C81.4924 84.5036 84.0717 82.7704 87.4141 81.1119C94.0982 77.7952 103.786 74.8013 115.776 72.2847C139.753 67.2525 172.888 64.1383 209.496 64.1383Z"
            stroke="#B2B2B2" stroke-width="0.478249" />
        <path
            d="M209.719 58.8352C261.698 58.8352 308.749 63.2685 342.799 70.4338C359.826 74.0169 373.589 78.2812 383.09 83.008C387.841 85.3717 391.514 87.8453 393.996 90.3977C396.477 92.949 397.753 95.5626 397.753 98.215C397.753 100.868 396.477 103.482 393.996 106.033C391.514 108.586 387.841 111.059 383.09 113.423C373.589 118.15 359.826 122.413 342.799 125.996C308.749 133.162 261.698 137.595 209.719 137.595C157.74 137.595 110.689 133.162 76.6387 125.996C59.6119 122.413 45.8484 118.15 36.3477 113.423C31.5968 111.059 27.9234 108.586 25.4414 106.033C22.9603 103.482 21.6846 100.868 21.6846 98.215C21.6846 95.5626 22.9606 92.949 25.4414 90.3977C27.9234 87.8453 31.5968 85.3717 36.3477 83.008C45.8485 78.2812 59.6117 74.0169 76.6387 70.4338C110.689 63.2685 157.74 58.8352 209.719 58.8352Z"
            stroke="#CFCFCF" stroke-width="0.478249" />
        <path
            d="M210 54.0066C278.435 54.0066 340.384 59.8328 385.219 69.2498C407.638 73.9587 425.765 79.5626 438.281 85.7781C444.54 88.886 449.383 92.1413 452.659 95.5037C455.934 98.8651 457.627 102.318 457.627 105.829C457.627 109.34 455.934 112.793 452.659 116.154C449.383 119.516 444.54 122.772 438.281 125.88C425.765 132.095 407.638 137.699 385.219 142.408C340.384 151.825 278.435 157.651 210 157.651C141.565 157.651 79.6157 151.825 34.7812 142.408C12.3621 137.699 -5.76487 132.095 -18.2812 125.88C-24.5399 122.772 -29.3834 119.516 -32.6592 116.154C-35.934 112.793 -37.627 109.34 -37.627 105.829C-37.6269 102.317 -35.934 98.8651 -32.6592 95.5037C-29.3834 92.1413 -24.5399 88.8861 -18.2812 85.7781C-5.76488 79.5626 12.3622 73.9587 34.7812 69.2498C79.6157 59.8328 141.565 54.0066 210 54.0066Z"
            stroke="#DEDEDE" stroke-width="0.478249" />
        <path
            d="M210 51.6643C292.831 51.6643 367.814 58.7159 422.083 70.1145C449.219 75.8142 471.164 82.5987 486.318 90.1243C493.896 93.8871 499.763 97.8295 503.733 101.905C507.703 105.979 509.761 110.169 509.761 114.437C509.761 118.704 507.703 122.895 503.733 126.969C499.763 131.044 493.896 134.987 486.318 138.75C471.164 146.276 449.219 153.059 422.083 158.759C367.814 170.158 292.831 177.209 210 177.209C127.169 177.209 52.1858 170.158 -2.08301 158.759C-29.2193 153.059 -51.1639 146.276 -66.3184 138.75C-73.896 134.987 -79.7632 131.044 -83.7334 126.969C-87.7028 122.895 -89.7607 118.704 -89.7607 114.437C-89.7607 110.169 -87.7027 105.979 -83.7334 101.905C-79.7632 97.8295 -73.8958 93.8871 -66.3184 90.1243C-51.1639 82.5987 -29.2194 75.8142 -2.08301 70.1145C52.1858 58.7159 127.169 51.6643 210 51.6643Z"
            stroke="#E9E9E9" stroke-width="0.478249" />
        <path
            d="M107.993 78.6842C105.434 78.6842 103.359 76.6093 103.359 74.0499C103.359 71.4904 105.434 69.4155 107.993 69.4155C110.553 69.4155 112.627 71.4904 112.627 74.0499C112.627 76.6093 110.553 78.6842 107.993 78.6842Z"
            fill="#DB0025" />
        <path
            d="M53.2734 128.961C47.3058 128.961 42.4681 124.123 42.4681 118.155C42.4681 112.188 47.3058 107.35 53.2734 107.35C59.2409 107.35 64.0786 112.188 64.0786 118.155C64.0786 124.123 59.2409 128.961 53.2734 128.961Z"
            fill="#3AC9CC" />
        <path
            d="M404.983 85.6798C398.698 85.6798 393.603 80.5849 393.603 74.3C393.603 68.0152 398.698 62.9203 404.983 62.9203C411.268 62.9203 416.363 68.0152 416.363 74.3C416.363 80.5849 411.268 85.6798 404.983 85.6798Z"
            fill="#FED141" />
        <path
            d="M379.956 62.8104C376.814 62.8104 374.266 65.3578 374.266 68.5001C374.266 71.6424 376.814 74.1898 379.956 74.1898C383.098 74.1898 385.646 71.6424 385.646 68.5001C385.646 65.3578 383.098 62.8104 379.956 62.8104Z"
            fill="#3C5AAA" />
    </g>
</svg>
