<svg width="232" height="190" viewBox="0 0 232 190" fill="none" xmlns="http://www.w3.org/2000/svg">
<path d="M203.06 88.87C207.38 80.56 209.82 71.12 209.82 61.11C209.82 27.82 182.84 0.839966 149.55 0.839966C128.08 0.839966 109.23 12.07 98.55 28.98C92.54 26.82 86.06 25.64 79.3 25.64C47.82 25.64 22.31 51.16 22.31 82.63C22.31 90.39 23.87 97.79 26.68 104.53C11.15 111.44 0.309998 127 0.309998 145.09C0.309998 169.6 20.18 189.48 44.7 189.48C45.48 189.48 46.25 189.46 47.02 189.42H175.91C176.71 189.46 177.5 189.48 178.31 189.48C207.78 189.48 231.66 165.59 231.66 136.13C231.66 115.6 220.06 97.79 203.06 88.87Z" fill="#2F2F84"/>
<path d="M84.58 118.85H40.78C34.611 118.85 29.61 123.851 29.61 130.02V152.49C29.61 158.659 34.611 163.66 40.78 163.66H84.58C90.749 163.66 95.75 158.659 95.75 152.49V130.02C95.75 123.851 90.749 118.85 84.58 118.85Z" fill="white"/>
<path d="M168.12 59.9299H85.71C75.18 59.9299 66.64 68.4699 66.64 78.9999V112.81H84.59C94.09 112.81 101.79 120.51 101.79 130.01V147.6H168.13C178.66 147.6 187.2 139.06 187.2 128.53V78.9999C187.2 68.4699 178.66 59.9299 168.13 59.9299H168.12ZM139.29 120.23C138.71 120.82 137.91 121.15 137.05 121.15C136.19 121.15 135.38 120.81 134.77 120.21C133.14 118.58 130.97 117.68 128.65 117.68C126.33 117.68 124.16 118.58 122.53 120.21C121.94 120.8 121.12 121.13 120.26 121.13C119.4 121.13 118.58 120.79 117.99 120.21C117.4 119.62 117.05 118.77 117.05 117.94C117.05 117.11 117.4 116.24 118.02 115.64C120.85 112.81 124.63 111.25 128.66 111.25C132.69 111.25 136.48 112.82 139.33 115.66C139.92 116.25 140.27 117.1 140.27 117.93C140.27 118.76 139.91 119.63 139.3 120.23H139.29ZM148.26 110.8C147.63 111.42 146.81 111.76 145.94 111.76C145.07 111.76 144.24 111.42 143.62 110.8C139.63 106.81 134.31 104.61 128.65 104.61C122.99 104.61 117.67 106.81 113.68 110.8C113.06 111.42 112.24 111.76 111.36 111.76C110.48 111.76 109.67 111.42 109.05 110.81C108.42 110.18 108.08 109.36 108.08 108.48C108.08 107.6 108.42 106.78 109.04 106.16C114.27 100.93 121.23 98.0499 128.65 98.0499C136.07 98.0499 143.03 100.93 148.26 106.16C148.88 106.78 149.22 107.6 149.22 108.48C149.22 109.36 148.88 110.18 148.26 110.8ZM157.86 101.19C157.26 101.79 156.4 102.15 155.58 102.15H155.51C154.66 102.15 153.83 101.8 153.21 101.17C146.67 94.6299 137.95 91.0199 128.66 91.0199C119.37 91.0199 110.64 94.6299 104.09 101.18C103.5 101.77 102.61 102.14 101.77 102.14C100.93 102.14 100.05 101.78 99.44 101.16C98.86 100.57 98.49 99.6899 98.49 98.8499C98.49 98.0099 98.84 97.1299 99.46 96.5199C107.24 88.7399 117.61 84.4499 128.66 84.4499C139.71 84.4499 150.08 88.7399 157.87 96.5299C158.46 97.1199 158.83 98.0099 158.83 98.8499C158.83 99.6899 158.46 100.58 157.87 101.17L157.86 101.19Z" fill="white"/>
</svg>
