<svg width="421" height="93" viewBox="0 0 421 93" fill="none" xmlns="http://www.w3.org/2000/svg">
	<path fill-rule="evenodd" clip-rule="evenodd"
		d="M108.227 8.75493C108.227 13.3491 104.5 17.0747 99.9038 17.0747V17.0732C95.3088 17.0732 91.5837 13.3475 91.5837 8.75338C91.5837 4.15922 95.3072 0.433594 99.9038 0.433594C104.5 0.433594 108.227 4.16076 108.227 8.75493ZM171.483 75.0664C176.809 76.6137 182.359 77.3866 188.133 77.3866L188.134 77.3882C194.938 77.3882 200.608 76.3576 205.145 74.295C209.679 72.2325 213.064 69.5188 215.299 66.1496C217.531 62.7834 218.649 59.0717 218.649 55.0144C218.649 51.3026 217.875 48.1925 216.329 45.6826C214.782 43.1757 212.772 41.1825 210.298 39.703C207.824 38.2251 205.108 37.0064 202.154 36.0422C199.197 35.0796 196.207 34.2727 193.184 33.6186C190.159 32.9661 187.411 32.3135 184.936 31.6594C182.462 31.0068 180.469 30.0966 178.958 28.9273C177.446 27.7579 176.69 26.2121 176.69 24.2868C176.69 22.7765 177.155 21.4004 178.082 20.1632C179.01 18.9259 180.469 17.9463 182.464 17.2243C184.455 16.5024 187.241 16.1414 190.401 16.1414C193.562 16.1414 196.86 16.6042 200.298 17.5329C203.735 18.4616 207.067 19.8531 210.298 21.709L215.556 9.12979C212.257 7.06874 208.392 5.48747 203.958 4.38753C199.525 3.28912 195.041 2.73838 190.505 2.73838C183.701 2.73838 178.048 3.75348 173.547 5.78059C169.046 7.80924 165.694 10.5229 163.496 13.9261C161.295 17.3277 160.197 21.0919 160.197 25.2155C160.197 28.9967 160.934 32.1407 162.413 34.6492C163.889 37.1591 165.882 39.1847 168.392 40.732C170.9 42.2778 173.65 43.5151 176.639 44.4438C179.629 45.3709 182.601 46.1623 185.557 46.8149C188.51 47.469 191.242 48.1555 193.752 48.8775C196.26 49.5995 198.27 50.5282 199.783 51.6621C201.293 52.796 202.05 54.3263 202.05 56.2501C202.05 57.7619 201.568 59.0855 200.607 60.2194C199.644 61.3533 198.149 62.2651 196.123 62.9516C194.094 63.6381 191.432 63.9821 188.133 63.9821C183.803 63.9821 179.507 63.2786 175.247 61.8686C170.983 60.4601 167.341 58.6551 164.318 56.4552L158.648 69.0344C161.878 71.5089 166.157 73.5206 171.483 75.0664ZM0.132812 76.1494L32.1949 3.97563H48.6903L81.0609 76.1509H63.5351L57.1039 60.6838H23.677L17.2467 76.1494H0.132812ZM40.3902 20.4872L51.8305 48.0012H28.9503L40.3902 20.4872ZM118.75 76.1494V76.1478H134.83V49.9589C134.83 44.6675 136.169 40.749 138.85 38.2051C141.531 35.6627 145.139 34.39 149.675 34.39C150.224 34.39 150.792 34.4255 151.377 34.4933C151.96 34.5628 152.563 34.6661 153.181 34.8034V19.8531C147.957 19.8531 143.524 20.8682 139.882 22.8953C137.549 24.1944 135.625 25.88 134.11 27.9534V20.6784H118.75V76.1478H118.748L118.75 76.1494ZM330.991 19.8531C335.389 19.8531 339.324 20.7294 342.796 22.4819C346.265 24.2344 348.998 26.9156 350.991 30.524C352.984 34.1323 353.981 38.7558 353.981 44.3913V76.1478H337.899V46.8658C337.899 42.3981 336.919 39.0983 334.96 36.9678C333.001 34.8374 330.234 33.7714 326.662 33.7714C324.118 33.7714 321.832 34.3221 319.805 35.4205C317.777 36.5204 316.197 38.1372 315.064 40.2661C313.93 42.3981 313.362 45.2151 313.362 48.7201V76.1463H297.28V20.6784H312.64V27.267C314.232 25.4938 316.122 24.0194 318.311 22.8429C322.022 20.8497 326.248 19.8531 330.991 19.8531ZM379.681 73.3139C384.321 75.7544 389.63 76.9747 395.609 76.9747V76.9778C401.451 76.9778 406.553 75.7405 410.918 73.266C415.282 70.79 418.426 67.3544 420.351 62.9546L407.98 56.1498C406.468 58.831 404.647 60.7733 402.516 61.975C400.385 63.1799 398.048 63.78 395.506 63.78C392.826 63.78 390.385 63.1783 388.187 61.975C385.986 60.7733 384.233 59.0192 382.928 56.716C381.622 54.4142 380.969 51.6466 380.969 48.4162C380.969 45.1858 381.622 42.4352 382.928 40.1674C384.233 37.8996 385.986 36.1641 388.187 34.9608C390.385 33.759 392.825 33.1558 395.506 33.1558C398.048 33.1558 400.385 33.759 402.516 34.9608C404.645 36.1641 406.467 38.0709 407.98 40.6827L420.351 33.8778C418.426 29.4101 415.282 25.956 410.918 23.5155C406.553 21.0765 401.588 19.8546 395.609 19.8546C389.63 19.8546 384.321 21.0919 379.681 23.5664C375.043 26.0409 371.4 29.4101 368.754 33.6711C366.108 37.9336 364.786 42.9149 364.786 48.4147C364.786 53.9144 366.108 58.8279 368.754 63.1583C371.398 67.4886 375.042 70.8749 379.681 73.3139ZM107.946 20.6785H91.8644V76.1494H107.946V20.6785ZM247.469 75.4644L224.048 20.6785H240.543L255.78 57.4315L271.144 20.6785L271.143 20.6738H286.474L263.117 75.5662C261.328 80.1033 259.284 83.6253 256.983 86.1353C254.678 88.6437 252.138 90.4147 249.354 91.4453C246.57 92.4773 243.494 92.9926 240.127 92.9926C237.308 92.9926 234.492 92.5452 231.674 91.652C228.854 90.7588 226.519 89.52 224.663 87.9402L230.54 76.3931C231.777 77.5609 233.204 78.4557 234.819 79.0743C236.434 79.693 238.067 80.003 239.716 80.003C241.914 80.003 243.685 79.4693 245.025 78.4048C245.89 77.7174 246.704 76.7374 247.469 75.4644Z"
		fill="black" />
</svg>
