<svg width="108" height="108" viewBox="0 0 108 108" fill="none" xmlns="http://www.w3.org/2000/svg">
	<g>
		<path
			d="M97.9082 72.7111C94.2547 72.7111 90.8771 71.5292 88.1175 69.5375V78.1823C88.1175 83.6716 83.6661 88.123 78.1768 88.123H29.8233C24.3341 88.123 19.8827 83.6716 19.8827 78.1823V29.8228C19.8827 24.3336 24.3341 19.8822 29.8233 19.8822H38.4382C36.3924 17.0985 35.1686 13.679 35.1686 9.9655C35.1686 6.252 36.3984 2.79046 38.4682 0.00683594H19.8887C8.90413 0.00683594 0.00732422 8.90364 0.00732422 19.8822V88.117C0.00732422 99.0955 8.90413 107.992 19.8827 107.992H88.1175C99.096 107.992 107.993 99.0955 107.993 88.117V69.3215C105.185 71.4452 101.694 72.7111 97.9082 72.7111Z"
			fill="#DB0025" />
		<path
			d="M105.863 53.8205C105.863 25.1923 82.5743 1.89746 53.9402 1.89746H51.9544C47.563 1.89746 43.9995 5.46098 43.9995 9.85239C43.9995 14.2438 47.563 17.8073 51.9544 17.8073H53.9402C73.7975 17.8073 89.9533 33.9631 89.9533 53.8205V55.8062C89.9533 60.1976 93.5169 63.7611 97.9083 63.7611C102.3 63.7611 105.863 60.1976 105.863 55.8062V53.8445C105.863 53.8445 105.863 53.8325 105.863 53.8205Z"
			fill="#3C5AAA" />
		<path
			d="M53.9402 63.7602C59.4303 63.7602 63.8808 59.3096 63.8808 53.8196C63.8808 48.3295 59.4303 43.8789 53.9402 43.8789C48.4501 43.8789 43.9995 48.3295 43.9995 53.8196C43.9995 59.3096 48.4501 63.7602 53.9402 63.7602Z"
			fill="#FED141" />
		<path
			d="M53.9402 23.5H51.9544C47.563 23.5 43.9995 27.0635 43.9995 31.4549C43.9995 35.8463 47.563 39.4099 51.9544 39.4099H53.9402C61.8891 39.4099 68.3562 45.877 68.3562 53.8259V55.8117C68.3562 60.2031 71.9198 63.7666 76.3112 63.7666C80.7026 63.7666 84.2661 60.2031 84.2661 55.8117V53.8259C84.2661 37.1062 70.6599 23.5 53.9402 23.5Z"
			fill="#3AC9CC" />
	</g>
</svg>
