<svg width="48" height="48" viewBox="0 0 48 48" fill="none" xmlns="http://www.w3.org/2000/svg">
<path d="M42.0719 22.7925C43.58 19.8285 43.9172 16.3751 43.0126 13.1592C42.1079 9.94329 40.0319 7.21579 37.2216 5.55086C34.4113 3.88594 31.0859 3.41346 27.9455 4.23288C24.8051 5.05231 22.0946 7.09972 20.3846 9.94411C18.2269 9.14534 15.8913 9.01177 13.6616 9.55967C11.4318 10.1076 9.40399 11.3133 7.82442 13.0304C6.24484 14.7475 5.18153 16.9021 4.7637 19.2323C4.34586 21.5625 4.59149 23.968 5.47073 26.1566C3.54156 27.0428 1.96537 28.5875 1.00602 30.532C0.0466707 32.4764 -0.237585 34.7027 0.200814 36.838C0.639213 38.9733 1.77366 40.8881 3.41425 42.2618C5.05485 43.6355 7.102 44.3847 9.21298 44.384C9.37443 44.384 9.534 44.3782 9.69358 44.3705H36.4352C36.6004 44.3782 36.7656 44.384 36.9327 44.384C39.4084 44.3832 41.8125 43.5242 43.7607 41.9444C45.7089 40.3646 47.0888 38.1551 47.6799 35.6689C48.2709 33.1828 48.0391 30.5635 47.0213 28.2297C46.0035 25.8959 44.2586 23.9822 42.0654 22.7944L42.0719 22.7925Z" fill="#990000"/>
<path d="M10.1949 23.4535C10.1949 21.9374 10.1454 20.6462 10.1016 19.5779H13.1812L13.3492 21.2185H13.422C13.925 20.4464 14.9581 19.3048 16.9766 19.3048C18.4913 19.3048 19.6923 20.1 20.1963 21.368H20.2346C20.6407 20.7807 21.1552 20.2822 21.7483 19.9012C22.4275 19.493 23.2026 19.2866 23.988 19.3048C26.2464 19.3048 27.9505 20.9454 27.9505 24.5729V31.7266H24.3939V25.1181C24.3939 23.3531 23.8406 22.336 22.6628 22.336C21.8229 22.336 21.2229 22.9304 20.983 23.6523C20.8881 23.9645 20.84 24.29 20.8402 24.6173V31.7266H17.2818V24.9174C17.2818 23.3734 16.7536 22.336 15.602 22.336C14.6688 22.336 14.1088 23.08 13.897 23.7024C13.7911 24.0046 13.7423 24.325 13.7533 24.6462V31.7266H10.1977V23.4535H10.1949Z" fill="white"/>
<path d="M31.9365 19.5781L33.691 25.541C33.8823 26.259 34.1231 27.1555 34.2677 27.8002H34.3396C34.5066 27.1555 34.7008 26.2339 34.8687 25.541L36.3097 19.5781H40.2292L37.4902 27.5772C35.8104 32.3975 34.6793 34.3324 33.3578 35.5532C32.3643 36.4547 31.1362 37.034 29.8265 37.2188L29.0585 34.013C29.6213 33.901 30.1592 33.6821 30.6449 33.3674C31.2664 33.0032 31.7877 32.481 32.1596 31.8504C32.2753 31.6924 32.3423 31.5021 32.3518 31.3042C32.3444 31.086 32.2865 30.8729 32.1829 30.6827L27.8779 19.5781H31.9365Z" fill="white"/>
</svg>
