<svg width="64" height="64" viewBox="0 0 64 64" fill="none" xmlns="http://www.w3.org/2000/svg">
<path d="M31.9996 5.30078C32.6996 5.30078 33.3996 5.60078 33.8996 6.10078C34.3996 6.60078 34.6996 7.30078 34.6996 8.00078V16.0008C34.6996 16.7008 34.3996 17.4008 33.8996 17.9008C33.3996 18.4008 32.6996 18.7008 31.9996 18.7008C31.2996 18.7008 30.5996 18.4008 30.0996 17.9008C29.5996 17.4008 29.2996 16.7008 29.2996 16.0008V8.00078C29.2996 7.30078 29.5996 6.60078 30.0996 6.10078C30.5996 5.60078 31.2996 5.30078 31.9996 5.30078ZM31.9996 45.3008C32.6996 45.3008 33.3996 45.6008 33.8996 46.1008C34.3996 46.6008 34.6996 47.3008 34.6996 48.0008V56.0008C34.6996 56.7008 34.3996 57.4008 33.8996 57.9008C33.3996 58.4008 32.6996 58.7008 31.9996 58.7008C31.2996 58.7008 30.5996 58.4008 30.0996 57.9008C29.5996 57.4008 29.2996 56.7008 29.2996 56.0008V48.0008C29.2996 47.3008 29.5996 46.6008 30.0996 46.1008C30.5996 45.6008 31.2996 45.3008 31.9996 45.3008ZM55.0996 18.7008C55.4996 19.3008 55.4996 20.0008 55.3996 20.7008C55.1996 21.4008 54.7996 22.0008 54.1996 22.3008L47.2996 26.3008C46.9996 26.5008 46.6996 26.6008 46.2996 26.6008C45.9996 26.6008 45.5996 26.6008 45.2996 26.5008C44.9996 26.4008 44.5996 26.3008 44.3996 26.0008C44.0996 25.8008 43.8996 25.5008 43.6996 25.2008C43.4996 24.9008 43.3996 24.6008 43.3996 24.2008C43.3996 23.8008 43.3996 23.5008 43.4996 23.2008C43.5996 22.9008 43.7996 22.5008 43.9996 22.3008C44.1996 22.0008 44.4996 21.8008 44.7996 21.6008L51.6996 17.6008C52.2996 17.2008 52.9996 17.2008 53.6996 17.3008C54.1996 17.6008 54.6996 18.1008 55.0996 18.7008ZM20.4996 38.7008C20.8996 39.3008 20.8996 40.0008 20.7996 40.7008C20.5996 41.4008 20.1996 42.0008 19.5996 42.3008L12.6996 46.3008C12.3996 46.5008 12.0996 46.6008 11.6996 46.6008C11.3996 46.6008 10.9996 46.6008 10.6996 46.5008C10.3996 46.4008 9.99961 46.3008 9.79961 46.0008C9.49961 45.8008 9.29961 45.5008 9.09961 45.2008C8.89961 44.9008 8.79961 44.6008 8.79961 44.2008C8.79961 43.9008 8.79961 43.5008 8.89961 43.2008C8.99961 42.9008 9.19961 42.5008 9.39961 42.3008C9.59961 42.0008 9.89961 41.8008 10.1996 41.6008L17.0996 37.6008C17.6996 37.2008 18.3996 37.2008 19.0996 37.3008C19.4996 37.6008 20.0996 38.1008 20.4996 38.7008ZM20.4996 25.3008C20.0996 25.9008 19.5996 26.4008 18.8996 26.5008C18.1996 26.7008 17.4996 26.6008 16.8996 26.2008L9.99961 22.2008C9.69961 22.0008 9.39961 21.8008 9.19961 21.5008C8.99961 21.2008 8.79961 20.9008 8.69961 20.6008C8.59961 20.3008 8.59961 19.9008 8.59961 19.6008C8.59961 19.3008 8.79961 18.9008 8.89961 18.6008C9.09961 18.3008 9.29961 18.0008 9.59961 17.8008C9.89961 17.6008 10.1996 17.4008 10.4996 17.3008C10.7996 17.2008 11.1996 17.2008 11.4996 17.2008C11.7996 17.2008 12.1996 17.4008 12.4996 17.5008L19.3996 21.5008C19.9996 21.9008 20.4996 22.4008 20.5996 23.1008C20.8996 24.0008 20.7996 24.7008 20.4996 25.3008Z M55.0998 45.3008C54.6998 45.9008 54.1998 46.4008 53.4998 46.5008C52.7998 46.7008 52.0998 46.6008 51.4998 46.2008L44.5998 42.2008C43.9998 41.8008 43.5998 41.3008 43.3998 40.6008C43.1998 39.9008 43.2998 39.2008 43.6998 38.6008C44.0998 38.0008 44.5998 37.5008 45.2998 37.4008C45.9998 37.2008 46.6998 37.3008 47.2998 37.7008L54.1998 41.7008C54.7998 42.1008 55.2998 42.6008 55.3998 43.3008C55.4998 44.0008 55.3998 44.7008 55.0998 45.3008Z" fill="white" fill-opacity="0.8"/>
</svg>
