<svg width="64" height="64" viewBox="0 0 64 64" fill="none" xmlns="http://www.w3.org/2000/svg">
    <path fill-rule="evenodd" clip-rule="evenodd"
          d="M24.0083 8.53125C21.3574 8.53125 19.2083 10.6803 19.2083 13.3313V21.3313C19.2083 23.9822 21.3574 26.1313 24.0083 26.1313H29.875V29.8667H18.1318C16.5172 29.8667 15.2083 31.1755 15.2083 32.7901V40.5312H10.675C8.02403 40.5312 5.875 42.6803 5.875 45.3313V50.6646C5.875 53.3156 8.02403 55.4646 10.675 55.4646H24.0083C26.6593 55.4646 28.8083 53.3156 28.8083 50.6646V48.3289C28.6331 47.3562 28.5417 46.3544 28.5417 45.3313C28.5417 44.8582 28.5612 44.3898 28.5996 43.9266C27.9989 41.961 26.1706 40.5312 24.0083 40.5312H19.475V34.1333H32.8176C34.4515 32.3072 36.4789 30.8405 38.7666 29.8667H34.1417V26.1313H40.0083C42.6593 26.1313 44.8083 23.9822 44.8083 21.3313V13.3313C44.8083 10.6803 42.6593 8.53125 40.0083 8.53125H24.0083ZM23.475 13.3313C23.475 13.0367 23.7138 12.7979 24.0083 12.7979H40.0083C40.3029 12.7979 40.5417 13.0367 40.5417 13.3313V21.3313C40.5417 21.6258 40.3029 21.8646 40.0083 21.8646H24.0083C23.7138 21.8646 23.475 21.6258 23.475 21.3313V13.3313ZM10.1417 45.3313C10.1417 45.0367 10.3804 44.7979 10.675 44.7979H24.0083C24.3029 44.7979 24.5417 45.0367 24.5417 45.3313V50.6646C24.5417 50.9591 24.3029 51.1979 24.0083 51.1979H10.675C10.3804 51.1979 10.1417 50.9591 10.1417 50.6646V45.3313Z"
          fill="#FC9700"/>
    <path fill-rule="evenodd" clip-rule="evenodd"
          d="M54.0645 55.4105L54.0717 55.4094C55.9805 53.7546 57.4144 51.5665 58.1417 49.077V49.0504C58.4835 47.8706 58.6667 46.6233 58.6667 45.3333C58.6667 39.1647 54.4776 33.9744 48.789 32.4522L48.7885 32.4477C47.689 32.1543 46.5336 31.9979 45.3417 31.9979C44.2219 31.9979 43.1344 32.1359 42.0953 32.3959C36.2962 33.8426 32 39.0863 32 45.3333C32 52.6971 37.9695 58.6667 45.3333 58.6667C48.6727 58.6667 51.7253 57.4391 54.0645 55.4105ZM45.3333 34.6667C46.5852 34.6667 47.6 35.6815 47.6 36.9333V44.9333C47.6 46.1852 46.5852 47.2 45.3333 47.2C44.0815 47.2 43.0667 46.1852 43.0667 44.9333L43.0667 36.9333C43.0667 35.6815 44.0815 34.6667 45.3333 34.6667ZM42.6667 52.9333C42.6667 54.4 43.8667 55.6 45.3333 55.6C46.8 55.6 48 54.4 48 52.9333C48 51.4667 46.8 50.2667 45.3333 50.2667C43.8667 50.2667 42.6667 51.4667 42.6667 52.9333Z"
          fill="#FC9700"/>
</svg>
