<svg width="54" height="54" viewBox="0 0 54 54" fill="none" xmlns="http://www.w3.org/2000/svg">
<path d="M0 15C0 6.71573 6.71573 0 15 0H39C47.2843 0 54 6.71573 54 15V39C54 47.2843 47.2843 54 39 54H15C6.71573 54 0 47.2843 0 39V15Z" fill="#595959"/>
<path d="M26.987 13.6665C19.627 13.6665 13.667 19.6398 13.667 26.9998C13.667 34.3598 19.627 40.3332 26.987 40.3332C34.3603 40.3332 40.3337 34.3598 40.3337 26.9998C40.3337 19.6398 34.3603 13.6665 26.987 13.6665ZM36.227 21.6665H32.2937C31.867 19.9998 31.2537 18.3998 30.4537 16.9198C32.907 17.7598 34.947 19.4665 36.227 21.6665ZM27.0003 16.3865C28.107 17.9865 28.9737 19.7598 29.547 21.6665H24.4537C25.027 19.7598 25.8937 17.9865 27.0003 16.3865ZM16.6803 29.6665C16.467 28.8132 16.3337 27.9198 16.3337 26.9998C16.3337 26.0798 16.467 25.1865 16.6803 24.3332H21.187C21.0803 25.2132 21.0003 26.0932 21.0003 26.9998C21.0003 27.9065 21.0803 28.7865 21.187 29.6665H16.6803ZM17.7737 32.3332H21.707C22.1337 33.9998 22.747 35.5998 23.547 37.0798C21.0937 36.2398 19.0537 34.5465 17.7737 32.3332ZM21.707 21.6665H17.7737C19.0537 19.4532 21.0937 17.7598 23.547 16.9198C22.747 18.3998 22.1337 19.9998 21.707 21.6665ZM27.0003 37.6132C25.8937 36.0132 25.027 34.2398 24.4537 32.3332H29.547C28.9737 34.2398 28.107 36.0132 27.0003 37.6132ZM30.1203 29.6665H23.8803C23.7603 28.7865 23.667 27.9065 23.667 26.9998C23.667 26.0932 23.7603 25.1998 23.8803 24.3332H30.1203C30.2403 25.1998 30.3337 26.0932 30.3337 26.9998C30.3337 27.9065 30.2403 28.7865 30.1203 29.6665ZM30.4537 37.0798C31.2537 35.5998 31.867 33.9998 32.2937 32.3332H36.227C34.947 34.5332 32.907 36.2398 30.4537 37.0798ZM32.8137 29.6665C32.9203 28.7865 33.0003 27.9065 33.0003 26.9998C33.0003 26.0932 32.9203 25.2132 32.8137 24.3332H37.3203C37.5337 25.1865 37.667 26.0798 37.667 26.9998C37.667 27.9198 37.5337 28.8132 37.3203 29.6665H32.8137Z" fill="#BDBDBD"/>
</svg>
