<svg width="64" height="64" viewBox="0 0 64 64" fill="none" xmlns="http://www.w3.org/2000/svg">
    <g id="vsds/icon/ethernet">
        <path id="vector" fill-rule="evenodd" clip-rule="evenodd"
            d="M24.0001 8.39893C21.2755 8.39893 19.0667 10.6077 19.0667 13.3323V21.3323C19.0667 24.0569 21.2755 26.2656 24.0001 26.2656H29.7334V29.7325H18.1235C16.4353 29.7325 15.0667 31.1011 15.0667 32.7893V40.3989H10.6667C7.94213 40.3989 5.7334 42.6077 5.7334 45.3323V50.6656C5.7334 53.3902 7.94213 55.5989 10.6667 55.5989H24.0001C26.7247 55.5989 28.9334 53.3902 28.9334 50.6656V45.3323C28.9334 42.6077 26.7247 40.3989 24.0001 40.3989H19.6001V34.2659H44.4001V40.3989H40.0001C37.2755 40.3989 35.0667 42.6077 35.0667 45.3323V50.6656C35.0667 53.3902 37.2755 55.5989 40.0001 55.5989H53.3334C56.058 55.5989 58.2667 53.3902 58.2667 50.6656V45.3323C58.2667 42.6077 56.058 40.3989 53.3334 40.3989H48.9334V32.7893C48.9334 31.1011 47.5648 29.7325 45.8766 29.7325H34.2667V26.2656H40.0001C42.7247 26.2656 44.9334 24.0569 44.9334 21.3323V13.3323C44.9334 10.6077 42.7247 8.39893 40.0001 8.39893H24.0001ZM23.6001 13.3323C23.6001 13.1113 23.7792 12.9323 24.0001 12.9323H40.0001C40.221 12.9323 40.4001 13.1113 40.4001 13.3323V21.3323C40.4001 21.5532 40.221 21.7323 40.0001 21.7323H24.0001C23.7792 21.7323 23.6001 21.5532 23.6001 21.3323V13.3323ZM10.2667 45.3323C10.2667 45.1113 10.4458 44.9323 10.6667 44.9323H24.0001C24.221 44.9323 24.4001 45.1113 24.4001 45.3323V50.6656C24.4001 50.8865 24.221 51.0656 24.0001 51.0656H10.6667C10.4458 51.0656 10.2667 50.8865 10.2667 50.6656V45.3323ZM40.0001 44.9323C39.7792 44.9323 39.6001 45.1113 39.6001 45.3323V50.6656C39.6001 50.8865 39.7792 51.0656 40.0001 51.0656H53.3334C53.5543 51.0656 53.7334 50.8865 53.7334 50.6656V45.3323C53.7334 45.1113 53.5543 44.9323 53.3334 44.9323H40.0001Z"
            fill="#838CA6" />
    </g>
</svg>
