<svg width="378" height="330" viewBox="0 0 378 330" fill="none" xmlns="http://www.w3.org/2000/svg">
	<path
		d="M367.167 201.942C367.167 222.465 367.167 239.106 302.262 239.106C237.357 239.106 237.357 222.465 237.357 201.942C237.357 181.419 266.418 164.778 302.262 164.778C338.106 164.778 367.167 181.419 367.167 201.942Z"
		fill="#E9EAF0" />
	<path
		d="M302.262 146.699C319.54 146.699 333.547 132.664 333.547 115.35C333.547 98.0364 319.54 84.001 302.262 84.001C284.983 84.001 270.977 98.0364 270.977 115.35C270.977 132.664 284.983 146.699 302.262 146.699Z"
		fill="#E9EAF0" />
	<path
		d="M140.975 201.942C140.975 222.465 140.975 239.106 76.0706 239.106C11.166 239.106 11.166 222.465 11.166 201.942C11.166 181.419 40.227 164.778 76.0706 164.778C111.914 164.778 140.975 181.419 140.975 201.942Z"
		fill="#E9EAF0" />
	<path
		d="M76.0705 146.699C93.3489 146.699 107.356 132.664 107.356 115.35C107.356 98.0364 93.3489 84.001 76.0705 84.001C58.7921 84.001 44.7852 98.0364 44.7852 115.35C44.7852 132.664 58.7921 146.699 76.0705 146.699Z"
		fill="#E9EAF0" />
	<path
		d="M300.632 222.027C300.632 257.355 300.632 286.001 188.904 286.001C77.1768 286.001 77.1768 257.355 77.1768 222.027C77.1768 186.699 127.203 158.052 188.904 158.052C250.606 158.052 300.632 186.699 300.632 222.027Z"
		fill="#D3D6E1" />
	<path
		d="M188.904 142.93C218.647 142.93 242.759 118.769 242.759 88.9655C242.759 59.1617 218.647 35.001 188.904 35.001C159.161 35.001 135.049 59.1617 135.049 88.9655C135.049 118.769 159.161 142.93 188.904 142.93Z"
		fill="#D3D6E1" />
</svg>
