<svg width="100" height="100" viewBox="0 0 100 100" fill="none" xmlns="http://www.w3.org/2000/svg">
	<circle cx="50" cy="50" r="50" fill="#3C455D" />
	<path fill-rule="evenodd" clip-rule="evenodd"
		d="M33.7318 63.0636C32.8466 63.9488 32.8466 65.384 33.7318 66.2692C34.617 67.1544 36.0521 67.1544 36.9373 66.2692L50.0012 53.2053L63.0651 66.2692C63.9503 67.1544 65.3855 67.1544 66.2706 66.2692C67.1558 65.384 67.1558 63.9488 66.2706 63.0636L53.2068 49.9997L66.2706 36.9358C67.1558 36.0507 67.1558 34.6155 66.2706 33.7303C65.3855 32.8451 63.9503 32.8451 63.0651 33.7303L50.0012 46.7942L36.9373 33.7303C36.0521 32.8451 34.617 32.8451 33.7318 33.7303C32.8466 34.6155 32.8466 36.0507 33.7318 36.9358L46.7957 49.9997L33.7318 63.0636Z"
		fill="white" />
</svg>
