<svg width="22" height="24" viewBox="0 0 22 24" fill="none" xmlns="http://www.w3.org/2000/svg">
<path d="M11.0002 0.318359C11.3064 0.318359 11.6127 0.449609 11.8314 0.668359C12.0502 0.887109 12.1814 1.19336 12.1814 1.49961V4.99961C12.1814 5.30586 12.0502 5.61211 11.8314 5.83086C11.6127 6.04961 11.3064 6.18086 11.0002 6.18086C10.6939 6.18086 10.3877 6.04961 10.1689 5.83086C9.9502 5.61211 9.81894 5.30586 9.81894 4.99961V1.49961C9.81894 1.19336 9.9502 0.887109 10.1689 0.668359C10.3877 0.449609 10.6939 0.318359 11.0002 0.318359ZM11.0002 17.8184C11.3064 17.8184 11.6127 17.9496 11.8314 18.1684C12.0502 18.3871 12.1814 18.6934 12.1814 18.9996V22.4996C12.1814 22.8059 12.0502 23.1121 11.8314 23.3309C11.6127 23.5496 11.3064 23.6809 11.0002 23.6809C10.6939 23.6809 10.3877 23.5496 10.1689 23.3309C9.9502 23.1121 9.81894 22.8059 9.81894 22.4996V18.9996C9.81894 18.6934 9.9502 18.3871 10.1689 18.1684C10.3877 17.9496 10.6939 17.8184 11.0002 17.8184ZM21.1064 6.18086C21.2814 6.44336 21.2814 6.74961 21.2377 7.05586C21.1502 7.36211 20.9752 7.62461 20.7127 7.75586L17.6939 9.50586C17.5627 9.59336 17.4314 9.63711 17.2564 9.63711C17.1252 9.63711 16.9502 9.63711 16.8189 9.59336C16.6877 9.54961 16.5127 9.50586 16.4252 9.37461C16.2939 9.28711 16.2064 9.15586 16.1189 9.02461C16.0314 8.89336 15.9877 8.76211 15.9877 8.58711C15.9877 8.41211 15.9877 8.28086 16.0314 8.14961C16.0752 8.01836 16.1627 7.84336 16.2502 7.75586C16.3377 7.62461 16.4689 7.53711 16.6002 7.44961L19.6189 5.69961C19.8814 5.52461 20.1877 5.52461 20.4939 5.56836C20.7127 5.69961 20.9314 5.91836 21.1064 6.18086ZM5.96895 14.9309C6.14395 15.1934 6.14394 15.4996 6.10019 15.8059C6.01269 16.1121 5.8377 16.3746 5.5752 16.5059L2.55645 18.2559C2.4252 18.3434 2.29395 18.3871 2.11895 18.3871C1.9877 18.3871 1.8127 18.3871 1.68145 18.3434C1.5502 18.2996 1.3752 18.2559 1.2877 18.1246C1.15645 18.0371 1.06895 17.9059 0.981445 17.7746C0.893945 17.6434 0.850195 17.5121 0.850195 17.3371C0.850195 17.2059 0.850195 17.0309 0.893945 16.8996C0.937695 16.7684 1.02519 16.5934 1.11269 16.5059C1.20019 16.3746 1.33145 16.2871 1.4627 16.1996L4.48145 14.4496C4.74395 14.2746 5.0502 14.2746 5.35645 14.3184C5.53145 14.4496 5.79395 14.6684 5.96895 14.9309ZM5.96895 9.06836C5.79395 9.33086 5.57519 9.54961 5.26894 9.59336C4.9627 9.68086 4.65645 9.63711 4.39394 9.46211L1.3752 7.71211C1.24395 7.62461 1.1127 7.53711 1.0252 7.40586C0.937695 7.27461 0.850195 7.14336 0.806445 7.01211C0.762695 6.88086 0.762695 6.70586 0.762695 6.57461C0.762695 6.44336 0.850195 6.26836 0.893945 6.13711C0.981445 6.00586 1.06895 5.87461 1.2002 5.78711C1.33145 5.69961 1.4627 5.61211 1.59395 5.56836C1.7252 5.52461 1.9002 5.52461 2.03145 5.52461C2.1627 5.52461 2.3377 5.61211 2.46895 5.65586L5.48769 7.40586C5.7502 7.58086 5.96895 7.79961 6.0127 8.10586C6.14395 8.49961 6.10019 8.80586 5.96895 9.06836Z" fill="white" fill-opacity="0.8"/>
</svg>
