<svg width="24" height="24" viewBox="0 0 24 24" fill="none" xmlns="http://www.w3.org/2000/svg">
<path d="M21 3H3C1.89 3 1 3.89 1 5V17C1 18.1 1.89 19 3 19H8V21H16V19H21C22.1 19 22.99 18.1 22.99 17L23 5C23 3.89 22.1 3 21 3ZM21 17H3V5H21V17ZM21 10V12H13V17H11V12H3V10H11V5H13V10H21Z" fill="white"/>
<path d="M18 13C15.24 13 13 15.24 13 18C13 20.76 15.24 23 18 23C20.76 23 23 20.76 23 18C23 15.24 20.76 13 18 13ZM18 14.5C18.83 14.5 19.5 15.17 19.5 16C19.5 16.83 18.83 17.5 18 17.5C17.17 17.5 16.5 16.83 16.5 16C16.5 15.17 17.17 14.5 18 14.5ZM18 21.6C16.75 21.6 15.645 20.96 15 19.99C15.015 18.995 17 18.45 18 18.45C18.995 18.45 20.985 18.995 21 19.99C20.355 20.96 19.25 21.6 18 21.6Z" fill="white"/>
<circle cx="18" cy="16" r="1.5" fill="#4E4E4E"/>
<path d="M21 20C21 20.8284 19.5 21.75 18 21.75C16.5 21.75 15 20.8284 15 20C15 19.1716 16.5 18.5 18 18.5C19.75 18.5 21 19.1716 21 20Z" fill="#4E4E4E"/>
<circle cx="18" cy="18" r="4.75" stroke="#4E4E4E" stroke-width="0.5"/>
</svg>
