<svg width="80" height="81" viewBox="0 0 80 81" fill="none" xmlns="http://www.w3.org/2000/svg">
<path d="M0 40.5C0 18.4086 17.9086 0.5 40 0.5C62.0914 0.5 80 18.4086 80 40.5C80 62.5914 62.0914 80.5 40 80.5C17.9086 80.5 0 62.5914 0 40.5Z" fill="#3C5AAA"/>
<path fill-rule="evenodd" clip-rule="evenodd" d="M49.0532 30.2943C49.7182 30.8762 49.7856 31.887 49.2037 32.552C48.6218 33.2171 47.611 33.2845 46.946 32.7026L41.5996 28.0245V46.4984C41.5996 47.3821 40.8832 48.0984 39.9996 48.0984C39.1159 48.0984 38.3996 47.3821 38.3996 46.4984L38.3996 28.0245L33.0532 32.7026C32.3882 33.2845 31.3774 33.2171 30.7955 32.552C30.2136 31.887 30.281 30.8762 30.946 30.2943L38.946 23.2943C39.5492 22.7665 40.45 22.7665 41.0532 23.2943L49.0532 30.2943ZM26.6004 41.4992C26.6004 40.6156 25.884 39.8992 25.0004 39.8992C24.1167 39.8992 23.4004 40.6156 23.4004 41.4992V52.4992C23.4004 55.592 25.9076 58.0992 29.0004 58.0992H51.0004C54.0932 58.0992 56.6004 55.592 56.6004 52.4992V41.4992C56.6004 40.6156 55.884 39.8992 55.0004 39.8992C54.1167 39.8992 53.4004 40.6156 53.4004 41.4992V52.4992C53.4004 53.8247 52.3259 54.8992 51.0004 54.8992H29.0004C27.6749 54.8992 26.6004 53.8247 26.6004 52.4992V41.4992Z" fill="white"/>
</svg>
