<svg width="100" height="100" viewBox="0 0 100 100" fill="none" xmlns="http://www.w3.org/2000/svg">
	<circle cx="50" cy="50" r="50" fill="#E9EAF0" />
	<path fill-rule="evenodd" clip-rule="evenodd"
		d="M33.7323 63.0636C32.8471 63.9488 32.8471 65.384 33.7323 66.2692C34.6174 67.1544 36.0526 67.1544 36.9378 66.2692L50.0017 53.2053L63.0656 66.2692C63.9508 67.1544 65.3859 67.1544 66.2711 66.2692C67.1563 65.384 67.1563 63.9488 66.2711 63.0636L53.2072 49.9997L66.2711 36.9358C67.1563 36.0507 67.1563 34.6155 66.2711 33.7303C65.3859 32.8451 63.9508 32.8451 63.0656 33.7303L50.0017 46.7942L36.9378 33.7303C36.0526 32.8451 34.6174 32.8451 33.7323 33.7303C32.8471 34.6155 32.8471 36.0507 33.7323 36.9358L46.7961 49.9997L33.7323 63.0636Z"
		fill="#2A2A2A" />
</svg>
