<svg width="80" height="80" viewBox="0 0 80 80" fill="none" xmlns="http://www.w3.org/2000/svg">
<mask id="path-1-inside-1_20894_6368" fill="white">
<path d="M0 40C0 17.9086 17.9086 0 40 0C62.0914 0 80 17.9086 80 40C80 62.0914 62.0914 80 40 80C17.9086 80 0 62.0914 0 40Z"/>
</mask>
<path d="M0 40C0 17.9086 17.9086 0 40 0C62.0914 0 80 17.9086 80 40C80 62.0914 62.0914 80 40 80C17.9086 80 0 62.0914 0 40Z" fill="white"/>
<path d="M40 78C19.0132 78 2 60.9868 2 40H-2C-2 63.196 16.804 82 40 82V78ZM78 40C78 60.9868 60.9868 78 40 78V82C63.196 82 82 63.196 82 40H78ZM40 2C60.9868 2 78 19.0132 78 40H82C82 16.804 63.196 -2 40 -2V2ZM40 -2C16.804 -2 -2 16.804 -2 40H2C2 19.0132 19.0132 2 40 2V-2Z" fill="#E9EAF0" mask="url(#path-1-inside-1_20894_6368)"/>
<path d="M27.8688 49.8671C27.244 50.4919 27.244 51.505 27.8688 52.1298C28.4937 52.7547 29.5067 52.7547 30.1316 52.1298L39.9998 42.2616L49.868 52.1298C50.4929 52.7547 51.5059 52.7547 52.1308 52.1298C52.7556 51.505 52.7556 50.4919 52.1308 49.8671L42.2625 39.9988L52.1316 30.1298C52.7564 29.505 52.7564 28.4919 52.1316 27.8671C51.5067 27.2422 50.4937 27.2422 49.8688 27.8671L39.9998 37.7361L30.1308 27.8671C29.5059 27.2422 28.4929 27.2422 27.868 27.8671C27.2432 28.4919 27.2432 29.505 27.868 30.1298L37.7371 39.9988L27.8688 49.8671Z" fill="#E34521"/>
</svg>
