<svg width="80" height="80" viewBox="0 0 80 80" fill="none" xmlns="http://www.w3.org/2000/svg">
<mask id="path-1-inside-1_20894_6359" fill="white">
<path d="M0 40C0 17.9086 17.9086 0 40 0C62.0914 0 80 17.9086 80 40C80 62.0914 62.0914 80 40 80C17.9086 80 0 62.0914 0 40Z"/>
</mask>
<path d="M0 40C0 17.9086 17.9086 0 40 0C62.0914 0 80 17.9086 80 40C80 62.0914 62.0914 80 40 80C17.9086 80 0 62.0914 0 40Z" fill="white"/>
<path d="M40 78C19.0132 78 2 60.9868 2 40H-2C-2 63.196 16.804 82 40 82V78ZM78 40C78 60.9868 60.9868 78 40 78V82C63.196 82 82 63.196 82 40H78ZM40 2C60.9868 2 78 19.0132 78 40H82C82 16.804 63.196 -2 40 -2V2ZM40 -2C16.804 -2 -2 16.804 -2 40H2C2 19.0132 19.0132 2 40 2V-2Z" fill="#E9EAF0" mask="url(#path-1-inside-1_20894_6359)"/>
<path fill-rule="evenodd" clip-rule="evenodd" d="M28.846 31.2513L24.7977 27.2031C24.1338 26.5392 24.1338 25.4628 24.7977 24.7989C25.4616 24.135 26.538 24.135 27.2019 24.7989L55.2019 52.7989C55.8658 53.4628 55.8658 54.5392 55.2019 55.2031C54.538 55.867 53.4616 55.867 52.7977 55.2031L50.6986 53.104V56.0008C50.6986 56.6703 50.3057 57.2774 49.6951 57.5516C49.0844 57.8259 48.3696 57.7162 47.8692 57.2714L40.0059 50.2818C39.5849 49.9075 39.0411 49.7008 38.4778 49.7008H31.9986C28.8506 49.7008 26.2986 47.1488 26.2986 44.0008V36.0008C26.2986 34.0185 27.3105 32.2726 28.846 31.2513ZM47.2986 49.704V52.2152L42.2647 47.7406C41.2213 46.8131 39.8738 46.3008 38.4778 46.3008H31.9986C30.7284 46.3008 29.6986 45.2711 29.6986 44.0008V36.0008C29.6986 34.945 30.4101 34.0553 31.3797 33.785L47.2986 49.704Z" fill="#2A2A2A"/>
<path d="M47.2986 27.7864V39.601L50.6986 43.001V24.0008C50.6986 23.3314 50.3057 22.7242 49.6951 22.45C49.0844 22.1758 48.3696 22.2855 47.8692 22.7302L40.0059 29.7199C39.5849 30.0941 39.0411 30.3008 38.4778 30.3008H36.7048L39.9195 33.5155C40.7827 33.2898 41.5877 32.8628 42.2647 32.261L47.2986 27.7864Z" fill="#2A2A2A"/>
</svg>
