<svg width="64" height="64" viewBox="0 0 64 64" fill="none" xmlns="http://www.w3.org/2000/svg">
	<path id="vector" opacity="0.24"
		d="M13.3334 11.0664C9.13603 11.0664 5.7334 14.469 5.7334 18.6664V37.3331C5.7334 41.5304 9.13603 44.9331 13.3334 44.9331H50.6667C54.8641 44.9331 58.2667 41.5304 58.2667 37.3331V18.6664C58.2667 14.469 54.8641 11.0664 50.6667 11.0664H13.3334Z"
		fill="white" />
	<path id="vector_2" fill-rule="evenodd" clip-rule="evenodd"
		d="M42.9356 34.9358C43.8209 34.0507 43.8209 32.6155 42.9358 31.7303L33.6035 22.3969C33.1784 21.9718 32.6019 21.733 32.0007 21.7329C31.3996 21.7329 30.823 21.9717 30.3979 22.3967L21.0636 31.7301C20.1784 32.6152 20.1783 34.0504 21.0634 34.9356C21.9486 35.8209 23.3837 35.8209 24.269 34.9358L29.734 29.4714L29.734 53.3329C29.734 54.5848 30.7488 55.5996 32.0006 55.5996C33.2525 55.5996 34.2673 54.5848 34.2673 53.3329L34.2673 29.4722L39.7301 34.9356C40.6152 35.8209 42.0504 35.8209 42.9356 34.9358Z"
		fill="white" />
</svg>
