<svg width="379" height="330" viewBox="0 0 379 330" fill="none" xmlns="http://www.w3.org/2000/svg">
	<path d="M300.635 222.026C300.635 257.354 300.635 286 188.907 286C77.1797 286 77.1797 257.354 77.1797 222.026C77.1797 186.698 127.206 158.051 188.907 158.051C250.609 158.051 300.635 186.698 300.635 222.026Z" fill="#838CA6"/>
	<path d="M188.907 142.929C218.65 142.929 242.762 118.768 242.762 88.9645C242.762 59.1607 218.65 35 188.907 35C159.164 35 135.052 59.1607 135.052 88.9645C135.052 118.768 159.164 142.929 188.907 142.929Z" fill="#838CA6"/>
	<path fill-rule="evenodd" clip-rule="evenodd" d="M308.165 239.057C367.169 238.061 367.169 221.822 367.169 201.941C367.169 181.419 338.108 164.778 302.264 164.778C290.939 164.778 280.29 166.439 271.022 169.359C271.311 169.521 271.598 169.684 271.884 169.848C293.295 182.108 308.635 200.26 308.635 222.026C308.635 222.425 308.635 222.825 308.635 223.227V223.232C308.638 228.325 308.641 233.678 308.165 239.057ZM106.978 169.255C97.788 166.4 87.2589 164.778 76.0687 164.778C40.2251 164.778 11.1641 181.419 11.1641 201.941C11.1641 221.764 11.1641 237.965 69.6485 239.048C69.173 233.672 69.1762 228.322 69.1792 223.232V223.227C69.1794 222.825 69.1797 222.425 69.1797 222.026C69.1797 200.26 84.519 182.108 105.93 169.848C106.277 169.649 106.627 169.452 106.978 169.255ZM300.111 239.099C300.635 233.664 300.635 227.938 300.635 222.026C300.635 202.458 285.287 184.94 261.108 173.204C246.609 180.02 237.359 190.363 237.359 201.941C237.359 222.235 237.359 238.733 300.111 239.099ZM77.7037 239.102C77.1797 233.666 77.1797 227.939 77.1797 222.026C77.1797 202.389 92.6354 184.817 116.961 173.081C131.611 179.895 140.973 190.293 140.973 201.941C140.973 222.29 140.973 238.823 77.7037 239.102ZM302.264 146.698C319.542 146.698 333.549 132.663 333.549 115.349C333.549 98.0354 319.542 84 302.264 84C284.986 84 270.979 98.0354 270.979 115.349C270.979 132.663 284.986 146.698 302.264 146.698ZM76.0685 146.698C93.3469 146.698 107.354 132.663 107.354 115.349C107.354 98.0354 93.3469 84 76.0685 84C58.7901 84 44.7832 98.0354 44.7832 115.349C44.7832 132.663 58.7901 146.698 76.0685 146.698Z" fill="#838CA6"/>
</svg>
