<svg width="24" height="25" viewBox="0 0 24 25" fill="none" xmlns="http://www.w3.org/2000/svg">
<path fill-rule="evenodd" clip-rule="evenodd" d="M10.4312 4.65727C11.1193 3.4339 12.8807 3.43391 13.5688 4.65728L20.859 17.6175C21.5339 18.8174 20.6668 20.3 19.2902 20.3H4.70985C3.33316 20.3 2.46608 18.8174 3.14101 17.6175L10.4312 4.65727ZM11.9998 8.2002C12.4416 8.2002 12.7998 8.55837 12.7998 9.0002V13.5002C12.7998 13.942 12.4416 14.3002 11.9998 14.3002C11.558 14.3002 11.1998 13.942 11.1998 13.5002V9.0002C11.1998 8.55837 11.558 8.2002 11.9998 8.2002ZM12 17.5C11.45 17.5 11 17.05 11 16.5C11 15.95 11.45 15.5 12 15.5C12.55 15.5 13 15.95 13 16.5C13 17.05 12.55 17.5 12 17.5Z" fill="#EC6200"/>
</svg>
