<svg width="24" height="25" viewBox="0 0 24 25" fill="none" xmlns="http://www.w3.org/2000/svg">
<path fill-rule="evenodd" clip-rule="evenodd" d="M20.1999 12.4746C20.1999 10.2999 19.2947 8.33805 17.8383 6.94289C17.5192 6.63725 17.5084 6.13084 17.814 5.81178C18.1196 5.49272 18.626 5.48185 18.9451 5.78748C20.7035 7.47191 21.7999 9.84586 21.7999 12.4746C21.7999 15.1032 20.7035 17.4772 18.9451 19.1616C18.626 19.4673 18.1196 19.4564 17.814 19.1373C17.5083 18.8183 17.5192 18.3119 17.8383 18.0062C19.2947 16.6111 20.1999 14.6492 20.1999 12.4746Z" fill="#3AC9CC"/>
<path fill-rule="evenodd" clip-rule="evenodd" d="M16.6101 12.4752C16.6101 11.3842 16.1631 10.399 15.4402 9.69037C15.1247 9.38107 15.1197 8.87457 15.429 8.55906C15.7383 8.24355 16.2448 8.23851 16.5603 8.54781C17.5775 9.545 18.2101 10.937 18.2101 12.4752C18.2101 14.0135 17.5775 15.4054 16.5603 16.4026C16.2448 16.7119 15.7383 16.7069 15.429 16.3914C15.1197 16.0759 15.1247 15.5694 15.4402 15.2601C16.1631 14.5514 16.6101 13.5662 16.6101 12.4752Z" fill="#3AC9CC"/>
<path fill-rule="evenodd" clip-rule="evenodd" d="M3.79995 12.4746C3.79995 10.2999 4.70521 8.33805 6.16162 6.94289C6.48067 6.63725 6.49155 6.13084 6.18591 5.81178C5.88027 5.49272 5.37386 5.48185 5.0548 5.78748C3.29643 7.47191 2.19995 9.84586 2.19995 12.4746C2.19995 15.1032 3.29643 17.4772 5.0548 19.1616C5.37386 19.4673 5.88027 19.4564 6.18591 19.1373C6.49155 18.8183 6.48067 18.3119 6.16162 18.0062C4.70521 16.6111 3.79995 14.6492 3.79995 12.4746Z" fill="#3AC9CC"/>
<path fill-rule="evenodd" clip-rule="evenodd" d="M7.29995 12.4752C7.29995 11.3842 7.74695 10.399 8.46984 9.69037C8.78535 9.38107 8.79038 8.87457 8.48108 8.55906C8.17178 8.24355 7.66528 8.23851 7.34977 8.54781C6.33256 9.545 5.69995 10.937 5.69995 12.4752C5.69995 14.0135 6.33256 15.4054 7.34977 16.4026C7.66528 16.7119 8.17179 16.7069 8.48108 16.3914C8.79038 16.0759 8.78535 15.5694 8.46984 15.2601C7.74695 14.5514 7.29995 13.5662 7.29995 12.4752Z" fill="#3AC9CC"/>
<path fill-rule="evenodd" clip-rule="evenodd" d="M12 11.3C11.3372 11.3 10.8 11.8372 10.8 12.5C10.8 13.1627 11.3372 13.7 12 13.7C12.6627 13.7 13.2 13.1627 13.2 12.5C13.2 11.8372 12.6627 11.3 12 11.3ZM9.19995 12.5C9.19995 10.9536 10.4536 9.69995 12 9.69995C13.5463 9.69995 14.8 10.9536 14.8 12.5C14.8 14.0463 13.5463 15.3 12 15.3C10.4536 15.3 9.19995 14.0463 9.19995 12.5Z" fill="#3AC9CC"/>
</svg>
