<svg width="378" height="330" viewBox="0 0 378 330" fill="none" xmlns="http://www.w3.org/2000/svg">
	<path
		d="M-8.17403e-06 4.00002L-1.74846e-07 187C-7.8281e-08 189.209 1.79086 191 4 191L162.248 191L162.248 166.5L213.688 166.5L213.688 191L374 191C376.209 191 378 189.209 378 187L378 4C378 1.79086 376.209 7.8281e-08 374 1.74846e-07L3.99999 1.63481e-05C1.79085 1.64446e-05 -8.27059e-06 1.79088 -8.17403e-06 4.00002Z"
		fill="#E9EAF0" />
	<path d="M371.771 169.645H7.56592V9.49023H371.771V169.645Z" fill="white" />
	<path
		d="M254.726 230H122.326C117.907 230 114.326 233.582 114.326 238L114.326 323.019C114.326 326.875 117.451 330 121.306 330H255.745C259.601 330 262.726 326.875 262.726 323.019V238C262.726 233.582 259.144 230 254.726 230Z"
		fill="#D3D6E1" />
	<path
		d="M256.926 316.979H120.81L120.81 240.05C120.81 238.122 122.373 236.56 124.3 236.56L253.436 236.56C255.363 236.56 256.926 238.122 256.926 240.05V316.979Z"
		fill="white" />
	<path
		d="M282.861 316.975H94C92.8954 316.975 92 317.871 92 318.975V324C92 327.314 94.6863 330 98 330H278.861C282.175 330 284.861 327.314 284.861 324V318.975C284.861 317.871 283.966 316.975 282.861 316.975Z"
		fill="#D3D6E1" />
	<path
		d="M170.438 155.5V220C170.438 221.105 171.333 222 172.438 222H206.438V155.5C206.438 154.395 207.333 153.5 208.438 153.5H224.736C226.568 153.5 227.436 151.242 226.076 150.015L191.57 118.875C190.067 117.52 187.79 117.499 186.263 118.828L150.467 149.992C149.073 151.206 149.932 153.5 151.781 153.5H168.438C169.542 153.5 170.438 154.395 170.438 155.5Z"
		fill="#D3D6E1" />
</svg>
