<svg width="124" height="124" viewBox="0 0 124 124" fill="none" xmlns="http://www.w3.org/2000/svg">
    <circle cx="62" cy="62" r="62" fill="#3C455D" />
    <path fill-rule="evenodd" clip-rule="evenodd"
        d="M55.9436 35.875C54.9019 35.875 54.0125 36.6273 53.8398 37.6545L52.6248 44.8791C51.9659 45.2259 51.3286 45.6075 50.7154 46.0216L44.0149 43.9315C43.0653 43.6353 42.037 44.0347 41.5363 44.8942L36.1547 54.1318C35.6263 55.0387 35.8362 56.1952 36.6494 56.8587L41.8871 61.1318C41.8481 61.6415 41.8282 62.1561 41.8282 62.675C41.8282 63.1758 41.8467 63.6727 41.8831 64.165L37.2357 68.3895C36.4909 69.0666 36.3207 70.1722 36.8274 71.042L42.209 80.2796C42.7312 81.1759 43.8224 81.5667 44.7949 81.2056L50.4126 79.1199C51.1928 79.6676 52.0139 80.1621 52.8704 80.598L53.8398 86.3621C54.0125 87.3894 54.9019 88.1417 55.9436 88.1417H61.4943C60.486 86.9494 59.7892 85.4854 59.5294 83.875H57.7481L56.8934 78.7931C56.7741 78.0833 56.3048 77.4815 55.6455 77.1928C54.3627 76.6309 53.1677 75.9069 52.0872 75.0468C51.5025 74.5813 50.7167 74.4558 50.016 74.7159L44.9923 76.5811L41.3829 70.3856L45.5492 66.5984C46.0663 66.1284 46.3204 65.4349 46.2295 64.7421C46.1408 64.0665 46.0949 63.3766 46.0949 62.675C46.0949 61.9364 46.1457 61.2108 46.2438 60.5011C46.3458 59.7637 46.056 59.0265 45.4792 58.5559L40.7588 54.7048L44.3672 48.5108L50.4579 50.4107C51.1163 50.616 51.8333 50.4904 52.3826 50.0736C53.3227 49.3603 54.3446 48.748 55.4316 48.2528C56.0765 47.959 56.5335 47.3641 56.651 46.6652L57.7481 40.1417H64.9989L66.3719 46.2647C66.5304 46.9713 67.0365 47.5493 67.716 47.7997C69.1922 48.3436 70.5663 49.0972 71.8011 50.0243C72.3496 50.436 73.0625 50.559 73.7172 50.3548L79.6288 48.5108L83.2373 54.7048L81.7062 55.9539C82.9034 56.7578 83.9366 57.7872 84.7451 58.9812L87.3466 56.8587C88.1599 56.1952 88.3697 55.0387 87.8414 54.1318L82.4597 44.8942C81.959 44.0347 80.9307 43.6353 79.9811 43.9315L73.4534 45.9677C72.4584 45.3025 71.4004 44.7224 70.29 44.2379L68.7885 37.5416C68.57 36.5674 67.7052 35.875 66.7068 35.875H55.9436ZM82.7416 69.1292C85.5473 69.2851 87.7743 71.6095 87.7743 74.4542V82.4542C87.7743 85.3997 85.3865 87.7875 82.441 87.7875H68.2187C68.1111 87.7875 68.0043 87.7843 67.8982 87.778C67.8944 87.7806 67.8905 87.7832 67.8866 87.7858C65.5764 87.6448 63.6636 86.0331 63.0724 83.875H63.0767C62.952 83.4226 62.8854 82.9462 62.8854 82.4542V74.4542C62.8854 71.6095 65.1124 69.2851 67.9181 69.1292H67.7716V65.2403C67.7716 64.5914 67.8517 63.9613 68.0027 63.3592C68.8394 60.0055 71.8719 57.5208 75.4848 57.5208C79.7435 57.5208 83.1959 60.9732 83.1959 65.2319V69.1208H83.1938V69.1292H82.7416ZM78.1342 63.4766C77.5651 62.6193 76.5909 62.0542 75.4848 62.0542C73.7298 62.0542 72.307 63.4769 72.307 65.2319V69.1208H78.6626V66.7944L78.6605 66.7925V65.2403C78.6605 64.5924 78.4666 63.9898 78.1337 63.4873C78.1338 63.4837 78.134 63.4802 78.1342 63.4766ZM61.9979 51.875C65.1585 51.875 67.9811 53.3219 69.8394 55.5896C68.5976 56.3173 67.5088 57.2779 66.6328 58.4113C65.5595 57.0303 63.8825 56.1417 61.9979 56.1417C58.7578 56.1417 56.1312 58.7683 56.1312 62.0083C56.1312 65.2484 58.7578 67.875 61.9979 67.875C62.132 67.875 62.265 67.8705 62.3968 67.8617C61.1885 68.9278 60.2753 70.3204 59.7951 71.9016C55.2578 70.8958 51.8646 66.8483 51.8646 62.0083C51.8646 56.4118 56.4014 51.875 61.9979 51.875Z"
        fill="white" />
</svg>
