<svg width="378" height="330" viewBox="0 0 378 330" fill="none" xmlns="http://www.w3.org/2000/svg">
	<path d="M0.00780433 4.00197L0.00781233 187.002C0.00781242 189.211 1.79868 191.002 4.00781 191.002L163 191.002L163 166.502L214 166.502L214 191.002L374.008 191.002C376.217 191.002 378.008 189.211 378.008 187.002L378.008 4.00195C378.008 1.79282 376.217 0.0019532 374.008 0.0019533L4.0078 0.00196947C1.79867 0.00196957 0.00780423 1.79283 0.00780433 4.00197Z" fill="#838CA6"/>
	<path d="M371.109 169.648H6.90381V9.49243H371.109V169.648Z" fill="white"/>
	<path d="M171.752 40.7282V64.001H166.831V40.7282H171.752ZM175.8 64.001V40.7282H191.209V44.7851H180.721V50.3305H190.186V54.3873H180.721V64.001H175.8ZM194.519 64.001V40.7282H203.701C205.466 40.7282 206.97 41.0654 208.212 41.7396C209.454 42.4063 210.401 43.3343 211.053 44.5237C211.712 45.7055 212.042 47.0692 212.042 48.6146C212.042 50.1601 211.708 51.5237 211.042 52.7055C210.375 53.8873 209.409 54.8078 208.144 55.4669C206.886 56.126 205.364 56.4555 203.576 56.4555H197.723V52.5123H202.78C203.727 52.5123 204.507 52.3495 205.121 52.0237C205.742 51.6904 206.204 51.232 206.507 50.6487C206.818 50.0578 206.973 49.3798 206.973 48.6146C206.973 47.8419 206.818 47.1676 206.507 46.5919C206.204 46.0086 205.742 45.5578 205.121 45.2396C204.5 44.9139 203.712 44.751 202.757 44.751H199.439V64.001H194.519Z" fill="#838CA6"/>
	<path d="M170.5 155.502V220.002C170.5 221.107 171.395 222.002 172.5 222.002H204.51C205.609 222.002 206.5 221.111 206.5 220.012V155.502C206.5 154.397 207.395 153.502 208.5 153.502H224.799C226.63 153.502 227.498 151.244 226.138 150.017L191.632 118.877C190.13 117.522 187.852 117.501 186.326 118.83L150.53 149.994C149.135 151.208 149.994 153.502 151.843 153.502H168.5C169.605 153.502 170.5 154.397 170.5 155.502Z" fill="#3C5AAA"/>
	<path d="M255.205 230.002H122.805C118.386 230.002 114.805 233.584 114.805 238.002L114.805 323.021C114.805 326.877 117.93 330.002 121.785 330.002H256.224C260.08 330.002 263.205 326.877 263.205 323.021V238.002C263.205 233.584 259.623 230.002 255.205 230.002Z" fill="#3C5AAA"/>
	<path d="M283.439 316.977H94.5781C93.4736 316.977 92.5781 317.873 92.5781 318.977V324.002C92.5781 327.316 95.2644 330.002 98.5781 330.002H279.439C282.753 330.002 285.439 327.316 285.439 324.002V318.977C285.439 317.873 284.544 316.977 283.439 316.977Z" fill="#3C5AAA"/>
	<path d="M257.069 316.981H120.953L120.953 240.052C120.953 238.124 122.516 236.562 124.443 236.562L253.579 236.562C255.506 236.562 257.069 238.124 257.069 240.052V316.981Z" fill="white"/>
</svg>
