<svg width="80" height="81" viewBox="0 0 80 81" fill="none" xmlns="http://www.w3.org/2000/svg">
<mask id="path-1-inside-1_20894_6340" fill="white">
<path d="M0 40.5C0 18.4086 17.9086 0.5 40 0.5C62.0914 0.5 80 18.4086 80 40.5C80 62.5914 62.0914 80.5 40 80.5C17.9086 80.5 0 62.5914 0 40.5Z"/>
</mask>
<path d="M0 40.5C0 18.4086 17.9086 0.5 40 0.5C62.0914 0.5 80 18.4086 80 40.5C80 62.5914 62.0914 80.5 40 80.5C17.9086 80.5 0 62.5914 0 40.5Z" fill="white"/>
<path d="M40 78.5C19.0132 78.5 2 61.4868 2 40.5H-2C-2 63.696 16.804 82.5 40 82.5V78.5ZM78 40.5C78 61.4868 60.9868 78.5 40 78.5V82.5C63.196 82.5 82 63.696 82 40.5H78ZM40 2.5C60.9868 2.5 78 19.5132 78 40.5H82C82 17.304 63.196 -1.5 40 -1.5V2.5ZM40 -1.5C16.804 -1.5 -2 17.304 -2 40.5H2C2 19.5132 19.0132 2.5 40 2.5V-1.5Z" fill="#E9EAF0" mask="url(#path-1-inside-1_20894_6340)"/>
<path d="M37.8612 24.0984C36.8198 24.0984 35.9631 24.9184 35.9175 25.9588L35.6254 32.6262L32.5568 29.5576L32.7206 25.8188C32.8411 23.0672 35.107 20.8984 37.8612 20.8984C40.5089 20.8984 42.7244 22.9077 42.9823 25.5428L43.7115 32.9942C43.8525 34.4344 45.0142 35.5616 46.458 35.6589L47.8152 35.7505C53.6776 36.1459 57.8118 41.6684 56.54 47.4047L56.0877 49.4444C55.876 50.3993 55.5668 51.312 55.1721 52.1729L52.7045 49.7052C52.805 49.3942 52.8916 49.0762 52.9636 48.7517L53.4158 46.712C54.2637 42.8881 51.5077 39.2068 47.5999 38.9432L46.2427 38.8517C43.2378 38.649 40.8201 36.3032 40.5267 33.3059L39.7975 25.8545C39.7 24.8581 38.8623 24.0984 37.8612 24.0984Z" fill="#E34521"/>
<path fill-rule="evenodd" clip-rule="evenodd" d="M32.2384 36.8244L21.4686 26.0546C20.8438 25.4298 20.8438 24.4167 21.4686 23.7919C22.0935 23.167 23.1065 23.167 23.7314 23.7919L57.9314 57.9919C58.5562 58.6167 58.5562 59.6298 57.9314 60.2546C57.3065 60.8795 56.2935 60.8795 55.6686 60.2546L51.9683 56.5543C49.5306 58.7733 46.2997 60.0984 42.8127 60.0984H39.2766C35.0336 60.0984 31.0338 58.1178 28.4619 54.7432L22.5292 46.9588C21.0152 44.9723 21.1608 42.182 22.8734 40.3639C24.7724 38.348 27.9324 38.2138 29.9954 40.0615L32.0173 41.8724L32.2384 36.8244ZM49.7023 54.2882C47.8518 55.9249 45.4263 56.8984 42.8127 56.8984H39.2766C36.0321 56.8984 32.9737 55.3839 31.007 52.8035L25.0743 45.0191C24.5093 44.2778 24.5637 43.2365 25.2027 42.5581C25.9114 41.8058 27.0906 41.7557 27.8604 42.4452L31.2803 45.5082C32.7337 46.8099 35.0467 45.8366 35.1321 43.8873L35.3071 39.8931L49.7023 54.2882Z" fill="#E34521"/>
</svg>
