<svg width="124" height="124" viewBox="0 0 124 124" fill="none" xmlns="http://www.w3.org/2000/svg">
    <circle cx="62" cy="62" r="62" fill="#3C455D" />
    <path fill-rule="evenodd" clip-rule="evenodd"
        d="M61.9996 51.7334C56.3295 51.7334 51.7329 56.3299 51.7329 62.0001C51.7329 67.6702 56.3295 72.2667 61.9996 72.2667C67.6697 72.2667 72.2662 67.6702 72.2662 62.0001C72.2662 56.3299 67.6697 51.7334 61.9996 51.7334ZM56.2662 62.0001C56.2662 58.8336 58.8331 56.2667 61.9996 56.2667C65.166 56.2667 67.7329 58.8336 67.7329 62.0001C67.7329 65.1665 65.166 67.7334 61.9996 67.7334C58.8331 67.7334 56.2662 65.1665 56.2662 62.0001Z"
        fill="white" />
    <path fill-rule="evenodd" clip-rule="evenodd"
        d="M55.9453 35.7334C54.8385 35.7334 53.8935 36.5327 53.71 37.6241L52.5059 44.7837C51.8824 45.1144 51.2783 45.4762 50.6958 45.867L44.0563 43.796C43.0473 43.4813 41.9548 43.9056 41.4228 44.8188L36.0412 54.0564C35.4798 55.02 35.7027 56.2488 36.5668 56.9537L41.7506 61.1829C41.7148 61.6732 41.6966 62.168 41.6966 62.6667C41.6966 63.1488 41.7136 63.6273 41.7471 64.1017L37.1477 68.2826C36.3563 69.002 36.1755 70.1767 36.7139 71.1008L42.0955 80.3384C42.6503 81.2908 43.8097 81.706 44.843 81.3224L50.3952 79.261C51.1451 79.7835 51.9321 80.2574 52.7517 80.678L53.71 86.376C53.8935 87.4674 54.8385 88.2667 55.9453 88.2667H66.7085C67.7693 88.2667 68.6882 87.5311 68.9203 86.496L70.0762 81.341C71.3824 80.7932 72.6189 80.1147 73.769 79.3222L79.1564 81.3224C80.1897 81.706 81.3491 81.2908 81.9039 80.3384L87.2855 71.1008C87.8239 70.1767 87.6431 69.002 86.8517 68.2826L82.4891 64.3169C82.5334 63.7722 82.5559 63.2219 82.5559 62.6667C82.5559 62.1021 82.5326 61.5425 82.4868 60.9887L87.4326 56.9537C88.2967 56.2488 88.5196 55.02 87.9582 54.0564L82.5766 44.8188C82.0446 43.9056 80.9521 43.4813 79.9431 43.796L73.4761 45.8132C72.5086 45.1708 71.4824 44.6081 70.4071 44.1346L68.9203 37.5041C68.6882 36.4691 67.7693 35.7334 66.7085 35.7334H55.9453ZM56.7842 46.6791L57.8626 40.2667H64.8938L66.2435 46.2856C66.4118 47.0364 66.9496 47.6505 67.6716 47.9165C69.1355 48.4559 70.4981 49.2032 71.7228 50.1226C72.3055 50.5601 73.063 50.6908 73.7586 50.4738L79.5688 48.6615L83.0664 54.6652L78.6608 58.2595C78.0414 58.7648 77.734 59.5591 77.8517 60.3497C77.9642 61.1047 78.0226 61.8783 78.0226 62.6667C78.0226 63.4244 77.9687 64.1683 77.8647 64.8951C77.7582 65.6392 78.0276 66.3877 78.5838 66.8933L82.4453 70.4035L78.9467 76.4088L74.2004 74.6466C73.4602 74.3718 72.6303 74.502 72.0098 74.9902C70.6348 76.0721 69.0757 76.9328 67.3872 77.5187C66.6457 77.7759 66.0901 78.3984 65.9184 79.1641L64.8938 83.7334H57.8626L57.0266 78.7627C56.8998 78.0085 56.4012 77.3692 55.7007 77.0624C54.4285 76.5052 53.2435 75.7872 52.172 74.9342C51.5507 74.4396 50.7158 74.3062 49.9713 74.5827L45.0527 76.4088L41.5541 70.4035L45.6406 66.6888C46.19 66.1894 46.46 65.4526 46.3633 64.7165C46.2754 64.0466 46.2299 63.3625 46.2299 62.6667C46.2299 61.9343 46.2803 61.2148 46.3776 60.5111C46.4859 59.7276 46.178 58.9443 45.5652 58.4443L40.933 54.6652L44.4307 48.6615L50.4199 50.5297C51.1194 50.7479 51.8812 50.6144 52.4649 50.1716C53.3972 49.4642 54.4106 48.8569 55.4885 48.3659C56.1738 48.0537 56.6593 47.4217 56.7842 46.6791Z"
        fill="white" />
</svg>
