<svg width="80" height="81" viewBox="0 0 80 81" fill="none" xmlns="http://www.w3.org/2000/svg">
<path d="M0 40.5C0 18.4086 17.9086 0.5 40 0.5C62.0914 0.5 80 18.4086 80 40.5C80 62.5914 62.0914 80.5 40 80.5C17.9086 80.5 0 62.5914 0 40.5Z" fill="#3C5AAA"/>
<path fill-rule="evenodd" clip-rule="evenodd" d="M20.2998 28.5008C20.2998 25.3528 22.8518 22.8008 25.9998 22.8008H53.9998C57.1478 22.8008 59.6998 25.3528 59.6998 28.5008V38.5008C59.6998 41.6488 57.1478 44.2008 53.9998 44.2008H47.9998C47.0609 44.2008 46.2998 43.4397 46.2998 42.5008C46.2998 41.5619 47.0609 40.8008 47.9998 40.8008H53.9998C55.2701 40.8008 56.2998 39.771 56.2998 38.5008V28.5008C56.2998 27.2305 55.2701 26.2008 53.9998 26.2008H25.9998C24.7295 26.2008 23.6998 27.2305 23.6998 28.5008V38.5008C23.6998 39.771 24.7295 40.8008 25.9998 40.8008H31.9998C32.9387 40.8008 33.6998 41.5619 33.6998 42.5008C33.6998 43.4397 32.9387 44.2008 31.9998 44.2008H25.9998C22.8518 44.2008 20.2998 41.6488 20.2998 38.5008V28.5008Z" fill="#EBEBEB"/>
<path fill-rule="evenodd" clip-rule="evenodd" d="M48.2018 48.2986C48.8657 48.9625 48.8658 50.0389 48.202 50.7028L41.2027 57.7028C40.8839 58.0216 40.4515 58.2008 40.0007 58.2008C39.5498 58.2008 39.1174 58.0217 38.7985 57.7029L31.7978 50.7029C31.1339 50.0391 31.1338 48.9627 31.7977 48.2988C32.4615 47.6348 33.5379 47.6348 34.2018 48.2986L38.3006 52.3969V34.5008C38.3006 33.5619 39.0617 32.8008 40.0006 32.8008C40.9394 32.8008 41.7006 33.5619 41.7006 34.5008V52.3963L45.7977 48.2988C46.4615 47.6348 47.5379 47.6348 48.2018 48.2986Z" fill="#EBEBEB"/>
</svg>
