<svg width="54" height="54" viewBox="0 0 54 54" fill="none" xmlns="http://www.w3.org/2000/svg">
    <rect width="54" height="54" rx="15" fill="#595959" />
    <path
        d="M27 28C29.1733 28 31.0933 28.52 32.6533 29.2C34.0933 29.84 35 31.28 35 32.84V35H19V32.8533C19 31.28 19.9067 29.84 21.3467 29.2133C22.9067 28.52 24.8267 28 27 28ZM16.3333 28.3333C17.8 28.3333 19 27.1333 19 25.6667C19 24.2 17.8 23 16.3333 23C14.8667 23 13.6667 24.2 13.6667 25.6667C13.6667 27.1333 14.8667 28.3333 16.3333 28.3333ZM17.84 29.8C17.3467 29.72 16.8533 29.6667 16.3333 29.6667C15.0133 29.6667 13.76 29.9467 12.6267 30.44C11.64 30.8667 11 31.8267 11 32.9067V35H17V32.8533C17 31.7467 17.3067 30.7067 17.84 29.8ZM37.6667 28.3333C39.1333 28.3333 40.3333 27.1333 40.3333 25.6667C40.3333 24.2 39.1333 23 37.6667 23C36.2 23 35 24.2 35 25.6667C35 27.1333 36.2 28.3333 37.6667 28.3333ZM43 32.9067C43 31.8267 42.36 30.8667 41.3733 30.44C40.24 29.9467 38.9867 29.6667 37.6667 29.6667C37.1467 29.6667 36.6533 29.72 36.16 29.8C36.6933 30.7067 37 31.7467 37 32.8533V35H43V32.9067ZM27 19C29.2133 19 31 20.7867 31 23C31 25.2133 29.2133 27 27 27C24.7867 27 23 25.2133 23 23C23 20.7867 24.7867 19 27 19Z"
        fill="#BDBDBD" />
</svg>
