<svg width="80" height="80" viewBox="0 0 80 80" fill="none" xmlns="http://www.w3.org/2000/svg">
<mask id="path-1-inside-1_20894_6350" fill="white">
<path d="M0 40C0 17.9086 17.9086 0 40 0C62.0914 0 80 17.9086 80 40C80 62.0914 62.0914 80 40 80C17.9086 80 0 62.0914 0 40Z"/>
</mask>
<path d="M0 40C0 17.9086 17.9086 0 40 0C62.0914 0 80 17.9086 80 40C80 62.0914 62.0914 80 40 80C17.9086 80 0 62.0914 0 40Z" fill="white"/>
<path d="M40 78C19.0132 78 2 60.9868 2 40H-2C-2 63.196 16.804 82 40 82V78ZM78 40C78 60.9868 60.9868 78 40 78V82C63.196 82 82 63.196 82 40H78ZM40 2C60.9868 2 78 19.0132 78 40H82C82 16.804 63.196 -2 40 -2V2ZM40 -2C16.804 -2 -2 16.804 -2 40H2C2 19.0132 19.0132 2 40 2V-2Z" fill="#E9EAF0" mask="url(#path-1-inside-1_20894_6350)"/>
<path fill-rule="evenodd" clip-rule="evenodd" d="M37.2019 37.2029C37.8658 36.539 37.8658 35.4626 37.2019 34.7987L28.104 25.7008L35.9998 25.7008C36.9387 25.7008 37.6998 24.9397 37.6998 24.0008C37.6998 23.0619 36.9387 22.3008 35.9998 22.3008L23.9998 22.3008C23.0609 22.3008 22.2998 23.0619 22.2998 24.0008L22.2998 36.0008C22.2998 36.9397 23.0609 37.7008 23.9998 37.7008C24.9387 37.7008 25.6998 36.9397 25.6998 36.0008L25.6998 28.1049L34.7977 37.2029C35.4616 37.8668 36.538 37.8668 37.2019 37.2029Z" fill="#2A2A2A"/>
<path fill-rule="evenodd" clip-rule="evenodd" d="M42.7977 42.7987C42.1338 43.4626 42.1338 44.539 42.7977 45.2029L51.8956 54.3008H43.9998C43.0609 54.3008 42.2998 55.0619 42.2998 56.0008C42.2998 56.9397 43.0609 57.7008 43.9998 57.7008L55.9998 57.7008C56.9387 57.7008 57.6998 56.9397 57.6998 56.0008V44.0008C57.6998 43.0619 56.9387 42.3008 55.9998 42.3008C55.0609 42.3008 54.2998 43.0619 54.2998 44.0008V51.8966L45.2019 42.7987C44.538 42.1348 43.4616 42.1348 42.7977 42.7987Z" fill="#2A2A2A"/>
</svg>
