<svg width="80" height="80" viewBox="0 0 80 80" fill="none" xmlns="http://www.w3.org/2000/svg">
	<g>
		<path fill-rule="evenodd" clip-rule="evenodd"
			d="M40.0006 24C31.0697 24 23.0136 27.7169 17.2831 33.699C15.7549 35.2943 13.2228 35.3486 11.6275 33.8205C10.0322 32.2923 9.97783 29.7602 11.506 28.1649C18.6829 20.673 28.7994 16 40.0006 16C51.2018 16 61.3183 20.673 68.4952 28.1649C70.0234 29.7602 69.969 32.2923 68.3737 33.8205C66.7784 35.3486 64.2463 35.2943 62.7181 33.699C56.9876 27.7169 48.9315 24 40.0006 24Z"
			fill="black" />
		<path fill-rule="evenodd" clip-rule="evenodd"
			d="M40.0007 40.6667C35.6088 40.6667 31.6442 42.4651 28.7906 45.3759C27.2442 46.9535 24.7116 46.9787 23.1341 45.4322C21.5565 43.8857 21.5314 41.3531 23.0779 39.7756C27.374 35.3932 33.3726 32.6667 40.0007 32.6667C46.6288 32.6667 52.6274 35.3932 56.9236 39.7756C58.4701 41.3531 58.4449 43.8857 56.8673 45.4322C55.2898 46.9787 52.7573 46.9535 51.2108 45.3759C48.3572 42.4651 44.3926 40.6667 40.0007 40.6667Z"
			fill="black" />
		<path
			d="M45 55C45 57.7614 42.7614 60 40 60C37.2386 60 35 57.7614 35 55C35 52.2386 37.2386 50 40 50C42.7614 50 45 52.2386 45 55Z"
			fill="#2A2A2A" />
	</g>
</svg>
