<svg width="80" height="80" viewBox="0 0 80 80" fill="none" xmlns="http://www.w3.org/2000/svg">
    <mask id="path-1-inside-1_16691_12274" fill="white">
        <path d="M0 40C0 17.9086 17.9086 0 40 0C62.0914 0 80 17.9086 80 40C80 62.0914 62.0914 80 40 80C17.9086 80 0 62.0914 0 40Z"/>
    </mask>
    <path d="M40 78C19.0132 78 2 60.9868 2 40H-2C-2 63.196 16.804 82 40 82V78ZM78 40C78 60.9868 60.9868 78 40 78V82C63.196 82 82 63.196 82 40H78ZM40 2C60.9868 2 78 19.0132 78 40H82C82 16.804 63.196 -2 40 -2V2ZM40 -2C16.804 -2 -2 16.804 -2 40H2C2 19.0132 19.0132 2 40 2V-2Z"
          fill="#E9EAF0" mask="url(#path-1-inside-1_16691_12274)"/>
    <path fill-rule="evenodd" clip-rule="evenodd"
          d="M27.7997 49.7948C27.1358 50.4587 27.1358 51.5351 27.7997 52.199C28.4636 52.8628 29.5399 52.8628 30.2038 52.199L40.0018 42.401L49.7997 52.199C50.4636 52.8628 51.5399 52.8628 52.2038 52.199C52.8677 51.5351 52.8677 50.4587 52.2038 49.7948L42.4059 39.9969L52.2038 30.199C52.8677 29.5351 52.8677 28.4587 52.2038 27.7948C51.5399 27.1309 50.4636 27.1309 49.7997 27.7948L40.0018 37.5927L30.2038 27.7948C29.5399 27.1309 28.4636 27.1309 27.7997 27.7948C27.1358 28.4587 27.1358 29.5351 27.7997 30.199L37.5976 39.9969L27.7997 49.7948Z"
          fill="white"/>
</svg>
