<svg width="80" height="80" viewBox="0 0 80 80" fill="none" xmlns="http://www.w3.org/2000/svg">
	<g>
		<path fill-rule="evenodd" clip-rule="evenodd"
			d="M29.9993 10.5C26.5936 10.5 23.8327 13.2609 23.8327 16.6667V26.6667C23.8327 30.0724 26.5936 32.8333 29.9993 32.8333H37.166V37.167H22.6537C20.5434 37.167 18.8327 38.8777 18.8327 40.988V50.5H13.3327C9.92693 50.5 7.16602 53.2609 7.16602 56.6667V63.3333C7.16602 66.7391 9.92693 69.5 13.3327 69.5H29.9993C33.4051 69.5 36.166 66.7391 36.166 63.3333V56.6667C36.166 53.2609 33.4051 50.5 29.9993 50.5H24.4993V42.8337H55.4993V50.5H49.9993C46.5936 50.5 43.8327 53.2609 43.8327 56.6667V63.3333C43.8327 66.7391 46.5936 69.5 49.9993 69.5H66.666C70.0718 69.5 72.8327 66.7391 72.8327 63.3333V56.6667C72.8327 53.2609 70.0718 50.5 66.666 50.5H61.166V40.988C61.166 38.8777 59.4553 37.167 57.345 37.167H42.8327V32.8333H49.9993C53.4051 32.8333 56.166 30.0724 56.166 26.6667V16.6667C56.166 13.2609 53.4051 10.5 49.9993 10.5H29.9993ZM29.4993 16.6667C29.4993 16.3905 29.7232 16.1667 29.9993 16.1667H49.9993C50.2755 16.1667 50.4993 16.3905 50.4993 16.6667V26.6667C50.4993 26.9428 50.2755 27.1667 49.9993 27.1667H29.9993C29.7232 27.1667 29.4993 26.9428 29.4993 26.6667V16.6667ZM12.8327 56.6667C12.8327 56.3905 13.0565 56.1667 13.3327 56.1667H29.9993C30.2755 56.1667 30.4993 56.3905 30.4993 56.6667V63.3333C30.4993 63.6095 30.2755 63.8333 29.9993 63.8333H13.3327C13.0565 63.8333 12.8327 63.6095 12.8327 63.3333V56.6667ZM49.9993 56.1667C49.7232 56.1667 49.4993 56.3905 49.4993 56.6667V63.3333C49.4993 63.6095 49.7232 63.8333 49.9993 63.8333H66.666C66.9422 63.8333 67.166 63.6095 67.166 63.3333V56.6667C67.166 56.3905 66.9422 56.1667 66.666 56.1667H49.9993Z"
			fill="black" />
	</g>
</svg>
