<svg width="80" height="80" viewBox="0 0 80 80" fill="none" xmlns="http://www.w3.org/2000/svg">
	<path
		d="M39.9941 7.16626C31.986 7.16626 25.4941 13.6581 25.4941 21.6663C25.4941 29.6744 31.986 36.1663 39.9941 36.1663C48.0023 36.1663 54.4941 29.6744 54.4941 21.6663C54.4941 13.6581 48.0023 7.16626 39.9941 7.16626Z"
		fill="white" />
	<path
		d="M39.9955 40.4998C33.1508 40.4998 26.8145 42.0794 22.0909 44.7786C17.4477 47.432 13.8289 51.5292 13.8289 56.6664L13.8285 57.0232C13.8234 60.4228 13.8165 65.0043 17.7728 68.2773C19.7203 69.8885 22.4043 71.001 25.9352 71.7271C29.4773 72.4555 34.0632 72.8331 39.9955 72.8331C45.9279 72.8331 50.5137 72.4555 54.0558 71.7271C57.5868 71.001 60.2708 69.8885 62.2183 68.2773C66.1745 65.0043 66.1677 60.4228 66.1626 57.0231L66.1622 56.6664C66.1622 51.5292 62.5434 47.432 57.9001 44.7786C53.1766 42.0794 46.8403 40.4998 39.9955 40.4998Z"
		fill="white" />
</svg>
