<svg width="80" height="80" viewBox="0 0 80 80" fill="none" xmlns="http://www.w3.org/2000/svg">
	<g>
		<path fill-rule="evenodd" clip-rule="evenodd"
			d="M20.9626 25.6365L13.9965 18.6705C12.89 17.564 12.89 15.77 13.9965 14.6635C15.103 13.557 16.897 13.557 18.0035 14.6635L64.6701 61.3302C65.7766 62.4367 65.7766 64.2306 64.6701 65.3371C63.5637 66.4436 61.7697 66.4436 60.6632 65.3371L59.1782 63.8521C58.0061 64.1359 56.7819 64.2864 55.5225 64.2864H40.9987V64.334H24.6657C14.7247 64.334 6.66602 56.2753 6.66602 46.3343C6.66602 38.0528 12.2588 31.0776 19.8734 28.9796C20.1429 27.824 20.509 26.7065 20.9626 25.6365ZM53.9458 58.6197H35.332V58.6673H24.6657C17.8544 58.6673 12.3327 53.1456 12.3327 46.3343C12.3327 40.6681 16.1588 35.8809 21.3786 34.4427L24.6269 33.5477L25.392 30.2664C25.4046 30.2124 25.4175 30.1584 25.4307 30.1046L53.9458 58.6197Z"
			fill="black" />
		<path
			d="M65.332 48.8102C65.332 50.6751 64.8116 52.4185 63.9081 53.9031L67.9883 57.9833C69.8805 55.4163 70.9987 52.2438 70.9987 48.8102C70.9987 41.5777 66.0375 35.504 59.3327 33.8065V33.7044C59.3327 22.4541 50.3784 13.334 39.3327 13.334C34.8503 13.334 30.7124 14.8358 27.3774 17.3724L31.437 21.432C33.7118 19.891 36.4319 19.0007 39.3327 19.0007C47.1512 19.0007 53.666 25.4852 53.666 33.7044V38.2173L57.9419 39.2999C62.1927 40.376 65.332 44.2336 65.332 48.8102Z"
			fill="black" />
	</g>
</svg>
