<svg width="80" height="80" viewBox="0 0 80 80" fill="none" xmlns="http://www.w3.org/2000/svg">
	<g>
		<path
			d="M45 55C45 57.7614 42.7614 60 40 60C37.2386 60 35 57.7614 35 55C35 52.2386 37.2386 50 40 50C42.7614 50 45 52.2386 45 55Z"
			fill="#2A2A2A" />
		<path fill-rule="evenodd" clip-rule="evenodd"
			d="M40.001 40.668C35.6091 40.668 31.6445 42.4664 28.791 45.3772C27.2445 46.9548 24.7119 46.98 23.1344 45.4335C21.5568 43.887 21.5317 41.3544 23.0782 39.7769C27.3743 35.3945 33.3729 32.668 40.001 32.668C46.6292 32.668 52.6277 35.3945 56.9239 39.7769C58.4704 41.3544 58.4452 43.887 56.8677 45.4335C55.2901 46.98 52.7576 46.9548 51.2111 45.3772C48.3576 42.4664 44.3929 40.668 40.001 40.668Z"
			fill="#151C32" fill-opacity="0.24" />
		<path fill-rule="evenodd" clip-rule="evenodd"
			d="M40.0006 24C31.0697 24 23.0136 27.7169 17.2831 33.699C15.7549 35.2943 13.2228 35.3486 11.6275 33.8205C10.0322 32.2923 9.97783 29.7602 11.506 28.1649C18.6829 20.673 28.7994 16 40.0006 16C51.2018 16 61.3183 20.673 68.4952 28.1649C70.0234 29.7602 69.969 32.2923 68.3737 33.8205C66.7784 35.3486 64.2463 35.2943 62.7181 33.699C56.9876 27.7169 48.9315 24 40.0006 24Z"
			fill="#151C32" fill-opacity="0.24" />
	</g>
</svg>
