<svg width="48" height="48" viewBox="0 0 48 48" fill="none" xmlns="http://www.w3.org/2000/svg">
	<path fill-rule="evenodd" clip-rule="evenodd"
		d="M4.2998 14.0008C4.2998 10.8528 6.85178 8.30078 9.9998 8.30078H37.9998C41.1478 8.30078 43.6998 10.8528 43.6998 14.0008V32.0008C43.6998 35.1488 41.1478 37.7008 37.9998 37.7008H9.9998C6.85178 37.7008 4.2998 35.1488 4.2998 32.0008V14.0008ZM9.9998 11.7008C8.72955 11.7008 7.6998 12.7305 7.6998 14.0008V32.0008C7.6998 33.271 8.72955 34.3008 9.9998 34.3008H37.9998C39.2701 34.3008 40.2998 33.271 40.2998 32.0008V14.0008C40.2998 12.7305 39.2701 11.7008 37.9998 11.7008H9.9998Z"
		fill="#838CA6" />
	<path fill-rule="evenodd" clip-rule="evenodd"
		d="M14.3509 18.3398C13.3931 18.3398 12.5217 18.5471 11.7411 18.965C10.9599 19.3817 10.3398 19.998 9.88141 20.8078C9.42298 21.6205 9.19922 22.6112 9.19922 23.77C9.19922 24.9223 9.42295 25.9109 9.88109 26.7266C10.3394 27.5329 10.9596 28.1512 11.74 28.5743C12.5207 28.9923 13.3931 29.2001 14.3509 29.2001C15.3021 29.2001 16.17 28.9945 16.9504 28.5801C17.7344 28.1604 18.3568 27.5441 18.8153 26.7374C19.2771 25.9215 19.5026 24.929 19.5026 23.77C19.5026 22.6111 19.2773 21.6204 18.8154 20.8077C18.3569 19.9977 17.7351 19.3815 16.9507 18.9649C16.1703 18.5472 15.3023 18.3398 14.3509 18.3398ZM13.3067 21.4385C13.582 21.2472 13.9263 21.1461 14.3509 21.1461C14.7756 21.1461 15.1178 21.2472 15.3894 21.4379L15.3914 21.4393C15.6667 21.6277 15.8809 21.9098 16.0282 22.2995C16.179 22.6873 16.2589 23.1765 16.2589 23.77C16.2589 24.3633 16.1797 24.8527 16.0287 25.2441C15.8815 25.6304 15.667 25.9141 15.3905 26.1062C15.1188 26.2941 14.7762 26.3938 14.3509 26.3938C13.9262 26.3938 13.5818 26.2943 13.3065 26.1063C13.0333 25.9142 12.8188 25.6311 12.6683 25.2445C12.5205 24.8528 12.443 24.3632 12.443 23.77C12.443 23.1764 12.5205 22.6885 12.6684 22.3004C12.8191 21.9098 13.0341 21.6269 13.3067 21.4385Z"
		fill="#838CA6" />
	<path fill-rule="evenodd" clip-rule="evenodd"
		d="M30.4004 27.3993V19.5996C30.4004 19.0473 30.8481 18.5996 31.4004 18.5996H34.7953C35.551 18.5996 36.2122 18.7488 36.7789 19.0471C37.3457 19.3453 37.7865 19.7646 38.1014 20.3049C38.4163 20.8451 38.5737 21.4765 38.5737 22.199C38.5737 22.9282 38.4113 23.5596 38.0865 24.0932C37.765 24.6268 37.3126 25.0378 36.7292 25.3262C36.1492 25.6145 35.4714 25.7587 34.6958 25.7587H33.1646V27.3993C33.1646 28.1626 32.5458 28.7814 31.7825 28.7814C31.0192 28.7814 30.4004 28.1626 30.4004 27.3993ZM34.1385 23.6106C34.4633 23.6106 34.7401 23.5543 34.9688 23.4416C35.2008 23.3256 35.3781 23.1615 35.5007 22.9494C35.6267 22.7373 35.6896 22.487 35.6896 22.1987C35.6896 21.907 35.6267 21.6584 35.5007 21.4529C35.3781 21.2441 35.2008 21.0851 34.9688 20.9757C34.7401 20.863 34.4633 20.8066 34.1385 20.8066H33.1641V23.6106H34.1385Z"
		fill="#838CA6" />
	<path
		d="M26.3994 20.8269H27.7358C28.3508 20.8269 28.8494 20.3283 28.8494 19.7132C28.8494 19.0982 28.3508 18.5996 27.7358 18.5996H21.1136C20.4986 18.5996 20 19.0982 20 19.7132C20 20.3283 20.4986 20.8269 21.1136 20.8269H22.45C22.7883 20.8269 23.0625 21.1011 23.0625 21.4394V27.4192C23.0625 28.1715 23.6724 28.7814 24.4247 28.7814C25.177 28.7814 25.7869 28.1715 25.7869 27.4192V21.4394C25.7869 21.1011 26.0612 20.8269 26.3994 20.8269Z"
		fill="#838CA6" />
</svg>
