<svg width="20" height="40" viewBox="0 0 20 40" fill="none" xmlns="http://www.w3.org/2000/svg">
	<path
		d="M12 36C12 33.7909 13.7909 32 16 32C18.2091 32 20 33.7909 20 36C20 38.2091 18.2091 40 16 40C13.7909 40 12 38.2091 12 36Z"
		fill="white" fill-opacity="0.16" />
	<path
		d="M12 20C12 17.7909 13.7909 16 16 16C18.2091 16 20 17.7909 20 20C20 22.2091 18.2091 24 16 24C13.7909 24 12 22.2091 12 20Z"
		fill="white" fill-opacity="0.16" />
	<path
		d="M12 4C12 1.79086 13.7909 3.31408e-07 16 5.24537e-07C18.2091 7.17666e-07 20 1.79086 20 4C20 6.20914 18.2091 8 16 8C13.7909 8 12 6.20914 12 4Z"
		fill="white" fill-opacity="0.16" />
	<path
		d="M0 36C1.93129e-07 33.7909 1.79086 32 4 32C6.20914 32 8 33.7909 8 36C8 38.2091 6.20914 40 4 40C1.79086 40 -1.93129e-07 38.2091 0 36Z"
		fill="white" fill-opacity="0.16" />
	<path
		d="M2.60673e-06 20C2.79986e-06 17.7909 1.79086 16 4 16C6.20914 16 8 17.7909 8 20C8 22.2091 6.20914 24 4 24C1.79086 24 2.4136e-06 22.2091 2.60673e-06 20Z"
		fill="white" fill-opacity="0.16" />
	<path
		d="M3.30611e-06 4C3.49924e-06 1.79086 1.79086 -1.93129e-07 4 0C6.20914 1.9313e-07 8 1.79086 8 4C8 6.20914 6.20914 8 4 8C1.79086 8 3.11298e-06 6.20914 3.30611e-06 4Z"
		fill="white" fill-opacity="0.16" />
</svg>
