<svg width="78" height="78" viewBox="0 0 78 78" fill="none" xmlns="http://www.w3.org/2000/svg">
	<path
		d="M60.8665 48.3184C59.047 48.3184 57.365 47.7299 55.9907 46.738V51.0431C55.9907 53.7768 53.7738 55.9936 51.0401 55.9936H26.9598C24.2262 55.9936 22.0093 53.7768 22.0093 51.0431V26.9598C22.0093 24.2262 24.2262 22.0093 26.9598 22.0093H31.2501C30.2313 20.6231 29.6218 18.9201 29.6218 17.0708C29.6218 15.2215 30.2343 13.4976 31.265 12.1113H22.0123C16.542 12.1113 12.1113 16.542 12.1113 22.0093V55.9907C12.1113 61.458 16.542 65.8887 22.0093 65.8887H55.9907C61.458 65.8887 65.8887 61.458 65.8887 55.9907V46.6304C64.4905 47.688 62.7517 48.3184 60.8665 48.3184Z"
		fill="white" />
	<path
		d="M64.828 38.9107C64.828 24.6537 53.23 13.0527 38.97 13.0527H37.9811C35.7942 13.0527 34.0195 14.8274 34.0195 17.0143C34.0195 19.2013 35.7942 20.9759 37.9811 20.9759H38.97C48.8591 20.9759 56.9048 29.0216 56.9048 38.9107V39.8996C56.9048 42.0865 58.6794 43.8612 60.8664 43.8612C63.0533 43.8612 64.828 42.0865 64.828 39.8996V38.9226C64.828 38.9226 64.828 38.9166 64.828 38.9107Z"
		fill="white" />
	<path
		d="M38.97 43.86C41.7041 43.86 43.9205 41.6436 43.9205 38.9095C43.9205 36.1754 41.7041 33.959 38.97 33.959C36.2359 33.959 34.0195 36.1754 34.0195 38.9095C34.0195 41.6436 36.2359 43.86 38.97 43.86Z"
		fill="white" />
	<path
		d="M38.97 23.8105H37.9811C35.7942 23.8105 34.0195 25.5852 34.0195 27.7721C34.0195 29.9591 35.7942 31.7337 37.9811 31.7337H38.97C42.9286 31.7337 46.1493 34.9544 46.1493 38.913V39.9019C46.1493 42.0889 47.924 43.8635 50.1109 43.8635C52.2979 43.8635 54.0725 42.0889 54.0725 39.9019V38.913C54.0725 30.5865 47.2966 23.8105 38.97 23.8105Z"
		fill="white" />
</svg>
