<svg width="96" height="96" viewBox="0 0 96 96" fill="none" xmlns="http://www.w3.org/2000/svg">
	<circle cx="48" cy="48" r="46.4" fill="#E9EAF0" stroke="#D3D6E1" stroke-width="3.2"/>
	<path d="M47.9958 21.7344C41.5893 21.7344 36.3958 26.9279 36.3958 33.3344C36.3958 39.7409 41.5893 44.9344 47.9958 44.9344C54.4023 44.9344 59.5958 39.7409 59.5958 33.3344C59.5958 26.9279 54.4023 21.7344 47.9958 21.7344Z" fill="#838CA6"/>
	<path d="M47.9964 48.401C42.5206 48.401 37.4516 49.6648 33.6727 51.8241C29.9581 53.9468 27.0631 57.2246 27.0631 61.3344L27.0628 61.6198C27.0587 64.3395 27.0532 68.0047 30.2182 70.6231C31.7762 71.912 33.9234 72.802 36.7482 73.3829C39.5819 73.9656 43.2505 74.2677 47.9964 74.2677C52.7423 74.2677 56.411 73.9656 59.2447 73.3829C62.0694 72.802 64.2166 71.912 65.7746 70.6231C68.9396 68.0047 68.9341 64.3395 68.93 61.6198L68.9298 61.3344C68.9298 57.2246 66.0347 53.9468 62.3201 51.8241C58.5413 49.6648 53.4722 48.401 47.9964 48.401Z" fill="#838CA6"/>
</svg>
