<svg width="96" height="96" viewBox="0 0 96 96" fill="none" xmlns="http://www.w3.org/2000/svg">
	<circle cx="48" cy="48" r="46" fill="#5D80ED" fill-opacity="0.16" stroke="#5D80ED"
		stroke-width="4" />
	<path opacity="0.32"
		d="M29.3344 27.0684C25.137 27.0684 21.7344 30.471 21.7344 34.6684V53.335C21.7344 57.5324 25.137 60.935 29.3344 60.935H66.6677C70.8651 60.935 74.2677 57.5324 74.2677 53.335V34.6684C74.2677 30.471 70.8651 27.0684 66.6677 27.0684H29.3344Z"
		fill="#5D80ED" />
	<path fill-rule="evenodd" clip-rule="evenodd"
		d="M58.9347 50.9358C59.8199 50.0507 59.82 48.6155 58.9348 47.7303L49.6025 38.3969C49.1774 37.9718 48.6009 37.733 47.9998 37.7329C47.3986 37.7329 46.8221 37.9717 46.397 38.3967L37.0626 47.7301C36.1774 48.6152 36.1773 50.0504 37.0624 50.9356C37.9476 51.8209 39.3828 51.8209 40.268 50.9358L45.733 45.4714L45.733 69.3329C45.733 70.5848 46.7478 71.5996 47.9996 71.5996C49.2515 71.5996 50.2663 70.5848 50.2663 69.3329L50.2663 45.4722L55.7291 50.9356C56.6142 51.8209 58.0494 51.8209 58.9347 50.9358Z"
		fill="#5D80ED" />
</svg>
