<svg width="96" height="96" viewBox="0 0 96 96" fill="none" xmlns="http://www.w3.org/2000/svg">
	<circle cx="48" cy="48" r="46.4" fill="#3AC9CC" fill-opacity="0.16" stroke="#3AC9CC"
		stroke-width="3.2" />
	<path opacity="0.32"
		d="M29.0487 22C24.7875 22 21.333 24.9472 21.333 28.5827V44.7507C21.333 48.3862 24.7875 51.3333 29.0487 51.3333H66.9506C71.2119 51.3333 74.6663 48.3862 74.6663 44.7507V28.5827C74.6663 24.9472 71.2119 22 66.9506 22H29.0487Z"
		fill="#3AC9CC" />
	<path fill-rule="evenodd" clip-rule="evenodd"
		d="M58.9347 56.3982C59.8199 57.2833 59.82 58.7185 58.9348 59.6037L49.6025 68.9371C49.1774 69.3622 48.6009 69.601 47.9998 69.601C47.3986 69.6011 46.8221 69.3623 46.397 68.9372L37.0626 59.6039C36.1774 58.7188 36.1773 57.2836 37.0624 56.3984C37.9476 55.5131 39.3828 55.513 40.268 56.3982L45.733 61.8626L45.733 38.001C45.733 36.7492 46.7478 35.7344 47.9996 35.7344C49.2515 35.7344 50.2663 36.7492 50.2663 38.001L50.2663 61.8617L55.7291 56.3984C56.6142 55.5131 58.0494 55.513 58.9347 56.3982Z"
		fill="#3AC9CC" />
</svg>
