<svg width="80" height="80" viewBox="0 0 80 80" fill="none" xmlns="http://www.w3.org/2000/svg">
	<circle cx="40" cy="39.998" r="39" fill="white" stroke="#E9EAF0" stroke-width="2" />
	<path fill-rule="evenodd" clip-rule="evenodd"
		d="M27.7997 49.7958C27.1358 50.4597 27.1358 51.536 27.7997 52.1999C28.4636 52.8638 29.5399 52.8638 30.2038 52.1999L40.0018 42.402L49.7997 52.1999C50.4636 52.8638 51.5399 52.8638 52.2038 52.1999C52.8677 51.536 52.8677 50.4597 52.2038 49.7958L42.4059 39.9979L52.2038 30.1999C52.8677 29.536 52.8677 28.4597 52.2038 27.7958C51.5399 27.1319 50.4636 27.1319 49.7997 27.7958L40.0018 37.5937L30.2038 27.7958C29.5399 27.1319 28.4636 27.1319 27.7997 27.7958C27.1358 28.4597 27.1358 29.536 27.7997 30.1999L37.5976 39.9979L27.7997 49.7958Z"
		fill="#E34521" />
</svg>
