<svg width="96" height="96" viewBox="0 0 96 96" fill="none" xmlns="http://www.w3.org/2000/svg">
	<circle cx="48" cy="48" r="48" fill="#E9EAF0" />
	<path
		d="M47.9984 21.7344C41.5919 21.7344 36.3984 26.9279 36.3984 33.3344C36.3984 39.7409 41.5919 44.9344 47.9984 44.9344C54.4049 44.9344 59.5984 39.7409 59.5984 33.3344C59.5984 26.9279 54.4049 21.7344 47.9984 21.7344Z"
		fill="#838CA6" />
	<path opacity="0.32"
		d="M47.9993 48.4004C42.5236 48.4004 37.4545 49.6641 33.6757 51.8235C29.9611 53.9462 27.066 57.224 27.066 61.3337L27.0657 61.6191C27.0616 64.3388 27.0561 68.004 30.2212 70.6224C31.7792 71.9114 33.9263 72.8014 36.7511 73.3823C39.5848 73.965 43.2535 74.2671 47.9993 74.2671C52.7452 74.2671 56.4139 73.965 59.2476 73.3823C62.0724 72.8014 64.2195 71.9114 65.7775 70.6224C68.9426 68.004 68.9371 64.3388 68.933 61.6191L68.9327 61.3337C68.9327 57.224 66.0376 53.9462 62.323 51.8235C58.5442 49.6641 53.4751 48.4004 47.9993 48.4004Z"
		fill="#838CA6" />
</svg>
