<svg width="48" height="48" viewBox="0 0 48 48" fill="none" xmlns="http://www.w3.org/2000/svg">
	<path fill-rule="evenodd" clip-rule="evenodd"
		d="M4.30078 11.9998C4.30078 8.85178 6.85276 6.2998 10.0008 6.2998H38.0008C41.1488 6.2998 43.7008 8.85178 43.7008 11.9998V21.9998C43.7008 25.1478 41.1488 27.6998 38.0008 27.6998H32.0008C31.0619 27.6998 30.3008 26.9387 30.3008 25.9998C30.3008 25.0609 31.0619 24.2998 32.0008 24.2998H38.0008C39.271 24.2998 40.3008 23.2701 40.3008 21.9998V11.9998C40.3008 10.7295 39.271 9.6998 38.0008 9.6998H10.0008C8.73053 9.6998 7.70078 10.7295 7.70078 11.9998V21.9998C7.70078 23.2701 8.73053 24.2998 10.0008 24.2998H16.0008C16.9397 24.2998 17.7008 25.0609 17.7008 25.9998C17.7008 26.9387 16.9397 27.6998 16.0008 27.6998H10.0008C6.85276 27.6998 4.30078 25.1478 4.30078 21.9998V11.9998Z"
		fill="#EBEBEB" />
	<path fill-rule="evenodd" clip-rule="evenodd"
		d="M32.2028 31.7977C32.8667 32.4615 32.8668 33.5379 32.2029 34.2018L25.2037 41.2018C24.8849 41.5206 24.4525 41.6998 24.0016 41.6998C23.5508 41.6998 23.1184 41.5207 22.7995 41.202L15.7988 34.202C15.1348 33.5381 15.1348 32.4617 15.7986 31.7978C16.4625 31.1339 17.5389 31.1338 18.2028 31.7977L22.3015 35.896V17.9998C22.3015 17.0609 23.0627 16.2998 24.0015 16.2998C24.9404 16.2998 25.7015 17.0609 25.7015 17.9998V35.8953L29.7986 31.7978C30.4625 31.1339 31.5389 31.1338 32.2028 31.7977Z"
		fill="#EBEBEB" />
</svg>
