<svg width="64" height="64" viewBox="0 0 64 64" fill="none" xmlns="http://www.w3.org/2000/svg">
	<path id="vector"
		d="M31.9984 5.73438C25.5919 5.73438 20.3984 10.9279 20.3984 17.3344C20.3984 23.7409 25.5919 28.9344 31.9984 28.9344C38.4049 28.9344 43.5984 23.7409 43.5984 17.3344C43.5984 10.9279 38.4049 5.73438 31.9984 5.73438Z"
		fill="white" />
	<path id="vector_2" opacity="0.24"
		d="M31.999 32.4004C26.5232 32.4004 21.4542 33.6641 17.6753 35.8235C13.9607 37.9462 11.0657 41.224 11.0657 45.3337L11.0654 45.6191C11.0613 48.3388 11.0558 52.004 14.2208 54.6224C15.7788 55.9114 17.926 56.8014 20.7508 57.3823C23.5845 57.965 27.2531 58.2671 31.999 58.2671C36.7449 58.2671 40.4136 57.965 43.2473 57.3823C46.072 56.8014 48.2192 55.9114 49.7772 54.6224C52.9422 52.004 52.9367 48.3388 52.9327 45.6191L52.9324 45.3337C52.9324 41.224 50.0373 37.9462 46.3227 35.8235C42.5439 33.6641 37.4748 32.4004 31.999 32.4004Z"
		fill="white" />
</svg>
