<svg width="54" height="54" viewBox="0 0 54 54" fill="none" xmlns="http://www.w3.org/2000/svg">
<rect width="54" height="54" rx="15" fill="white" fill-opacity="0.5"/>
<path d="M28.6875 11.8125H25.3125V28.6875H28.6875V11.8125ZM36.8381 15.4744L34.4419 17.8706C37.1081 20.0138 38.8125 23.3044 38.8125 27C38.8125 33.5306 33.5306 38.8125 27 38.8125C20.4694 38.8125 15.1875 33.5306 15.1875 27C15.1875 23.3044 16.8919 20.0138 19.5412 17.8537L17.1619 15.4744C13.8881 18.2587 11.8125 22.3763 11.8125 27C11.8125 35.3869 18.6131 42.1875 27 42.1875C35.3869 42.1875 42.1875 35.3869 42.1875 27C42.1875 22.3763 40.1119 18.2587 36.8381 15.4744Z" fill="white"/>
</svg>
