<svg width="96" height="96" viewBox="0 0 96 96" fill="none" xmlns="http://www.w3.org/2000/svg">
	<circle cx="48" cy="48" r="46" fill="#5D80ED" fill-opacity="0.16" stroke="#5D80ED" stroke-width="4"/>
	<path d="M29.3356 27.8003C24.6228 27.8003 20.8022 31.6208 20.8022 36.3337V57.1337C20.8022 61.8465 24.6227 65.667 29.3356 65.667H36.4073C38.1746 65.667 39.6073 64.2343 39.6073 62.467C39.6073 60.6997 38.1746 59.267 36.4073 59.267H29.3356C28.1574 59.267 27.2022 58.3119 27.2022 57.1337V36.3337C27.2022 35.1555 28.1574 34.2003 29.3356 34.2003H66.6689C67.8471 34.2003 68.8022 35.1555 68.8022 36.3337V57.1337C68.8022 58.3119 67.8471 59.267 66.6689 59.267H59.5992C57.8319 59.267 56.3992 60.6997 56.3992 62.467C56.3992 64.2343 57.8319 65.667 59.5992 65.667H66.6689C71.3818 65.667 75.2023 61.8465 75.2023 57.1337V36.3337C75.2023 31.6208 71.3818 27.8003 66.6689 27.8003H29.3356Z" fill="#5D80ED"/>
	<path d="M59.5995 50.071C60.8491 51.3208 60.849 53.3469 59.5992 54.5965C58.3495 55.8461 56.3234 55.846 55.0738 54.5963L51.2043 50.7264V72.3337C51.2043 74.101 49.7716 75.5337 48.0043 75.5337C46.237 75.5337 44.8043 74.101 44.8043 72.3337V50.7252L40.9326 54.5965C39.6828 55.8461 37.6567 55.846 36.4071 54.5963C35.1575 53.3465 35.1576 51.3204 36.4073 50.0708L45.7417 40.7375C46.3418 40.1374 47.1558 39.8003 48.0045 39.8003C48.8532 39.8004 49.6671 40.1376 50.2672 40.7377L59.5995 50.071Z" fill="#5D80ED"/>
</svg>
