<svg width="161" height="160" viewBox="0 0 161 160" fill="none" xmlns="http://www.w3.org/2000/svg">
<path d="M33.832 22.0013C22.05 22.0013 12.4987 31.5526 12.4987 43.3346V95.3346C12.4987 107.117 22.05 116.668 33.832 116.668H51.5114C55.9297 116.668 59.5114 113.086 59.5114 108.668C59.5114 104.25 55.9297 100.668 51.5114 100.668H33.832C30.8865 100.668 28.4987 98.2802 28.4987 95.3346V43.3346C28.4987 40.3891 30.8865 38.0013 33.832 38.0013H127.165C130.111 38.0013 132.499 40.3891 132.499 43.3346V95.3346C132.499 98.2802 130.111 100.668 127.165 100.668H109.491C105.073 100.668 101.491 104.25 101.491 108.668C101.491 113.086 105.073 116.668 109.491 116.668H127.165C138.947 116.668 148.499 107.117 148.499 95.3346V43.3346C148.499 31.5526 138.947 22.0013 127.165 22.0013H33.832Z" fill="white"/>
<path d="M109.492 77.6781C112.616 80.8025 112.616 85.8678 109.491 88.9918C106.367 92.1158 101.301 92.1155 98.1775 88.9912L88.5038 79.3165V133.335C88.5038 137.753 84.9221 141.335 80.5038 141.335C76.0856 141.335 72.5038 137.753 72.5038 133.335V79.3135L62.8245 88.9918C59.7002 92.1158 54.6348 92.1155 51.5108 88.9912C48.3868 85.8668 48.3871 80.8015 51.5114 77.6775L74.8473 54.3441C76.3477 52.8439 78.3825 52.0012 80.5043 52.0013C82.626 52.0014 84.6608 52.8444 86.161 54.3448L109.492 77.6781Z" fill="white"/>
</svg>
