<svg width="416" height="416" viewBox="0 0 416 416" fill="none" xmlns="http://www.w3.org/2000/svg">
	<path fill-rule="evenodd" clip-rule="evenodd"
		d="M0 57.6667C0 25.8182 25.8182 0 57.6667 0H91C97.6274 0 103 5.37258 103 12C103 18.6274 97.6274 24 91 24H57.6667C39.0731 24 24 39.0731 24 57.6667V90C24 96.6274 18.6274 102 12 102C5.37258 102 0 96.6274 0 90V57.6667Z"
		fill="#DB0025" />
	<path fill-rule="evenodd" clip-rule="evenodd"
		d="M0 358.333C0 390.182 25.8182 416 57.6667 416H91C97.6274 416 103 410.627 103 404C103 397.373 97.6274 392 91 392H57.6667C39.0731 392 24 376.927 24 358.333V325C24 318.373 18.6274 313 12 313C5.37258 313 0 318.373 0 325V358.333Z"
		fill="#3AC9CC" />
	<path fill-rule="evenodd" clip-rule="evenodd"
		d="M416 57.6667C416 25.8182 390.182 0 358.333 0H325C318.373 0 313 5.37258 313 12C313 18.6274 318.373 24 325 24H358.333C376.927 24 392 39.0731 392 57.6667V90C392 96.6274 397.373 102 404 102C410.627 102 416 96.6274 416 90V57.6667Z"
		fill="#3C5AAA" />
	<path fill-rule="evenodd" clip-rule="evenodd"
		d="M416 358.333C416 390.182 390.182 416 358.333 416H325C318.373 416 313 410.627 313 404C313 397.373 318.373 392 325 392H358.333C376.927 392 392 376.927 392 358.333V325C392 318.373 397.373 313 404 313C410.627 313 416 318.373 416 325V358.333Z"
		fill="#FED141" />
</svg>
