<svg width="64" height="64" viewBox="0 0 64 64" fill="none" xmlns="http://www.w3.org/2000/svg">
	<path fill-rule="evenodd" clip-rule="evenodd"
		d="M13.3334 5.73315C9.13603 5.73315 5.7334 9.13579 5.7334 13.3332V21.3332C5.7334 22.585 6.74822 23.5998 8.00006 23.5998C9.25191 23.5998 10.2667 22.585 10.2667 21.3332V13.3332C10.2667 11.6395 11.6397 10.2665 13.3334 10.2665H21.3334C22.5852 10.2665 23.6001 9.25167 23.6001 7.99982C23.6001 6.74798 22.5852 5.73315 21.3334 5.73315H13.3334ZM13.3334 58.2665C9.13603 58.2665 5.7334 54.8639 5.7334 50.6665V42.6665C5.7334 41.4146 6.74822 40.3998 8.00006 40.3998C9.25191 40.3998 10.2667 41.4146 10.2667 42.6665V50.6665C10.2667 52.3602 11.6397 53.7332 13.3334 53.7332H21.3334C22.5852 53.7332 23.6001 54.748 23.6001 55.9998C23.6001 57.2517 22.5852 58.2665 21.3334 58.2665H13.3334ZM58.2667 13.3332C58.2667 9.13579 54.8641 5.73315 50.6667 5.73315H42.6667C41.4149 5.73315 40.4001 6.74798 40.4001 7.99982C40.4001 9.25167 41.4149 10.2665 42.6667 10.2665H50.6667C52.3604 10.2665 53.7334 11.6395 53.7334 13.3332V21.3332C53.7334 22.585 54.7482 23.5998 56.0001 23.5998C57.2519 23.5998 58.2667 22.585 58.2667 21.3332V13.3332ZM50.6667 58.2665C54.8641 58.2665 58.2667 54.8639 58.2667 50.6665V42.6665C58.2667 41.4146 57.2519 40.3998 56.0001 40.3998C54.7482 40.3998 53.7334 41.4146 53.7334 42.6665V50.6665C53.7334 52.3602 52.3604 53.7332 50.6667 53.7332H42.6667C41.4149 53.7332 40.4001 54.748 40.4001 55.9998C40.4001 57.2517 41.4149 58.2665 42.6667 58.2665H50.6667ZM16.6667 13.9998C15.194 13.9998 14.0001 15.1937 14.0001 16.6665V25.9998C14.0001 27.4726 15.194 28.6665 16.6667 28.6665H26.0001C27.4728 28.6665 28.6667 27.4726 28.6667 25.9998V16.6665C28.6667 15.1937 27.4728 13.9998 26.0001 13.9998H16.6667ZM19.489 45.1776C18.7526 45.1776 18.1556 44.5806 18.1556 43.8443V40.1554C18.1556 39.419 18.7526 38.822 19.489 38.822H23.1778C23.9142 38.822 24.5112 39.419 24.5112 40.1554V43.8443C24.5112 44.5806 23.9142 45.1776 23.1778 45.1776H19.489ZM14.0001 37.3332C14.0001 35.8604 15.194 34.6665 16.6667 34.6665H26.0001C27.4728 34.6665 28.6667 35.8604 28.6667 37.3332V46.6665C28.6667 48.1392 27.4728 49.3332 26.0001 49.3332H16.6667C15.194 49.3332 14.0001 48.1392 14.0001 46.6665V37.3332ZM45.1778 19.4887C45.1778 18.7523 44.5809 18.1554 43.8445 18.1554H40.1556C39.4192 18.1554 38.8223 18.7523 38.8223 19.4887V23.1776C38.8223 23.914 39.4192 24.5109 40.1556 24.5109H43.8445C44.5809 24.5109 45.1778 23.914 45.1778 23.1776V19.4887ZM37.3334 13.9998C35.8606 13.9998 34.6667 15.1937 34.6667 16.6665V25.9998C34.6667 27.4726 35.8606 28.6665 37.3334 28.6665H46.6667C48.1395 28.6665 49.3334 27.4726 49.3334 25.9998V16.6665C49.3334 15.1937 48.1395 13.9998 46.6667 13.9998H37.3334ZM34.6667 35.9998C34.6667 35.2634 35.2637 34.6665 36.0001 34.6665H41.3334C42.0698 34.6665 42.6667 35.2634 42.6667 35.9998V39.9998C42.6667 40.7362 43.2637 41.3332 44.0001 41.3332H48.0001C48.7364 41.3332 49.3334 41.9301 49.3334 42.6665V47.9998C49.3334 48.7362 48.7364 49.3332 48.0001 49.3332H42.6667C41.9304 49.3332 41.3334 48.7362 41.3334 47.9998V43.9998C41.3334 43.2634 40.7364 42.6665 40.0001 42.6665H36.0001C35.2637 42.6665 34.6667 42.0695 34.6667 41.3332V35.9998ZM24.5112 19.4887C24.5112 18.7523 23.9142 18.1554 23.1778 18.1554H19.489C18.7526 18.1554 18.1556 18.7523 18.1556 19.4887V23.1776C18.1556 23.914 18.7526 24.5109 19.489 24.5109H23.1778C23.9142 24.5109 24.5112 23.914 24.5112 23.1776V19.4887Z"
		fill="white" />
</svg>
