<svg width="584" height="584" viewBox="0 0 584 584" fill="none" xmlns="http://www.w3.org/2000/svg">
	<path fill-rule="evenodd" clip-rule="evenodd"
		d="M0 57.6667C0 25.8182 25.8182 0 57.6667 0H91C97.6274 0 103 5.37258 103 12C103 18.6274 97.6274 24 91 24H57.6667C39.0731 24 24 39.0731 24 57.6667V90C24 96.6274 18.6274 102 12 102C5.37258 102 0 96.6274 0 90V57.6667Z"
		fill="#DB0025" />
	<path fill-rule="evenodd" clip-rule="evenodd"
		d="M0 526.333C0 558.182 25.8182 584 57.6667 584H91C97.6274 584 103 578.627 103 572C103 565.373 97.6274 560 91 560H57.6667C39.0731 560 24 544.927 24 526.333V493C24 486.373 18.6274 481 12 481C5.37258 481 0 486.373 0 493V526.333Z"
		fill="#3AC9CC" />
	<path fill-rule="evenodd" clip-rule="evenodd"
		d="M584 57.6667C584 25.8182 558.182 0 526.333 0H493C486.373 0 481 5.37258 481 12C481 18.6274 486.373 24 493 24H526.333C544.927 24 560 39.0731 560 57.6667V90C560 96.6274 565.373 102 572 102C578.627 102 584 96.6274 584 90V57.6667Z"
		fill="#3C5AAA" />
	<path fill-rule="evenodd" clip-rule="evenodd"
		d="M584 526.333C584 558.182 558.182 584 526.333 584H493C486.373 584 481 578.627 481 572C481 565.373 486.373 560 493 560H526.333C544.927 560 560 544.927 560 526.333V493C560 486.373 565.373 481 572 481C578.627 481 584 486.373 584 493V526.333Z"
		fill="#FED141" />
</svg>
