<svg width="32" height="32" viewBox="0 0 32 32" fill="none" xmlns="http://www.w3.org/2000/svg">
<path d="M17.1667 23H29C29.5523 23 30 22.5523 30 22V7C30 6.44772 29.5523 6 29 6H9C8.44772 6 8 6.44772 8 7V15.4444" stroke="white" stroke-width="2"/>
<path d="M26.5267 19.3151L26.5267 17.3233C21.577 17.3233 17.5635 13.3097 17.5635 8.36006L15.5717 8.36006C15.5717 14.4052 20.4765 19.3101 26.5267 19.3151ZM26.5267 11.3478L26.5267 8.36006L23.539 8.36006C23.534 10.0083 24.8735 11.3478 26.5267 11.3478ZM26.5267 15.3314L26.5267 13.3396C23.778 13.3396 21.5472 11.1088 21.5472 8.36006L19.5553 8.36006C19.5553 12.2043 22.6775 15.3265 26.5267 15.3314Z" fill="white"/>
<path d="M4.33333 18.125H14.8333V17H4.33333C3.69167 17 3.16667 17.5062 3.16667 18.125V24.3125H2V26H10.1667V24.3125H4.33333V18.125ZM15.4167 19.25H11.9167C11.5958 19.25 11.3333 19.5031 11.3333 19.8125V25.4375C11.3333 25.7469 11.5958 26 11.9167 26H15.4167C15.7375 26 16 25.7469 16 25.4375V19.8125C16 19.5031 15.7375 19.25 15.4167 19.25ZM14.8333 24.3125H12.5V20.375H14.8333V24.3125Z" fill="white"/>
</svg>
