<svg width="80" height="80" viewBox="0 0 80 80" fill="none" xmlns="http://www.w3.org/2000/svg">

	<g filter="url(#filter0_d_12500_148148)" transform="translate(-8, -4)">
		<mask id="path-1-inside-1_12500_148148" fill="white">
			<path d="M8 44C8 21.9086 25.9086 4 48 4C70.0914 4 88 21.9086 88 44C88 66.0914 70.0914 84 48 84C25.9086 84 8 66.0914 8 44Z"/>
		</mask>
		<path d="M8 44C8 21.9086 25.9086 4 48 4C70.0914 4 88 21.9086 88 44C88 66.0914 70.0914 84 48 84C25.9086 84 8 66.0914 8 44Z"
			  fill="white" shape-rendering="crispEdges"/>
		<path d="M48 82C27.0132 82 10 64.9868 10 44H6C6 67.196 24.804 86 48 86V82ZM86 44C86 64.9868 68.9868 82 48 82V86C71.196 86 90 67.196 90 44H86ZM48 6C68.9868 6 86 23.0132 86 44H90C90 20.804 71.196 2 48 2V6ZM48 2C24.804 2 6 20.804 6 44H10C10 23.0132 27.0132 6 48 6V2Z"
			  fill="#E9EAF0" mask="url(#path-1-inside-1_12500_148148)"/>
		<path fill-rule="evenodd" clip-rule="evenodd"
			  d="M36.847 35.2503L32.7987 31.2021C32.1348 30.5382 32.1348 29.4618 32.7987 28.7979C33.4626 28.134 34.539 28.134 35.2029 28.7979L63.2029 56.7979C63.8668 57.4618 63.8668 58.5382 63.2029 59.2021C62.539 59.866 61.4626 59.866 60.7987 59.2021L58.6996 57.103V59.9998C58.6996 60.6693 58.3067 61.2764 57.696 61.5506C57.0853 61.8249 56.3705 61.7152 55.8702 61.2704L48.0069 54.2808C47.5858 53.9066 47.0421 53.6998 46.4788 53.6998H39.9996C36.8516 53.6998 34.2996 51.1479 34.2996 47.9998V39.9998C34.2996 38.0175 35.3115 36.2716 36.847 35.2503ZM55.2996 53.703V56.2142L50.2657 51.7396C49.2223 50.8121 47.8748 50.2998 46.4788 50.2998H39.9996C38.7294 50.2998 37.6996 49.2701 37.6996 47.9998V39.9998C37.6996 38.944 38.411 38.0543 39.3807 37.7841L55.2996 53.703Z"
			  fill="#2A2A2A"/>
		<path d="M55.2996 31.7855V43.6L58.6996 47V27.9998C58.6996 27.3304 58.3067 26.7233 57.696 26.449C57.0853 26.1748 56.3705 26.2845 55.8702 26.7292L48.0068 33.7189C47.5858 34.0931 47.0421 34.2998 46.4788 34.2998H44.7058L47.9205 37.5145C48.7837 37.2888 49.5887 36.8618 50.2657 36.2601L55.2996 31.7855Z"
			  fill="#2A2A2A"/>
	</g>
</svg>
