<svg width="124" height="124" viewBox="0 0 124 124" fill="none" xmlns="http://www.w3.org/2000/svg">
	<circle cx="62" cy="62.0001" r="62" fill="#3C455D" />
	<path fill-rule="evenodd" clip-rule="evenodd"
		d="M43.3334 35.7332C39.136 35.7332 35.7334 39.1358 35.7334 43.3332V51.3332C35.7334 52.585 36.7482 53.5998 38.0001 53.5998C39.2519 53.5998 40.2667 52.585 40.2667 51.3332V43.3332C40.2667 41.6395 41.6397 40.2665 43.3334 40.2665H51.3334C52.5852 40.2665 53.6001 39.2517 53.6001 37.9998C53.6001 36.748 52.5852 35.7332 51.3334 35.7332H43.3334ZM43.3334 88.2665C39.136 88.2665 35.7334 84.8639 35.7334 80.6665V72.6665C35.7334 71.4146 36.7482 70.3998 38.0001 70.3998C39.2519 70.3998 40.2667 71.4146 40.2667 72.6665V80.6665C40.2667 82.3602 41.6397 83.7332 43.3334 83.7332H51.3334C52.5852 83.7332 53.6001 84.748 53.6001 85.9998C53.6001 87.2517 52.5852 88.2665 51.3334 88.2665H43.3334ZM88.2667 43.3332C88.2667 39.1358 84.8641 35.7332 80.6667 35.7332H72.6667C71.4149 35.7332 70.4001 36.748 70.4001 37.9998C70.4001 39.2517 71.4149 40.2665 72.6667 40.2665H80.6667C82.3604 40.2665 83.7334 41.6395 83.7334 43.3332V51.3332C83.7334 52.585 84.7482 53.5998 86.0001 53.5998C87.2519 53.5998 88.2667 52.585 88.2667 51.3332V43.3332ZM80.6667 88.2665C84.8641 88.2665 88.2667 84.8639 88.2667 80.6665V72.6665C88.2667 71.4146 87.2519 70.3998 86.0001 70.3998C84.7482 70.3998 83.7334 71.4146 83.7334 72.6665V80.6665C83.7334 82.3602 82.3604 83.7332 80.6667 83.7332H72.6667C71.4149 83.7332 70.4001 84.748 70.4001 85.9998C70.4001 87.2517 71.4149 88.2665 72.6667 88.2665H80.6667ZM46.6667 43.9998C45.194 43.9998 44.0001 45.1937 44.0001 46.6665V55.9998C44.0001 57.4726 45.194 58.6665 46.6667 58.6665H56.0001C57.4728 58.6665 58.6667 57.4726 58.6667 55.9998V46.6665C58.6667 45.1937 57.4728 43.9998 56.0001 43.9998H46.6667ZM49.489 75.1776C48.7526 75.1776 48.1556 74.5806 48.1556 73.8443V70.1554C48.1556 69.419 48.7526 68.822 49.489 68.822H53.1778C53.9142 68.822 54.5112 69.419 54.5112 70.1554V73.8443C54.5112 74.5806 53.9142 75.1776 53.1778 75.1776H49.489ZM44.0001 67.3332C44.0001 65.8604 45.194 64.6665 46.6667 64.6665H56.0001C57.4728 64.6665 58.6667 65.8604 58.6667 67.3332V76.6665C58.6667 78.1392 57.4728 79.3332 56.0001 79.3332H46.6667C45.194 79.3332 44.0001 78.1392 44.0001 76.6665V67.3332ZM75.1778 49.4887C75.1778 48.7523 74.5809 48.1554 73.8445 48.1554H70.1556C69.4192 48.1554 68.8223 48.7523 68.8223 49.4887V53.1776C68.8223 53.914 69.4192 54.5109 70.1556 54.5109H73.8445C74.5809 54.5109 75.1778 53.914 75.1778 53.1776V49.4887ZM67.3334 43.9998C65.8606 43.9998 64.6667 45.1937 64.6667 46.6665V55.9998C64.6667 57.4726 65.8606 58.6665 67.3334 58.6665H76.6667C78.1395 58.6665 79.3334 57.4726 79.3334 55.9998V46.6665C79.3334 45.1937 78.1395 43.9998 76.6667 43.9998H67.3334ZM64.6667 65.9998C64.6667 65.2634 65.2637 64.6665 66.0001 64.6665H71.3334C72.0698 64.6665 72.6667 65.2634 72.6667 65.9998V69.9998C72.6667 70.7362 73.2637 71.3332 74.0001 71.3332H78.0001C78.7364 71.3332 79.3334 71.9301 79.3334 72.6665V77.9998C79.3334 78.7362 78.7364 79.3332 78.0001 79.3332H72.6667C71.9304 79.3332 71.3334 78.7362 71.3334 77.9998V73.9998C71.3334 73.2634 70.7364 72.6665 70.0001 72.6665H66.0001C65.2637 72.6665 64.6667 72.0695 64.6667 71.3332V65.9998ZM54.5112 49.4887C54.5112 48.7523 53.9142 48.1554 53.1778 48.1554H49.489C48.7526 48.1554 48.1556 48.7523 48.1556 49.4887V53.1776C48.1556 53.914 48.7526 54.5109 49.489 54.5109H53.1778C53.9142 54.5109 54.5112 53.914 54.5112 53.1776V49.4887Z"
		fill="white" />
</svg>
