<svg width="276" height="241" viewBox="0 0 276 241" fill="none" xmlns="http://www.w3.org/2000/svg">
	<path fill-rule="evenodd" clip-rule="evenodd" d="M224.302 174.349C267.211 173.625 267.211 161.815 267.211 147.356C267.211 132.431 246.076 120.328 220.008 120.328C211.765 120.328 204.015 121.538 197.271 123.665C197.486 123.786 197.701 123.908 197.914 124.03C213.486 132.947 224.642 146.148 224.642 161.977C224.642 162.245 224.642 162.514 224.642 162.784L224.642 162.855C224.644 166.554 224.647 170.442 224.302 174.349ZM114.674 117.323C121.865 116.13 129.467 115.49 137.329 115.49C157.376 115.49 175.729 119.648 189.899 126.54C189.953 126.515 190.008 126.489 190.062 126.463C207.655 134.998 218.824 147.742 218.824 161.977C218.824 166.272 218.824 170.431 218.444 174.38C218.366 174.38 218.287 174.379 218.209 174.379C216.807 189.062 210.179 200.842 178.829 205.885C168.169 207.582 154.668 208.504 137.567 208.504C56.3111 208.504 56.3111 187.671 56.3111 161.977C56.3111 140.836 80.9453 122.984 114.674 117.323ZM77.999 123.59C71.3112 121.51 63.6475 120.328 55.5022 120.328C29.4341 120.328 8.29883 132.431 8.29883 147.356C8.29883 161.773 8.29883 173.555 50.8325 174.343C50.488 170.438 50.4903 166.552 50.4925 162.855C50.4927 162.561 50.4929 162.269 50.4929 161.977C50.4929 146.148 61.6487 132.947 77.2205 124.03C77.4785 123.882 77.738 123.736 77.999 123.59ZM130.738 26.5533C132.881 26.1894 135.083 26 137.329 26C158.96 26 176.496 43.5712 176.496 65.2463C176.496 84.6597 162.429 100.781 143.951 103.934C141.874 104.275 139.741 104.453 137.567 104.453C115.936 104.453 98.4 86.8812 98.4 65.2057C98.4 45.8643 112.362 29.7907 130.738 26.5533ZM242.762 84.3774C242.762 96.9691 232.575 107.177 220.009 107.177C207.443 107.177 197.256 96.9691 197.256 84.3774C197.256 71.7857 207.443 61.5781 220.009 61.5781C232.575 61.5781 242.762 71.7857 242.762 84.3774ZM78.2559 84.3774C78.2559 96.9691 68.0691 107.177 55.5029 107.177C42.9368 107.177 32.75 96.9691 32.75 84.3774C32.75 71.7857 42.9368 61.5781 55.5029 61.5781C68.0691 61.5781 78.2559 71.7857 78.2559 84.3774Z" fill="white" fill-opacity="0.8"/>
</svg>
