<svg width="275" height="240" viewBox="0 0 275 240" fill="none" xmlns="http://www.w3.org/2000/svg">
	<path
		d="M267.032 146.867C267.032 161.792 267.032 173.895 219.828 173.895C172.625 173.895 172.625 161.792 172.625 146.867C172.625 131.941 193.76 119.838 219.828 119.838C245.896 119.838 267.032 131.941 267.032 146.867Z"
		fill="#151C32" />
	<path
		d="M219.829 106.689C232.395 106.689 242.582 96.4818 242.582 83.8901C242.582 71.2984 232.395 61.0908 219.829 61.0908C207.263 61.0908 197.076 71.2984 197.076 83.8901C197.076 96.4818 207.263 106.689 219.829 106.689Z"
		fill="#151C32" />
	<path
		d="M102.528 146.866C102.528 161.792 102.528 173.894 55.3244 173.894C8.12109 173.894 8.12109 161.792 8.12109 146.866C8.12109 131.941 29.2564 119.838 55.3244 119.838C81.3925 119.838 102.528 131.941 102.528 146.866Z"
		fill="#151C32" />
	<path
		d="M55.3252 106.689C67.8913 106.689 78.0782 96.4818 78.0782 83.8901C78.0782 71.2984 67.8913 61.0908 55.3252 61.0908C42.7591 61.0908 32.5723 71.2984 32.5723 83.8901C32.5723 96.4818 42.7591 106.689 55.3252 106.689Z"
		fill="#151C32" />
	<path
		d="M218.642 161.473C218.642 187.166 218.642 208 137.385 208C56.1289 208 56.1289 187.166 56.1289 161.473C56.1289 135.78 92.5114 114.947 137.385 114.947C182.259 114.947 218.642 135.78 218.642 161.473Z"
		fill="#20273E" />
	<path
		d="M137.385 103.948C159.016 103.948 176.552 86.377 176.552 64.7015C176.552 43.026 159.016 25.4546 137.385 25.4546C115.754 25.4546 98.2179 43.026 98.2179 64.7015C98.2179 86.377 115.754 103.948 137.385 103.948Z"
		fill="#20273E" />
</svg>
