<svg width="80" height="80" viewBox="0 0 80 80" fill="none" xmlns="http://www.w3.org/2000/svg">
	<mask id="path-1-inside-1_13110_36942" fill="white">
		<path d="M0 40C0 17.9086 17.9086 0 40 0V0C62.0914 0 80 17.9086 80 40V40C80 62.0914 62.0914 80 40 80V80C17.9086 80 0 62.0914 0 40V40Z"/>
	</mask>
	<path d="M0 40C0 17.9086 17.9086 0 40 0V0C62.0914 0 80 17.9086 80 40V40C80 62.0914 62.0914 80 40 80V80C17.9086 80 0 62.0914 0 40V40Z"
		  fill="#151C32" fill-opacity="0.8"/>
	<path d="M40 78C19.0132 78 2 60.9868 2 40H-2C-2 63.196 16.804 82 40 82V78ZM78 40C78 60.9868 60.9868 78 40 78V82C63.196 82 82 63.196 82 40H78ZM40 2C60.9868 2 78 19.0132 78 40H82C82 16.804 63.196 -2 40 -2V2ZM40 -2C16.804 -2 -2 16.804 -2 40H2C2 19.0132 19.0132 2 40 2V-2Z"
		  fill="#3C455D" mask="url(#path-1-inside-1_13110_36942)"/>
	<path fill-rule="evenodd" clip-rule="evenodd"
		  d="M22.869 22.869C22.2442 23.4939 22.2442 24.5069 22.869 25.1318L32.1377 34.4004H26.0004C25.1167 34.4004 24.4004 35.1167 24.4004 36.0004C24.4004 36.884 25.1167 37.6004 26.0004 37.6004L36.0004 37.6004C36.8841 37.6004 37.6004 36.884 37.6004 36.0004L37.6004 26.0004C37.6004 25.1167 36.8841 24.4004 36.0004 24.4004C35.1167 24.4004 34.4004 25.1167 34.4004 26.0004V32.1376L25.1318 22.869C24.5069 22.2442 23.4939 22.2442 22.869 22.869Z"
		  fill="white"/>
	<path fill-rule="evenodd" clip-rule="evenodd"
		  d="M57.1318 57.1318C57.7566 56.5069 57.7566 55.4939 57.1318 54.869L47.8631 45.6004H54.0004C54.884 45.6004 55.6004 44.884 55.6004 44.0004C55.6004 43.1167 54.884 42.4004 54.0004 42.4004H44.0004C43.1167 42.4004 42.4004 43.1167 42.4004 44.0004V54.0004C42.4004 54.884 43.1167 55.6004 44.0004 55.6004C44.884 55.6004 45.6004 54.884 45.6004 54.0004V47.8631L54.869 57.1318C55.4939 57.7566 56.5069 57.7566 57.1318 57.1318Z"
		  fill="white"/>
</svg>
