<svg width="64" height="64" viewBox="0 0 64 64" fill="none" xmlns="http://www.w3.org/2000/svg">
    <path fill-rule="evenodd" clip-rule="evenodd"
        d="M31.4668 5.86719C32.645 5.86719 33.6002 6.82231 33.6002 8.00052V12.5339H50.1511C55.6071 12.5339 60.0002 16.9886 60.0002 22.4467V41.5543C60.0002 47.0125 55.6071 51.4672 50.1511 51.4672H33.6002V56.0005C33.6002 57.1787 32.645 58.1339 31.4668 58.1339C30.2886 58.1339 29.3335 57.1787 29.3335 56.0005V8.00052C29.3335 6.82231 30.2886 5.86719 31.4668 5.86719ZM50.1511 47.2005C53.2176 47.2005 55.7335 44.6892 55.7335 41.5543L55.7335 22.4467C55.7335 19.3118 53.2177 16.8005 50.1511 16.8005H33.6002V47.2005H50.1511Z"
        fill="#838CA6" />
    <path
        d="M13.0498 12.5339H25.8668V16.8005H13.0498C9.9832 16.8005 7.46735 19.3118 7.46735 22.4467V41.5543C7.46735 44.6892 9.9832 47.2005 13.0498 47.2005H25.8668V51.4672H13.0498C7.59373 51.4672 3.20068 47.0125 3.20068 41.5543V22.4467C3.20068 16.9886 7.59374 12.5339 13.0498 12.5339Z"
        fill="#838CA6" />
</svg>
