<svg width="40" height="40" viewBox="0 0 40 40" fill="none" xmlns="http://www.w3.org/2000/svg">
    <g filter="url(#filter0_d_30823_1084)">
        <path d="M16.6667 30C16.6667 31.8333 18.1667 33.3333 20.0001 33.3333C21.8334 33.3333 23.3334 31.8333 23.3334 30C23.3334 28.1666 21.8334 26.6666 20.0001 26.6666C18.1667 26.6666 16.6667 28.1666 16.6667 30ZM16.6667 9.99998C16.6667 11.8333 18.1667 13.3333 20.0001 13.3333C21.8334 13.3333 23.3334 11.8333 23.3334 9.99998C23.3334 8.16665 21.8334 6.66665 20.0001 6.66665C18.1667 6.66665 16.6667 8.16665 16.6667 9.99998ZM16.6667 20C16.6667 21.8333 18.1667 23.3333 20.0001 23.3333C21.8334 23.3333 23.3334 21.8333 23.3334 20C23.3334 18.1666 21.8334 16.6666 20.0001 16.6666C18.1667 16.6666 16.6667 18.1666 16.6667 20Z"
              fill="white"/>
    </g>
    <defs>
        <filter id="filter0_d_30823_1084" x="-4" y="-4" width="48" height="48" filterUnits="userSpaceOnUse"
                color-interpolation-filters="sRGB">
            <feFlood flood-opacity="0" result="BackgroundImageFix"/>
            <feColorMatrix in="SourceAlpha" type="matrix" values="0 0 0 0 0 0 0 0 0 0 0 0 0 0 0 0 0 0 127 0"
                           result="hardAlpha"/>
            <feOffset/>
            <feGaussianBlur stdDeviation="2"/>
            <feColorMatrix type="matrix" values="0 0 0 0 0 0 0 0 0 0 0 0 0 0 0 0 0 0 0.25 0"/>
            <feBlend mode="normal" in2="BackgroundImageFix" result="effect1_dropShadow_30823_1084"/>
            <feBlend mode="normal" in="SourceGraphic" in2="effect1_dropShadow_30823_1084" result="shape"/>
        </filter>
    </defs>
</svg>
