<svg width="54" height="54" viewBox="0 0 54 54" fill="none" xmlns="http://www.w3.org/2000/svg">
<g opacity="0.5">
<rect width="54" height="54" rx="15" fill="#C4C4C4"/>
<path d="M40.0625 26.1067C40.7105 24.8601 41.0766 23.444 41.0766 21.9424C41.0766 16.9485 37.0292 12.9011 32.0353 12.9011C28.8146 12.9011 25.9868 14.5858 24.3847 17.1225C23.4831 16.7984 22.511 16.6214 21.4969 16.6214C16.7746 16.6214 12.9477 20.4498 12.9477 25.1706C12.9477 26.3347 13.1818 27.4448 13.6033 28.4559C11.2736 29.4925 9.64746 31.8267 9.64746 34.5404C9.64746 38.2172 12.6282 41.1995 16.3065 41.1995C16.4235 41.1995 16.539 41.1965 16.6545 41.1905H35.9897C36.1097 41.1965 36.2282 41.1995 36.3497 41.1995C40.7706 41.1995 44.3529 37.6157 44.3529 33.1963C44.3529 30.1166 42.6127 27.4448 40.0625 26.1067Z" fill="#2F2F84"/>
<path d="M22.2892 30.604H15.7186C14.7932 30.604 14.043 31.3542 14.043 32.2796V35.6504C14.043 36.5759 14.7932 37.3261 15.7186 37.3261H22.2892C23.2146 37.3261 23.9648 36.5759 23.9648 35.6504V32.2796C23.9648 31.3542 23.2146 30.604 22.2892 30.604Z" fill="white"/>
<path d="M34.8209 21.7654H22.4584C20.8788 21.7654 19.5977 23.0465 19.5977 24.6261V29.698H22.2904C23.7155 29.698 24.8706 30.8531 24.8706 32.2783V34.917H34.8224C36.4021 34.917 37.6832 33.6359 37.6832 32.0562V24.6261C37.6832 23.0465 36.4021 21.7654 34.8224 21.7654H34.8209ZM30.4961 30.8111C30.4091 30.8996 30.289 30.9491 30.16 30.9491C30.031 30.9491 29.9095 30.8981 29.818 30.8081C29.5735 30.5636 29.248 30.4286 28.8999 30.4286C28.5519 30.4286 28.2264 30.5636 27.9819 30.8081C27.8933 30.8966 27.7703 30.9461 27.6413 30.9461C27.5123 30.9461 27.3893 30.8951 27.3008 30.8081C27.2123 30.7196 27.1598 30.5921 27.1598 30.4676C27.1598 30.3431 27.2123 30.2126 27.3053 30.1226C27.7298 29.698 28.2969 29.464 28.9014 29.464C29.506 29.464 30.0745 29.6995 30.5021 30.1256C30.5906 30.2141 30.6431 30.3416 30.6431 30.4661C30.6431 30.5906 30.5891 30.7211 30.4976 30.8111H30.4961ZM31.8417 29.3965C31.7472 29.4895 31.6242 29.5405 31.4936 29.5405C31.3631 29.5405 31.2386 29.4895 31.1456 29.3965C30.5471 28.798 29.749 28.4679 28.8999 28.4679C28.0509 28.4679 27.2528 28.798 26.6542 29.3965C26.5612 29.4895 26.4382 29.5405 26.3062 29.5405C26.1742 29.5405 26.0527 29.4895 25.9597 29.398C25.8652 29.3035 25.8142 29.1805 25.8142 29.0485C25.8142 28.9165 25.8652 28.7935 25.9582 28.7005C26.7428 27.9159 27.7868 27.4839 28.8999 27.4839C30.013 27.4839 31.0571 27.9159 31.8417 28.7005C31.9347 28.7935 31.9857 28.9165 31.9857 29.0485C31.9857 29.1805 31.9347 29.3035 31.8417 29.3965ZM33.2818 27.9549C33.1918 28.0449 33.0628 28.0989 32.9398 28.0989H32.9293C32.8018 28.0989 32.6772 28.0464 32.5842 27.9519C31.6032 26.9708 30.295 26.4293 28.9014 26.4293C27.5078 26.4293 26.1982 26.9708 25.2156 27.9534C25.1271 28.0419 24.9936 28.0974 24.8676 28.0974C24.7416 28.0974 24.6096 28.0434 24.5181 27.9504C24.4311 27.8619 24.3756 27.7299 24.3756 27.6039C24.3756 27.4779 24.4281 27.3458 24.5211 27.2543C25.6882 26.0872 27.2438 25.4437 28.9014 25.4437C30.5591 25.4437 32.1147 26.0872 33.2833 27.2558C33.3718 27.3443 33.4273 27.4779 33.4273 27.6039C33.4273 27.7299 33.3718 27.8634 33.2833 27.9519L33.2818 27.9549Z" fill="white"/>
</g>
</svg>
