<svg width="378" height="330" viewBox="0 0 378 330" fill="none" xmlns="http://www.w3.org/2000/svg">
	<path
		d="M128.768 96.3857C123.038 104.488 118.799 113.758 116.462 123.778C87.3687 131.794 66 158.445 66 190.086C66 228.068 96.7905 258.859 134.772 258.859H197.177V258.677H252.669C263.678 258.677 273.985 255.668 282.811 250.428L128.768 96.3857Z"
		fill="#E9EAF0" />
	<path
		d="M301.422 233.017C307.968 223.5 311.8 211.97 311.8 199.546C311.8 171.913 292.844 148.706 267.227 142.221V141.83C267.227 98.8458 233.015 64 190.812 64C174.374 64 159.149 69.286 146.685 78.2801L301.422 233.017Z"
		fill="#E9EAF0" />
	<path fill-rule="evenodd" clip-rule="evenodd"
		d="M94.0086 69.0809C98.2362 64.8533 105.091 64.8533 109.318 69.0809L287.62 247.383C291.848 251.611 291.848 258.465 287.62 262.693C283.393 266.92 276.538 266.92 272.311 262.693L94.0086 84.3904C89.781 80.1628 89.781 73.3085 94.0086 69.0809Z"
		fill="#D3D6E1" />
</svg>
