<svg width="100" height="101" viewBox="0 0 100 101" fill="none" xmlns="http://www.w3.org/2000/svg">
    <path fill-rule="evenodd" clip-rule="evenodd"
        d="M45.8327 12.166C26.963 12.166 11.666 27.463 11.666 46.3327C11.666 65.2024 26.963 80.4993 45.8327 80.4993C53.464 80.4993 60.5109 77.9974 66.1981 73.7691L79.7971 87.3682C81.7498 89.3208 84.9156 89.3208 86.8682 87.3682C88.8208 85.4156 88.8208 82.2498 86.8682 80.2971L73.2691 66.6981C77.4974 61.0109 79.9993 53.964 79.9993 46.3327C79.9993 27.463 64.7024 12.166 45.8327 12.166ZM21.666 46.3327C21.666 32.9858 32.4858 22.166 45.8327 22.166C59.1796 22.166 69.9993 32.9858 69.9993 46.3327C69.9993 59.6796 59.1796 70.4993 45.8327 70.4993C32.4858 70.4993 21.666 59.6796 21.666 46.3327Z"
        fill="#838CA6" />
</svg>
