<svg width="81" height="80" viewBox="0 0 81 80" fill="none" xmlns="http://www.w3.org/2000/svg">
    <path opacity="0.32"
        d="M17.2531 10C11.9265 10 7.6084 13.684 7.6084 18.2283V38.4383C7.6084 42.9827 11.9265 46.6667 17.2531 46.6667H64.6304C69.957 46.6667 74.2751 42.9827 74.2751 38.4383V18.2283C74.2751 13.684 69.957 10 64.6304 10H17.2531Z"
        fill="#5D80ED" />
    <path fill-rule="evenodd" clip-rule="evenodd"
        d="M54.6105 52.9958C55.717 54.1022 55.7171 55.8962 54.6107 57.0027L42.9453 68.6694C42.414 69.2008 41.6933 69.4993 40.9419 69.4994C40.1904 69.4994 39.4697 69.2009 38.9383 68.6696L27.2704 57.0029C26.1639 55.8965 26.1638 54.1025 27.2702 52.996C28.3766 51.8894 30.1706 51.8893 31.2771 52.9958L38.1084 59.8263L38.1084 29.9993C38.1084 28.4345 39.3769 27.166 40.9417 27.166C42.5065 27.166 43.775 28.4345 43.775 29.9993L43.775 59.8252L50.6035 52.996C51.7099 51.8894 53.5039 51.8893 54.6105 52.9958Z"
        fill="#5D80ED" />
</svg>
