<svg width="16" height="16" viewBox="0 0 16 16" fill="none" xmlns="http://www.w3.org/2000/svg">
    <path d="M2.66683 4.33334C3.40321 4.33334 4.00016 4.9303 4.00016 5.66668C4.00016 6.40306 3.40321 7.00001 2.66683 7.00001C1.93045 7.00001 1.3335 6.40306 1.3335 5.66668C1.3335 4.9303 1.93045 4.33334 2.66683 4.33334Z"
          fill="#151C32" fill-opacity="0.48"/>
    <path d="M8.00016 4.33334C8.73654 4.33334 9.3335 4.9303 9.3335 5.66668C9.3335 6.40306 8.73654 7.00001 8.00016 7.00001C7.26378 7.00001 6.66683 6.40306 6.66683 5.66668C6.66683 4.9303 7.26378 4.33334 8.00016 4.33334Z"
          fill="#151C32" fill-opacity="0.48"/>
    <path d="M13.3335 4.33334C14.0699 4.33334 14.6668 4.9303 14.6668 5.66668C14.6668 6.40306 14.0699 7.00001 13.3335 7.00001C12.5971 7.00001 12.0002 6.40306 12.0002 5.66668C12.0002 4.9303 12.5971 4.33334 13.3335 4.33334Z"
          fill="#151C32" fill-opacity="0.48"/>
    <path d="M2.66683 9.00001C3.40321 9.00001 4.00016 9.59696 4.00016 10.3333C4.00016 11.0697 3.40321 11.6667 2.66683 11.6667C1.93045 11.6667 1.3335 11.0697 1.3335 10.3333C1.3335 9.59696 1.93045 9.00001 2.66683 9.00001Z"
          fill="#151C32" fill-opacity="0.48"/>
    <path d="M8.00016 9.00001C8.73654 9.00001 9.3335 9.59696 9.3335 10.3333C9.3335 11.0697 8.73654 11.6667 8.00016 11.6667C7.26378 11.6667 6.66683 11.0697 6.66683 10.3333C6.66683 9.59696 7.26378 9.00001 8.00016 9.00001Z"
          fill="#151C32" fill-opacity="0.48"/>
    <path d="M13.3335 9.00001C14.0699 9.00001 14.6668 9.59696 14.6668 10.3333C14.6668 11.0697 14.0699 11.6667 13.3335 11.6667C12.5971 11.6667 12.0002 11.0697 12.0002 10.3333C12.0002 9.59696 12.5971 9.00001 13.3335 9.00001Z"
          fill="#151C32" fill-opacity="0.48"/>
</svg>
