<svg width="80" height="80" viewBox="0 0 80 80" fill="none" xmlns="http://www.w3.org/2000/svg">
	<g opacity="0.24">
		<path
			d="M40.0005 10.9994C33.0663 10.9994 27.445 16.6207 27.445 23.5549C27.445 30.4891 33.0663 36.1105 40.0005 36.1105C46.9348 36.1105 52.5561 30.4891 52.5561 23.5549C52.5561 16.6207 46.9348 10.9994 40.0005 10.9994Z"
			fill="#3C5AAA" />
		<path
			d="M40.7393 40.446C34.9684 40.446 29.6043 41.7769 25.5845 44.0739C21.645 46.3251 18.4615 49.8668 18.4615 54.3904L18.4611 54.7198C18.4554 57.5293 18.4472 61.5575 21.9193 64.43C23.6238 65.8401 25.9432 66.7898 28.9273 67.4035C31.9225 68.0195 35.7792 68.3349 40.7393 68.3349C45.6994 68.3349 49.5561 68.0195 52.5513 67.4035C55.5354 66.7898 57.8548 65.8401 59.5592 64.43C63.0314 61.5575 63.0232 57.5293 63.0175 54.7198L63.0171 54.3904C63.0171 49.8668 59.8336 46.3251 55.8941 44.0739C51.8743 41.7769 46.5102 40.446 40.7393 40.446Z"
			fill="#3C5AAA" />
		<path
			d="M67.3502 54.3893C67.3502 48.1355 63.2967 43.6394 59.0742 40.9343C62.2857 41.2182 65.24 42.0908 67.5808 43.4284C70.4016 45.0403 72.8054 47.6482 72.8054 51.0684L72.8059 51.3261C72.8116 53.2616 72.8207 56.3017 70.2069 58.4641C69.3124 59.2041 68.2075 59.7625 66.8965 60.1808C67.3638 58.094 67.3563 56.2015 67.3515 54.954L67.3507 54.7099L67.3502 54.3893Z"
			fill="#3C5AAA" />
		<path
			d="M22.5498 40.8415C18.2756 43.5361 14.1286 48.0633 14.1286 54.3888L14.1282 54.7094L14.1274 54.9535C14.1222 56.2836 14.1141 58.347 14.6816 60.5972C12.66 60.1588 11.0269 59.4837 9.7939 58.4636C7.18008 56.3012 7.18913 53.2611 7.1949 51.3256L7.19542 51.0679C7.19542 47.6477 9.59914 45.0398 12.42 43.4279C15.1504 41.8676 18.7156 40.9401 22.5498 40.8415Z"
			fill="#3C5AAA" />
		<path
			d="M61.667 22.5C57.5249 22.5 54.167 25.8579 54.167 30C54.167 34.1421 57.5249 37.5 61.667 37.5C65.8091 37.5 69.167 34.1421 69.167 30C69.167 25.8579 65.8091 22.5 61.667 22.5Z"
			fill="#3C5AAA" />
		<path
			d="M10.8337 30C10.8337 25.8579 14.1915 22.5 18.3337 22.5C22.4758 22.5 25.8337 25.8579 25.8337 30C25.8337 34.1421 22.4758 37.5 18.3337 37.5C14.1915 37.5 10.8337 34.1421 10.8337 30Z"
			fill="#3C5AAA" />
	</g>
</svg>
