<svg width="156" height="156" viewBox="16 8 124 124" fill="none" xmlns="http://www.w3.org/2000/svg">
    <circle cx="78" cy="70" r="62" fill="#3C455D"/>
    <path fill-rule="evenodd" clip-rule="evenodd"
          d="M110 84.667C110 91.2944 104.627 96.667 98 96.667C91.3726 96.667 86 91.2944 86 84.667C86 78.0396 91.3726 72.667 98 72.667C104.627 72.667 110 78.0396 110 84.667ZM97.9988 76.2661C99.1586 76.2661 100.099 77.2063 100.099 78.3661V82.5658H104.727C105.887 82.5658 106.827 83.506 106.827 84.6658C106.827 85.8256 105.887 86.7658 104.727 86.7658H100.099V91.094C100.099 92.2538 99.1586 93.194 97.9988 93.194C96.839 93.194 95.8988 92.2538 95.8988 91.094V86.7658H91.9994C90.8396 86.7658 89.8994 85.8256 89.8994 84.6658C89.8994 83.506 90.8396 82.5658 91.9994 82.5658H95.8988V78.3661C95.8988 77.2063 96.839 76.2661 97.9988 76.2661Z"
          fill="white"/>
    <path d="M79.6 46.0005C79.6 44.8223 78.6449 43.8672 77.4666 43.8672C76.2884 43.8672 75.3333 44.8223 75.3333 46.0005V94.0005C75.3333 95.1787 76.2884 96.1339 77.4666 96.1339C78.6449 96.1339 79.6 95.1787 79.6 94.0005V89.4672H84.137C83.6716 88.123 83.3961 86.69 83.3428 85.2005H79.6V54.8005H96.9514C100.018 54.8005 102.534 57.3118 102.534 60.4467V70.7142C104.086 71.2181 105.524 71.9736 106.8 72.9326V60.4467C106.8 54.9886 102.407 50.5339 96.9514 50.5339H79.6V46.0005Z"
          fill="white"/>
    <path d="M71.8666 50.5339H59.0496C53.5936 50.5339 49.2005 54.9886 49.2005 60.4467V79.5543C49.2005 85.0125 53.5936 89.4672 59.0496 89.4672H71.8666V85.2005H59.0496C55.983 85.2005 53.4672 82.6892 53.4672 79.5543V60.4467C53.4672 57.3118 55.983 54.8005 59.0496 54.8005H71.8666V50.5339Z"
          fill="white"/>
</svg>