<svg width="41" height="40" viewBox="0 0 41 40" fill="none" xmlns="http://www.w3.org/2000/svg">
    <path
        d="M20.4597 5.50098C16.9926 5.50098 14.182 8.31163 14.182 11.7787C14.182 15.2459 16.9926 18.0565 20.4597 18.0565C23.9269 18.0565 26.7375 15.2459 26.7375 11.7787C26.7375 8.31163 23.9269 5.50098 20.4597 5.50098Z"
        fill="#5D80ED" />
    <path
        d="M20.8291 20.2243C17.9437 20.2243 15.2616 20.8897 13.2517 22.0383C11.282 23.1638 9.69024 24.9347 9.69024 27.1965L9.69002 27.3612C9.68716 28.766 9.68307 30.78 11.4191 32.2163C12.2714 32.9213 13.4311 33.3962 14.9231 33.7031C16.4207 34.011 18.3491 34.1687 20.8291 34.1687C23.3092 34.1687 25.2375 34.011 26.7351 33.7031C28.2272 33.3962 29.3869 32.9213 30.2391 32.2163C31.9752 30.78 31.9711 28.766 31.9682 27.3612L31.968 27.1965C31.968 24.9347 30.3763 23.1638 28.4065 22.0383C26.3966 20.8897 23.7146 20.2243 20.8291 20.2243Z"
        fill="#5D80ED" />
    <path
        d="M34.1346 27.196C34.1346 24.069 32.1078 21.821 29.9966 20.4684C31.6023 20.6104 33.0795 21.0467 34.2499 21.7155C35.6603 22.5215 36.8622 23.8254 36.8622 25.5355L36.8624 25.6644C36.8653 26.6321 36.8698 28.1521 35.5629 29.2333C35.1157 29.6033 34.5632 29.8825 33.9077 30.0917C34.1413 29.0483 34.1376 28.1021 34.1352 27.4783L34.1348 27.3562L34.1346 27.196Z"
        fill="#5D80ED" />
    <path
        d="M11.7344 20.422C9.59726 21.7693 7.52378 24.033 7.52378 27.1957L7.52356 27.356L7.52316 27.478C7.52056 28.1431 7.51652 29.1748 7.80028 30.2999C6.78946 30.0807 5.97294 29.7431 5.35642 29.2331C4.04951 28.1519 4.05404 26.6318 4.05692 25.6641L4.05718 25.5353C4.05718 23.8251 5.25904 22.5212 6.66947 21.7152C8.03468 20.9351 9.81725 20.4713 11.7344 20.422Z"
        fill="#5D80ED" />
    <path
        d="M31.293 11.2513C29.2219 11.2513 27.543 12.9302 27.543 15.0013C27.543 17.0724 29.2219 18.7513 31.293 18.7513C33.364 18.7513 35.043 17.0724 35.043 15.0013C35.043 12.9302 33.364 11.2513 31.293 11.2513Z"
        fill="#5D80ED" />
    <path
        d="M5.8763 15.0013C5.8763 12.9302 7.55523 11.2513 9.6263 11.2513C11.6974 11.2513 13.3763 12.9302 13.3763 15.0013C13.3763 17.0724 11.6974 18.7513 9.6263 18.7513C7.55523 18.7513 5.8763 17.0724 5.8763 15.0013Z"
        fill="#5D80ED" />
</svg>
