<svg width="80" height="80" viewBox="0 0 80 80" fill="none" xmlns="http://www.w3.org/2000/svg">
	<circle cx="40" cy="40" r="39" stroke="white" stroke-width="2" />
	<path
		d="M44.2998 37.8937V27.9998C44.2998 25.625 42.3746 23.6998 39.9998 23.6998C37.625 23.6998 35.6998 25.625 35.6998 27.9998V29.2937L32.5299 26.1238C33.3676 22.7779 36.3943 20.2998 39.9998 20.2998C44.2524 20.2998 47.6998 23.7472 47.6998 27.9998V39.9998C47.6998 40.4083 47.668 40.8093 47.6067 41.2006L44.2998 37.8937Z"
		fill="white" />
	<path fill-rule="evenodd" clip-rule="evenodd"
		d="M24.7977 27.2019L32.2998 34.704V39.9998C32.2998 44.2524 35.7472 47.6998 39.9998 47.6998C41.5106 47.6998 42.9197 47.2647 44.1088 46.513L45.9816 48.3858C44.2953 49.5908 42.2304 50.2998 39.9998 50.2998C34.3113 50.2998 29.6998 45.6883 29.6998 39.9998V37.9998C29.6998 37.0609 28.9387 36.2998 27.9998 36.2998C27.0609 36.2998 26.2998 37.0609 26.2998 37.9998V39.9998C26.2998 46.9905 31.5357 52.7582 38.2998 53.5954V57.9998C38.2998 58.9387 39.0609 59.6998 39.9998 59.6998C40.9387 59.6998 41.6998 58.9387 41.6998 57.9998V53.5954C44.2105 53.2846 46.5107 52.2946 48.4107 50.8148L52.7977 55.2019C53.4616 55.8658 54.538 55.8658 55.2019 55.2019C55.8658 54.538 55.8658 53.4616 55.2019 52.7977L50.8148 48.4107C52.6229 46.0892 53.6998 43.1702 53.6998 39.9998V37.9998C53.6998 37.0609 52.9387 36.2998 51.9998 36.2998C51.0609 36.2998 50.2998 37.0609 50.2998 37.9998V39.9998C50.2998 42.2304 49.5908 44.2953 48.3858 45.9816L27.2019 24.7977C26.538 24.1338 25.4616 24.1338 24.7977 24.7977C24.1338 25.4616 24.1338 26.538 24.7977 27.2019ZM39.9998 44.2998C40.5621 44.2998 41.0992 44.1919 41.5915 43.9956L35.6998 38.104V39.9998C35.6998 42.3746 37.625 44.2998 39.9998 44.2998Z"
		fill="white" />
</svg>
