<svg width="54" height="54" viewBox="0 0 54 54" fill="none" xmlns="http://www.w3.org/2000/svg">
<rect width="54" height="54" rx="15" fill="#595959"/>
<path d="M38.9997 15H14.9997C13.5197 15 12.333 16.1867 12.333 17.6667V33.6667C12.333 35.1333 13.5197 36.3333 14.9997 36.3333H21.6663V39H32.333V36.3333H38.9997C40.4663 36.3333 41.653 35.1333 41.653 33.6667L41.6663 17.6667C41.6663 16.1867 40.4663 15 38.9997 15ZM38.9997 33.6667H14.9997V17.6667H38.9997V33.6667ZM38.9997 24.3333V27H28.333V33.6667H25.6663V27H14.9997V24.3333H25.6663V17.6667H28.333V24.3333H38.9997Z" fill="#C4C4C4"/>
</svg>
