<svg width="125" height="124" viewBox="0 0 125 124" fill="none" xmlns="http://www.w3.org/2000/svg">
    <path fill-rule="evenodd" clip-rule="evenodd"
        d="M48.6313 48.6763C48.6313 45.4362 51.2578 42.8096 54.4979 42.8096C57.7372 42.8096 60.3633 45.4349 60.3646 48.6738V48.6763C60.3646 51.9164 57.738 54.543 54.4979 54.543C51.2578 54.543 48.6313 51.9164 48.6313 48.6763ZM64.4063 50.8096C63.4266 55.3817 59.3626 58.8096 54.4979 58.8096C49.6333 58.8096 45.5692 55.3817 44.5895 50.8096H41.1646C39.9864 50.8096 39.0312 49.8545 39.0312 48.6763C39.0312 47.4981 39.9864 46.543 41.1646 46.543H44.5895C45.5692 41.9709 49.6333 38.543 54.4979 38.543C59.3626 38.543 63.4266 41.9709 64.4063 46.543H83.8312C85.0095 46.543 85.9646 47.4981 85.9646 48.6763C85.9646 49.8545 85.0095 50.8096 83.8312 50.8096H64.4063ZM79.1605 69.1221H79.1626V65.2332C79.1626 63.4782 77.7398 62.0555 75.9848 62.0555C74.4954 62.0555 73.2453 63.0801 72.901 64.4629C72.8383 64.7121 72.8049 64.9729 72.8049 65.2416V69.1305H79.1605V69.1221ZM68.2737 65.2332V65.4545C68.273 65.4547 68.2723 65.4548 68.2716 65.455V69.1305H68.7167C68.5668 69.1305 68.4184 69.1367 68.2716 69.1488C67.0536 69.2494 65.9517 69.7593 65.1038 70.5406C64.046 71.5152 63.3833 72.9121 63.3833 74.4638V82.4638C63.3833 82.4958 63.3836 82.5277 63.3842 82.5596C63.3849 82.5603 63.3857 82.5611 63.3865 82.5618C63.4431 85.4582 65.8088 87.7888 68.7187 87.7888H82.941C85.4373 87.7888 87.5331 86.0737 88.1142 83.7575C88.2174 83.3433 88.2722 82.91 88.2722 82.4638V74.4638C88.2722 73.0177 87.6967 71.706 86.7622 70.7454C85.9588 69.9195 84.8902 69.353 83.6938 69.1835C83.4472 69.1485 83.1952 69.1305 82.9389 69.1305H83.2416C83.1421 69.1249 83.0419 69.1221 82.941 69.1221H83.6938V65.2416C83.6938 60.9829 80.2415 57.5305 75.9827 57.5305C72.3737 57.5305 69.3438 60.0098 68.5033 63.3581C68.3533 63.9584 68.2737 64.5865 68.2737 65.2332ZM60.0054 73.2096H41.1646C39.9864 73.2096 39.0312 74.1648 39.0312 75.343C39.0312 76.5212 39.9864 77.4763 41.1646 77.4763H59.9167V74.4638C59.9167 74.038 59.9469 73.6193 60.0054 73.2096Z"
        fill="white" />
</svg>
