<svg width="124" height="124" viewBox="0 0 124 124" fill="none" xmlns="http://www.w3.org/2000/svg">
    <path fill-rule="evenodd" clip-rule="evenodd"
        d="M63.9089 46.5342C62.9292 41.9621 58.8651 38.5342 54.0005 38.5342C49.1358 38.5342 45.0718 41.9621 44.0921 46.5342H40.6671C39.4889 46.5342 38.5338 47.4893 38.5338 48.6675C38.5338 49.8457 39.4889 50.8008 40.6671 50.8008H44.0921C45.0718 55.3729 49.1358 58.8008 54.0005 58.8008C58.8651 58.8008 62.9292 55.3729 63.9089 50.8008H83.3338C84.512 50.8008 85.4671 49.8457 85.4671 48.6675C85.4671 47.4893 84.512 46.5342 83.3338 46.5342H63.9089ZM48.1338 48.6675C48.1338 45.4274 50.7604 42.8008 54.0005 42.8008C57.2406 42.8008 59.8671 45.4274 59.8671 48.6675C59.8671 51.9076 57.2406 54.5342 54.0005 54.5342C50.7604 54.5342 48.1338 51.9076 48.1338 48.6675Z"
        fill="white" />
    <path fill-rule="evenodd" clip-rule="evenodd"
        d="M79.9089 73.2008C78.9292 68.6288 74.8651 65.2008 70.0005 65.2008C65.1358 65.2008 61.0718 68.6288 60.0921 73.2008H40.6671C39.4889 73.2008 38.5338 74.156 38.5338 75.3342C38.5338 76.5124 39.4889 77.4675 40.6671 77.4675H60.0921C61.0718 82.0396 65.1358 85.4675 70.0005 85.4675C74.8651 85.4675 78.9292 82.0396 79.9089 77.4675H83.3338C84.512 77.4675 85.4671 76.5124 85.4671 75.3342C85.4671 74.156 84.512 73.2008 83.3338 73.2008H79.9089ZM64.1338 75.3342C64.1338 72.0941 66.7604 69.4675 70.0005 69.4675C73.2406 69.4675 75.8671 72.0941 75.8671 75.3342C75.8671 78.5742 73.2406 81.2008 70.0005 81.2008C66.7604 81.2008 64.1338 78.5742 64.1338 75.3342Z"
        fill="white" />
</svg>
