<svg width="24" height="24" viewBox="0 0 24 24" fill="none" xmlns="http://www.w3.org/2000/svg">
    <path fill-rule="evenodd" clip-rule="evenodd"
        d="M5.35039 18.0004C5.35039 18.6355 5.86526 19.1504 6.50039 19.1504L18.0004 19.1504C18.6355 19.1504 19.1504 18.6355 19.1504 18.0004V14.5004C19.1504 14.031 19.5309 13.6504 20.0004 13.6504C20.4698 13.6504 20.8504 14.031 20.8504 14.5004V18.0004C20.8504 19.5744 19.5744 20.8504 18.0004 20.8504H6.50039C4.92638 20.8504 3.65039 19.5744 3.65039 18.0004L3.65039 6.00039C3.65039 4.42638 4.92638 3.15039 6.50039 3.15039L9.00039 3.15039C9.46983 3.15039 9.85039 3.53095 9.85039 4.00039C9.85039 4.46983 9.46983 4.85039 9.00039 4.85039L6.50039 4.85039C5.86526 4.85039 5.35039 5.36526 5.35039 6.00039L5.35039 18.0004Z"
        fill="white" />
    <path fill-rule="evenodd" clip-rule="evenodd"
        d="M11.3994 12.6014C11.0674 12.2695 11.0674 11.7313 11.3994 11.3994L17.9483 4.85039L14.0004 4.85039C13.5309 4.85039 13.1504 4.46983 13.1504 4.00039C13.1504 3.53095 13.5309 3.15039 14.0004 3.15039L20.0004 3.15039C20.4698 3.15039 20.8504 3.53095 20.8504 4.00039V10.0004C20.8504 10.4698 20.4698 10.8504 20.0004 10.8504C19.5309 10.8504 19.1504 10.4698 19.1504 10.0004V6.05247L12.6014 12.6014C12.2695 12.9334 11.7313 12.9334 11.3994 12.6014Z"
        fill="white" />
</svg>
