<svg width="80" height="80" viewBox="0 0 84 84" fill="none" xmlns="http://www.w3.org/2000/svg">
	<g filter="url(#filter0_dd_12491_147829)" transform="translate(-20, -4)">
		<mask id="path-1-inside-1_12491_147829" fill="white">
			<path d="M22 46C22 23.9086 39.9086 6 62 6C84.0914 6 102 23.9086 102 46C102 68.0914 84.0914 86 62 86C39.9086 86 22 68.0914 22 46Z"/>
		</mask>
		<path d="M22 46C22 23.9086 39.9086 6 62 6C84.0914 6 102 23.9086 102 46C102 68.0914 84.0914 86 62 86C39.9086 86 22 68.0914 22 46Z"
			  fill="#151C32" fill-opacity="0.8" shape-rendering="crispEdges"/>
		<path d="M62 84C41.0132 84 24 66.9868 24 46H20C20 69.196 38.804 88 62 88V84ZM100 46C100 66.9868 82.9868 84 62 84V88C85.196 88 104 69.196 104 46H100ZM62 8C82.9868 8 100 25.0132 100 46H104C104 22.804 85.196 4 62 4V8ZM62 4C38.804 4 20 22.804 20 46H24C24 25.0132 41.0132 8 62 8V4Z"
			  fill="#3C455D" mask="url(#path-1-inside-1_12491_147829)"/>
		<path fill-rule="evenodd" clip-rule="evenodd"
			  d="M59.199 43.2021C59.8629 42.5382 59.8629 41.4619 59.199 40.798L50.101 31.7L57.9969 31.7C58.9358 31.7 59.6969 30.9389 59.6969 30C59.6969 29.0612 58.9358 28.3 57.9969 28.3L45.9969 28.3C45.058 28.3 44.2969 29.0612 44.2969 30L44.2969 42C44.2969 42.9389 45.058 43.7 45.9969 43.7C46.9358 43.7 47.6969 42.9389 47.6969 42L47.6969 34.1042L56.7948 43.2021C57.4587 43.866 58.5351 43.866 59.199 43.2021Z"
			  fill="white"/>
		<path fill-rule="evenodd" clip-rule="evenodd"
			  d="M64.7948 48.798C64.1309 49.4619 64.1309 50.5382 64.7948 51.2021L73.8927 60.3H65.9969C65.058 60.3 64.2969 61.0612 64.2969 62C64.2969 62.9389 65.058 63.7 65.9969 63.7L77.9969 63.7001C78.9358 63.7001 79.6969 62.9389 79.6969 62V50C79.6969 49.0612 78.9358 48.3 77.9969 48.3C77.058 48.3 76.2969 49.0612 76.2969 50V57.8959L67.199 48.798C66.5351 48.1341 65.4587 48.1341 64.7948 48.798Z"
			  fill="white"/>
	</g>
</svg>
