<svg width="64" height="64" viewBox="0 0 64 64" fill="none" xmlns="http://www.w3.org/2000/svg">
    <path fill-rule="evenodd" clip-rule="evenodd"
        d="M32.5922 16.6809C31.7385 15.773 30.3544 15.773 29.5007 16.6809L16.6419 30.3561C15.7882 31.264 15.7882 32.736 16.6419 33.6439L29.5007 47.3191C30.3544 48.227 31.7385 48.227 32.5922 47.3191C33.4458 46.4112 33.4458 44.9392 32.5922 44.0313L21.2791 32L32.5922 19.9687C33.4458 19.0608 33.4458 17.5888 32.5922 16.6809Z"
        fill="white" fill-opacity="0.64" />
    <path fill-rule="evenodd" clip-rule="evenodd"
        d="M47.3597 16.6809C46.5061 15.773 45.122 15.773 44.2683 16.6809L31.4095 30.3561C30.5558 31.264 30.5558 32.736 31.4095 33.6439L44.2683 47.3191C45.122 48.227 46.5061 48.227 47.3597 47.3191C48.2134 46.4112 48.2134 44.9392 47.3597 44.0313L36.0467 32L47.3597 19.9687C48.2134 19.0608 48.2134 17.5888 47.3597 16.6809Z"
        fill="white" fill-opacity="0.64" />
</svg>
