<svg width="62" height="62" viewBox="0 0 62 62" fill="none" xmlns="http://www.w3.org/2000/svg">
<rect width="62" height="62" rx="15" fill="#898989"/>
<path d="M45.9975 29.9743C46.7416 28.543 47.1618 26.9171 47.1618 25.193C47.1618 19.4593 42.5149 14.8123 36.7811 14.8123C33.0832 14.8123 29.8365 16.7465 27.9971 19.6591C26.9619 19.287 25.8458 19.0838 24.6815 19.0838C19.2595 19.0838 14.8657 23.4793 14.8657 28.8996C14.8657 30.2361 15.1344 31.5107 15.6184 32.6715C12.9436 33.8617 11.0765 36.5417 11.0765 39.6575C11.0765 43.879 14.4989 47.303 18.7221 47.303C18.8565 47.303 18.9891 47.2996 19.1217 47.2927H41.3213C41.4591 47.2996 41.5951 47.303 41.7346 47.303C46.8105 47.303 50.9235 43.1883 50.9235 38.1142C50.9235 34.5782 48.9255 31.5107 45.9975 29.9743V29.9743Z" fill="#2F2F84"/>
<path d="M25.5909 35.138H18.0469C16.9844 35.138 16.1231 35.9993 16.1231 37.0619V40.932C16.1231 41.9945 16.9844 42.8559 18.0469 42.8559H25.5909C26.6534 42.8559 27.5148 41.9945 27.5148 40.932V37.0619C27.5148 35.9993 26.6534 35.138 25.5909 35.138Z" fill="white"/>
<path d="M39.9796 24.9898H25.7855C23.9719 24.9898 22.501 26.4607 22.501 28.2743V34.0977H25.5926C27.2289 34.0977 28.5551 35.4239 28.5551 37.0601V40.0898H39.9813C41.7949 40.0898 43.2658 38.6189 43.2658 36.8052V28.2743C43.2658 26.4607 41.7949 24.9898 39.9813 24.9898H39.9796ZM35.014 35.3757C34.9141 35.4773 34.7763 35.5341 34.6282 35.5341C34.48 35.5341 34.3405 35.4756 34.2355 35.3722C33.9547 35.0915 33.581 34.9364 33.1814 34.9364C32.7818 34.9364 32.408 35.0915 32.1273 35.3722C32.0257 35.4738 31.8844 35.5307 31.7363 35.5307C31.5882 35.5307 31.447 35.4721 31.3453 35.3722C31.2437 35.2706 31.1834 35.1242 31.1834 34.9812C31.1834 34.8383 31.2437 34.6884 31.3505 34.5851C31.8379 34.0977 32.489 33.829 33.1831 33.829C33.8772 33.829 34.53 34.0994 35.0209 34.5885C35.1225 34.6902 35.1828 34.8366 35.1828 34.9795C35.1828 35.1225 35.1208 35.2723 35.0157 35.3757H35.014ZM36.5589 33.7515C36.4504 33.8583 36.3092 33.9168 36.1593 33.9168C36.0095 33.9168 35.8665 33.8583 35.7598 33.7515C35.0725 33.0642 34.1562 32.6853 33.1814 32.6853C32.2065 32.6853 31.2902 33.0642 30.603 33.7515C30.4962 33.8583 30.355 33.9168 30.2034 33.9168C30.0518 33.9168 29.9123 33.8582 29.8055 33.7532C29.697 33.6447 29.6385 33.5034 29.6385 33.3519C29.6385 33.2003 29.697 33.0591 29.8038 32.9523C30.7046 32.0515 31.9034 31.5554 33.1814 31.5554C34.4594 31.5554 35.6581 32.0515 36.5589 32.9523C36.6657 33.0591 36.7243 33.2003 36.7243 33.3519C36.7243 33.5034 36.6657 33.6447 36.5589 33.7515V33.7515ZM38.2124 32.0963C38.1091 32.1996 37.9609 32.2616 37.8197 32.2616H37.8076C37.6612 32.2616 37.5183 32.2013 37.4115 32.0928C36.2851 30.9664 34.7832 30.3446 33.1831 30.3446C31.583 30.3446 30.0794 30.9664 28.9512 32.0945C28.8496 32.1962 28.6963 32.2599 28.5517 32.2599C28.407 32.2599 28.2554 32.1979 28.1503 32.0911C28.0504 31.9895 27.9867 31.8379 27.9867 31.6932C27.9867 31.5486 28.047 31.397 28.1538 31.2919C29.4938 29.9519 31.2799 29.213 33.1831 29.213C35.0863 29.213 36.8724 29.9519 38.2141 31.2936C38.3157 31.3953 38.3795 31.5486 38.3795 31.6932C38.3795 31.8379 38.3157 31.9912 38.2141 32.0928L38.2124 32.0963Z" fill="white"/>
</svg>
