<svg width="80" height="80" viewBox="0 0 80 80" fill="none" xmlns="http://www.w3.org/2000/svg">
	<path fill-rule="evenodd" clip-rule="evenodd"
		d="M26.666 10.4995C21.4193 10.4995 17.166 14.7528 17.166 19.9995V34.8338H36.6667C42.4657 34.8338 47.1667 39.5348 47.1667 45.3338V52.8328H63.3327C68.5794 52.8328 72.8327 48.5796 72.8327 43.3328V19.9995C72.8327 14.7528 68.5794 10.4995 63.3327 10.4995H26.666ZM57.6998 43.0395C59.1605 43.6008 60.7996 42.8717 61.3609 41.4111C61.9222 39.9504 61.1931 38.3113 59.7325 37.75C56.4525 36.4896 53.5712 34.143 51.6766 30.8614C49.782 27.5798 49.1904 23.9113 49.7388 20.4405C49.9831 18.8949 48.9281 17.4439 47.3825 17.1997C45.8368 16.9554 44.3859 18.0104 44.1416 19.5561C43.398 24.2617 44.2024 29.2491 46.7691 33.6947C49.3358 38.1404 53.2528 41.3307 57.6998 43.0395ZM61.5017 31.5828C62.9283 32.226 64.6061 31.591 65.2493 30.1645C65.8925 28.738 65.2574 27.0602 63.8309 26.417C63.0036 26.044 62.2837 25.42 61.793 24.5701C61.3023 23.7201 61.1219 22.7847 61.2125 21.8817C61.3687 20.3247 60.2332 18.9359 58.6762 18.7796C57.1192 18.6234 55.7304 19.7589 55.5741 21.3159C55.3689 23.3612 55.7816 25.4913 56.8855 27.4034C57.9895 29.3155 59.6278 30.7379 61.5017 31.5828Z"
		fill="#CFCFCF" />
	<path
		d="M16.6657 39.1665C13.2599 39.1665 10.499 41.9274 10.499 45.3332V54.9995C10.499 58.4053 13.2599 61.1662 16.6657 61.1662H36.6657C40.0714 61.1662 42.8324 58.4053 42.8324 54.9995V45.3332C42.8324 41.9274 40.0714 39.1665 36.6657 39.1665H16.6657Z"
		fill="#CFCFCF" />
	<path fill-rule="evenodd" clip-rule="evenodd"
		d="M7.16602 66.6665C7.16602 65.1017 8.43454 63.8332 9.99935 63.8332H43.3327C44.8975 63.8332 46.166 65.1017 46.166 66.6665C46.166 68.2313 44.8975 69.4998 43.3327 69.4998H9.99935C8.43454 69.4998 7.16602 68.2313 7.16602 66.6665Z"
		fill="#CFCFCF" />
</svg>
