<svg width="81" height="80" viewBox="0 0 81 80" fill="none" xmlns="http://www.w3.org/2000/svg">
	<circle cx="40.5" cy="40" r="39" stroke="white" stroke-width="2" />
	<path fill-rule="evenodd" clip-rule="evenodd"
		d="M39.9969 23.6998C37.622 23.6998 35.6969 25.625 35.6969 27.9998V39.9998C35.6969 42.3746 37.622 44.2998 39.9969 44.2998C42.3717 44.2998 44.2969 42.3746 44.2969 39.9998V27.9998C44.2969 25.625 42.3717 23.6998 39.9969 23.6998ZM32.2969 27.9998C32.2969 23.7472 35.7443 20.2998 39.9969 20.2998C44.2495 20.2998 47.6969 23.7472 47.6969 27.9998V39.9998C47.6969 44.2524 44.2495 47.6998 39.9969 47.6998C35.7443 47.6998 32.2969 44.2524 32.2969 39.9998V27.9998Z"
		fill="white" />
	<path fill-rule="evenodd" clip-rule="evenodd"
		d="M27.9969 36.2998C28.9358 36.2998 29.6969 37.0609 29.6969 37.9998V39.9998C29.6969 45.6883 34.3083 50.2998 39.9969 50.2998C45.6854 50.2998 50.2969 45.6883 50.2969 39.9998V37.9998C50.2969 37.0609 51.058 36.2998 51.9969 36.2998C52.9358 36.2998 53.6969 37.0609 53.6969 37.9998V39.9998C53.6969 47.5661 47.5632 53.6998 39.9969 53.6998C32.4306 53.6998 26.2969 47.5661 26.2969 39.9998V37.9998C26.2969 37.0609 27.058 36.2998 27.9969 36.2998Z"
		fill="white" />
	<path fill-rule="evenodd" clip-rule="evenodd"
		d="M39.9969 50.2998C40.9358 50.2998 41.6969 51.0609 41.6969 51.9998V57.9998C41.6969 58.9387 40.9358 59.6998 39.9969 59.6998C39.058 59.6998 38.2969 58.9387 38.2969 57.9998V51.9998C38.2969 51.0609 39.058 50.2998 39.9969 50.2998Z"
		fill="white" />
</svg>
