<svg width="41" height="41" viewBox="0 0 41 41" fill="none" xmlns="http://www.w3.org/2000/svg">
    <path fill-rule="evenodd" clip-rule="evenodd"
        d="M3.45996 10.4993C3.45996 7.55383 5.84778 5.16602 8.79329 5.16602H32.1266C35.0722 5.16602 37.46 7.55383 37.46 10.4993V18.8327C37.46 21.7782 35.0722 24.166 32.1266 24.166H27.7074C26.6029 24.166 25.7074 23.2706 25.7074 22.166C25.7074 21.0614 26.6029 20.166 27.7074 20.166H32.1266C32.863 20.166 33.46 19.5691 33.46 18.8327V10.4993C33.46 9.76297 32.863 9.16602 32.1266 9.16602H8.79329C8.05691 9.16602 7.45996 9.76297 7.45996 10.4993V18.8327C7.45996 19.5691 8.05691 20.166 8.79329 20.166H13.4603C14.5649 20.166 15.4603 21.0614 15.4603 22.166C15.4603 23.2706 14.5649 24.166 13.4603 24.166H8.79329C5.84778 24.166 3.45996 21.7782 3.45996 18.8327V10.4993Z"
        fill="#5D80ED" />
    <path fill-rule="evenodd" clip-rule="evenodd"
        d="M27.7074 26.5851C28.4885 27.3661 28.4886 28.6324 27.7076 29.4135L21.8749 35.2468C21.4998 35.6219 20.9911 35.8327 20.4607 35.8327C19.9303 35.8327 19.4216 35.622 19.0465 35.247L13.2125 29.4136C12.4314 28.6326 12.4313 27.3663 13.2123 26.5852C13.9933 25.8041 15.2597 25.8041 16.0408 26.5851L18.4606 29.0046V15.4993C18.4606 14.3948 19.356 13.4993 20.4606 13.4993C21.5652 13.4993 22.4606 14.3948 22.4606 15.4993V29.0039L24.879 26.5852C25.66 25.8041 26.9263 25.8041 27.7074 26.5851Z"
        fill="#5D80ED" />
</svg>
