<svg width="124" height="124" viewBox="0 0 124 124" fill="none" xmlns="http://www.w3.org/2000/svg">
	<circle cx="62" cy="62.0001" r="62" fill="#3C455D" />
	<path fill-rule="evenodd" clip-rule="evenodd"
		d="M56.7815 83.559C57.6742 83.3888 58.495 82.9541 59.1376 82.3115L83.7956 57.6535C87.6488 53.8004 87.6488 47.5532 83.7956 43.7L80.1198 40.0241C76.2666 36.1709 70.0194 36.1709 66.1662 40.0241L41.5082 64.6821C40.8656 65.3247 40.431 66.1456 40.2607 67.0383L37.6165 80.9008C37.3352 82.3756 37.8023 83.8941 38.864 84.9558C39.9256 86.0174 41.4441 86.4846 42.9189 86.2033L56.7815 83.559ZM44.7137 67.8876L42.0695 81.7502L55.9321 79.106L76.5828 58.4553L65.3644 47.237L44.7137 67.8876ZM68.57 44.0314L79.7883 55.2498L80.5901 54.448C82.6729 52.3652 82.6729 48.9883 80.5901 46.9055L76.9142 43.2296C74.8314 41.1469 71.4545 41.1469 69.3717 43.2296L68.57 44.0314Z"
		fill="white" />
</svg>
