<svg width="80" height="80" viewBox="0 0 80 80" fill="none" xmlns="http://www.w3.org/2000/svg">
	<path fill-rule="evenodd" clip-rule="evenodd"
		d="M16.666 13.833C11.4193 13.833 7.16602 18.0863 7.16602 23.333V56.6663C7.16602 61.913 11.4193 66.1663 16.666 66.1663H63.3327C68.5794 66.1663 72.8327 61.913 72.8327 56.6663V23.333C72.8327 18.0863 68.5794 13.833 63.3327 13.833H16.666ZM12.8327 23.333C12.8327 21.2159 14.5489 19.4997 16.666 19.4997H63.3327C65.4498 19.4997 67.166 21.2159 67.166 23.333V48.833H12.8327V23.333ZM12.8327 54.4997V56.6663C12.8327 58.7834 14.5489 60.4997 16.666 60.4997H63.3327C65.4498 60.4997 67.166 58.7834 67.166 56.6663V54.4997H12.8327Z"
		fill="#2A2A2A" />
</svg>
