<svg width="80" height="80" viewBox="0 0 80 80" fill="none" xmlns="http://www.w3.org/2000/svg">
	<path
		d="M40.0005 10.9995C33.0663 10.9995 27.445 16.6208 27.445 23.5551C27.445 30.4893 33.0663 36.1106 40.0005 36.1106C46.9348 36.1106 52.5561 30.4893 52.5561 23.5551C52.5561 16.6208 46.9348 10.9995 40.0005 10.9995Z"
		fill="#3C5AAA" />
	<path
		d="M40.7393 40.4461C34.9684 40.4461 29.6043 41.777 25.5845 44.0741C21.645 46.3253 18.4615 49.867 18.4615 54.3906L18.4611 54.7199C18.4554 57.5295 18.4472 61.5576 21.9193 64.4301C23.6238 65.8402 25.9432 66.79 28.9273 67.4037C31.9225 68.0196 35.7792 68.335 40.7393 68.335C45.6994 68.335 49.5561 68.0196 52.5513 67.4037C55.5354 66.79 57.8548 65.8402 59.5592 64.4301C63.0314 61.5576 63.0232 57.5295 63.0175 54.7199L63.0171 54.3906C63.0171 49.867 59.8336 46.3253 55.8941 44.0741C51.8743 41.777 46.5102 40.4461 40.7393 40.4461Z"
		fill="#3C5AAA" />
	<path
		d="M67.3502 54.3895C67.3502 48.1356 63.2967 43.6395 59.0742 40.9344C62.2857 41.2183 65.24 42.0909 67.5808 43.4285C70.4016 45.0405 72.8054 47.6484 72.8054 51.0686L72.8059 51.3263C72.8116 53.2617 72.8207 56.3018 70.2069 58.4642C69.3124 59.2042 68.2075 59.7626 66.8965 60.1809C67.3638 58.0942 67.3563 56.2017 67.3515 54.9541L67.3507 54.71L67.3502 54.3895Z"
		fill="#3C5AAA" />
	<path
		d="M22.5498 40.8416C18.2756 43.5362 14.1286 48.0635 14.1286 54.389L14.1282 54.7095L14.1274 54.9536C14.1222 56.2838 14.1141 58.3472 14.6816 60.5974C12.66 60.1589 11.0269 59.4838 9.7939 58.4637C7.18008 56.3013 7.18913 53.2612 7.1949 51.3258L7.19542 51.0681C7.19542 47.6479 9.59914 45.04 12.42 43.428C15.1504 41.8678 18.7156 40.9402 22.5498 40.8416Z"
		fill="#3C5AAA" />
	<path
		d="M61.667 22.5002C57.5249 22.5002 54.167 25.858 54.167 30.0002C54.167 34.1423 57.5249 37.5002 61.667 37.5002C65.8091 37.5002 69.167 34.1423 69.167 30.0002C69.167 25.858 65.8091 22.5002 61.667 22.5002Z"
		fill="#3C5AAA" />
	<path
		d="M10.8337 30.0002C10.8337 25.858 14.1915 22.5002 18.3337 22.5002C22.4758 22.5002 25.8337 25.858 25.8337 30.0002C25.8337 34.1423 22.4758 37.5002 18.3337 37.5002C14.1915 37.5002 10.8337 34.1423 10.8337 30.0002Z"
		fill="#3C5AAA" />
</svg>
