<svg width="54" height="54" viewBox="0 0 54 54" fill="none" xmlns="http://www.w3.org/2000/svg">
<g opacity="0.5">
<rect width="54" height="54" rx="15" fill="#C4C4C4"/>
<g clip-path="url(#clip0_2248_6274)">
<path d="M39.1396 26.55C39.795 25.3185 40.1384 23.945 40.1396 22.55C40.1215 20.6789 39.4992 18.8639 38.3656 17.3752C37.2319 15.8866 35.6476 14.8042 33.8487 14.2893C32.0498 13.7743 30.1327 13.8545 28.3831 14.5178C26.6335 15.181 25.145 16.3919 24.1396 17.97C22.9055 17.5216 21.5818 17.3761 20.2798 17.5458C18.9777 17.7155 17.7355 18.1953 16.6576 18.945C15.5796 19.6947 14.6974 20.6923 14.0852 21.8538C13.473 23.0154 13.1487 24.307 13.1396 25.62C13.1368 26.6918 13.3511 27.7532 13.7696 28.74C12.4353 29.3237 11.3435 30.3503 10.6788 31.6462C10.0142 32.9421 9.8176 34.4278 10.1222 35.852C10.4268 37.2762 11.2139 38.5515 12.3505 39.4622C13.487 40.3729 14.9032 40.8632 16.3596 40.85H35.5496C37.2598 40.8703 38.9267 40.3125 40.2802 39.2669C41.6336 38.2213 42.5943 36.7492 43.0063 35.0893C43.4184 33.4294 43.2578 31.6789 42.5505 30.1217C41.8432 28.5645 40.6307 27.2918 39.1096 26.51L39.1396 26.55Z" fill="#991B1E"/>
<path d="M17.0602 26.98C17.0602 25.98 17.0602 25.12 16.9902 24.41H19.1202L19.2402 25.5C19.5065 25.0947 19.8727 24.7648 20.3037 24.5424C20.7346 24.3199 21.2156 24.2123 21.7002 24.23C22.1669 24.2061 22.6298 24.3242 23.028 24.5687C23.4261 24.8133 23.7407 25.1729 23.9302 25.6C24.1962 25.2055 24.5357 24.866 24.9302 24.6C25.4021 24.3323 25.9378 24.1975 26.4802 24.21C28.0502 24.21 29.2302 25.3 29.2302 27.71V32.46H26.8902V28.11C26.8902 26.94 26.5102 26.26 25.7002 26.26C25.4442 26.2656 25.1963 26.3504 24.9904 26.5026C24.7845 26.6548 24.6307 26.867 24.5502 27.11C24.4823 27.3165 24.4486 27.5327 24.4502 27.75V32.47H21.9702V27.96C21.9702 26.96 21.6002 26.24 20.8002 26.24C20.5336 26.251 20.2769 26.3444 20.0655 26.5074C19.8542 26.6704 19.6986 26.8949 19.6202 27.15C19.5481 27.352 19.5142 27.5656 19.5202 27.78V32.48H17.0602V26.98Z" fill="white"/>
<path d="M32.1202 24.4099L33.3402 28.4099C33.4702 28.8899 33.6402 29.4799 33.7402 29.9099H33.7902C33.9002 29.4799 34.0302 28.9099 34.1502 28.4099L35.1502 24.4099H37.8602L35.9702 29.7199C34.8002 32.9299 33.9702 34.2099 33.1002 35.0199C32.4111 35.6142 31.5627 35.9931 30.6602 36.1099L30.1202 33.9799C30.5104 33.9061 30.8834 33.7602 31.2202 33.5499C31.6312 33.3045 31.9749 32.9609 32.2202 32.5499C32.2999 32.4463 32.3453 32.3205 32.3502 32.1899C32.348 32.0462 32.3102 31.9054 32.2402 31.7799L29.2402 24.3999L32.1202 24.4099Z" fill="white"/>
</g>
</g>
<defs>
<clipPath id="clip0_2248_6274">
<rect width="33.25" height="26.89" fill="white" transform="translate(10 14)"/>
</clipPath>
</defs>
</svg>
