<svg width="54" height="54" viewBox="0 0 54 54" fill="none" xmlns="http://www.w3.org/2000/svg">
<g opacity="0.5">
<rect width="54" height="54" rx="15" fill="#C4C4C4"/>
<path d="M17 31H37V33H17V31ZM18.15 26.95L19 25.47L19.85 26.95L21.15 26.2L20.3 24.72H22V23.22H20.3L21.15 21.75L19.85 21L19 22.47L18.15 21L16.85 21.75L17.7 23.22H16V24.72H17.7L16.85 26.2L18.15 26.95ZM24.85 26.2L26.15 26.95L27 25.47L27.85 26.95L29.15 26.2L28.3 24.72H30V23.22H28.3L29.15 21.75L27.85 21L27 22.47L26.15 21L24.85 21.75L25.7 23.22H24V24.72H25.7L24.85 26.2ZM38 23.22H36.3L37.15 21.75L35.85 21L35 22.47L34.15 21L32.85 21.75L33.7 23.22H32V24.72H33.7L32.85 26.2L34.15 26.95L35 25.47L35.85 26.95L37.15 26.2L36.3 24.72H38V23.22Z" fill="white"/>
</g>
</svg>
