<svg width="64" height="64" viewBox="0 0 64 64" fill="none" xmlns="http://www.w3.org/2000/svg">
    <path fill-rule="evenodd" clip-rule="evenodd" d="M31.4666 5.86426C32.6449 5.86426 33.6 6.81938 33.6 7.99759V12.5309H50.1509C55.6069 12.5309 60 16.9857 60 22.4438V41.5514C60 47.0095 55.6069 51.4643 50.1509 51.4643H33.6V55.9976C33.6 57.1758 32.6449 58.1309 31.4666 58.1309C30.2884 58.1309 29.3333 57.1758 29.3333 55.9976V7.99759C29.3333 6.81938 30.2884 5.86426 31.4666 5.86426ZM50.1509 47.1976C53.2175 47.1976 55.7333 44.6863 55.7333 41.5514L55.7333 22.4438C55.7333 19.3089 53.2175 16.7976 50.1509 16.7976H33.6V47.1976H50.1509Z" fill="#636D8A"/>
    <path d="M13.0496 12.5309H25.8666V16.7976H13.0496C9.98302 16.7976 7.46717 19.3089 7.46717 22.4438V41.5514C7.46717 44.6863 9.98302 47.1976 13.0496 47.1976H25.8666V51.4643H13.0496C7.59355 51.4643 3.2005 47.0095 3.2005 41.5514V22.4438C3.2005 16.9857 7.59355 12.5309 13.0496 12.5309Z" fill="#636D8A"/>
</svg>
