<svg width="64" height="64" viewBox="0 0 64 64" fill="none" xmlns="http://www.w3.org/2000/svg">
    <path fill-rule="evenodd" clip-rule="evenodd"
        d="M64 46.666C64 53.2934 58.6274 58.666 52 58.666C45.3726 58.666 40 53.2934 40 46.666C40 40.0386 45.3726 34.666 52 34.666C58.6274 34.666 64 40.0386 64 46.666ZM51.9988 38.2651C53.1586 38.2651 54.0988 39.2053 54.0988 40.3651V44.5648H58.7273C59.8871 44.5648 60.8273 45.505 60.8273 46.6648C60.8273 47.8246 59.8871 48.7648 58.7273 48.7648H54.0988V53.0931C54.0988 54.2529 53.1586 55.1931 51.9988 55.1931C50.839 55.1931 49.8988 54.2529 49.8988 53.0931V48.7648H45.9994C44.8396 48.7648 43.8994 47.8246 43.8994 46.6648C43.8994 45.505 44.8396 44.5648 45.9994 44.5648H49.8988V40.3651C49.8988 39.2053 50.839 38.2651 51.9988 38.2651Z"
        fill="white" />
    <path
        d="M33.6007 8.00052C33.6007 6.82231 32.6455 5.86719 31.4673 5.86719C30.2891 5.86719 29.334 6.82231 29.334 8.00052V56.0005C29.334 57.1787 30.2891 58.1339 31.4673 58.1339C32.6455 58.1339 33.6007 57.1787 33.6007 56.0005V51.4672H38.1376C37.6722 50.123 37.3968 48.69 37.3435 47.2005H33.6007V16.8005H50.9521C54.0187 16.8005 56.5345 19.3118 56.5345 22.4467V32.7142C58.0862 33.2181 59.5245 33.9736 60.8012 34.9326V22.4467C60.8012 16.9886 56.4081 12.5339 50.9521 12.5339H33.6007V8.00052Z"
        fill="white" />
    <path
        d="M25.8673 12.5339H13.0502C7.59422 12.5339 3.20117 16.9886 3.20117 22.4467V41.5543C3.20117 47.0125 7.59422 51.4672 13.0502 51.4672H25.8673V47.2005H13.0502C9.98369 47.2005 7.46784 44.6892 7.46784 41.5543V22.4467C7.46784 19.3118 9.98369 16.8005 13.0502 16.8005H25.8673V12.5339Z"
        fill="white" />
</svg>
