<svg width="80" height="80" viewBox="2 2 80 80" fill="none" xmlns="http://www.w3.org/2000/svg">
    <g filter="url(#filter0_dd_12491_147829)" transform="translate(-20, -4)">
        <mask id="path-1-inside-1_12491_147829" fill="white">
            <path
                d="M22 46C22 23.9086 39.9086 6 62 6C84.0914 6 102 23.9086 102 46C102 68.0914 84.0914 86 62 86C39.9086 86 22 68.0914 22 46Z" />
        </mask>
        <path
            d="M22 46C22 23.9086 39.9086 6 62 6C84.0914 6 102 23.9086 102 46C102 68.0914 84.0914 86 62 86C39.9086 86 22 68.0914 22 46Z"
            fill="#151C32" fill-opacity="0.8" shape-rendering="crispEdges" />
        <path
            d="M62 84C41.0132 84 24 66.9868 24 46H20C20 69.196 38.804 88 62 88V84ZM100 46C100 66.9868 82.9868 84 62 84V88C85.196 88 104 69.196 104 46H100ZM62 8C82.9868 8 100 25.0132 100 46H104C104 22.804 85.196 4 62 4V8ZM62 4C38.804 4 20 22.804 20 46H24C24 25.0132 41.0132 8 62 8V4Z"
            fill="#FFFFFF" mask="url(#path-1-inside-1_12491_147829)" />
        <path fill-rule="evenodd" clip-rule="evenodd"
            d="M46.5801 31.6777L54.6594 47.8822L56.1982 50.9579C56.5177 51.5964 56.3754 52.3694 55.8495 52.8523C55.3235 53.3352 54.5413 53.4112 53.9322 53.0385L51.9427 51.8212C51.2839 51.418 50.7053 51.0961 50.1666 50.9204C49.6491 50.7516 49.3043 50.7628 49.0366 50.8671C48.4261 51.105 47.9187 51.6619 47.7824 52.5734L47.7665 52.6796C47.6862 53.2162 47.7902 53.7643 48.0615 54.2342L49.1004 56.0336C53.0318 62.8431 62.1911 65.1033 69.6372 60.8044C77.0832 56.5054 79.7054 47.4431 75.774 40.6336L75.7721 40.6304L73.6111 36.8674C73.1933 36.1847 72.3067 35.9583 71.6122 36.3593C71.3961 36.484 71.3221 36.7602 71.4469 36.9763L72.2346 38.3406C72.6764 39.1059 72.4142 40.0844 71.6489 40.5263C70.8836 40.9681 69.9051 40.7059 69.4633 39.9406L67.518 36.5713C67.2142 36.0451 66.5412 35.8648 66.015 36.1686C65.4887 36.4724 65.3084 37.1454 65.6122 37.6716L67.1093 40.2647C67.5511 41.0299 67.2889 42.0085 66.5237 42.4503C65.7584 42.8921 64.7799 42.6299 64.338 41.8647L62.0098 37.8321C61.6126 37.1441 60.7329 36.9084 60.045 37.3056C59.357 37.7028 59.1213 38.5825 59.5185 39.2705L61.5072 42.715C61.9335 43.4535 61.7058 44.3966 60.9894 44.8591C60.2731 45.3217 59.3198 45.1411 58.8222 44.4487L48.75 30.4324L48.7349 30.4097C48.4136 29.9288 47.7742 29.7797 47.2733 30.0689C47.0233 30.2133 46.7655 30.5079 46.6235 30.8811C46.4852 31.2445 46.5128 31.5227 46.5801 31.6777ZM63.1154 34.5521C63.455 34.0958 63.8911 33.6998 64.415 33.3973C66.0858 32.4326 68.1349 32.7167 69.4817 33.9599C69.6445 33.8228 69.8215 33.6981 70.0122 33.588C72.2223 32.3119 75.0474 33.043 76.3611 35.231L76.3692 35.2443L78.5452 39.0336C78.5456 39.0342 78.5459 39.0348 78.5463 39.0354C83.4499 47.5311 80.0524 58.4861 71.2372 63.5756C62.4213 68.6655 51.2342 66.1295 46.3291 57.6336L45.2902 55.8342C44.657 54.7375 44.4143 53.4585 44.6017 52.2061L44.6176 52.0999C44.9136 50.1213 46.1331 48.5642 47.8747 47.8855C49.0206 47.4389 50.1366 47.5601 51.0671 47.849L43.6948 33.0623L43.6861 33.0437C43.1653 31.9282 43.261 30.7196 43.6328 29.7428C44.0045 28.7662 44.7114 27.853 45.6733 27.2977C47.6256 26.1705 50.1152 26.7439 51.3787 28.6068L56.7968 36.1466C57.1882 35.4995 57.7438 34.9392 58.445 34.5344C59.943 33.6695 61.723 33.7352 63.1154 34.5521Z"
            fill="white" />
    </g>
</svg>