<svg width="81" height="80" viewBox="0 0 81 80" fill="none" xmlns="http://www.w3.org/2000/svg">
	<path fill-rule="evenodd" clip-rule="evenodd" d="M17.1663 13.835C11.9196 13.835 7.66632 18.0883 7.66632 23.335V56.6683C7.66632 61.915 11.9196 66.1683 17.1663 66.1683H63.833C69.0797 66.1683 73.333 61.915 73.333 56.6683V23.335C73.333 18.0883 69.0797 13.835 63.833 13.835H17.1663ZM13.333 23.335C13.333 21.2179 15.0492 19.5016 17.1663 19.5016H63.833C65.9501 19.5016 67.6663 21.2179 67.6663 23.335V48.835H13.333V23.335ZM13.333 54.5016V56.6683C13.333 58.7854 15.0492 60.5016 17.1663 60.5016H63.833C65.9501 60.5016 67.6663 58.7854 67.6663 56.6683V54.5016H13.333Z" fill="#636D8A"/>
</svg>
