<svg width="24" height="24" viewBox="0 0 24 24" fill="none" xmlns="http://www.w3.org/2000/svg">
    <path d="M18.1512 6.15128C18.6198 5.68265 19.3796 5.68265 19.8482 6.15128C20.3169 6.61991 20.3169 7.3797 19.8482 7.84833L15.6968 11.9998L19.8482 16.1513C20.3169 16.6199 20.3169 17.3797 19.8482 17.8483C19.3796 18.317 18.6198 18.317 18.1512 17.8483L13.1512 12.8483C12.6825 12.3797 12.6825 11.6199 13.1512 11.1513L18.1512 6.15128Z"
          fill="#636D8A"/>
    <path d="M10.1512 6.15128C10.6198 5.68265 11.3796 5.68265 11.8482 6.15128C12.3169 6.61991 12.3169 7.3797 11.8482 7.84833L7.69676 11.9998L11.8482 16.1513C12.3169 16.6199 12.3169 17.3797 11.8482 17.8483C11.3796 18.317 10.6198 18.317 10.1512 17.8483L5.15118 12.8483C4.68255 12.3797 4.68255 11.6199 5.15118 11.1513L10.1512 6.15128Z"
          fill="#636D8A"/>
</svg>
