<svg width="124" height="124" viewBox="0 0 124 124" fill="none" xmlns="http://www.w3.org/2000/svg">
    <path fill-rule="evenodd" clip-rule="evenodd"
        d="M94 76.667C94 83.2944 88.6274 88.667 82 88.667C75.3726 88.667 70 83.2944 70 76.667C70 70.0396 75.3726 64.667 82 64.667C88.6274 64.667 94 70.0396 94 76.667ZM81.9988 68.2661C83.1586 68.2661 84.0988 69.2063 84.0988 70.3661V74.5658H88.7273C89.8871 74.5658 90.8273 75.506 90.8273 76.6658C90.8273 77.8256 89.8871 78.7658 88.7273 78.7658H84.0988V83.094C84.0988 84.2538 83.1586 85.194 81.9988 85.194C80.839 85.194 79.8988 84.2538 79.8988 83.094V78.7658H75.9994C74.8396 78.7658 73.8994 77.8256 73.8994 76.6658C73.8994 75.506 74.8396 74.5658 75.9994 74.5658H79.8988V70.3661C79.8988 69.2063 80.839 68.2661 81.9988 68.2661Z"
        fill="white" />
    <path
        d="M63.6 38.0005C63.6 36.8223 62.6449 35.8672 61.4667 35.8672C60.2885 35.8672 59.3334 36.8223 59.3334 38.0005V86.0005C59.3334 87.1787 60.2885 88.1339 61.4667 88.1339C62.6449 88.1339 63.6 87.1787 63.6 86.0005V81.4672H68.137C67.6716 80.123 67.3962 78.69 67.3429 77.2005H63.6V46.8005H80.9515C84.018 46.8005 86.5339 49.3118 86.5339 52.4467V62.7142C88.0856 63.2181 89.5239 63.9736 90.8006 64.9326V52.4467C90.8006 46.9886 86.4075 42.5339 80.9515 42.5339H63.6V38.0005Z"
        fill="white" />
    <path
        d="M55.8667 42.5339H43.0496C37.5936 42.5339 33.2006 46.9886 33.2006 52.4467V71.5543C33.2006 77.0125 37.5936 81.4672 43.0496 81.4672H55.8667V77.2005H43.0496C39.9831 77.2005 37.4672 74.6892 37.4672 71.5543V52.4467C37.4672 49.3118 39.9831 46.8005 43.0496 46.8005H55.8667V42.5339Z"
        fill="white" />
</svg>
