<svg width="32" height="32" viewBox="0 0 32 32" fill="none" xmlns="http://www.w3.org/2000/svg">
    <path d="M26 17.3335C29.3137 17.3335 32 20.0198 32 23.3335C31.9999 26.6471 29.3137 29.3335 26 29.3335C22.6863 29.3335 20.0001 26.6471 20 23.3335C20 20.0198 22.6863 17.3335 26 17.3335ZM14.9316 3.6001C15.5206 3.60031 15.998 4.07753 15.998 4.6665V27.5991C15.998 28.1881 15.5206 28.6663 14.9316 28.6665C14.3425 28.6665 13.8643 28.1882 13.8643 27.5991V4.6665C13.8643 4.0774 14.3425 3.6001 14.9316 3.6001ZM25.999 19.1333C25.4193 19.1335 24.9492 19.6033 24.9492 20.1831V22.2827H23C22.4202 22.2827 21.9503 22.7527 21.9502 23.3325C21.9502 23.9124 22.4201 24.3823 23 24.3823H24.9492V26.5464C24.9492 27.1262 25.4193 27.597 25.999 27.5972C26.5789 27.5972 27.0498 27.1263 27.0498 26.5464V24.3823H29.3633C29.9432 24.3823 30.4141 23.9124 30.4141 23.3325C30.4139 22.7527 29.9431 22.2827 29.3633 22.2827H27.0498V20.1831C27.0498 19.6032 26.5789 19.1333 25.999 19.1333ZM11.999 26.4009H5.33203C3.27038 26.4007 1.59879 24.7291 1.59863 22.6675V9.3335C1.59883 7.27188 3.27041 5.60024 5.33203 5.6001H11.999V26.4009ZM25.332 5.6001C27.3938 5.6001 29.0653 7.27174 29.0654 9.3335V16.3774C28.1274 15.9632 27.0894 15.7329 25.998 15.7329C21.8009 15.7331 18.3984 19.1363 18.3984 23.3335C18.3985 24.4247 18.6288 25.462 19.043 26.3999H17.5986V5.6001H25.332Z"
          fill="#5D80ED"/>
</svg>
