<svg width="32" height="32" viewBox="0 0 32 32" fill="none" xmlns="http://www.w3.org/2000/svg">
    <path d="M7.52659 10.6667H5.33333C4.59695 10.6667 4 10.0697 4 9.33332C4 8.59694 4.59695 7.99999 5.33333 7.99999H7.52659C8.10029 6.07233 9.88599 4.66666 12 4.66666C14.5773 4.66666 16.6667 6.75599 16.6667 9.33332C16.6667 11.9107 14.5773 14 12 14C9.88599 14 8.10029 12.5943 7.52659 10.6667Z"
          fill="#5D80ED"/>
    <path d="M20 18C17.4227 18 15.3333 20.0893 15.3333 22.6667C15.3333 25.244 17.4227 27.3333 20 27.3333C22.114 27.3333 23.8997 25.9276 24.4734 24H26.6667C27.403 24 28 23.403 28 22.6667C28 21.9303 27.403 21.3333 26.6667 21.3333H24.4734C23.8997 19.4057 22.114 18 20 18Z"
          fill="#5D80ED"/>
    <path d="M18.6667 10.6667H26.6667C27.403 10.6667 28 10.0697 28 9.33332C28 8.59694 27.403 7.99999 26.6667 7.99999H18.6666C18.7559 8.43048 18.8028 8.87649 18.8028 9.33345C18.8028 9.79032 18.6667 10.6667 18.6667 10.6667Z"
          fill="#5D80ED"/>
    <path d="M13.3334 21.3333C13.2441 21.7638 13.1972 22.2098 13.1972 22.6668C13.1972 23.1237 13.2441 23.5696 13.3333 24H5.33333C4.59695 24 4 23.403 4 22.6667C4 21.9303 4.59695 21.3333 5.33333 21.3333H13.3334Z"
          fill="#5D80ED"/>
</svg>
