<svg width="64" height="64" viewBox="0 0 64 64" fill="none" xmlns="http://www.w3.org/2000/svg">
    <path fill-rule="evenodd" clip-rule="evenodd"
        d="M33.9082 16.5332C32.9286 11.9611 28.8645 8.5332 23.9999 8.5332C19.1352 8.5332 15.0712 11.9611 14.0915 16.5332H10.6665C9.48833 16.5332 8.5332 17.4883 8.5332 18.6665C8.5332 19.8447 9.48833 20.7999 10.6665 20.7999H14.0915C15.0712 25.372 19.1352 28.7999 23.9999 28.7999C28.8645 28.7999 32.9286 25.372 33.9082 20.7999H53.3332C54.5114 20.7999 55.4665 19.8447 55.4665 18.6665C55.4665 17.4883 54.5114 16.5332 53.3332 16.5332H33.9082ZM18.1332 18.6665C18.1332 15.4265 20.7598 12.7999 23.9999 12.7999C27.2399 12.7999 29.8665 15.4265 29.8665 18.6665C29.8665 21.9066 27.2399 24.5332 23.9999 24.5332C20.7598 24.5332 18.1332 21.9066 18.1332 18.6665Z"
        fill="white" />
    <path fill-rule="evenodd" clip-rule="evenodd"
        d="M49.9082 43.1999C48.9286 38.6278 44.8645 35.1999 39.9999 35.1999C35.1352 35.1999 31.0712 38.6278 30.0915 43.1999H10.6665C9.48833 43.1999 8.5332 44.155 8.5332 45.3332C8.5332 46.5114 9.48833 47.4665 10.6665 47.4665H30.0915C31.0712 52.0386 35.1352 55.4665 39.9999 55.4665C44.8645 55.4665 48.9286 52.0386 49.9082 47.4665H53.3332C54.5114 47.4665 55.4665 46.5114 55.4665 45.3332C55.4665 44.155 54.5114 43.1999 53.3332 43.1999H49.9082ZM34.1332 45.3332C34.1332 42.0931 36.7598 39.4665 39.9999 39.4665C43.2399 39.4665 45.8665 42.0931 45.8665 45.3332C45.8665 48.5733 43.2399 51.1999 39.9999 51.1999C36.7598 51.1999 34.1332 48.5733 34.1332 45.3332Z"
        fill="white" />
</svg>
