<svg width="124" height="124" viewBox="0 0 124 124" fill="none" xmlns="http://www.w3.org/2000/svg">
    <circle cx="62" cy="62" r="62" fill="#3C455D" />
    <path
        d="M46.0003 56.6667C43.067 56.6667 40.667 59.0667 40.667 62.0001C40.667 64.9334 43.067 67.3334 46.0003 67.3334C48.9337 67.3334 51.3337 64.9334 51.3337 62.0001C51.3337 59.0667 48.9337 56.6667 46.0003 56.6667ZM78.0003 56.6667C75.067 56.6667 72.667 59.0667 72.667 62.0001C72.667 64.9334 75.067 67.3334 78.0003 67.3334C80.9337 67.3334 83.3337 64.9334 83.3337 62.0001C83.3337 59.0667 80.9337 56.6667 78.0003 56.6667ZM62.0003 56.6667C59.067 56.6667 56.667 59.0667 56.667 62.0001C56.667 64.9334 59.067 67.3334 62.0003 67.3334C64.9337 67.3334 67.3337 64.9334 67.3337 62.0001C67.3337 59.0667 64.9337 56.6667 62.0003 56.6667Z"
        fill="white" />
</svg>
