<svg width="378" height="330" viewBox="0 0 378 330" fill="none" xmlns="http://www.w3.org/2000/svg">
	<path d="M128.768 96.3847C123.038 104.487 118.799 113.757 116.462 123.777C87.3687 131.793 66 158.444 66 190.085C66 228.067 96.7905 258.858 134.772 258.858H197.177V258.676H252.669C263.678 258.676 273.985 255.667 282.811 250.427L128.768 96.3847Z" fill="#838CA6"/>
	<path d="M301.422 233.016C307.968 223.499 311.8 211.969 311.8 199.545C311.8 171.912 292.844 148.705 267.227 142.22V141.829C267.227 98.8448 233.015 63.999 190.812 63.999C174.374 63.999 159.149 69.2851 146.685 78.2792L301.422 233.016Z" fill="#838CA6"/>
	<path fill-rule="evenodd" clip-rule="evenodd" d="M94.0086 69.0789C98.2362 64.8513 105.091 64.8513 109.318 69.0789L287.62 247.381C291.848 251.609 291.848 258.463 287.62 262.691C283.393 266.918 276.538 266.918 272.311 262.691L94.0086 84.3885C89.781 80.1609 89.781 73.3065 94.0086 69.0789Z" fill="#838CA6"/>
</svg>
