<svg width="80" height="80" viewBox="0 0 80 80" fill="none" xmlns="http://www.w3.org/2000/svg">
	<path fill-rule="evenodd" clip-rule="evenodd"
		d="M26.666 10.5C21.4193 10.5 17.166 14.7533 17.166 20V34.8343H36.6667C42.4657 34.8343 47.1667 39.5353 47.1667 45.3343V52.8333H63.3327C68.5794 52.8333 72.8327 48.58 72.8327 43.3333V20C72.8327 14.7533 68.5794 10.5 63.3327 10.5H26.666ZM57.6998 43.04C59.1605 43.6013 60.7996 42.8722 61.3609 41.4116C61.9222 39.9509 61.1931 38.3118 59.7325 37.7505C56.4525 36.4901 53.5712 34.1435 51.6766 30.8619C49.782 27.5803 49.1904 23.9117 49.7388 20.441C49.9831 18.8954 48.9281 17.4444 47.3825 17.2002C45.8368 16.9559 44.3859 18.0109 44.1416 19.5565C43.398 24.2622 44.2024 29.2496 46.7691 33.6952C49.3358 38.1409 53.2528 41.3312 57.6998 43.04ZM61.5017 31.5833C62.9283 32.2265 64.6061 31.5915 65.2493 30.165C65.8925 28.7385 65.2574 27.0607 63.8309 26.4175C63.0036 26.0444 62.2837 25.4205 61.793 24.5706C61.3023 23.7206 61.1219 22.7852 61.2125 21.8822C61.3687 20.3252 60.2332 18.9364 58.6762 18.7801C57.1192 18.6239 55.7304 19.7594 55.5741 21.3164C55.3689 23.3617 55.7816 25.4918 56.8855 27.4039C57.9895 29.316 59.6278 30.7384 61.5017 31.5833Z"
		fill="#3C5AAA" />
	<path
		d="M16.6667 39.166C13.2609 39.166 10.5 41.9269 10.5 45.3327V54.999C10.5 58.4048 13.2609 61.1657 16.6667 61.1657H36.6667C40.0724 61.1657 42.8333 58.4048 42.8333 54.999V45.3327C42.8333 41.9269 40.0724 39.166 36.6667 39.166H16.6667Z"
		fill="#3C5AAA" />
	<path fill-rule="evenodd" clip-rule="evenodd"
		d="M7.16699 66.666C7.16699 65.1012 8.43552 63.8327 10.0003 63.8327H43.3337C44.8985 63.8327 46.167 65.1012 46.167 66.666C46.167 68.2308 44.8985 69.4993 43.3337 69.4993H10.0003C8.43552 69.4993 7.16699 68.2308 7.16699 66.666Z"
		fill="#3C5AAA" />
</svg>
