<svg width="40" height="41" viewBox="0 0 40 41" fill="none" xmlns="http://www.w3.org/2000/svg">
    <mask id="path-1-inside-1_3002_183" fill="white">
        <path
            d="M0 20.25C0 9.20431 8.95431 0.25 20 0.25C31.0457 0.25 40 9.20431 40 20.25C40 31.2957 31.0457 40.25 20 40.25C8.95431 40.25 0 31.2957 0 20.25Z" />
    </mask>
    <path
        d="M0 20.25C0 9.20431 8.95431 0.25 20 0.25C31.0457 0.25 40 9.20431 40 20.25C40 31.2957 31.0457 40.25 20 40.25C8.95431 40.25 0 31.2957 0 20.25Z"
        fill="#3AC9CC" />
    <path
        d="M20 40.25V39.25C9.50659 39.25 1 30.7434 1 20.25H0H-1C-1 31.848 8.40202 41.25 20 41.25V40.25ZM40 20.25H39C39 30.7434 30.4934 39.25 20 39.25V40.25V41.25C31.598 41.25 41 31.848 41 20.25H40ZM20 0.25V1.25C30.4934 1.25 39 9.75659 39 20.25H40H41C41 8.65202 31.598 -0.75 20 -0.75V0.25ZM20 0.25V-0.75C8.40202 -0.75 -1 8.65202 -1 20.25H0H1C1 9.75659 9.50659 1.25 20 1.25V0.25Z"
        fill="#3AC9CC" mask="url(#path-1-inside-1_3002_183)" />
    <path
        d="M18.9306 12.0502C18.4099 12.0502 17.9816 12.4602 17.9588 12.9804L17.8127 16.3141L16.2784 14.7798L16.3603 12.9104C16.4206 11.5346 17.5535 10.4502 18.9306 10.4502C20.2544 10.4502 21.3622 11.4548 21.4911 12.7724L21.8558 16.4981C21.9262 17.2182 22.5071 17.7818 23.229 17.8305L23.9076 17.8762C26.8388 18.0739 28.9059 20.8352 28.27 23.7033L28.0438 24.7232C27.938 25.2006 27.7834 25.657 27.5861 26.0874L26.3522 24.8536C26.4025 24.6981 26.4458 24.5391 26.4818 24.3768L26.7079 23.357C27.1318 21.4451 25.7539 19.6044 23.7999 19.4726L23.1213 19.4268C21.6189 19.3255 20.41 18.1526 20.2634 16.6539L19.8987 12.9282C19.85 12.43 19.4311 12.0502 18.9306 12.0502Z"
        fill="#2A2A2A" />
    <path fill-rule="evenodd" clip-rule="evenodd"
        d="M16.1192 18.4132L10.7343 13.0283C10.4219 12.7159 10.4219 12.2093 10.7343 11.8969C11.0467 11.5845 11.5533 11.5845 11.8657 11.8969L28.9657 28.9969C29.2781 29.3093 29.2781 29.8159 28.9657 30.1283C28.6533 30.4407 28.1467 30.4407 27.8343 30.1283L25.9841 28.2781C24.7653 29.3876 23.1499 30.0502 21.4063 30.0502H19.6383C17.5168 30.0502 15.5169 29.0599 14.231 27.3726L11.2646 23.4804C10.5076 22.4871 10.5804 21.092 11.4367 20.1829C12.3862 19.175 13.9662 19.1079 14.9977 20.0317L16.0086 20.9372L16.1192 18.4132ZM24.8511 27.1451C23.9259 27.9634 22.7132 28.4502 21.4063 28.4502H19.6383C18.0161 28.4502 16.4868 27.6929 15.5035 26.4027L12.5371 22.5105C12.2547 22.1399 12.2818 21.6192 12.6014 21.28C12.9557 20.9039 13.5453 20.8788 13.9302 21.2236L15.6401 22.7551C16.3669 23.4059 17.5233 22.9193 17.566 21.9446L17.6535 19.9475L24.8511 27.1451Z"
        fill="#2A2A2A" />
</svg>
