<svg width="64" height="64" viewBox="0 0 64 64" fill="none" xmlns="http://www.w3.org/2000/svg">
	<path fill-rule="evenodd" clip-rule="evenodd"
		d="M26.7815 53.5589C27.6742 53.3886 28.495 52.954 29.1376 52.3114L53.7956 27.6534C57.6488 23.8002 57.6488 17.553 53.7956 13.6998L50.1198 10.0239C46.2666 6.17074 40.0194 6.17074 36.1662 10.0239L11.5082 34.6819C10.8656 35.3245 10.431 36.1454 10.2607 37.0381L7.61649 50.9006C7.33517 52.3755 7.80232 53.8939 8.86398 54.9556C9.92565 56.0172 11.4441 56.4844 12.9189 56.2031L26.7815 53.5589ZM14.7137 37.8875L12.0695 51.75L25.9321 49.1058L46.5828 28.4551L35.3644 17.2368L14.7137 37.8875ZM38.57 14.0312L49.7883 25.2496L50.5901 24.4478C52.6729 22.365 52.6729 18.9881 50.5901 16.9053L46.9142 13.2295C44.8314 11.1467 41.4545 11.1467 39.3717 13.2295L38.57 14.0312Z"
		fill="white" />
</svg>
