<svg width="48" height="48" viewBox="0 0 48 48" fill="none" xmlns="http://www.w3.org/2000/svg">
	<path fill-rule="evenodd" clip-rule="evenodd"
		d="M4.30078 23.9998C4.30078 13.1198 13.1208 4.2998 24.0008 4.2998C34.8808 4.2998 43.7008 13.1198 43.7008 23.9998C43.7008 34.8798 34.8808 43.6998 24.0008 43.6998C13.1208 43.6998 4.30078 34.8798 4.30078 23.9998ZM25.7 13.9998C25.7 13.0609 24.9389 12.2998 24 12.2998C23.0611 12.2998 22.3 13.0609 22.3 13.9998L22.3 25.9998C22.3 26.9387 23.0611 27.6998 24 27.6998C24.9389 27.6998 25.7 26.9387 25.7 25.9998V13.9998ZM24 33.9998C22.9 33.9998 22 33.0998 22 31.9998C22 30.8998 22.9 29.9998 24 29.9998C25.1 29.9998 26 30.8998 26 31.9998C26 33.0998 25.1 33.9998 24 33.9998Z"
		fill="#FC9700" />
</svg>
