<svg width="64" height="65" viewBox="0 0 64 65" fill="none" xmlns="http://www.w3.org/2000/svg">
    <path d="M25.4109 20.0823C25.4109 16.4104 28.3876 13.4337 32.0595 13.4337H33.2897C35.9643 13.4337 38.2143 15.438 38.5222 18.0947C38.6664 19.3382 39.7913 20.2295 41.0348 20.0853C42.2783 19.9412 43.1695 18.8163 43.0254 17.5727C42.4524 12.6296 38.266 8.90039 33.2897 8.90039H32.0595C25.8839 8.90039 20.8776 13.9067 20.8776 20.0823V26.2781H25.4109V20.0823Z" fill="#2A2A2A"/>
    <path d="M11.5547 34.9142C11.5547 30.1453 15.4207 26.2793 20.1896 26.2793H43.2159C47.9848 26.2793 51.8508 30.1453 51.8508 34.9142V47.8665C51.8508 52.6354 47.9848 56.5014 43.2159 56.5014H20.1896C15.4207 56.5014 11.5547 52.6354 11.5547 47.8665V34.9142Z" fill="#2A2A2A"/>
</svg>
