<svg width="64" height="65" viewBox="0 0 64 65" fill="none" xmlns="http://www.w3.org/2000/svg">
    <g id="Top Label Left Icon">
        <g id="vector">
            <path
                d="M25.4109 20.0813C25.4109 16.4094 28.3876 13.4327 32.0595 13.4327H33.2897C35.9643 13.4327 38.2143 15.437 38.5222 18.0937C38.6664 19.3373 39.7913 20.2285 41.0348 20.0843C42.2783 19.9402 43.1695 18.8153 43.0254 17.5718C42.4524 12.6286 38.266 8.89941 33.2897 8.89941H32.0595C25.8839 8.89941 20.8776 13.9057 20.8776 20.0813V26.2771H25.4109V20.0813Z"
                fill="black" />
            <path
                d="M11.5547 34.9132C11.5547 30.1443 15.4207 26.2783 20.1896 26.2783H43.2159C47.9848 26.2783 51.8508 30.1443 51.8508 34.9132V47.8655C51.8508 52.6344 47.9848 56.5004 43.2159 56.5004H20.1896C15.4207 56.5004 11.5547 52.6344 11.5547 47.8655V34.9132Z"
                fill="black" />
        </g>
    </g>
</svg>
