<svg width="54" height="54" viewBox="0 0 54 54" fill="none" xmlns="http://www.w3.org/2000/svg">
    <path
        d="M0 15C0 6.71573 6.71573 0 15 0H39C47.2843 0 54 6.71573 54 15V39C54 47.2843 47.2843 54 39 54H15C6.71573 54 0 47.2843 0 39V15Z"
        fill="#595959" />
    <path
        d="M35.0003 25.6666C35.0003 26.5599 35.0003 27.4399 35.0003 28.3333C36.6003 28.3333 38.6803 28.3333 40.3337 28.3333C40.3337 27.4399 40.3337 26.5599 40.3337 25.6666C38.6803 25.6666 36.6003 25.6666 35.0003 25.6666Z"
        fill="#BDBDBD" />
    <path
        d="M32.3337 34.4799C33.6137 35.4266 35.2803 36.6799 36.6003 37.6666C37.1337 36.9599 37.667 36.2399 38.2003 35.5333C36.8803 34.5466 35.2137 33.2933 33.9337 32.3333C33.4003 33.0533 32.867 33.7733 32.3337 34.4799Z"
        fill="#BDBDBD" />
    <path
        d="M38.2003 18.4666C37.667 17.7599 37.1337 17.0399 36.6003 16.3333C35.2803 17.3199 33.6137 18.5733 32.3337 19.5333C32.867 20.2399 33.4003 20.9599 33.9337 21.6666C35.2137 20.7066 36.8803 19.4666 38.2003 18.4666Z"
        fill="#BDBDBD" />
    <path
        d="M16.3337 22.9999C14.867 22.9999 13.667 24.1999 13.667 25.6666V28.3333C13.667 29.7999 14.867 30.9999 16.3337 30.9999H17.667V36.3333H20.3337V30.9999H21.667L28.3337 34.9999V18.9999L21.667 22.9999H16.3337ZM23.0403 25.2799L25.667 23.7066V30.2933L23.0403 28.7199L22.4003 28.3333H16.3337V25.6666H22.4003L23.0403 25.2799Z"
        fill="#BDBDBD" />
    <path
        d="M31.667 26.9999C31.667 25.2266 30.8937 23.6266 29.667 22.5333V31.4533C30.8937 30.3733 31.667 28.7733 31.667 26.9999Z"
        fill="#BDBDBD" />
</svg>
